TITLE:   SCHNITT   EMMA KOPIE FR KOPIERWERK+VCC SCANNING AKT1 
001     AX    V     C        00:00:02:04 00:00:08:22 10:00:00:00 10:00:06:18 
* EFF_BLEND_GRAPHIC 
* FROM CLIP NAME:  STUDIO HH 
002     BL    V     C        00:00:00:00 00:00:00:03 10:00:06:18 10:00:06:21 
003     BL    V     C        00:00:00:00 00:00:00:00 10:00:06:21 10:00:06:21 
003  160      V     D    100 20:09:49:04 20:09:57:05 10:00:06:21 10:00:14:22 
* BLEND_DISSOLVE_LOG 
* TO CLIP NAME:  HELIKOPTERFLUG ST 
004  101      V     C        01:01:03:20 01:01:08:08 10:00:14:22 10:00:19:10 
* FROM CLIP NAME:  04/02/3 SK 
005  101      V     C        01:11:57:04 01:11:58:09 10:00:19:10 10:00:20:15 
* FROM CLIP NAME:  04/03/3 
006  101      V     C        01:01:09:12 01:01:12:09 10:00:20:15 10:00:23:12 
* FROM CLIP NAME:  04/02/3 SK 
007  101      V     C        01:12:25:22 01:12:33:18 10:00:23:12 10:00:31:08 
* FROM CLIP NAME:  04/03/5 
008  101      V     C        01:03:42:11 01:03:43:22 10:00:31:08 10:00:32:19 
* FROM CLIP NAME:  04/02/9 SK PU 
009  101      V     C        01:13:34:11 01:13:37:05 10:00:32:19 10:00:35:13 
* FROM CLIP NAME:  05/02/3 KLAPPE NICHT SYNC. 
010  101      V     C        01:15:17:00 01:15:29:06 10:00:35:13 10:00:47:19 
* FROM CLIP NAME:  05/01/4 
011  101      V     C        01:05:23:03 01:05:24:16 10:00:47:19 10:00:49:07 
* FROM CLIP NAME:  06/01/4 
012  101      V     C        01:10:40:15 01:10:46:02 10:00:49:07 10:00:54:19 
* FROM CLIP NAME:  06/02/7 
013  101      V     C        01:05:29:14 01:05:32:16 10:00:54:19 10:00:57:21 
* FROM CLIP NAME:  06/01/4 
014  101      V     C        01:10:15:15 01:10:18:18 10:00:57:21 10:01:00:24 
* FROM CLIP NAME:  06/02/6 
015  101      V     C        01:07:19:19 01:07:21:17 10:01:00:24 10:01:02:22 
* FROM CLIP NAME:  06/03/4 
016  101      V     C        01:08:03:23 01:08:12:07 10:01:02:22 10:01:11:06 
* FROM CLIP NAME:  06/05/3 
017  102      V     C        02:30:38:07 02:30:39:18 10:01:11:06 10:01:12:17 
* FROM CLIP NAME:  06/06/6 KA 
018  102      V     C        02:04:05:15 02:04:12:21 10:01:12:17 10:01:19:23 
* FROM CLIP NAME:  06/07/1 KB 
019  102      V     C        02:13:57:15 02:13:59:14 10:01:19:23 10:01:21:22 
* FROM CLIP NAME:  06/08/1 KA 
020  102      V     C        02:04:14:19 02:04:17:23 10:01:21:22 10:01:25:01 
* FROM CLIP NAME:  06/07/1 KB 
021  102      V     C        02:14:02:12 02:14:03:15 10:01:25:01 10:01:26:04 
* FROM CLIP NAME:  06/08/1 KA 
022  102      V     C        02:11:24:01 02:11:25:04 10:01:26:04 10:01:27:07 
* FROM CLIP NAME:  08/01/2 KA 
023  102      V     C        02:05:03:09 02:05:04:22 10:01:27:07 10:01:28:20 
* FROM CLIP NAME:  08/01/2 KB 
024  102      V     C        02:11:28:11 02:11:32:15 10:01:28:20 10:01:32:24 
* FROM CLIP NAME:  08/01/2 KA 
025  102      V     C        02:04:49:06 02:04:50:10 10:01:32:24 10:01:34:03 
* FROM CLIP NAME:  08/01/1KB 
026  102      V     C        02:11:14:24 02:11:16:17 10:01:34:03 10:01:35:21 
* FROM CLIP NAME:  08/01/1 KA 
027  102      V     C        02:34:44:16 02:34:45:17 10:01:35:21 10:01:36:22 
* FROM CLIP NAME:  08/02/1 KA 
028  158      V     C        18:01:21:09 18:01:22:19 10:01:36:22 10:01:38:07 
* FROM CLIP NAME:  BLICK AUFS WASSER 
029  102      V     C        02:34:48:23 02:34:49:17 10:01:38:07 10:01:39:01 
* FROM CLIP NAME:  08/02/1 KA 
030  102      V     C        02:05:43:17 02:05:45:12 10:01:39:01 10:01:40:21 
* FROM CLIP NAME:  08/03/2 KB 
031  102      V     C        02:12:00:14 02:12:02:08 10:01:40:21 10:01:42:15 
* FROM CLIP NAME:  08/03/2 KA 
032  102      V     C        02:05:47:05 02:05:48:08 10:01:42:15 10:01:43:18 
* FROM CLIP NAME:  08/03/2 KB 
033  102      V     C        02:06:23:10 02:06:26:17 10:01:43:18 10:01:47:00 
* FROM CLIP NAME:  08/04/2 KB 
034  102      V     C        02:13:09:06 02:13:11:01 10:01:47:00 10:01:48:20 
* FROM CLIP NAME:  08/05/2 KA 
035  102      V     C        02:06:37:12 02:06:38:21 10:01:48:20 10:01:50:04 
* FROM CLIP NAME:  08/04/2 KB 
036  102      V     C        02:13:21:18 02:13:22:23 10:01:50:04 10:01:51:09 
* FROM CLIP NAME:  08/05/3 KA 
037  102      V     C        02:06:40:01 02:06:41:13 10:01:51:09 10:01:52:21 
* FROM CLIP NAME:  08/04/2 KB 
038  102      V     C        02:12:52:12 02:12:55:03 10:01:52:21 10:01:55:12 
* FROM CLIP NAME:  08/04/2 KA 
039  102      V     C        02:27:53:02 02:27:56:21 10:01:55:12 10:01:59:06 
* FROM CLIP NAME:  08/06/3 KB 
040  102      V     C        02:14:18:23 02:14:20:19 10:01:59:06 10:02:01:02 
* FROM CLIP NAME:  08/07/1 KA 
041  116      V     C        16:31:06:23 16:31:09:00 10:02:01:02 10:02:03:04 
* FROM CLIP NAME:  10/01/5 
042  102      V     C        02:16:01:03 02:16:03:11 10:02:03:04 10:02:05:12 
* FROM CLIP NAME:  08/07/2 KA 
043  116      V     C        16:30:38:04 16:30:58:20 10:02:05:12 10:02:26:03 
* FROM CLIP NAME:  10/01/3 
044  116      V     C        16:29:32:02 16:29:35:01 10:02:26:03 10:02:29:02 
* FROM CLIP NAME:  10A/01/4 
045  116      V     C        16:32:59:24 16:33:01:22 10:02:29:02 10:02:31:00 
* FROM CLIP NAME:  10A/02/3 
046  116      V     C        16:29:36:24 16:29:39:16 10:02:31:00 10:02:33:17 
* FROM CLIP NAME:  10A/01/4 
047  116      V     C        16:32:30:13 16:32:32:15 10:02:33:17 10:02:35:19 
* FROM CLIP NAME:  10A/02/2 
048  116      V     C        16:29:41:22 16:29:45:10 10:02:35:19 10:02:39:07 
* FROM CLIP NAME:  10A/01/4 
049  116      V     C        16:33:10:11 16:33:13:02 10:02:39:07 10:02:41:23 
* FROM CLIP NAME:  10A/02/3 
050  116      V     C        16:29:07:13 16:29:13:04 10:02:41:23 10:02:47:14 
* FROM CLIP NAME:  10A/01/2 
051  102      V     C        02:16:09:15 02:16:12:01 10:02:47:14 10:02:50:00 
* FROM CLIP NAME:  08/07/2 KA 
052  102      V     C        02:33:50:15 02:33:52:13 10:02:50:00 10:02:51:23 
* FROM CLIP NAME:  08/06/3 KA 
053  102      V     C        02:21:52:04 02:21:56:02 10:02:51:23 10:02:55:21 
* FROM CLIP NAME:  08/07/3 KB 
054  102      V     C        02:33:57:05 02:34:00:13 10:02:55:21 10:02:59:04 
* FROM CLIP NAME:  08/06/3 KA 
055  102      V     C        02:14:44:12 02:14:48:08 10:02:59:04 10:03:03:00 
* FROM CLIP NAME:  08/07/1 KA 
056  102      V     C        02:34:06:09 02:34:10:00 10:03:03:00 10:03:06:16 
* FROM CLIP NAME:  08/06/3 KA 
057  102      V     C        02:14:54:03 02:14:55:24 10:03:06:16 10:03:08:12 
* FROM CLIP NAME:  08/07/1 KA 
058  102      V     C        02:34:13:00 02:34:16:18 10:03:08:12 10:03:12:05 
* FROM CLIP NAME:  08/06/3 KA 
059  102      V     C        02:15:00:00 02:15:02:12 10:03:12:05 10:03:14:17 
* FROM CLIP NAME:  08/07/1 KA 
060  102      V     C        02:34:18:20 02:34:24:03 10:03:14:17 10:03:20:00 
* FROM CLIP NAME:  08/06/3 KA 
061  102      V     C        02:15:08:10 02:15:10:20 10:03:20:00 10:03:22:10 
* FROM CLIP NAME:  08/07/1 KA 
062  102      V     C        02:34:26:13 02:34:28:24 10:03:22:10 10:03:24:21 
* FROM CLIP NAME:  08/06/3 KA 
063  102      V     C        02:23:56:23 02:23:58:13 10:03:24:21 10:03:26:11 
* FROM CLIP NAME:  08/07/4 KB 
064  102      V     C        02:34:31:03 02:34:34:03 10:03:26:11 10:03:29:11 
* FROM CLIP NAME:  08/06/3 KA 
065  102      V     C        02:09:53:10 02:09:59:01 10:03:29:11 10:03:35:02 
* FROM CLIP NAME:  08/07/1 KB 
066  102      V     C        02:19:17:07 02:19:35:08 10:03:35:02 10:03:53:03 
* FROM CLIP NAME:  08/07/4 KA 
067  162      V     C        02:08:07:01 02:08:13:19 10:03:53:03 10:03:59:21 
* FROM CLIP NAME:  11/01/2 
068  103      V     C        03:14:54:08 03:15:14:06 10:03:59:21 10:04:19:19 
* FROM CLIP NAME:  02/01/4 SK KA       ANFANG 
069  103      V     C        03:04:37:05 03:04:39:22 10:04:19:19 10:04:22:11 
* FROM CLIP NAME:  02/02A/1 ST 
070  103      V     C        03:15:16:09 03:15:19:24 10:04:22:11 10:04:26:01 
* FROM CLIP NAME:  02/01/4 SK KA       ANFANG 
071  103      V     C        03:04:40:00 03:04:42:24 10:04:26:01 10:04:29:00 
* FROM CLIP NAME:  02/02A/1 ST 
072  103      V     C        03:05:25:02 03:05:26:15 10:04:29:00 10:04:30:13 
* FROM CLIP NAME:  02/02/1 ST 
073  130      V     C        10:16:37:13 10:16:43:23 10:04:30:13 10:04:36:23 
* FROM CLIP NAME:  2/01A/2 
074  130      V     C        10:17:19:05 10:17:25:21 10:04:36:23 10:04:43:14 
* FROM CLIP NAME:  2/01A/3 PU 
075  103      V     C        03:13:26:01 03:13:30:01 10:04:43:14 10:04:47:14 
* FROM CLIP NAME:  02/01/3 OK KA       STAUB 
076  111      V     C        11:20:11:14 11:20:15:04 10:04:47:14 10:04:51:04 
M2   111           -250.6                11:20:11:14 
* FROM CLIP NAME:  02/05A/1 ST 5BPS 
077  130      V     C        10:17:30:19 10:17:33:12 10:04:51:04 10:04:53:22 
* FROM CLIP NAME:  2/01A/3 PU 
078  103      V     C        03:15:46:13 03:15:48:09 10:04:53:22 10:04:55:18 
* FROM CLIP NAME:  02/01/4 SK KA       ANFANG 
079  116      V     C        16:18:39:23 16:18:41:24 10:04:55:18 10:04:57:19 
* FROM CLIP NAME:  13/02/2 
080  116      V     C        16:25:52:17 16:25:55:02 10:04:57:19 10:05:00:04 
* FROM CLIP NAME:  13/01/1 
081  116      V     C        16:19:22:18 16:19:26:15 10:05:00:04 10:05:04:01 
* FROM CLIP NAME:  13/02/3 
082  116      V     C        16:26:46:21 16:26:49:17 10:05:04:01 10:05:06:22 
* FROM CLIP NAME:  13/01/3 
083  116      V     C        16:18:47:24 16:18:49:01 10:05:06:22 10:05:07:24 
* FROM CLIP NAME:  13/02/2 
084  116      V     C        16:17:03:04 16:17:09:19 10:05:07:24 10:05:14:14 
* FROM CLIP NAME:  13/03/2 
085  116      V     C        16:19:35:01 16:19:36:21 10:05:14:14 10:05:16:09 
* FROM CLIP NAME:  13/02/3 
086  116      V     C        16:26:58:19 16:27:07:01 10:05:16:09 10:05:24:16 
* FROM CLIP NAME:  13/01/3 
087  116      V     C        16:19:44:09 16:19:45:24 10:05:24:16 10:05:26:06 
* FROM CLIP NAME:  13/02/3 
088  116      V     C        16:27:08:16 16:27:10:07 10:05:26:06 10:05:27:22 
* FROM CLIP NAME:  13/01/3 
089  116      V     C        16:19:47:09 16:19:49:10 10:05:27:22 10:05:29:23 
* FROM CLIP NAME:  13/02/3 
090  116      V     C        16:17:24:15 16:17:37:02 10:05:29:23 10:05:42:10 
* FROM CLIP NAME:  13/03/2 
091  103      V     C        03:13:47:13 03:13:52:16 10:05:42:10 10:05:47:13 
* FROM CLIP NAME:  02/01/3 OK KA       STAUB 
092  104      V     C        04:00:29:01 04:00:33:23 10:05:47:13 10:05:52:10 
* FROM CLIP NAME:  02/06/1 ST KB     * 
093  127      V     C        07:00:22:12 07:00:24:20 10:05:52:10 10:05:54:18 
* FROM CLIP NAME:  15/01/2 KA 
094  128      V     C        08:07:50:17 08:07:51:17 10:05:54:18 10:05:55:18 
* FROM CLIP NAME:  15/01/2 SK KB 
095  127      V     C        07:00:25:20 07:00:27:18 10:05:55:18 10:05:57:16 
* FROM CLIP NAME:  15/01/2 KA 
096  128      V     C        08:07:54:24 08:07:56:06 10:05:57:16 10:05:58:23 
* FROM CLIP NAME:  15/01/2 SK KB 
097  127      V     C        07:00:29:00 07:00:30:10 10:05:58:23 10:06:00:08 
* FROM CLIP NAME:  15/01/2 KA 
098  127      V     C        07:09:18:19 07:09:19:15 10:06:00:08 10:06:01:04 
* FROM CLIP NAME:  15/03/4             ANFANG 
099  128      V     C        08:07:58:16 08:07:59:18 10:06:01:04 10:06:02:06 
* FROM CLIP NAME:  15/01/2 SK KB 
100  127      V     C        07:09:20:22 07:09:23:13 10:06:02:06 10:06:04:22 
* FROM CLIP NAME:  15/03/4             ANFANG 
101  128      V     C        08:11:55:20 08:11:56:23 10:06:04:22 10:06:06:00 
* FROM CLIP NAME:  15/02/8 KB  ANFANG   MICHELLE*** 
102  127      V     C        07:09:24:04 07:09:25:11 10:06:06:00 10:06:07:07 
* FROM CLIP NAME:  15/03/4             ANFANG 
103  127      V     C        07:02:10:01 07:02:18:19 10:06:07:07 10:06:16:00 
* FROM CLIP NAME:  15/02/5 SK KA   *** 
104  128      V     C        08:00:32:14 08:00:34:16 10:06:16:00 10:06:18:02 
* FROM CLIP NAME:  15/04/2           NAEHER 
105  127      V     C        07:08:41:04 07:08:43:06 10:06:18:02 10:06:20:04 
* FROM CLIP NAME:  15/03/2 NK 
106  127      V     C        07:02:23:21 07:02:29:00 10:06:20:04 10:06:25:08 
* FROM CLIP NAME:  15/02/5 SK KA   *** 
107  127      V     C        07:09:36:11 07:09:39:04 10:06:25:08 10:06:28:01 
* FROM CLIP NAME:  15/03/4             ANFANG 
108  127      V     C        07:02:31:00 07:02:33:13 10:06:28:01 10:06:30:14 
* FROM CLIP NAME:  15/02/5 SK KA   *** 
109  127      V     C        07:09:41:10 07:09:43:05 10:06:30:14 10:06:32:09 
* FROM CLIP NAME:  15/03/4             ANFANG 
110  128      V     C        08:12:23:03 08:12:27:09 10:06:32:09 10:06:36:15 
* FROM CLIP NAME:  15/02/8 KB  ANFANG   MICHELLE*** 
111  128      V     C        08:14:50:23 08:14:51:18 10:06:36:15 10:06:37:10 
* FROM CLIP NAME:  15/04A/1 KB 
112  127      V     C        07:09:47:20 07:09:49:20 10:06:37:10 10:06:39:10 
* FROM CLIP NAME:  15/03/4             ANFANG 
113  128      V     C        08:14:53:24 08:15:05:05 10:06:39:10 10:06:50:16 
* FROM CLIP NAME:  15/04A/1 KB 
114  127      V     C        07:11:17:09 07:11:20:02 10:06:50:16 10:06:53:09 
* FROM CLIP NAME:  15/05/2          EMMMA WEG 
115  127      V     C        07:08:02:10 07:08:10:04 10:06:53:09 10:07:01:03 
* FROM CLIP NAME:  15/04A/1 KA     UHR 
116  128      V     C        08:01:06:06 08:01:09:16 10:07:01:03 10:07:04:13 
* FROM CLIP NAME:  15/06/1 ST DIV.    UHR NAH 
117  127      V     C        07:08:13:10 07:08:15:24 10:07:04:13 10:07:07:02 
* FROM CLIP NAME:  15/04A/1 KA     UHR 
118  105      V     C        05:05:57:17 05:06:04:23 10:07:07:02 10:07:14:08 
* FROM CLIP NAME:  07/01/2 
119  105      V     C        05:07:22:15 05:07:30:13 10:07:14:08 10:07:22:06 
* FROM CLIP NAME:  07/02/2 
120  105      V     C        05:06:11:21 05:06:18:17 10:07:22:06 10:07:29:02 
* FROM CLIP NAME:  07/01/2 
121  137      V     C        17:07:16:07 17:07:19:07 10:07:29:02 10:07:32:02 
* FROM CLIP NAME:  16/02/2 
122  137      V     C        17:00:06:09 17:00:11:21 10:07:32:02 10:07:37:14 
* FROM CLIP NAME:  16/01/3 
123  137      V     C        17:06:50:03 17:06:58:22 10:07:37:14 10:07:46:08 
* FROM CLIP NAME:  16/03/3 
124  137      V     C        17:05:48:06 17:05:52:17 10:07:46:08 10:07:50:19 
* FROM CLIP NAME:  16/01/4 
125  137      V     C        17:07:31:14 17:07:33:10 10:07:50:19 10:07:52:15 
* FROM CLIP NAME:  16/02/2 
126  137      V     C        17:05:54:02 17:05:58:19 10:07:52:15 10:07:57:07 
* FROM CLIP NAME:  16/01/4 
127  145      V     C        05:00:12:17 05:00:18:21 10:07:57:07 10:08:03:11 
* FROM CLIP NAME:  17/01/2 
128  145      V     C        05:01:48:09 05:01:51:06 10:08:03:11 10:08:06:08 
* FROM CLIP NAME:  17/02/1 
129  145      V     C        05:00:23:09 05:00:25:18 10:08:06:08 10:08:08:17 
* FROM CLIP NAME:  17/01/2 
130  145      V     C        05:03:29:15 05:03:31:09 10:08:08:17 10:08:10:11 
* FROM CLIP NAME:  17/03/4 
131  145      V     C        05:01:25:03 05:01:26:08 10:08:10:11 10:08:11:16 
* FROM CLIP NAME:  17/01/3 KA 
132  145      V     C        05:03:35:09 05:03:37:02 10:08:11:16 10:08:13:09 
* FROM CLIP NAME:  17/03/4 
133  147      V     C        07:01:38:13 07:01:44:06 10:08:13:09 10:08:19:02 
* FROM CLIP NAME:  18/01/3 
134  147      V     C        07:03:59:13 07:04:01:02 10:08:19:02 10:08:20:16 
* FROM CLIP NAME:  18/03A/1 
135  147      V     C        07:05:53:15 07:05:56:16 10:08:20:16 10:08:23:17 
* FROM CLIP NAME:  18/02A/2 PU 
136  147      V     C        07:03:06:21 07:03:07:24 10:08:23:17 10:08:24:20 
* FROM CLIP NAME:  18/03/1 
137  147      V     C        07:05:57:17 07:05:59:04 10:08:24:20 10:08:26:07 
* FROM CLIP NAME:  18/02A/2 PU 
138  147      V     C        07:04:08:02 07:04:12:06 10:08:26:07 10:08:30:11 
* FROM CLIP NAME:  18/03A/1 
139  147      V     C        07:02:05:05 07:02:07:03 10:08:30:11 10:08:32:09 
* FROM CLIP NAME:  18/01/3 
140  147      V     C        07:05:02:01 07:05:05:22 10:08:32:09 10:08:36:05 
* FROM CLIP NAME:  18/02/1 
141  147      V     C        07:03:44:13 07:03:49:06 10:08:36:05 10:08:40:23 
* FROM CLIP NAME:  18/03/2 PU 
142  145      V     C        05:10:12:11 05:10:16:07 10:08:40:23 10:08:44:19 
* FROM CLIP NAME:  19/02/8 KA 
143  145      V     C        05:12:31:06 05:12:34:01 10:08:44:19 10:08:47:14 
* FROM CLIP NAME:  19/01/1 KA 
144  145      V     C        05:10:19:02 05:10:22:14 10:08:47:14 10:08:51:01 
* FROM CLIP NAME:  19/02/8 KA 
145  145      V     C        05:13:55:21 05:13:58:24 10:08:51:01 10:08:54:04 
* FROM CLIP NAME:  19/01/4 KA 
146  145      V     C        05:07:28:24 05:07:30:01 10:08:54:04 10:08:55:06 
* FROM CLIP NAME:  19/02/5 KA 
147  145      V     C        05:13:59:18 05:14:01:22 10:08:55:06 10:08:57:10 
* FROM CLIP NAME:  19/01/4 KA 
148  145      V     C        05:07:30:10 05:07:33:02 10:08:57:10 10:09:00:02 
* FROM CLIP NAME:  19/02/5 KA 
149  145      V     C        05:15:17:03 05:15:20:05 10:09:00:02 10:09:03:04 
* FROM CLIP NAME:  19/01/5 KA 
150  146      V     C        06:00:29:12 06:00:32:07 10:09:03:04 10:09:05:24 
* FROM CLIP NAME:  19/02/5 KB 
151  146      V     C        06:05:17:01 06:05:20:08 10:09:05:24 10:09:09:06 
* FROM CLIP NAME:  19/01/1 KB 
152  146      V     C        06:00:39:09 06:00:43:02 10:09:09:06 10:09:12:24 
* FROM CLIP NAME:  19/02/5 KB 
153  145      V     C        05:07:49:19 05:07:51:08 10:09:12:24 10:09:14:13 
* FROM CLIP NAME:  19/02/5 KA 
154  145      V     C        05:14:40:20 05:14:43:14 10:09:14:13 10:09:17:07 
* FROM CLIP NAME:  19/01/4 KA 
155  105      V     C        05:00:56:14 05:01:02:04 10:09:17:07 10:09:22:22 
* FROM CLIP NAME:  12/01/5 
156  104      V     C        04:05:45:19 04:05:46:19 10:09:22:22 10:09:23:22 
* FROM CLIP NAME:  12/01A/1 ST KB 
157  105      V     C        05:01:03:01 05:01:03:21 10:09:23:22 10:09:24:17 
* FROM CLIP NAME:  12/01/5 
158  105      V     C        05:02:30:23 05:02:32:09 10:09:24:17 10:09:26:03 
* FROM CLIP NAME:  12/02/4 
159  105      V     C        05:03:51:14 05:03:53:06 10:09:26:03 10:09:27:20 
* FROM CLIP NAME:  12/03/3 
160  158      V     C        18:00:56:02 18:00:57:13 10:09:27:20 10:09:29:06 
* FROM CLIP NAME:  12/INSERT/3 ST 
161  105      V     C        05:03:53:08 05:03:56:08 10:09:29:06 10:09:32:06 
* FROM CLIP NAME:  12/03/3 
162  105      V     C        05:02:33:24 05:02:37:09 10:09:32:06 10:09:35:16 
* FROM CLIP NAME:  12/02/4 
163  105      V     C        05:03:19:10 05:03:23:07 10:09:35:16 10:09:39:13 
* FROM CLIP NAME:  12/03/2 
164  105      V     C        05:02:40:12 05:02:44:19 10:09:39:13 10:09:43:20 
* FROM CLIP NAME:  12/02/4 
165  105      V     C        05:03:26:10 05:03:37:00 10:09:43:20 10:09:54:10 
* FROM CLIP NAME:  12/03/2 
166  105      V     C        05:02:55:15 05:03:01:07 10:09:54:10 10:10:00:02 
* FROM CLIP NAME:  12/02/4 
167  158      V     C        18:06:09:08 18:06:13:19 10:10:00:02 10:10:04:13 
* FROM CLIP NAME:  20/01/6          * 
168  158      V     C        18:07:22:21 18:07:25:18 10:10:04:13 10:10:07:10 
* FROM CLIP NAME:  20/02/4         * 
169  158      V     C        18:06:16:10 18:06:19:00 10:10:07:10 10:10:10:00 
* FROM CLIP NAME:  20/01/6          * 
170  158      V     C        18:07:27:14 18:07:30:15 10:10:10:00 10:10:13:01 
* FROM CLIP NAME:  20/02/4         * 
171  158      V     C        18:06:21:24 18:06:23:21 10:10:13:01 10:10:14:23 
* FROM CLIP NAME:  20/01/6          * 
172  158      V     C        18:07:33:10 18:07:36:24 10:10:14:23 10:10:18:12 
* FROM CLIP NAME:  20/02/4         * 
173  158      V     C        18:06:49:18 18:06:54:02 10:10:18:12 10:10:22:21 
* FROM CLIP NAME:  20/01/10 PU  * 
174  158      V     C        18:08:19:16 18:08:22:02 10:10:22:21 10:10:25:07 
* FROM CLIP NAME:  20/03/1 
175  103      V     C        03:03:22:02 03:03:33:20 10:10:25:07 10:10:37:00 
* FROM CLIP NAME:  14/01/5 KA 
176  103      V     C        03:00:04:18 03:00:09:15 10:10:37:00 10:10:41:22 
* FROM CLIP NAME:  14/02/2 
177  103      V     C        03:02:07:24 03:02:16:07 10:10:41:22 10:10:50:05 
* FROM CLIP NAME:  14/03/2 KA 
178  155      V     C        15:23:07:01 15:23:11:21 10:10:50:05 10:10:55:00 
* FROM CLIP NAME:  21/01/6 
179  155      V     C        15:27:26:19 15:27:29:01 10:10:55:00 10:10:57:07 
* FROM CLIP NAME:  21/02/2 
180  155      V     C        15:23:13:19 15:23:28:12 10:10:57:07 10:11:12:00 
* FROM CLIP NAME:  21/01/6 
181  155      V     C        15:27:08:02 15:27:12:04 10:11:12:00 10:11:16:02 
* FROM CLIP NAME:  21/02/1 
182  111      V     C        11:03:11:01 11:03:19:09 10:11:16:02 10:11:24:10 
* FROM CLIP NAME:  22/01/3 SK 
183  114      V     C        14:08:11:04 14:08:22:02 10:11:24:10 10:11:35:08 
* FROM CLIP NAME:  23/01/3 SK 
184  109      V     C        09:03:48:18 09:04:01:18 10:11:35:08 10:11:48:08 
* FROM CLIP NAME:  25/01/1 
185  114      V     C        14:18:23:23 14:18:28:11 10:11:48:08 10:11:52:21 
* FROM CLIP NAME:  23/02/2 
186  111      V     C        11:22:55:13 11:23:11:11 10:11:52:21 10:12:08:19 
* FROM CLIP NAME:  24/01/4 
187  111      V     C        11:24:11:01 11:24:19:10 10:12:08:19 10:12:17:03 
* FROM CLIP NAME:  24/02/1 
188  108      V     C        08:06:16:07 08:06:35:07 10:12:17:03 10:12:36:03 
* FROM CLIP NAME:  26/01/2 
189  111      V     C        11:23:47:13 11:23:51:03 10:12:36:03 10:12:39:18 
* FROM CLIP NAME:  24/01/4 
190  111      V     C        11:26:47:00 11:26:51:23 10:12:39:18 10:12:44:16 
* FROM CLIP NAME:  24/02/5 PU 
191  141      V     C        01:15:21:04 01:15:22:14 10:12:44:16 10:12:46:01 
* FROM CLIP NAME:  24/05/4 
192  111      V     C        11:27:09:17 11:27:11:11 10:12:46:01 10:12:47:20 
* FROM CLIP NAME:  24/02/5 PU 
193  141      V     C        01:15:51:03 01:15:58:09 10:12:47:20 10:12:55:01 
* FROM CLIP NAME:  24/05/7 
194  108      V     C        08:06:41:23 08:06:49:01 10:12:55:01 10:13:02:04 
* FROM CLIP NAME:  26/01/2 
195  111      V     C        11:27:44:02 11:27:53:01 10:13:02:04 10:13:11:03 
* FROM CLIP NAME:  24/03/3      * 
196  142      V     C        02:12:53:19 02:12:56:06 10:13:11:03 10:13:13:15 
* FROM CLIP NAME:  24/06/2 
197  108      V     C        08:06:51:02 08:06:58:07 10:13:13:15 10:13:20:20 
* FROM CLIP NAME:  26/01/2 
198  158      V     C        18:22:48:01 18:22:50:02 10:13:20:20 10:13:22:21 
* FROM CLIP NAME:  FRAU FAULI IN IHRER SCHAUKEL NAH 
199  108      V     C        08:21:00:06 08:21:16:05 10:13:22:21 10:13:38:20 
* FROM CLIP NAME:  26/01/3 
200  114      V     C        14:23:15:01 14:23:27:14 10:13:38:20 10:13:51:08 
* FROM CLIP NAME:  27/01/6 
201  108      V     C        08:22:09:06 08:22:21:09 10:13:51:08 10:14:03:11 
* FROM CLIP NAME:  26/02/6 
202  114      V     C        14:23:27:20 14:23:31:21 10:14:03:11 10:14:07:12 
* FROM CLIP NAME:  27/01/6 
203  108      V     C        08:22:52:23 08:22:54:07 10:14:07:12 10:14:08:21 
* FROM CLIP NAME:  26/02/9 
204  108      V     C        08:23:12:15 08:23:13:10 10:14:08:21 10:14:09:16 
* FROM CLIP NAME:  26/03/2 
205  108      V     C        08:22:23:18 08:22:27:13 10:14:09:16 10:14:13:11 
* FROM CLIP NAME:  26/02/6 
206  158      V     C        18:18:20:12 18:18:24:11 10:14:13:11 10:14:17:10 
* FROM CLIP NAME:  FRAU FAULI IN IHRER SCHAUKEL NAH 
207  153      V     C        13:17:07:13 13:17:09:21 10:14:17:10 10:14:19:18 
* FROM CLIP NAME:  28/01/3 
208  153      V     C        13:05:25:06 13:05:35:10 10:14:19:18 10:14:29:22 
* FROM CLIP NAME:  28/02/6 
209  153      V     C        13:18:33:20 13:18:35:13 10:14:29:22 10:14:31:15 
* FROM CLIP NAME:  28/04/1 (DIVERSE) 
210  153      V     C        13:05:37:02 13:05:40:20 10:14:31:15 10:14:35:08 
* FROM CLIP NAME:  28/02/6 
211  153      V     C        13:17:19:14 13:17:20:17 10:14:35:08 10:14:36:11 
* FROM CLIP NAME:  28/01/3 
212  153      V     C        13:05:09:18 13:05:13:05 10:14:36:11 10:14:39:23 
* FROM CLIP NAME:  28/02/5 
213  153      V     C        13:16:48:06 13:16:50:06 10:14:39:23 10:14:41:23 
* FROM CLIP NAME:  28/01/1 
214  153      V     C        13:06:13:11 13:06:14:06 10:14:41:23 10:14:42:18 
* FROM CLIP NAME:  28/03/2 
215  153      V     C        13:16:51:02 13:16:52:16 10:14:42:18 10:14:44:07 
* FROM CLIP NAME:  28/01/1 
216  153      V     C        13:06:36:16 13:06:38:14 10:14:44:07 10:14:46:05 
* FROM CLIP NAME:  28/03/3 
217  153      V     C        13:16:55:17 13:16:56:20 10:14:46:05 10:14:47:08 
* FROM CLIP NAME:  28/01/1 
218  153      V     C        13:05:53:05 13:05:57:20 10:14:47:08 10:14:51:23 
* FROM CLIP NAME:  28/02/6 
219  155      V     C        15:04:21:01 15:04:24:21 10:14:51:23 10:14:55:18 
* FROM CLIP NAME:  29/01/5 
220  155      V     C        15:11:35:08 15:11:37:06 10:14:55:18 10:14:57:16 
* FROM CLIP NAME:  29/02/1 (2.KL.) 
221  155      V     C        15:04:26:21 15:04:31:20 10:14:57:16 10:15:02:15 
* FROM CLIP NAME:  29/01/5 
222  155      V     C        15:17:13:12 15:17:15:06 10:15:02:15 10:15:04:09 
* FROM CLIP NAME:  29/00/1 
223  155      V     C        15:11:43:23 15:11:46:00 10:15:04:09 10:15:06:11 
* FROM CLIP NAME:  29/02/1 (2.KL.) 
224  155      V     C        15:04:35:07 15:04:39:19 10:15:06:11 10:15:10:23 
* FROM CLIP NAME:  29/01/5 
225  155      V     C        15:13:34:11 15:13:37:21 10:15:10:23 10:15:14:08 
* FROM CLIP NAME:  29/03/2 
226  155      V     C        15:04:43:10 15:04:55:17 10:15:14:08 10:15:26:15 
* FROM CLIP NAME:  29/01/5 
227  155      V     C        15:14:45:14 15:14:49:16 10:15:26:15 10:15:30:17 
* FROM CLIP NAME:  29/3A/2 
228  155      V     C        15:04:58:21 15:05:01:21 10:15:30:17 10:15:33:17 
* FROM CLIP NAME:  29/01/5 
229  155      V     C        15:14:01:01 15:14:04:18 10:15:33:17 10:15:37:09 
* FROM CLIP NAME:  29/3A/1 SK 
230  155      V     C        15:05:06:04 15:05:09:03 10:15:37:09 10:15:40:08 
* FROM CLIP NAME:  29/01/5 
231  155      V     C        15:14:59:24 15:15:03:03 10:15:40:08 10:15:43:12 
* FROM CLIP NAME:  29/3A/2 
232  155      V     C        15:05:11:22 15:05:18:09 10:15:43:12 10:15:49:24 
* FROM CLIP NAME:  29/01/5 
233  155      V     C        15:14:14:21 15:14:20:06 10:15:49:24 10:15:55:09 
* FROM CLIP NAME:  29/3A/1 SK 
234  155      V     C        15:05:23:12 15:05:24:23 10:15:55:09 10:15:56:20 
* FROM CLIP NAME:  29/01/5 
235  155      V     C        15:15:15:11 15:15:16:13 10:15:56:20 10:15:57:22 
* FROM CLIP NAME:  29/3A/2 
236  155      V     C        15:05:26:00 15:05:28:21 10:15:57:22 10:16:00:18 
* FROM CLIP NAME:  29/01/5 
237  155      V     C        15:14:24:16 15:14:27:08 10:16:00:18 10:16:03:10 
* FROM CLIP NAME:  29/3A/1 SK 
238  155      V     C        15:05:31:18 15:05:32:19 10:16:03:10 10:16:04:11 
* FROM CLIP NAME:  29/01/5 
239  155      V     C        15:14:29:11 15:14:32:10 10:16:04:11 10:16:07:10 
* FROM CLIP NAME:  29/3A/1 SK 
240  155      V     C        15:05:35:15 15:05:46:04 10:16:07:10 10:16:17:24 
* FROM CLIP NAME:  29/01/5 
241  155      V     C        15:12:20:08 15:12:21:17 10:16:17:24 10:16:19:08 
* FROM CLIP NAME:  29/04/2 
242  155      V     C        15:05:47:13 15:05:51:20 10:16:19:08 10:16:23:15 
* FROM CLIP NAME:  29/01/5 
243  155      V     C        15:12:25:08 15:12:29:10 10:16:23:15 10:16:27:17 
* FROM CLIP NAME:  29/04/2 
244  155      V     C        15:05:55:22 15:06:00:09 10:16:27:17 10:16:32:04 
* FROM CLIP NAME:  29/01/5 
245  155      V     C        15:12:33:12 15:12:37:14 10:16:32:04 10:16:36:06 
* FROM CLIP NAME:  29/04/2 
246  155      V     C        15:06:04:03 15:06:06:11 10:16:36:06 10:16:38:14 
* FROM CLIP NAME:  29/01/5 
247  155      V     C        15:12:39:12 15:12:42:23 10:16:38:14 10:16:42:00 
* FROM CLIP NAME:  29/04/2 
248  155      V     C        15:06:08:11 15:06:12:00 10:16:42:00 10:16:45:14 
* FROM CLIP NAME:  29/01/5 
249  155      V     C        15:12:47:12 15:12:49:02 10:16:45:14 10:16:47:04 
* FROM CLIP NAME:  29/04/2 
250  155      V     C        15:06:13:05 15:06:18:10 10:16:47:04 10:16:52:09 
* FROM CLIP NAME:  29/01/5 
251  155      V     C        15:17:17:14 15:17:18:09 10:16:52:09 10:16:53:04 
* FROM CLIP NAME:  29/00/1 
252  153      V     C        13:06:45:20 13:06:51:20 10:16:53:04 10:16:59:04 
* FROM CLIP NAME:  30/01/2 
253  153      V     C        13:12:31:03 13:12:35:06 10:16:59:04 10:17:03:07 
* FROM CLIP NAME:  30/02/2 
254  153      V     C        13:06:54:15 13:06:56:01 10:17:03:07 10:17:04:18 
* FROM CLIP NAME:  30/01/2 
255  153      V     C        13:13:04:09 13:13:05:20 10:17:04:18 10:17:06:04 
* FROM CLIP NAME:  30/02/3 
256  153      V     C        13:06:57:12 13:06:58:07 10:17:06:04 10:17:06:24 
* FROM CLIP NAME:  30/01/2 
257  153      V     C        13:12:40:11 13:12:44:14 10:17:06:24 10:17:11:02 
* FROM CLIP NAME:  30/02/2 
258  111      V     C        11:02:05:07 11:02:09:10 10:17:11:02 10:17:15:05 
* FROM CLIP NAME:  35A/01/1 SK 
259  111      V     C        11:01:02:13 11:01:06:10 10:17:15:05 10:17:19:02 
* FROM CLIP NAME:  35A/03/2 SK 
260  111      V     C        11:00:23:20 11:00:25:08 10:17:19:02 10:17:20:15 
* FROM CLIP NAME:  35A/02/2 ST 
261  111      V     C        11:01:07:13 11:01:18:06 10:17:20:15 10:17:31:08 
* FROM CLIP NAME:  35A/03/2 SK 
262  111      V     C        11:02:27:01 11:02:29:09 10:17:31:08 10:17:33:16 
* FROM CLIP NAME:  35A/01/1 SK 
263  123      V     C        03:00:40:10 03:00:43:02 10:17:33:16 10:17:36:08 
* FROM CLIP NAME:  33/01/5 
264  123      V     C        03:03:00:00 03:03:07:16 10:17:36:08 10:17:43:24 
* FROM CLIP NAME:  33/03/5 
265  123      V     C        03:01:26:02 03:01:29:23 10:17:43:24 10:17:47:20 
* FROM CLIP NAME:  33/01/6 
266  123      V     C        03:03:12:08 03:03:13:18 10:17:47:20 10:17:49:05 
* FROM CLIP NAME:  33/03/5 
267  123      V     C        03:01:31:07 03:01:33:20 10:17:49:05 10:17:51:18 
* FROM CLIP NAME:  33/01/6 
268  123      V     C        03:03:16:03 03:03:18:01 10:17:51:18 10:17:53:16 
* FROM CLIP NAME:  33/03/5 
269  123      V     C        03:01:00:00 03:01:04:07 10:17:53:16 10:17:57:23 
* FROM CLIP NAME:  33/01/5 
270  121      V     C        01:08:06:06 01:08:07:20 10:17:57:23 10:17:59:12 
* FROM CLIP NAME:  34/02/4 KA 
271  122      V     C        02:05:50:11 02:05:52:12 10:17:59:12 10:18:01:13 
* FROM CLIP NAME:  34/05/2 KB 
272  121      V     C        01:08:08:00 01:08:10:14 10:18:01:13 10:18:04:02 
* FROM CLIP NAME:  34/02/4 KA 
273  122      V     C        02:05:54:22 02:05:55:24 10:18:04:02 10:18:05:04 
* FROM CLIP NAME:  34/05/2 KB 
274  122      V     C        02:04:37:10 02:04:38:14 10:18:05:04 10:18:06:08 
* FROM CLIP NAME:  34/05/1 KB 
275  122      V     C        02:05:57:03 02:05:58:23 10:18:06:08 10:18:08:03 
* FROM CLIP NAME:  34/05/2 KB 
276  122      V     C        02:04:02:16 02:04:04:02 10:18:08:03 10:18:09:14 
* FROM CLIP NAME:  34/04/4 KB 
277  121      V     C        01:09:39:07 01:09:47:04 10:18:09:14 10:18:17:11 
* FROM CLIP NAME:  34/02/5 
278  122      V     C        02:04:46:17 02:04:48:14 10:18:17:11 10:18:19:08 
* FROM CLIP NAME:  34/05/1 KB 
279  122      V     C        02:06:09:03 02:06:11:19 10:18:19:08 10:18:21:24 
* FROM CLIP NAME:  34/05/2 KB 
280  122      V     C        02:04:51:22 02:04:54:14 10:18:21:24 10:18:24:16 
* FROM CLIP NAME:  34/05/1 KB 
281  122      V     C        02:01:49:18 02:01:51:03 10:18:24:16 10:18:26:01 
* FROM CLIP NAME:  34/04/2 KB 
282  122      V     C        02:07:42:08 02:07:45:07 10:18:26:01 10:18:29:00 
* FROM CLIP NAME:  34/02/4 KB FLSCH. KL. 
283  121      V     C        01:01:46:18 01:01:48:12 10:18:29:00 10:18:30:19 
* FROM CLIP NAME:  34/04/3 KA 
284  121      V     C        01:11:30:01 01:11:30:17 10:18:30:19 10:18:31:10 
* FROM CLIP NAME:  34/03/4 KA 
285  121      V     C        01:08:37:06 01:08:38:22 10:18:31:10 10:18:33:01 
* FROM CLIP NAME:  34/02/4 KA 
286  122      V     C        02:06:19:01 02:06:20:06 10:18:33:01 10:18:34:06 
* FROM CLIP NAME:  34/05/2 KB 
287  121      V     C        01:11:32:10 01:11:33:14 10:18:34:06 10:18:35:10 
* FROM CLIP NAME:  34/03/4 KA 
288  121      V     C        01:08:40:02 01:08:40:12 10:18:35:10 10:18:35:20 
* FROM CLIP NAME:  34/02/4 KA 
289  121      V     C        01:11:33:16 01:11:34:04 10:18:35:20 10:18:36:08 
* FROM CLIP NAME:  34/03/4 KA 
290  122      V     C        02:05:06:10 02:05:06:21 10:18:36:08 10:18:36:19 
* FROM CLIP NAME:  34/05/1 KB 
291  121      V     C        01:04:31:01 01:04:36:13 10:18:36:19 10:18:42:06 
* FROM CLIP NAME:  34/05/1  KA 
292  122      V     C        02:02:04:00 02:02:08:14 10:18:42:06 10:18:46:20 
* FROM CLIP NAME:  34/04/2 KB 
293  121      V     C        01:10:20:06 01:10:22:11 10:18:46:20 10:18:49:00 
* FROM CLIP NAME:  34/02/5 
294  122      V     C        02:06:43:18 02:06:45:03 10:18:49:00 10:18:50:10 
* FROM CLIP NAME:  34/05/2 KB 
295  122      V     C        02:05:21:02 02:05:22:18 10:18:50:10 10:18:52:01 
* FROM CLIP NAME:  34/05/1 KB 
296  121      V     C        01:10:25:12 01:10:26:12 10:18:52:01 10:18:53:01 
* FROM CLIP NAME:  34/02/5 
297  121      V     C        01:11:16:05 01:11:17:23 10:18:53:01 10:18:54:19 
* FROM CLIP NAME:  34/06/1 
298  121      V     C        01:10:27:13 01:10:29:13 10:18:54:19 10:18:56:19 
* FROM CLIP NAME:  34/02/5 
299  122      V     C        02:05:24:07 02:05:25:22 10:18:56:19 10:18:58:09 
* FROM CLIP NAME:  34/05/1 KB 
300  121      V     C        01:10:31:03 01:10:37:23 10:18:58:09 10:19:05:04 
* FROM CLIP NAME:  34/02/5 
301  122      V     C        02:05:35:17 02:05:37:20 10:19:05:04 10:19:07:07 
* FROM CLIP NAME:  34/05/1 KB 
302  121      V     C        01:10:40:01 01:10:44:12 10:19:07:07 10:19:11:18 
* FROM CLIP NAME:  34/02/5 
303  122      V     C        02:05:39:03 02:05:42:17 10:19:11:18 10:19:15:07 
* FROM CLIP NAME:  34/05/1 KB 
304  132      V     C        12:18:04:01 12:18:16:14 10:19:15:07 10:19:27:20 
* FROM CLIP NAME:  35/01/5 KA 
305  133      V     C        13:10:34:17 13:10:38:06 10:19:27:20 10:19:31:09 
* FROM CLIP NAME:  35/01/5 KB 
306  133      V     C        13:11:46:15 13:11:53:21 10:19:31:09 10:19:38:15 
* FROM CLIP NAME:  35/02/1 
307  133      V     C        13:09:57:04 13:10:02:11 10:19:38:15 10:19:43:22 
* FROM CLIP NAME:  35/01/3 KB 
308  133      V     C        13:12:00:15 13:12:04:01 10:19:43:22 10:19:47:08 
* FROM CLIP NAME:  35/02/1 
309  133      V     C        13:10:55:12 13:10:58:17 10:19:47:08 10:19:50:13 
* FROM CLIP NAME:  35/01/5 KB 
310  132      V     C        12:20:17:12 12:20:21:00 10:19:50:13 10:19:54:01 
* FROM CLIP NAME:  35/02/4 PU KA 
311  133      V     C        13:13:05:17 13:13:08:23 10:19:54:01 10:19:57:07 
* FROM CLIP NAME:  35/02/2 KB 
312  133      V     C        13:11:05:05 13:11:06:10 10:19:57:07 10:19:58:12 
* FROM CLIP NAME:  35/01/5 KB 
313  132      V     C        12:18:49:13 12:19:02:13 10:19:58:12 10:20:11:12 
* FROM CLIP NAME:  35/01/5 KA 
314  132      V     C        12:24:57:24 12:24:59:14 10:20:11:12 10:20:13:02 
* FROM CLIP NAME:  35/03/5 
315  132      V     C        12:20:39:19 12:20:41:04 10:20:13:02 10:20:14:12 
* FROM CLIP NAME:  35/02/4 PU KA 
316  132      V     C        12:25:00:19 12:25:03:16 10:20:14:12 10:20:17:09 
* FROM CLIP NAME:  35/03/5 
317  132      V     C        12:20:45:01 12:20:46:21 10:20:17:09 10:20:19:04 
* FROM CLIP NAME:  35/02/4 PU KA 
318  132      V     C        12:25:05:11 12:25:07:18 10:20:19:04 10:20:21:11 
* FROM CLIP NAME:  35/03/5 
319  132      V     C        12:20:47:04 12:20:52:11 10:20:21:11 10:20:26:18 
* FROM CLIP NAME:  35/02/4 PU KA 
320  152      V     C        12:00:06:12 12:00:11:13 10:20:26:18 10:20:31:19 
* FROM CLIP NAME:  36/01/2 
321  152      V     C        12:01:11:15 12:01:26:07 10:20:31:19 10:20:46:11 
* FROM CLIP NAME:  36/02/4 
322  152      V     C        12:04:07:11 12:04:27:04 10:20:46:11 10:21:06:04 
* FROM CLIP NAME:  36/03/7 
323  147      V     C        07:14:37:07 07:15:00:13 10:21:06:04 10:21:29:10 
* FROM CLIP NAME:  37/01/3 
324  147      V     C        07:19:55:07 07:19:59:00 10:21:29:10 10:21:33:03 
* FROM CLIP NAME:  37/02/1 ST 
325  152      V     C        12:05:28:06 12:05:34:00 10:21:33:03 10:21:38:22 
* FROM CLIP NAME:  38/01/1 ST 
326  152      V     C        12:04:34:22 12:04:41:15 10:21:38:22 10:21:45:15 
* FROM CLIP NAME:  38/02/1 ST 
327  152      V     C        12:04:59:00 12:05:05:18 10:21:45:15 10:21:52:08 
* FROM CLIP NAME:  38/02/2 ST 
328  147      V     C        07:15:58:23 07:16:03:03 10:21:52:08 10:21:56:13 
* FROM CLIP NAME:  39/01/2 PT 
329  147      V     C        07:16:36:07 07:16:43:00 10:21:56:13 10:22:03:06 
* FROM CLIP NAME:  39/02/1 ST 
330  147      V     C        07:17:07:07 07:17:14:00 10:22:03:06 10:22:09:24 
* FROM CLIP NAME:  39/02/2 ST 
331  106      V     C        06:10:50:17 06:10:53:08 10:22:09:24 10:22:12:15 
* FROM CLIP NAME:  31/01/3 KA 
332  107      V     C        07:00:39:03 07:00:41:04 10:22:12:15 10:22:14:16 
* FROM CLIP NAME:  31/01/2 KB 
333  158      V     C        18:10:29:07 18:10:31:10 10:22:14:16 10:22:16:19 
* FROM CLIP NAME:  FRAU FAULI ANGESCHNALLT BEI AUTOFAHRT NAH 
334  107      V     C        07:00:43:01 07:00:46:01 10:22:16:19 10:22:19:19 
* FROM CLIP NAME:  31/01/2 KB 
335  106      V     C        06:06:44:24 06:06:48:24 10:22:19:19 10:22:23:19 
* FROM CLIP NAME:  40/01/2 
336  158      V     C        18:10:13:23 18:10:16:02 10:22:23:19 10:22:25:23 
* FROM CLIP NAME:  FRAU FAULI ANGESCHNALLT BEI AUTOFAHRT NAH 
337  106      V     C        06:09:25:08 06:09:33:04 10:22:25:23 10:22:33:19 
* FROM CLIP NAME:  40A/01/3 
338  106      V     C        06:07:20:19 06:07:23:18 10:22:33:19 10:22:36:18 
* FROM CLIP NAME:  40A/02/3 SK 
339  106      V     C        06:09:35:24 06:09:37:01 10:22:36:18 10:22:37:20 
* FROM CLIP NAME:  40A/01/3 
340  106      V     C        06:08:06:12 06:08:07:20 10:22:37:20 10:22:39:03 
* FROM CLIP NAME:  40A/03/1ST 
341  106      V     C        06:09:40:10 06:09:41:05 10:22:39:03 10:22:39:23 
* FROM CLIP NAME:  40A/01/3 
342  106      V     C        06:08:08:21 06:08:11:10 10:22:39:23 10:22:42:12 
* FROM CLIP NAME:  40A/03/1ST 
343  106      V     C        06:07:35:03 06:07:37:05 10:22:42:12 10:22:44:14 
* FROM CLIP NAME:  40A/02/3 SK 
344  147      V     C        07:19:43:17 07:19:45:00 10:22:44:14 10:22:45:22 
* FROM CLIP NAME:  43/00/1 
345  147      V     C        07:18:41:10 07:18:47:10 10:22:45:22 10:22:51:22 
* FROM CLIP NAME:  43/01/12 
346  147      V     C        07:19:05:14 07:19:13:11 10:22:51:22 10:22:59:19 
* FROM CLIP NAME:  43/02/1 
347  152      V     C        12:02:12:00 12:02:14:05 10:22:59:19 10:23:01:24 
* FROM CLIP NAME:  41/01/2 KB 
348  152      V     C        12:03:29:09 12:03:35:03 10:23:01:24 10:23:07:18 
* FROM CLIP NAME:  41/01/5 
349  142      V     C        02:01:27:08 02:01:44:08 10:23:07:18 10:23:24:18 
* FROM CLIP NAME:  43A/01/7 
350  151      V     C        11:00:53:07 11:00:59:13 10:23:24:18 10:23:30:24 
* FROM CLIP NAME:  42/01/6 
351  151      V     C        11:00:07:08 11:00:20:19 10:23:30:24 10:23:44:10 
* FROM CLIP NAME:  42/03/12 
352  142      V     C        02:01:45:08 02:01:50:09 10:23:44:10 10:23:49:11 
* FROM CLIP NAME:  43A/01/7 
353  151      V     C        11:00:21:22 11:00:30:01 10:23:49:11 10:23:57:15 
* FROM CLIP NAME:  42/03/12 
354  145      V     C        05:16:35:18 05:16:41:17 10:23:57:15 10:24:03:14 
* FROM CLIP NAME:  46/02/2 
355  146      V     C        06:11:00:16 06:11:05:04 10:24:03:14 10:24:08:02 
* FROM CLIP NAME:  46/01/4 KB 
356  145      V     C        05:19:04:16 05:19:13:08 10:24:08:02 10:24:16:19 
* FROM CLIP NAME:  46/01/4 KA 
357  146      V     C        06:11:13:20 06:11:21:10 10:24:16:19 10:24:24:09 
* FROM CLIP NAME:  46/01/4 KB 
358  145      V     C        05:17:00:22 05:17:02:23 10:24:24:09 10:24:26:10 
* FROM CLIP NAME:  46/02/2 
359  146      V     C        06:11:24:15 06:11:26:17 10:24:26:10 10:24:28:12 
* FROM CLIP NAME:  46/01/4 KB 
360  145      V     C        05:19:28:14 05:19:35:07 10:24:28:12 10:24:35:05 
* FROM CLIP NAME:  46/01/4 KA 
361  152      V     C        12:03:45:04 12:03:51:12 10:24:35:05 10:24:41:13 
* FROM CLIP NAME:  44/01/4 
362  161      V     C        01:05:58:08 01:06:04:17 10:24:41:13 10:24:47:22 
* FROM CLIP NAME:  45/01/3           *ANF. 
363  162      V     C        02:00:10:21 02:00:12:06 10:24:47:22 10:24:49:07 
* FROM CLIP NAME:  45/03/1 
364  161      V     C        01:11:35:12 01:11:36:18 10:24:49:07 10:24:50:13 
* FROM CLIP NAME:  45/02/4 
365  161      V     C        01:06:08:01 01:06:09:01 10:24:50:13 10:24:51:13 
* FROM CLIP NAME:  45/01/3           *ANF. 
366  162      V     C        02:02:02:14 02:02:03:22 10:24:51:13 10:24:52:21 
* FROM CLIP NAME:  45/03/2 
367  161      V     C        01:11:40:16 01:11:41:13 10:24:52:21 10:24:53:18 
* FROM CLIP NAME:  45/02/4 
368  162      V     C        02:02:04:21 02:02:06:06 10:24:53:18 10:24:55:03 
* FROM CLIP NAME:  45/03/2 
369  161      V     C        01:11:42:10 01:11:45:11 10:24:55:03 10:24:58:04 
* FROM CLIP NAME:  45/02/4 
370  162      V     C        02:00:24:10 02:00:26:08 10:24:58:04 10:25:00:02 
* FROM CLIP NAME:  45/03/1 
371  161      V     C        01:14:30:13 01:14:32:03 10:25:00:02 10:25:01:17 
* FROM CLIP NAME:  45/02/8 
372  162      V     C        02:02:13:23 02:02:16:24 10:25:01:17 10:25:04:18 
* FROM CLIP NAME:  45/03/2 
373  161      V     C        01:16:16:21 01:16:24:13 10:25:04:18 10:25:12:10 
* FROM CLIP NAME:  45/02/10 PU 
374  162      V     C        02:02:23:00 02:02:28:06 10:25:12:10 10:25:17:16 
* FROM CLIP NAME:  45/03/2 
375  161      V     C        01:16:30:11 01:16:34:13 10:25:17:16 10:25:21:18 
* FROM CLIP NAME:  45/02/10 PU 
376  162      V     C        02:02:31:13 02:02:33:00 10:25:21:18 10:25:23:05 
* FROM CLIP NAME:  45/03/2 
377  161      V     C        01:16:35:04 01:16:39:22 10:25:23:05 10:25:27:23 
* FROM CLIP NAME:  45/02/10 PU 
378  162      V     C        02:02:38:20 02:02:40:11 10:25:27:23 10:25:29:14 
* FROM CLIP NAME:  45/03/2 
379  161      V     C        01:13:47:02 01:13:53:10 10:25:29:14 10:25:35:22 
* FROM CLIP NAME:  45/02/6 
380  162      V     C        02:02:46:19 02:02:47:24 10:25:35:22 10:25:37:02 
* FROM CLIP NAME:  45/03/2 
381  161      V     C        01:16:50:02 01:16:51:17 10:25:37:02 10:25:38:17 
* FROM CLIP NAME:  45/02/10 PU 
382  162      V     C        02:01:04:21 02:01:05:13 10:25:38:17 10:25:39:09 
* FROM CLIP NAME:  45/03/1 
383  161      V     C        01:10:49:23 01:10:51:13 10:25:39:09 10:25:40:24 
* FROM CLIP NAME:  45/01/7 PU 
384  162      V     C        02:01:09:05 02:01:10:07 10:25:40:24 10:25:42:01 
* FROM CLIP NAME:  45/03/1 
385  161      V     C        01:14:00:10 01:14:03:10 10:25:42:01 10:25:45:01 
* FROM CLIP NAME:  45/02/6 
386  162      V     C        02:06:17:06 02:06:20:24 10:25:45:01 10:25:48:19 
* FROM CLIP NAME:  45/03/7 PU 
387  161      V     C        01:17:02:20 01:17:04:17 10:25:48:19 10:25:50:16 
* FROM CLIP NAME:  45/02/10 PU 
388  162      V     C        02:06:22:09 02:06:28:24 10:25:50:16 10:25:57:06 
* FROM CLIP NAME:  45/03/7 PU 
389  161      V     C        01:17:09:22 01:17:16:23 10:25:57:06 10:26:04:07 
* FROM CLIP NAME:  45/02/10 PU 
390  162      V     C        02:06:36:08 02:06:40:15 10:26:04:07 10:26:08:14 
* FROM CLIP NAME:  45/03/7 PU 
391  161      V     C        01:17:21:00 01:17:22:03 10:26:08:14 10:26:09:17 
* FROM CLIP NAME:  45/02/10 PU 
392  161      V     C        01:11:23:01 01:11:26:22 10:26:09:17 10:26:13:13 
* FROM CLIP NAME:  45/01/7 PU 
393  142      V     C        02:03:59:22 02:04:06:12 10:26:13:13 10:26:20:03 
* FROM CLIP NAME:  47/01/10 KA 
394  142      V     C        02:03:33:17 02:03:34:21 10:26:20:03 10:26:21:07 
* FROM CLIP NAME:  47/02/4 
395  141      V     C        01:01:06:07 01:01:08:24 10:26:21:07 10:26:23:24 
* FROM CLIP NAME:  47/01/7 
396  142      V     C        02:03:12:04 02:03:13:08 10:26:23:24 10:26:25:03 
* FROM CLIP NAME:  47/02/2 
397  141      V     C        01:02:13:11 01:02:17:08 10:26:25:03 10:26:29:00 
* FROM CLIP NAME:  47/01/13 KB 
398  142      V     C        02:03:15:03 02:03:16:21 10:26:29:00 10:26:30:18 
* FROM CLIP NAME:  47/02/2 
399  141      V     C        01:02:17:14 01:02:22:13 10:26:30:18 10:26:35:17 
* FROM CLIP NAME:  47/01/13 KB 
400  142      V     C        02:03:49:04 02:03:52:00 10:26:35:17 10:26:38:13 
* FROM CLIP NAME:  47/02/4 
401  141      V     C        01:07:12:10 01:07:14:13 10:26:38:13 10:26:40:16 
* FROM CLIP NAME:  48/02/3 KB 
402  144      V     C        04:05:09:13 04:05:13:06 10:26:40:16 10:26:44:09 
* FROM CLIP NAME:  48/01/1 
403  141      V     C        01:13:26:18 01:13:36:05 10:26:44:09 10:26:53:21 
* FROM CLIP NAME:  48/02/7 KB 
404  144      V     C        04:05:22:03 04:05:23:12 10:26:53:21 10:26:55:05 
* FROM CLIP NAME:  48/01/1 
405  141      V     C        01:07:26:11 01:07:30:15 10:26:55:05 10:26:59:09 
* FROM CLIP NAME:  48/02/3 KB 
406  143      V     C        03:17:13:12 03:17:14:05 10:26:59:09 10:27:00:02 
* FROM CLIP NAME:  48/01/2 KA 
407  142      V     C        02:12:17:05 02:12:19:06 10:27:00:02 10:27:02:03 
* FROM CLIP NAME:  48/03/2 ST 24BPS 
408  141      V     C        01:09:38:07 01:09:41:24 10:27:02:03 10:27:05:20 
* FROM CLIP NAME:  48/02/5 KB 
409  144      V     C        04:05:28:02 04:05:30:09 10:27:05:20 10:27:08:02 
* FROM CLIP NAME:  48/01/1 
410  141      V     C        01:09:44:06 01:09:47:09 10:27:08:02 10:27:11:05 
* FROM CLIP NAME:  48/02/5 KB 
411  144      V     C        04:05:35:13 04:05:36:19 10:27:11:05 10:27:12:11 
* FROM CLIP NAME:  48/01/1 
412  141      V     C        01:03:14:12 01:03:18:10 10:27:12:11 10:27:16:09 
* FROM CLIP NAME:  48/02/1 KB 
413  144      V     C        04:05:38:17 04:05:39:21 10:27:16:09 10:27:17:13 
* FROM CLIP NAME:  48/01/1 
414  141      V     C        01:11:53:04 01:11:56:02 10:27:17:13 10:27:20:11 
* FROM CLIP NAME:  48/02/6 KB 
415  144      V     C        04:05:46:08 04:05:48:24 10:27:20:11 10:27:23:02 
* FROM CLIP NAME:  48/01/1 
416  141      V     C        01:14:04:16 01:14:11:18 10:27:23:02 10:27:30:04 
* FROM CLIP NAME:  48/02/7 KB 
417  142      V     C        02:09:28:24 02:09:40:07 10:27:30:04 10:27:41:12 
* FROM CLIP NAME:  48/02/6 SK KA 
418  144      V     C        04:08:33:20 04:08:36:03 10:27:41:12 10:27:43:20 
* FROM CLIP NAME:  48/04/2 KB 
419  142      V     C        02:09:42:19 02:09:46:01 10:27:43:20 10:27:47:02 
* FROM CLIP NAME:  48/02/6 SK KA 
420  144      V     C        04:08:38:11 04:08:42:02 10:27:47:02 10:27:50:18 
* FROM CLIP NAME:  48/04/2 KB 
421  141      V     C        01:12:25:23 01:12:30:14 10:27:50:18 10:27:55:09 
* FROM CLIP NAME:  48/02/6 KB 
422  142      V     C        02:09:53:16 02:09:56:08 10:27:55:09 10:27:58:01 
* FROM CLIP NAME:  48/02/6 SK KA 
423  144      V     C        04:08:48:16 04:08:53:16 10:27:58:01 10:28:03:01 
* FROM CLIP NAME:  48/04/2 KB 
424  141      V     C        01:14:42:07 01:14:43:15 10:28:03:01 10:28:04:09 
* FROM CLIP NAME:  48/02/7 KB 
425  144      V     C        04:08:54:22 04:08:58:15 10:28:04:09 10:28:08:02 
* FROM CLIP NAME:  48/04/2 KB 
426  141      V     C        01:14:47:10 01:14:48:23 10:28:08:02 10:28:09:15 
* FROM CLIP NAME:  48/02/7 KB 
427  144      V     C        04:08:59:00 04:09:00:19 10:28:09:15 10:28:11:09 
* FROM CLIP NAME:  48/04/2 KB 
428  142      V     C        02:11:21:23 02:11:25:10 10:28:11:09 10:28:14:21 
* FROM CLIP NAME:  48/02/7 SK KA 
429  144      V     C        04:09:06:20 04:09:11:00 10:28:14:21 10:28:19:01 
* FROM CLIP NAME:  48/04/2 KB 
430  141      V     C        01:14:59:16 01:15:01:10 10:28:19:01 10:28:20:20 
* FROM CLIP NAME:  48/02/7 KB 
431  142      V     C        02:11:32:10 02:11:37:05 10:28:20:20 10:28:25:15 
* FROM CLIP NAME:  48/02/7 SK KA 
432  144      V     C        04:09:17:20 04:09:19:22 10:28:25:15 10:28:27:17 
* FROM CLIP NAME:  48/04/2 KB 
433  143      V     C        03:22:08:23 03:22:11:09 10:28:27:17 10:28:30:03 
* FROM CLIP NAME:  48/04/2 KA 
434  144      V     C        04:09:22:06 04:09:24:02 10:28:30:03 10:28:31:24 
* FROM CLIP NAME:  48/04/2 KB 
435  143      V     C        03:22:13:02 03:22:14:13 10:28:31:24 10:28:33:10 
* FROM CLIP NAME:  48/04/2 KA 
436  144      V     C        04:09:25:12 04:09:27:20 10:28:33:10 10:28:35:18 
* FROM CLIP NAME:  48/04/2 KB 
437  143      V     C        03:22:16:21 03:22:18:22 10:28:35:18 10:28:37:19 
* FROM CLIP NAME:  48/04/2 KA 
438  144      V     C        04:09:29:21 04:09:33:02 10:28:37:19 10:28:41:00 
* FROM CLIP NAME:  48/04/2 KB 
439  143      V     C        03:22:22:03 03:22:24:22 10:28:41:00 10:28:43:19 
* FROM CLIP NAME:  48/04/2 KA 
440  143      V     C        03:18:53:02 03:18:54:22 10:28:43:19 10:28:45:14 
* FROM CLIP NAME:  48/06/6 
441  143      V     C        03:23:03:00 03:23:04:11 10:28:45:14 10:28:47:00 
* FROM CLIP NAME:  48/05/2 
442  143      V     C        03:18:56:08 03:18:58:04 10:28:47:00 10:28:48:21 
* FROM CLIP NAME:  48/06/6 
443  143      V     C        03:23:43:13 03:23:45:17 10:28:48:21 10:28:51:00 
* FROM CLIP NAME:  48/05/3 
444  143      V     C        03:19:00:13 03:19:01:24 10:28:51:00 10:28:52:11 
* FROM CLIP NAME:  48/06/6 
445  143      V     C        03:20:46:11 03:20:48:19 10:28:52:11 10:28:54:19 
* FROM CLIP NAME:  48/04/1 KA 
446  143      V     C        03:19:04:19 03:19:06:20 10:28:54:19 10:28:56:20 
* FROM CLIP NAME:  48/06/6 
447  143      V     C        03:20:51:03 03:20:57:07 10:28:56:20 10:29:02:24 
* FROM CLIP NAME:  48/04/1 KA 
448  143      V     C        03:19:11:16 03:19:14:20 10:29:02:24 10:29:06:03 
* FROM CLIP NAME:  48/06/6 
449  143      V     C        03:24:02:15 03:24:05:17 10:29:06:03 10:29:09:05 
* FROM CLIP NAME:  48/05/3 
450  143      V     C        03:19:15:14 03:19:18:13 10:29:09:05 10:29:12:04 
* FROM CLIP NAME:  48/06/6 
451  123      V     C        03:12:32:19 03:12:47:02 10:29:12:04 10:29:26:12 
* FROM CLIP NAME:  49/01/3 
452  123      V     C        03:13:39:03 03:13:43:15 10:29:26:12 10:29:30:24 
* FROM CLIP NAME:  49/02/3 
453  123      V     C        03:12:49:17 03:12:50:19 10:29:30:24 10:29:32:01 
* FROM CLIP NAME:  49/01/3 
454  123      V     C        03:14:13:14 03:14:16:02 10:29:32:01 10:29:34:14 
* FROM CLIP NAME:  49/02/4 
455  123      V     C        03:12:53:08 03:12:55:18 10:29:34:14 10:29:36:24 
* FROM CLIP NAME:  49/01/3 
456  123      V     C        03:14:17:09 03:14:19:08 10:29:36:24 10:29:38:23 
* FROM CLIP NAME:  49/02/4 
457  123      V     C        03:12:57:22 03:13:01:01 10:29:38:23 10:29:42:02 
* FROM CLIP NAME:  49/01/3 
458  123      V     C        03:13:54:01 03:13:58:12 10:29:42:02 10:29:46:13 
* FROM CLIP NAME:  49/02/3 
459  119      V     C        19:12:41:13 19:13:10:19 10:29:46:13 10:30:15:19 
* FROM CLIP NAME:  50/01/4 
460  119      V     C        19:14:29:17 19:14:58:01 10:30:15:19 10:30:44:03 
* FROM CLIP NAME:  50/02/4 
461  106      V     C        06:05:17:18 06:05:19:20 10:30:44:03 10:30:46:05 
* FROM CLIP NAME:  51/02/3 
462  106      V     C        06:04:48:08 06:04:52:21 10:30:46:05 10:30:50:18 
* FROM CLIP NAME:  51/01/3 
463  106      V     C        06:05:23:22 06:05:26:16 10:30:50:18 10:30:53:12 
* FROM CLIP NAME:  51/02/3 
464  106      V     C        06:05:36:19 06:05:38:04 10:30:53:12 10:30:54:22 
* FROM CLIP NAME:  51/03/1 
465  106      V     C        06:05:26:20 06:05:28:16 10:30:54:22 10:30:56:18 
* FROM CLIP NAME:  51/02/3 
466  121      V     C        01:20:37:14 01:20:40:24 10:30:56:18 10:31:00:03 
* FROM CLIP NAME:  53/01/2 KA 
467  121      V     C        01:16:27:23 01:16:29:24 10:31:00:03 10:31:02:04 
* FROM CLIP NAME:  53/02/6 KA 
468  122      V     C        02:12:17:13 02:12:19:23 10:31:02:04 10:31:04:14 
* FROM CLIP NAME:  53/02/6 KB 
469  122      V     C        02:10:11:18 02:10:14:20 10:31:04:14 10:31:07:16 
* FROM CLIP NAME:  53/02/4 KB 
470  122      V     C        02:12:24:19 02:12:26:00 10:31:07:16 10:31:08:22 
* FROM CLIP NAME:  53/02/6 KB 
471  121      V     C        01:20:54:15 01:20:56:01 10:31:08:22 10:31:10:08 
* FROM CLIP NAME:  53/01/2 KA 
472  122      V     C        02:12:32:21 02:12:37:17 10:31:10:08 10:31:15:04 
* FROM CLIP NAME:  53/02/6 KB 
473  122      V     C        02:19:52:11 02:19:55:10 10:31:15:04 10:31:18:03 
* FROM CLIP NAME:  53/01/7 PU KB 
474  122      V     C        02:09:27:11 02:09:30:06 10:31:18:03 10:31:20:23 
* FROM CLIP NAME:  53/02/2 KB 
475  121      V     C        01:21:05:17 01:21:06:07 10:31:20:23 10:31:21:13 
* FROM CLIP NAME:  53/01/2 KA 
476  122      V     C        02:09:30:21 02:09:31:24 10:31:21:13 10:31:22:16 
* FROM CLIP NAME:  53/02/2 KB 
477  121      V     C        01:21:07:17 01:21:09:17 10:31:22:16 10:31:24:16 
* FROM CLIP NAME:  53/01/2 KA 
478  122      V     C        02:09:34:06 02:09:35:22 10:31:24:16 10:31:26:07 
* FROM CLIP NAME:  53/02/2 KB 
479  122      V     C        02:17:05:14 02:17:06:19 10:31:26:07 10:31:27:12 
* FROM CLIP NAME:  53/01/2 KB 
480  132      V     C        12:04:33:11 12:04:37:10 10:31:27:12 10:31:31:11 
* FROM CLIP NAME:  53/02A/3 
481  122      V     C        02:17:11:23 02:17:14:02 10:31:31:11 10:31:33:15 
* FROM CLIP NAME:  53/01/2 KB 
482  121      V     C        01:24:00:09 01:24:02:06 10:31:33:15 10:31:35:12 
* FROM CLIP NAME:  53/04/3 
483  132      V     C        12:04:41:21 12:04:43:07 10:31:35:12 10:31:36:23 
* FROM CLIP NAME:  53/02A/3 
484  121      V     C        01:17:10:23 01:17:14:11 10:31:36:23 10:31:40:11 
* FROM CLIP NAME:  53/02/6 KA 
485  121      V     C        01:18:30:09 01:18:34:01 10:31:40:11 10:31:44:03 
* FROM CLIP NAME:  53/03/4 KA 
486  122      V     C        02:14:04:06 02:14:06:16 10:31:44:03 10:31:46:13 
* FROM CLIP NAME:  53/03/4 KB 
487  121      V     C        01:18:36:13 01:18:38:07 10:31:46:13 10:31:48:07 
* FROM CLIP NAME:  53/03/4 KA 
488  121      V     C        01:23:17:21 01:23:22:10 10:31:48:07 10:31:52:21 
* FROM CLIP NAME:  53/01/5 KA 
489  121      V     C        01:17:20:08 01:17:23:19 10:31:52:21 10:31:56:07 
* FROM CLIP NAME:  53/02/6 KA 
490  106      V     C        06:02:50:21 06:02:59:24 10:31:56:07 10:32:05:10 
* FROM CLIP NAME:  54/01/4 
491  119      V     C        19:06:42:11 19:06:46:11 10:32:05:10 10:32:09:10 
* FROM CLIP NAME:  54/02/2 
492  106      V     C        06:02:36:01 06:02:38:01 10:32:09:10 10:32:11:10 
* FROM CLIP NAME:  54/01/3 
493  106      V     C        06:00:03:11 06:00:06:18 10:32:11:10 10:32:14:17 
* FROM CLIP NAME:  54/04/1 
494  106      V     C        06:03:19:15 06:03:22:18 10:32:14:17 10:32:17:20 
* FROM CLIP NAME:  54/03/2 
495  106      V     C        06:06:10:21 06:06:12:18 10:32:17:20 10:32:19:17 
* FROM CLIP NAME:  54/05/2 
496  106      V     C        06:00:59:20 06:01:02:04 10:32:19:17 10:32:22:01 
* FROM CLIP NAME:  54/04/3 
497  106      V     C        06:06:14:17 06:06:16:18 10:32:22:01 10:32:24:02 
* FROM CLIP NAME:  54/05/2 
498  106      V     C        06:01:24:01 06:01:25:20 10:32:24:02 10:32:25:21 
* FROM CLIP NAME:  54/04A/1 
499  106      V     C        06:03:29:05 06:03:31:20 10:32:25:21 10:32:28:11 
* FROM CLIP NAME:  54/03/2 
500  119      V     C        19:16:34:04 19:16:40:00 10:32:28:11 10:32:34:07 
* FROM CLIP NAME:  55/01/4 KA FL.KL. 
501  121      V     C        01:25:04:17 01:25:07:22 10:32:34:07 10:32:37:12 
* FROM CLIP NAME:  55/02/4 
502  119      V     C        19:15:50:13 19:15:52:15 10:32:37:12 10:32:39:14 
* FROM CLIP NAME:  55/01/2 KA 
503  121      V     C        01:24:25:19 01:24:28:08 10:32:39:14 10:32:42:03 
* FROM CLIP NAME:  55/02/2 
504  120      V     C        20:03:32:11 20:03:35:17 10:32:42:03 10:32:45:09 
* FROM CLIP NAME:  55/01/2 KB 
505  119      V     C        19:05:01:04 19:05:03:23 10:32:45:09 10:32:48:03 
* FROM CLIP NAME:  56/01/5 SK 
506  119      V     C        19:03:23:10 19:03:27:00 10:32:48:03 10:32:51:18 
* FROM CLIP NAME:  56/02/1 
507  119      V     C        19:07:43:21 19:07:45:01 10:32:51:18 10:32:52:23 
* FROM CLIP NAME:  56/03/2 KA 
508  119      V     C        19:03:27:16 19:03:28:15 10:32:52:23 10:32:53:22 
* FROM CLIP NAME:  56/02/1 
509  120      V     C        20:02:41:05 20:02:43:18 10:32:53:22 10:32:56:10 
* FROM CLIP NAME:  56/03/2 KB 
510  119      V     C        19:06:05:17 19:06:06:18 10:32:56:10 10:32:57:11 
* FROM CLIP NAME:  56/05/4 SK 
511  119      V     C        19:04:06:03 19:04:07:07 10:32:57:11 10:32:58:15 
* FROM CLIP NAME:  56/02/2 
512  119      V     C        19:06:07:09 19:06:08:17 10:32:58:15 10:32:59:23 
* FROM CLIP NAME:  56/05/4 SK 
513  119      V     C        19:08:47:04 19:08:48:20 10:32:59:23 10:33:01:14 
* FROM CLIP NAME:  56/04/2 
514  119      V     C        19:10:04:19 19:10:06:04 10:33:01:14 10:33:02:24 
* FROM CLIP NAME:  56/04A/3 
515  119      V     C        19:08:50:12 19:08:53:07 10:33:02:24 10:33:05:19 
* FROM CLIP NAME:  56/04/2 
516  119      V     C        19:09:21:23 19:09:23:15 10:33:05:19 10:33:07:11 
* FROM CLIP NAME:  56/04A/1 
517  119      V     C        19:05:55:24 19:05:56:21 10:33:07:11 10:33:08:08 
* FROM CLIP NAME:  56/05/2 SK 
518  119      V     C        19:08:55:20 19:08:56:22 10:33:08:08 10:33:09:10 
* FROM CLIP NAME:  56/04/2 
519  119      V     C        19:10:12:08 19:10:15:02 10:33:09:10 10:33:12:04 
* FROM CLIP NAME:  56/04A/3 
520  119      V     C        19:07:25:18 19:07:27:15 10:33:12:04 10:33:14:01 
* FROM CLIP NAME:  56/03/1 KA 
521  120      V     C        20:01:29:24 20:01:35:04 10:33:14:01 10:33:19:06 
* FROM CLIP NAME:  56/06/2 KB 
522  130      V     C        10:19:44:07 10:19:48:17 10:33:19:06 10:33:23:16 
* FROM CLIP NAME:  57/01/3 KA 
523  122      V     C        02:14:31:17 02:14:33:17 10:33:23:16 10:33:25:16 
* FROM CLIP NAME:  53/03/5 KB 
524  130      V     C        10:10:13:07 10:10:15:21 10:33:25:16 10:33:28:05 
* FROM CLIP NAME:  57/04/3 KA    SCHREIBEN 
525  130      V     C        10:06:35:21 10:06:37:03 10:33:28:05 10:33:29:12 
* FROM CLIP NAME:  57/03/2 KA 
526  131      V     C        11:13:30:00 11:13:33:07 10:33:29:12 10:33:32:19 
* FROM CLIP NAME:  57/01/1 KB  * 
527  130      V     C        10:05:08:13 10:05:10:24 10:33:32:19 10:33:35:05 
* FROM CLIP NAME:  57/03/1 KA 
528  131      V     C        11:13:35:18 11:13:38:01 10:33:35:05 10:33:37:13 
* FROM CLIP NAME:  57/01/1 KB  * 
529  131      V     C        11:00:29:11 11:00:30:16 10:33:37:13 10:33:38:18 
* FROM CLIP NAME:  57/02/1 KB NK 
530  131      V     C        11:06:29:24 11:06:33:20 10:33:38:18 10:33:42:14 
* FROM CLIP NAME:  57/03/2 KB 
531  131      V     C        11:00:35:16 11:00:36:17 10:33:42:14 10:33:43:15 
* FROM CLIP NAME:  57/02/1 KB NK 
532  131      V     C        11:06:35:09 11:06:36:14 10:33:43:15 10:33:44:20 
* FROM CLIP NAME:  57/03/2 KB 
533  131      V     C        11:13:44:24 11:13:46:16 10:33:44:20 10:33:46:12 
* FROM CLIP NAME:  57/01/1 KB  * 
534  130      V     C        10:03:43:19 10:03:46:06 10:33:46:12 10:33:48:24 
* FROM CLIP NAME:  57/02/4 KA 
535  131      V     C        11:13:48:09 11:13:51:06 10:33:48:24 10:33:51:21 
* FROM CLIP NAME:  57/01/1 KB  * 
536  131      V     C        11:03:46:01 11:03:49:07 10:33:51:21 10:33:55:02 
* FROM CLIP NAME:  57/02/4 KB 
537  131      V     C        11:06:44:06 11:06:46:04 10:33:55:02 10:33:57:00 
* FROM CLIP NAME:  57/03/2 KB 
538  131      V     C        11:03:51:05 11:03:52:24 10:33:57:00 10:33:58:19 
* FROM CLIP NAME:  57/02/4 KB 
539  131      V     C        11:14:00:15 11:14:02:18 10:33:58:19 10:34:00:22 
* FROM CLIP NAME:  57/01/1 KB  * 
540  131      V     C        11:05:29:13 11:05:31:18 10:34:00:22 10:34:03:02 
* FROM CLIP NAME:  57/03/1 KB 
541  131      V     C        11:14:04:22 11:14:07:14 10:34:03:02 10:34:05:19 
* FROM CLIP NAME:  57/01/1 KB  * 
542  131      V     C        11:04:00:09 11:04:03:10 10:34:05:19 10:34:08:20 
* FROM CLIP NAME:  57/02/4 KB 
543  130      V     C        10:04:06:02 10:04:08:16 10:34:08:20 10:34:11:09 
* FROM CLIP NAME:  57/02/4 KA 
544  130      V     C        10:12:29:12 10:12:46:01 10:34:11:09 10:34:27:23 
* FROM CLIP NAME:  57/04/9 PU      1. SATZ VIERAUGE 
545  119      V     C        19:00:26:12 19:00:29:21 10:34:27:23 10:34:31:07 
* FROM CLIP NAME:  58/01/2 
546  119      V     C        19:02:56:22 19:02:58:17 10:34:31:07 10:34:33:02 
* FROM CLIP NAME:  58/02/2 SK KA 
547  119      V     C        19:00:31:06 19:00:32:11 10:34:33:02 10:34:34:07 
* FROM CLIP NAME:  58/01/2 
548  130      V     C        10:20:48:15 10:20:50:24 10:34:34:07 10:34:36:16 
* FROM CLIP NAME:  57/01/3 KA 
549  131      V     C        11:07:41:03 11:07:43:18 10:34:36:16 10:34:39:06 
* FROM CLIP NAME:  57/03/6 PU    ATTILA NAH 
550  131      V     C        11:04:18:08 11:04:20:05 10:34:39:06 10:34:41:03 
* FROM CLIP NAME:  57/02/4 KB 
551  131      V     C        11:14:30:02 11:14:30:15 10:34:41:03 10:34:41:16 
* FROM CLIP NAME:  57/01/1 KB  * 
552  130      V     C        10:01:13:03 10:01:17:09 10:34:41:16 10:34:45:22 
* FROM CLIP NAME:  57/02/2 KA 
553  131      V     C        11:14:34:00 11:14:35:07 10:34:45:22 10:34:47:04 
* FROM CLIP NAME:  57/01/1 KB  * 
554  130      V     C        10:19:15:22 10:19:19:15 10:34:47:04 10:34:50:22 
* FROM CLIP NAME:  57/01/1 KA 
555  131      V     C        11:16:22:14 11:16:24:07 10:34:50:22 10:34:52:15 
* FROM CLIP NAME:  57/01/3 KB 
556  131      V     C        11:07:56:04 11:07:57:00 10:34:52:15 10:34:53:11 
* FROM CLIP NAME:  57/03/6 PU    ATTILA NAH 
557  131      V     C        11:16:25:03 11:16:27:01 10:34:53:11 10:34:55:09 
* FROM CLIP NAME:  57/01/3 KB 
558  120      V     C        20:01:02:03 20:01:04:23 10:34:55:09 10:34:58:04 
* FROM CLIP NAME:  60/01/3 KB 
559  119      V     C        19:01:08:02 19:01:10:09 10:34:58:04 10:35:00:11 
* FROM CLIP NAME:  60/01/2 KA 
560  120      V     C        20:00:42:13 20:00:49:00 10:35:00:11 10:35:06:23 
* FROM CLIP NAME:  60/01/2 KB 
561  119      V     C        19:02:32:22 19:02:39:21 10:35:06:23 10:35:13:22 
* FROM CLIP NAME:  60/01/5 PU KA 
562  130      V     C        10:15:14:09 10:15:17:06 10:35:13:22 10:35:16:19 
* FROM CLIP NAME:  59A/02/6 PT KA 
563  130      V     C        10:22:34:07 10:22:35:10 10:35:16:19 10:35:17:22 
* FROM CLIP NAME:  59A/03/4 PT KA 
564  131      V     C        11:18:18:07 11:18:19:12 10:35:17:22 10:35:19:02 
* FROM CLIP NAME:  59A/03/4 PT KB 
565  130      V     C        10:15:17:06 10:15:18:06 10:35:19:02 10:35:20:02 
* FROM CLIP NAME:  59A/02/6 PT KA 
566  131      V     C        11:17:26:03 11:17:27:09 10:35:20:02 10:35:21:08 
* FROM CLIP NAME:  59A/03/2 PT KB 
567  130      V     C        10:15:18:08 10:15:19:23 10:35:21:08 10:35:22:23 
* FROM CLIP NAME:  59A/02/6 PT KA 
568  130      V     C        10:16:01:11 10:16:03:04 10:35:22:23 10:35:24:16 
* FROM CLIP NAME:  59A/04/3 PT KA 
569  130      V     C        10:15:22:11 10:15:23:03 10:35:24:16 10:35:25:08 
* FROM CLIP NAME:  59A/02/6 PT KA 
570  131      V     C        11:12:15:02 11:12:16:11 10:35:25:08 10:35:26:17 
* FROM CLIP NAME:  59A/02/6 PT KB 
571  130      V     C        10:16:05:14 10:16:07:18 10:35:26:17 10:35:28:21 
* FROM CLIP NAME:  59A/04/3 PT KA 
572  131      V     C        11:12:56:05 11:12:56:23 10:35:28:21 10:35:29:14 
* FROM CLIP NAME:  59A/04/3 PT KB 
573  130      V     C        10:16:07:21 10:16:09:04 10:35:29:14 10:35:30:22 
* FROM CLIP NAME:  59A/04/3 PT KA 
574  131      V     C        11:12:57:00 11:12:59:03 10:35:30:22 10:35:33:00 
* FROM CLIP NAME:  59A/04/3 PT KB 
575  130      V     C        10:22:46:15 10:22:48:15 10:35:33:00 10:35:35:00 
* FROM CLIP NAME:  59A/03/4 PT KA 
576  131      V     C        11:13:00:24 11:13:01:19 10:35:35:00 10:35:35:20 
* FROM CLIP NAME:  59A/04/3 PT KB 
577  130      V     C        10:22:49:15 10:22:50:19 10:35:35:20 10:35:36:24 
* FROM CLIP NAME:  59A/03/4 PT KA 
578  119      V     C        19:11:19:14 19:11:20:08 10:35:36:24 10:35:37:18 
* FROM CLIP NAME:  61/00/1 PT 
579  130      V     C        10:22:51:15 10:22:53:02 10:35:37:18 10:35:39:05 
* FROM CLIP NAME:  59A/03/4 PT KA 
580  119      V     C        19:11:03:12 19:11:05:23 10:35:39:05 10:35:41:16 
* FROM CLIP NAME:  61/01/4 PT 
581  119      V     C        19:11:52:23 19:11:57:07 10:35:41:16 10:35:46:00 
* FROM CLIP NAME:  61/02/2 SK 
582  119      V     C        19:12:19:01 19:12:20:00 10:35:46:00 10:35:46:24 
* FROM CLIP NAME:  61/03/1 
583  119      V     C        19:11:58:08 19:12:03:10 10:35:46:24 10:35:52:01 
* FROM CLIP NAME:  61/02/2 SK 
584  119      V     C        19:12:24:20 19:12:25:21 10:35:52:01 10:35:53:02 
* FROM CLIP NAME:  61/03/1 
585  119      V     C        19:12:04:11 19:12:07:02 10:35:53:02 10:35:55:18 
* FROM CLIP NAME:  61/02/2 SK 
586  119      V     C        19:12:29:06 19:12:31:05 10:35:55:18 10:35:57:17 
* FROM CLIP NAME:  61/03/1 
587  123      V     C        03:04:30:08 03:04:30:21 10:35:57:17 10:35:58:05 
* FROM CLIP NAME:  62/00/1 
588  123      V     C        03:04:00:09 03:04:01:16 10:35:58:05 10:35:59:12 
* FROM CLIP NAME:  62/01/1 
589  123      V     C        03:04:33:11 03:04:36:21 10:35:59:12 10:36:02:22 
* FROM CLIP NAME:  62/00/1 
590  123      V     C        03:04:06:23 03:04:08:01 10:36:02:22 10:36:04:00 
* FROM CLIP NAME:  62/01/1 
591  123      V     C        03:04:54:23 03:04:58:18 10:36:04:00 10:36:07:20 
* FROM CLIP NAME:  62/02/1 
592  123      V     C        03:06:09:13 03:06:12:12 10:36:07:20 10:36:10:19 
* FROM CLIP NAME:  63/01/2 KA 
593  123      V     C        03:08:36:23 03:08:38:02 10:36:10:19 10:36:11:23 
* FROM CLIP NAME:  63/02/4 
594  124      V     C        04:00:06:01 04:00:08:09 10:36:11:23 10:36:14:06 
* FROM CLIP NAME:  63/01/1 KB 
595  123      V     C        03:08:38:12 03:08:40:04 10:36:14:06 10:36:15:23 
* FROM CLIP NAME:  63/02/4 
596  123      V     C        03:05:31:03 03:05:34:04 10:36:15:23 10:36:18:24 
* FROM CLIP NAME:  63/01/1 KA 
597  123      V     C        03:05:50:12 03:05:54:17 10:36:18:24 10:36:23:04 
* FROM CLIP NAME:  63/01/1 (2) ST 
598  123      V     C        03:08:40:13 03:08:48:18 10:36:23:04 10:36:31:09 
* FROM CLIP NAME:  63/02/4 
599  123      V     C        03:07:30:22 03:07:32:19 10:36:31:09 10:36:33:06 
* FROM CLIP NAME:  63/03/2 
600  123      V     C        03:06:56:15 03:06:57:22 10:36:33:06 10:36:34:13 
* FROM CLIP NAME:  63/04/2 
601  123      V     C        03:07:33:22 03:07:43:16 10:36:34:13 10:36:44:07 
* FROM CLIP NAME:  63/03/2 
602  114      V     C        14:01:53:16 14:01:58:00 10:36:44:07 10:36:48:16 
* FROM CLIP NAME:  64/01/6 
603  114      V     C        14:04:20:14 14:04:21:23 10:36:48:16 10:36:50:00 
* FROM CLIP NAME:  64/03/2 
604  114      V     C        14:01:58:18 14:02:04:23 10:36:50:00 10:36:56:05 
* FROM CLIP NAME:  64/01/6 
605  114      V     C        14:07:13:06 14:07:14:20 10:36:56:05 10:36:57:19 
* FROM CLIP NAME:  64/02/4 
606  114      V     C        14:02:06:22 14:02:08:08 10:36:57:19 10:36:59:05 
* FROM CLIP NAME:  64/01/6 
607  148      V     C        08:02:28:22 08:02:30:17 10:36:59:05 10:37:01:00 
* FROM CLIP NAME:  65/01/4 KA 
608  114      V     C        14:02:09:14 14:02:14:13 10:37:01:00 10:37:05:24 
* FROM CLIP NAME:  64/01/6 
609  114      V     C        14:06:20:12 14:06:23:04 10:37:05:24 10:37:08:16 
* FROM CLIP NAME:  64/03/4 
610  114      V     C        14:03:03:19 14:03:05:12 10:37:08:16 10:37:10:09 
* FROM CLIP NAME:  64/01/11 PU 
611  114      V     C        14:06:24:18 14:06:26:12 10:37:10:09 10:37:12:03 
* FROM CLIP NAME:  64/03/4 
612  114      V     C        14:03:54:10 14:03:57:14 10:37:12:03 10:37:15:07 
* FROM CLIP NAME:  64/01/13 PU 
613  114      V     C        14:06:30:01 14:06:30:18 10:37:15:07 10:37:15:24 
* FROM CLIP NAME:  64/03/4 
614  114      V     C        14:03:57:24 14:04:02:07 10:37:15:24 10:37:20:07 
* FROM CLIP NAME:  64/01/13 PU 
615  115      V     C        15:00:17:01 15:00:18:21 10:37:20:07 10:37:22:02 
* FROM CLIP NAME:  64/05/1 ST 
616  114      V     C        14:03:17:08 14:03:20:18 10:37:22:02 10:37:25:12 
* FROM CLIP NAME:  64/01/11 PU 
617  114      V     C        14:04:57:02 14:04:58:05 10:37:25:12 10:37:26:15 
* FROM CLIP NAME:  64/03/2 
618  148      V     C        08:02:40:10 08:02:51:21 10:37:26:15 10:37:38:01 
* FROM CLIP NAME:  65/01/4 KA 
619  114      V     C        14:01:43:01 14:01:44:20 10:37:38:01 10:37:39:20 
* FROM CLIP NAME:  64/01/3 
620  114      V     C        14:06:44:23 14:06:46:22 10:37:39:20 10:37:41:19 
* FROM CLIP NAME:  64/03/4 
621  148      V     C        08:02:53:19 08:03:01:14 10:37:41:19 10:37:49:14 
* FROM CLIP NAME:  65/01/4 KA 
622  149      V     C        09:01:12:20 09:01:14:18 10:37:49:14 10:37:51:12 
* FROM CLIP NAME:  65/01/4 KB 
623  148      V     C        08:03:03:12 08:03:08:19 10:37:51:12 10:37:56:19 
* FROM CLIP NAME:  65/01/4 KA 
624  149      V     C        09:01:20:00 09:01:21:04 10:37:56:19 10:37:57:23 
* FROM CLIP NAME:  65/01/4 KB 
625  148      V     C        08:03:09:23 08:03:11:15 10:37:57:23 10:37:59:15 
* FROM CLIP NAME:  65/01/4 KA 
626  114      V     C        14:08:42:07 14:08:53:08 10:37:59:15 10:38:10:16 
* FROM CLIP NAME:  66/01/1 
627  114      V     C        14:16:40:24 14:16:42:01 10:38:10:16 10:38:11:18 
* FROM CLIP NAME:  66/02/3 
628  114      V     C        14:11:47:12 14:11:48:22 10:38:11:18 10:38:13:03 
* FROM CLIP NAME:  66/01/6 PU 
629  114      V     C        14:16:44:16 14:16:47:24 10:38:13:03 10:38:16:11 
* FROM CLIP NAME:  66/02/3 
630  114      V     C        14:12:55:14 14:12:58:23 10:38:16:11 10:38:19:20 
* FROM CLIP NAME:  66/01/8 PU 
631  114      V     C        14:19:23:01 14:19:28:02 10:38:19:20 10:38:24:21 
* FROM CLIP NAME:  66/02/4 
632  114      V     C        14:13:04:06 14:13:06:05 10:38:24:21 10:38:26:20 
* FROM CLIP NAME:  66/01/8 PU 
633  114      V     C        14:20:40:03 14:20:42:04 10:38:26:20 10:38:28:21 
* FROM CLIP NAME:  66/02/5 
634  114      V     C        14:13:07:15 14:13:10:00 10:38:28:21 10:38:31:06 
* FROM CLIP NAME:  66/01/8 PU 
635  114      V     C        14:20:45:10 14:20:48:12 10:38:31:06 10:38:34:08 
* FROM CLIP NAME:  66/02/5 
636  114      V     C        14:13:13:08 14:13:15:08 10:38:34:08 10:38:36:08 
* FROM CLIP NAME:  66/01/8 PU 
637  114      V     C        14:21:38:02 14:21:43:18 10:38:36:08 10:38:41:24 
* FROM CLIP NAME:  66/02/8 PU 
638  114      V     C        14:10:38:17 14:10:44:02 10:38:41:24 10:38:47:09 
* FROM CLIP NAME:  66/01/4 
639  114      V     C        14:21:00:08 14:21:02:04 10:38:47:09 10:38:49:05 
* FROM CLIP NAME:  66/02/5 
640  114      V     C        14:12:27:10 14:12:35:04 10:38:49:05 10:38:56:24 
* FROM CLIP NAME:  66/01/6 PU 
641  114      V     C        14:17:40:00 14:17:43:04 10:38:56:24 10:39:00:03 
* FROM CLIP NAME:  66/02/3 
642  114      V     C        14:13:42:08 14:13:45:03 10:39:00:03 10:39:02:23 
* FROM CLIP NAME:  66/01/8 PU 
643  114      V     C        14:20:13:11 14:20:14:00 10:39:02:23 10:39:03:12 
* FROM CLIP NAME:  66/02/4 
644  114      V     C        14:13:45:21 14:13:46:07 10:39:03:12 10:39:03:23 
* FROM CLIP NAME:  66/01/8 PU 
645  143      V     C        03:25:21:09 03:25:22:03 10:39:03:23 10:39:04:17 
* FROM CLIP NAME:  66/04A/4 
646  114      V     C        14:14:08:07 14:14:08:13 10:39:04:17 10:39:04:23 
* FROM CLIP NAME:  66/03/2 
647  114      V     C        14:22:41:02 14:22:42:12 10:39:04:23 10:39:06:08 
* FROM CLIP NAME:  66/04/4 
648  114      V     C        14:14:19:18 14:14:20:18 10:39:06:08 10:39:07:08 
* FROM CLIP NAME:  66/05/2 
649  114      V     C        14:22:24:00 14:22:25:09 10:39:07:08 10:39:08:17 
* FROM CLIP NAME:  66/04/3 
650  114      V     C        14:14:52:09 14:15:12:16 10:39:08:17 10:39:28:24 
* FROM CLIP NAME:  66/05/3 
651  111      V     C        11:21:19:18 11:21:22:05 10:39:28:24 10:39:31:11 
* FROM CLIP NAME:  67/01/2 
652  111      V     C        11:05:12:03 11:05:23:19 10:39:31:11 10:39:43:02 
* FROM CLIP NAME:  67/02/4 
653  111      V     C        11:20:41:00 11:20:46:07 10:39:43:02 10:39:48:09 
* FROM CLIP NAME:  67/04/4 
654  111      V     C        11:08:03:23 11:08:08:17 10:39:48:09 10:39:53:03 
* FROM CLIP NAME:  67/03/4 
655  111      V     C        11:20:48:15 11:20:50:17 10:39:53:03 10:39:55:05 
* FROM CLIP NAME:  67/04/4 
656  111      V     C        11:08:11:10 11:08:13:24 10:39:55:05 10:39:57:19 
* FROM CLIP NAME:  67/03/4 
657  111      V     C        11:08:13:24 11:08:13:24 10:39:57:19 10:39:57:19 
657  158      V     D    150 18:05:05:00 18:05:11:19 10:39:57:19 10:40:04:13 
M2   158            037.5                18:05:05:00 
* BLEND_DISSOLVE_LOG 
* FROM CLIP NAME:  67/03/4 
* TO CLIP NAME:  68/INSERT/2 ST 
658     BL    V     C        00:00:00:00 00:00:02:13 10:40:04:13 10:40:07:01 
659  138      V     C        18:01:02:14 18:01:04:11 10:40:07:01 10:40:08:23 
* FROM CLIP NAME:  69B/01/5 KB. 
660  137      V     C        17:01:58:10 17:02:03:19 10:40:08:23 10:40:14:07 
* FROM CLIP NAME:  69B/01/5 KA 
661  138      V     C        18:01:09:20 18:01:18:08 10:40:14:07 10:40:22:20 
* FROM CLIP NAME:  69B/01/5 KB. 
662  161      V     C        01:05:41:02 01:05:46:01 10:40:22:20 10:40:27:19 
* FROM CLIP NAME:  69C/01/6 
663  161      V     C        01:05:17:22 01:05:21:08 10:40:27:19 10:40:31:05 
* FROM CLIP NAME:  69C/01/5 SK 
664  133      V     C        13:03:57:11 13:03:59:12 10:40:31:05 10:40:33:06 
* FROM CLIP NAME:  70/01/4 KB 
665  132      V     C        12:05:50:05 12:05:51:06 10:40:33:06 10:40:34:07 
* FROM CLIP NAME:  70/01/4 KA 
666  132      V     C        12:01:54:05 12:01:56:15 10:40:34:07 10:40:36:17 
* FROM CLIP NAME:  70/02/7 KA 
667  132      V     C        12:05:53:21 12:05:55:19 10:40:36:17 10:40:38:15 
* FROM CLIP NAME:  70/01/4 KA 
668  132      V     C        12:01:58:18 12:01:59:16 10:40:38:15 10:40:39:13 
* FROM CLIP NAME:  70/02/7 KA 
669  132      V     C        12:05:56:19 12:05:57:16 10:40:39:13 10:40:40:10 
* FROM CLIP NAME:  70/01/4 KA 
670  132      V     C        12:02:00:13 12:02:03:21 10:40:40:10 10:40:43:18 
* FROM CLIP NAME:  70/02/7 KA 
671  133      V     C        13:02:43:23 13:02:46:22 10:40:43:18 10:40:46:17 
* FROM CLIP NAME:  70/02/7 KB 
672  132      V     C        12:04:08:15 12:04:14:08 10:40:46:17 10:40:52:10 
* FROM CLIP NAME:  70/03/9 
673  133      V     C        13:03:36:05 13:03:38:01 10:40:52:10 10:40:54:06 
* FROM CLIP NAME:  70/02/8 KB 
674  132      V     C        12:04:16:03 12:04:17:02 10:40:54:06 10:40:55:05 
* FROM CLIP NAME:  70/03/9 
675  133      V     C        13:03:39:17 13:03:40:16 10:40:55:05 10:40:56:04 
* FROM CLIP NAME:  70/02/8 KB 
676  132      V     C        12:04:17:21 12:04:21:05 10:40:56:04 10:40:59:13 
* FROM CLIP NAME:  70/03/9 
677  133      V     C        13:03:43:22 13:03:47:00 10:40:59:13 10:41:02:16 
* FROM CLIP NAME:  70/02/8 KB 
678  132      V     C        12:15:40:09 12:15:42:13 10:41:02:16 10:41:04:20 
* FROM CLIP NAME:  70/03A/2 
679  132      V     C        12:23:39:05 12:23:41:11 10:41:04:20 10:41:07:01 
* FROM CLIP NAME:  70/03B/2 ST 
680  132      V     C        12:15:44:19 12:15:47:23 10:41:07:01 10:41:10:05 
* FROM CLIP NAME:  70/03A/2 
681  132      V     C        12:09:17:23 12:09:19:24 10:41:10:05 10:41:12:06 
* FROM CLIP NAME:  70/01/6 
682  132      V     C        12:12:41:00 12:12:41:19 10:41:12:06 10:41:13:00 
* FROM CLIP NAME:  70/04/5 KA 
683  132      V     C        12:11:06:15 12:11:08:07 10:41:13:00 10:41:14:17 
* FROM CLIP NAME:  70/01/10 PU KA 
684  132      V     C        12:12:43:06 12:12:49:15 10:41:14:17 10:41:21:01 
* FROM CLIP NAME:  70/04/5 KA 
685  132      V     C        12:12:04:07 12:12:05:19 10:41:21:01 10:41:22:13 
* FROM CLIP NAME:  70/01/15 PU KA 
686  133      V     C        13:07:20:19 13:07:24:01 10:41:22:13 10:41:25:20 
* FROM CLIP NAME:  70/04/5 KB 
687  133      V     C        13:06:33:17 13:06:34:22 10:41:25:20 10:41:27:00 
* FROM CLIP NAME:  70/01/15 PU KB 
688  133      V     C        13:08:09:05 13:08:14:04 10:41:27:00 10:41:31:24 
* FROM CLIP NAME:  70/04/6 KB 
689  133      V     C        13:06:38:11 13:06:41:02 10:41:31:24 10:41:34:15 
* FROM CLIP NAME:  70/01/15 PU KB 
690  133      V     C        13:09:03:17 13:09:05:14 10:41:34:15 10:41:36:12 
* FROM CLIP NAME:  70/04/7 KB 
691  133      V     C        13:05:54:04 13:05:54:24 10:41:36:12 10:41:37:07 
* FROM CLIP NAME:  70/01/10 PU KB 
692  133      V     C        13:09:06:09 13:09:11:21 10:41:37:07 10:41:42:19 
* FROM CLIP NAME:  70/04/7 KB 
693  133      V     C        13:06:49:10 13:06:51:05 10:41:42:19 10:41:44:14 
* FROM CLIP NAME:  70/01/15 PU KB 
694  132      V     C        12:15:12:00 12:15:13:10 10:41:44:14 10:41:45:24 
* FROM CLIP NAME:  70/04/7 KA 
695  133      V     C        13:06:53:01 13:06:54:18 10:41:45:24 10:41:47:16 
* FROM CLIP NAME:  70/01/15 PU KB 
696  132      V     C        12:23:55:11 12:23:57:01 10:41:47:16 10:41:49:06 
* FROM CLIP NAME:  70/05/1 ST 
697  132      V     C        12:23:57:01 12:23:57:01 10:41:49:06 10:41:49:06 
697  145      V     D    050 05:06:37:06 05:06:42:04 10:41:49:06 10:41:54:04 
* BLEND_DISSOLVE_LOG 
* FROM CLIP NAME:  70/05/1 ST 
* TO CLIP NAME:  71/01/3 
698  145      V     C        05:05:31:09 05:05:33:00 10:41:54:04 10:41:55:20 
* FROM CLIP NAME:  71/02/9 
699  145      V     C        05:06:43:17 05:06:45:14 10:41:55:20 10:41:57:17 
* FROM CLIP NAME:  71/01/3 
700  145      V     C        05:03:48:19 05:03:51:20 10:41:57:17 10:42:00:18 
* FROM CLIP NAME:  71/02/3 
701  145      V     C        05:06:49:16 05:06:53:18 10:42:00:18 10:42:04:20 
* FROM CLIP NAME:  71/01/3 
702  145      V     C        05:03:55:02 05:03:59:18 10:42:04:20 10:42:09:11 
* FROM CLIP NAME:  71/02/3 
703  145      V     C        05:07:04:02 05:07:05:12 10:42:09:11 10:42:10:21 
* FROM CLIP NAME:  71/01/3 
704  145      V     C        05:05:47:06 05:05:52:06 10:42:10:21 10:42:15:21 
* FROM CLIP NAME:  71/02/9 
705  157      V     C        17:05:54:00 17:06:03:20 10:42:15:21 10:42:25:16 
* FROM CLIP NAME:  72/00/4 
706  157      V     C        17:04:11:05 17:04:19:14 10:42:25:16 10:42:34:00 
* FROM CLIP NAME:  72/01/4 
707  157      V     C        17:01:19:18 17:01:22:09 10:42:34:00 10:42:36:16 
* FROM CLIP NAME:  72/02/9 
708  157      V     C        17:04:21:22 17:04:24:21 10:42:36:16 10:42:39:15 
* FROM CLIP NAME:  72/01/4 
709  157      V     C        17:02:30:16 17:02:32:09 10:42:39:15 10:42:41:08 
* FROM CLIP NAME:  72/03/2 
710  157      V     C        17:04:26:14 17:04:28:23 10:42:41:08 10:42:43:17 
* FROM CLIP NAME:  72/01/4 
711  157      V     C        17:01:28:04 17:01:32:13 10:42:43:17 10:42:48:01 
* FROM CLIP NAME:  72/02/9 
712  157      V     C        17:05:15:01 17:05:16:17 10:42:48:01 10:42:49:17 
* FROM CLIP NAME:  72/01/6 
713  157      V     C        17:03:08:02 17:03:09:08 10:42:49:17 10:42:50:23 
* FROM CLIP NAME:  72/03/3 
714  157      V     C        17:05:17:23 17:05:18:19 10:42:50:23 10:42:51:19 
* FROM CLIP NAME:  72/01/6 
715  157      V     C        17:03:10:05 17:03:14:17 10:42:51:19 10:42:56:06 
* FROM CLIP NAME:  72/03/3 
716  157      V     C        17:03:55:24 17:03:57:14 10:42:56:06 10:42:57:21 
* FROM CLIP NAME:  72/01/3 
717  157      V     C        17:02:46:11 17:02:48:11 10:42:57:21 10:42:59:21 
* FROM CLIP NAME:  72/03/2 
718  157      V     C        17:03:59:15 17:04:02:08 10:42:59:21 10:43:02:14 
* FROM CLIP NAME:  72/01/3 
719  157      V     C        17:02:17:10 17:02:18:18 10:43:02:14 10:43:03:22 
* FROM CLIP NAME:  72/03/1 
720  155      V     C        15:21:42:05 15:21:48:18 10:43:03:22 10:43:10:10 
* FROM CLIP NAME:  73/01/5 
721  155      V     C        15:19:33:02 15:19:40:02 10:43:10:10 10:43:17:10 
* FROM CLIP NAME:  73/02/4 
722  155      V     C        15:21:54:21 15:21:56:22 10:43:17:10 10:43:19:11 
* FROM CLIP NAME:  73/01/5 
723  155      V     C        15:18:39:11 15:18:43:08 10:43:19:11 10:43:23:08 
* FROM CLIP NAME:  73/02/3 
724  155      V     C        15:22:00:17 15:22:04:19 10:43:23:08 10:43:27:10 
* FROM CLIP NAME:  73/01/5 
725  156      V     C        16:00:39:16 16:00:41:22 10:43:27:10 10:43:29:16 
* FROM CLIP NAME:  73/02/2 
726  155      V     C        15:22:07:09 15:22:10:10 10:43:29:16 10:43:32:17 
* FROM CLIP NAME:  73/01/5 
727  156      V     C        16:00:46:23 16:00:48:16 10:43:32:17 10:43:34:10 
* FROM CLIP NAME:  73/02/2 
728  155      V     C        15:22:12:00 15:22:13:17 10:43:34:10 10:43:36:02 
* FROM CLIP NAME:  73/01/5 
729  155      V     C        15:20:01:24 15:20:11:04 10:43:36:02 10:43:45:07 
* FROM CLIP NAME:  73/02/4 
730  155      V     C        15:22:18:22 15:22:20:23 10:43:45:07 10:43:47:08 
* FROM CLIP NAME:  73/01/5 
731  155      V     C        15:19:16:01 15:19:22:15 10:43:47:08 10:43:53:22 
* FROM CLIP NAME:  73/02/3 
732  155      V     C        15:22:24:16 15:22:30:08 10:43:53:22 10:43:59:14 
* FROM CLIP NAME:  73/01/5 
>>> SOURCE 101      101              b78da8f6.009605cb 
>>> SOURCE 102      102              b78f0abf.0121ed8c 
>>> SOURCE 103      103              b79090c9.01bfddd7 
>>> SOURCE 104      104              b7909bb4.01eaa0c8 
>>> SOURCE 105      105              b790a182.02015e01 
>>> SOURCE 106      106              b7943bca.00d4e55e 
>>> SOURCE 107      107              b7944291.00ef82d8 
>>> SOURCE 108      108              b7958f5e.00b91bd3 
>>> SOURCE 109      109              b7958d30.00b08fac 
>>> SOURCE 111      111              b7981f39.00a0ac8d 
>>> SOURCE 114      114              b79d6a8f.008369bb 
>>> SOURCE 115      115              b79d7907.00bc144e 
>>> SOURCE 116      116              b79ebc35.00ac4935 
>>> SOURCE 119      119              b7a1852e.0117d04a 
>>> SOURCE 120      120              b7a191d1.014968a5 
>>> SOURCE 121      121              b7a2b553.0103b826 
>>> SOURCE 122      122              b7a2be41.0126c3d4 
>>> SOURCE 123      123              b7a6bd8f.010a502c 
>>> SOURCE 124      124              b7a6c4b2.0126574d 
>>> SOURCE 127      127              b7a949e8.009518c0 
>>> SOURCE 128      128              b7a9555d.00c20d36 
>>> SOURCE 130      130              b7aac1fc.01129b27 
>>> SOURCE 131      131              b7aacad6.013558f8 
>>> SOURCE 132      132              b7abfc59.00bd5ee8 
>>> SOURCE 133      133              b7ac05bc.00e2383d 
>>> SOURCE 137      137              b7b144c3.00cb3bfe 
>>> SOURCE 138      138              b7b14a49.00e0eb3b 
>>> SOURCE 141      141              b7b3d995.00936224 
>>> SOURCE 142      142              b7b3dfc0.00ab8a20 
>>> SOURCE 143      143              b7b52a78.05bb328a 
>>> SOURCE 144      144              b7b5358b.05e6adca 
>>> SOURCE 145      145              b7b911e0.00899edc 
>>> SOURTITLE:   SCHNITT   EMMA KOPIE FR KOPIERWERK+VCC SCANNING AKT1 
002     AX    V     C        00:00:02:04 00:00:08:22 09:59:59:07 10:00:06:00 
* EFF_BLEND_GRAPHIC 
* FROM CLIP NAME:  STUDIO HH 
001  99       V     C        09:59:52:20 10:00:00:00 09:59:52:02 09:59:59:07 
* FROM CLIP NAME:  KINOSTARTBAND 
004  101      V     C        01:01:03:20 01:01:08:08 10:00:14:04 10:00:18:17 
* FROM CLIP NAME:  04/02/3 SK 
006  101      V     C        01:01:09:12 01:01:12:09 10:00:19:22 10:00:22:19 
* FROM CLIP RCE 157      157              b7c3b494.00bdf027 
>>> SOURCE 158      158              b7c3ba4e.00d46e6c 
>>> SOURCE 160      160              b7c658aa.0081e4ee 
>>> SOURCE 161      161              b7c65f51.009c05aa 
>>> SOURCE 162      162              b7c66e26.00d6403e 
