TITLE:   FILMFESTENDEFLAME 
001  VCC_RUSH V     C        09:01:13:20 09:01:16:06 10:00:50:20 10:00:53:06 
* FROM CLIP NAME:  GTZ DREHTR 
002  VCC_RUSH V     C        09:01:16:06 09:01:16:06 10:00:53:06 10:00:53:06 
002  VCC_RUSB V     D    030 12:01:03:17 12:01:06:18 10:00:53:06 10:00:56:07 
* BLEND_DISSOLVE 
* FROM CLIP NAME:  GTZ DREHTR 
* TO CLIP NAME:  FREEMAN BLICK 3 
003  VCC_RUSH V     C        01:01:38:03 01:01:40:03 10:00:56:07 10:00:58:07 
* FROM CLIP NAME:  8. DAY 2 
004  VCC_RUSH V     C        10:01:09:22 10:01:10:10 10:00:58:07 10:00:58:20 
* FROM CLIP NAME:  TRAILER 00++ 
005  VCC_RUSH V     C        01:01:39:24 01:01:40:09 10:00:58:20 10:00:59:05 
* FROM CLIP NAME:  8. DAY 2 
006  VCC_RUSH V     C        10:01:10:12 10:01:11:00 10:00:59:05 10:00:59:18 
* FROM CLIP NAME:  TRAILER 00++ 
007  VCC_RUSH V     C        10:00:17:01 10:00:18:12 10:00:59:18 10:01:01:04 
* FROM CLIP NAME:  TRAILER 00++ 
008  VCC_RUSH V     C        10:00:16:11 10:00:17:01 10:01:01:04 10:01:01:19 
* EFF_BLEND_FLIP_HORZ 
* FROM CLIP NAME:  KOPFDREHER FRAU+I WILL DANCE 
009  VCC_RUSH V     C        10:00:23:05 10:00:23:21 10:01:01:19 10:01:02:10 
* FROM CLIP NAME:  TRAILER 00++ 
010     BL    V     C        00:00:00:00 00:00:03:10 10:01:02:10 10:01:05:20 
011  VCC_RUSH V     C        14:01:13:17 14:01:15:19 10:01:05:20 10:01:07:22 
* FROM CLIP NAME:  FOOTAGE 2002 SPURWECHSEL 
012  VCC_RUSH V     C        14:01:18:03 14:01:19:04 10:01:07:22 10:01:08:23 
M2   VCC_RUSH       012.5                14:01:18:03 
* FROM CLIP NAME:  FOOTAGE 2002 SPURWECHSEL 
013  VCC_RUSH V     C        14:01:20:22 14:01:21:13 10:01:08:23 10:01:09:14 
* EFF_SBLEND 
* FROM CLIP NAME:  FOOTAGE 2002 SPURWECHSEL 
014  VCC_RUSH V     C        14:01:25:20 14:01:26:21 10:01:09:14 10:01:10:15 
* FROM CLIP NAME:  FOOTAGE 2002 SPURWECHSEL 
015  VCC_RUSH V     C        15:05:24:05 15:05:25:17 10:01:10:15 10:01:12:02 
* FROM CLIP NAME:  FOOTAGE 2002  AKI 1.SUB.01 
016  VCC_RUSH V     C        21:02:58:05 21:03:00:03 10:01:12:02 10:01:14:00 
* FROM CLIP NAME:  LOVE LISA 4 
017  VCC_RUSH V     C        21:03:12:16 21:03:14:15 10:01:14:00 10:01:15:24 
* FROM CLIP NAME:  LOVE LISA 4 
018  VCC_RUSH V     C        21:03:09:05 21:03:10:23 10:01:15:24 10:01:17:17 
* FROM CLIP NAME:  LOVE LISA 4 
019     BL    V     C        00:00:00:00 00:00:01:00 10:01:17:17 10:01:18:17 
020  VCC_RUSH V     C        16:07:48:10 16:07:51:01 10:01:18:17 10:01:21:08 
* FROM CLIP NAME:  FOOTAGE 2002  AKI 3 
021  VCC_RUSH V     C        14:01:19:11 14:01:21:13 10:01:21:08 10:01:23:10 
* FROM CLIP NAME:  FOOTAGE 2002 SPURWECHSEL.SUB.05 
022  VCC_RUSH V     C        22:15:37:01 22:15:40:10 10:01:23:10 10:01:26:19 
* FROM CLIP NAME:  LOVE LISA 5 
023  VCC_RUSH V     C        22:15:56:19 22:16:00:06 10:01:26:19 10:01:30:06 
* FROM CLIP NAME:  LOVE LISA 5 
024  VCC_RUSH V     C        21:02:57:14 21:03:12:08 10:01:30:06 10:01:45:00 
* FROM CLIP NAME:  LOVE LISA 4 
025  VCC_RUSH V     C        21:03:15:16 21:03:30:11 10:01:45:00 10:01:59:20 
* FROM CLIP NAME:  LOVE LISA 4 
>>> SOURCE VCC_RUSB VCC_RUSHES01     b96acdea.00102b74 
>>> SOURCE VCC_RUSH VCC_RUSHES01     b96acdea.00102b74 
