TITLE:   FINAL CUT 21.02.04  EDL 
001     BL    V     C        00:00:00:00 00:00:55:17 09:59:00:00 09:59:55:17 
002     AX    V     C        00:00:00:00 00:00:00:02 09:59:55:17 09:59:55:19 
* EFF_BLEND_GRAPHIC 
* FROM CLIP NAME:  ZWEI 
003     BL    V     C        00:00:00:00 00:00:01:21 09:59:55:19 09:59:57:15 
004  DV       V     C        17:15:31:23 17:16:32:10 09:59:57:15 10:00:58:02 
* FROM CLIP NAME:  VORSPANN 
005  IO_04_07 V     C        01:31:56:15 01:31:59:23 10:00:58:02 10:01:01:10 
* FROM CLIP NAME:  7-1-4 
006  IO_04_07 V     C        01:50:30:10 01:50:32:06 10:01:01:10 10:01:03:06 
* FROM CLIP NAME:  17-1 SFX 2 - 
007  IO_04_07 V     C        01:31:58:17 01:32:00:22 10:01:03:06 10:01:05:11 
* FROM CLIP NAME:  7-1-4 
008  IO_04_07 V     C        01:22:14:08 01:22:17:11 10:01:05:11 10:01:08:14 
* FROM CLIP NAME:  4-1B-1 (KLAPPE 4.2B 1) COMP + 
009  IO_04_07 V     C        01:32:00:22 01:32:06:00 10:01:08:14 10:01:13:17 
* FROM CLIP NAME:  7-1-4 
010  IO_04_07 V     C        01:48:32:19 01:48:34:14 10:01:13:17 10:01:15:12 
* IMAGE, FLIP 
* FROM CLIP NAME:  3-2-4 
011  IO_04_07 V     C        01:32:08:11 01:32:14:03 10:01:15:12 10:01:21:04 
* FROM CLIP NAME:  7-1-4 
012  IO_04_07 V     C        01:25:37:22 01:25:40:06 10:01:21:04 10:01:23:13 
* FROM CLIP NAME:  3-5-2 
013  IO_04_07 V     C        01:55:03:17 01:55:09:06 10:01:23:13 10:01:29:02 
* EFF_BLEND_RESIZE 
* FROM CLIP NAME:  4-2-9 
014  IO_04_07 V     C        01:32:18:06 01:32:19:03 10:01:29:02 10:01:29:24 
* FROM CLIP NAME:  7-1-4 
015  IO_01_03 V     C        00:42:11:23 00:42:16:22 10:01:29:24 10:01:34:23 
* FROM CLIP NAME:  4-4-1 
016  IO_04_07 V     C        01:46:25:17 01:46:27:02 10:01:34:23 10:01:36:08 
* FROM CLIP NAME:  15-6-3 
017  IO_04_07 V     C        01:32:24:06 01:32:27:12 10:01:36:08 10:01:39:14 
* FROM CLIP NAME:  7-1-4 
018  IO_01_03 V     C        00:03:13:11 00:03:15:11 10:01:39:14 10:01:41:14 
* EFF_BLEND_RESIZE 
* FROM CLIP NAME:  6-5B-2 COMP 
019  IO_04_07 V     C        01:24:44:04 01:24:45:02 10:01:41:14 10:01:42:12 
* FROM CLIP NAME:  3-5-1 
020  IO_01_03 V     C        00:03:38:00 00:03:39:11 10:01:42:12 10:01:43:23 
* FROM CLIP NAME:  6-5B-4 - 
021  IO_04_07 V     C        01:25:10:07 01:25:13:03 10:01:43:23 10:01:46:19 
* FROM CLIP NAME:  3-5-1 
022  IO_01_03 V     C        00:04:08:00 00:04:10:04 10:01:46:19 10:01:48:23 
* FROM CLIP NAME:  6-6-2 COMP 
023  IO_04_07 V     C        01:32:51:14 01:32:54:24 10:01:48:23 10:01:52:08 
* FROM CLIP NAME:  7-1B-1 COMP 
024  IO_04_07 V     C        01:34:58:15 01:35:00:01 10:01:52:08 10:01:53:19 
* FROM CLIP NAME:  7-3-8 
025  IO_04_07 V     C        01:35:13:17 01:35:16:00 10:01:53:19 10:01:56:02 
* FROM CLIP NAME:  7-4-2 
026  IO_04_07 V     C        01:36:40:07 01:36:48:20 10:01:56:02 10:02:04:15 
* FROM CLIP NAME:  7-9-3 + 
027  IO_04_07 V     C        01:14:35:15 01:14:41:17 10:02:04:15 10:02:10:17 
* FROM CLIP NAME:  7-13-2 - 
028  IO_04_07 V     C        01:16:04:02 01:16:12:07 10:02:10:17 10:02:18:22 
* FROM CLIP NAME:  8.2 4 
029  IO_04_07 V     C        01:05:11:15 01:05:13:02 10:02:18:22 10:02:20:09 
* FROM CLIP NAME:  8-3-1 
030  IO_04_07 V     C        01:16:13:08 01:16:13:23 10:02:20:09 10:02:20:24 
* FROM CLIP NAME:  8.2 4 
031  IO_01_03 V     C        00:08:00:11 00:08:01:20 10:02:20:24 10:02:22:08 
* FROM CLIP NAME:  9-3A-3 POV 
032  IO_04_07 V     C        01:16:38:03 01:16:38:17 10:02:22:08 10:02:22:22 
* FROM CLIP NAME:  8.2 6 
033  IO_04_07 V     C        01:05:56:10 01:05:59:23 10:02:22:22 10:02:26:10 
* FROM CLIP NAME:  8.3 3 
034  IO_04_07 V     C        01:06:48:10 01:06:50:13 10:02:26:10 10:02:28:13 
* FROM CLIP NAME:  8-4-2 
035  IO_04_07 V     C        01:16:40:09 01:16:43:13 10:02:28:13 10:02:31:17 
* FROM CLIP NAME:  8.2 6 
036  IO_01_03 V     C        00:08:35:01 00:08:39:00 10:02:31:17 10:02:35:16 
* FROM CLIP NAME:  8-7-2 
037  IO_01_03 V     C        00:08:39:00 00:08:40:17 10:02:35:16 10:02:38:24 
M2   IO_01_03       012.5                00:08:39:00 
* FROM CLIP NAME:  8-7-2 
038  IO_01_03 V     C        00:17:18:06 00:17:21:12 10:02:38:24 10:02:42:05 
* EFF_BLEND_RESIZE 
* FROM CLIP NAME:  9-5-4 
039  IO_01_03 V     C        00:21:16:12 00:21:18:19 10:02:42:05 10:02:44:12 
* FROM CLIP NAME:  12-5-2 
040  IO_01_03 V     C        00:09:20:03 00:09:24:15 10:02:44:12 10:02:48:24 
* FROM CLIP NAME:  9-4-2 
041  IO_01_03 V     C        00:17:44:03 00:17:49:22 10:02:48:24 10:02:54:18 
* EFF_BLEND_RESIZE 
* FROM CLIP NAME:  9-1-2 
042  IO_01_03 V     C        00:05:23:14 00:05:32:08 10:02:54:18 10:03:03:12 
* FROM CLIP NAME:  9-2-1 
043  IO_01_03 V     C        00:16:34:15 00:16:41:10 10:03:03:12 10:03:10:07 
* FROM CLIP NAME:  9-5-3 
044  IO_01_03 V     C        00:07:48:12 00:07:49:23 10:03:10:07 10:03:11:18 
* FROM CLIP NAME:  9-3A-2 POV 
045  IO_01_03 V     C        00:16:21:17 00:16:30:21 10:03:11:18 10:03:20:22 
* FROM CLIP NAME:  9-5-2 
046  IO_01_03 V     C        00:11:27:20 00:11:31:13 10:03:20:22 10:03:24:15 
* FROM CLIP NAME:  9-8A-3 
047  IO_01_03 V     C        00:17:19:03 00:17:21:08 10:03:24:15 10:03:26:20 
* FROM CLIP NAME:  9-5-4 
048  IO_01_03 V     C        00:11:26:05 00:11:28:23 10:03:26:20 10:03:29:13 
* FROM CLIP NAME:  9-8A-3 
049  IO_01_03 V     C        00:13:00:05 00:13:04:06 10:03:29:13 10:03:33:14 
* FROM CLIP NAME:  9-7B-3 COMP 
050  IO_01_03 V     C        00:11:13:08 00:11:15:20 10:03:33:14 10:03:36:01 
* FROM CLIP NAME:  9-8A-1 
051  IO_01_03 V     C        00:14:16:05 00:14:21:08 10:03:36:01 10:03:41:04 
* FROM CLIP NAME:  9-7A-1 
052  IO_01_03 V     C        00:11:26:07 00:11:28:09 10:03:41:04 10:03:43:06 
* IMAGE, FLOP 
* FROM CLIP NAME:  9-8A-3 
053  IO_01_03 V     C        00:14:22:22 00:14:27:15 10:03:43:06 10:03:47:24 
* FROM CLIP NAME:  9-7A-1 
054  IO_01_03 V     C        00:13:54:13 00:13:55:18 10:03:47:24 10:03:49:04 
* FROM CLIP NAME:  9-6-1 COMP 
055  IO_01_03 V     C        00:13:18:18 00:13:24:07 10:03:49:04 10:03:54:18 
* FROM CLIP NAME:  9-7B-3 COMP 
056  IO_01_03 V     C        00:14:02:17 00:14:05:09 10:03:54:18 10:03:57:10 
* FROM CLIP NAME:  9-6-1 COMP 
057  IO_01_03 V     C        00:07:05:06 00:07:17:16 10:03:57:10 10:04:09:20 
* FROM CLIP NAME:  9-12-3 COMP 
058  IO_01_03 V     C        00:18:45:11 00:18:48:00 10:04:09:20 10:04:12:09 
* FROM CLIP NAME:  9-13-2 
059  IO_01_03 V     C        00:07:51:14 00:07:53:03 10:04:12:09 10:04:13:23 
* FROM CLIP NAME:  9-3A-2 POV 
060  IO_01_03 V     C        00:18:48:02 00:18:50:13 10:04:13:23 10:04:16:09 
* FROM CLIP NAME:  9-13-2 
061  IO_01_03 V     C        00:20:08:13 00:20:10:20 10:04:16:09 10:04:18:16 
* FROM CLIP NAME:  17-3-1 
062  IO_01_03 V     C        00:31:19:20 00:31:21:22 10:04:18:16 10:04:20:18 
* FROM CLIP NAME:  10-2-2 
063  IO_01_03 V     C        00:36:56:24 00:37:02:24 10:04:20:18 10:04:26:18 
* FROM CLIP NAME:  10-4-1 
064  IO_01_03 V     C        00:31:32:20 00:31:39:24 10:04:26:18 10:04:33:22 
* FROM CLIP NAME:  10-5-1 
065  IO_01_03 V     C        00:35:09:01 00:35:11:03 10:04:33:22 10:04:35:24 
* FROM CLIP NAME:  10-9-4 
066  IO_01_03 V     C        00:32:06:14 00:32:08:16 10:04:35:24 10:04:38:01 
* FROM CLIP NAME:  10-5-2 
067  IO_01_03 V     C        00:35:11:08 00:35:14:13 10:04:38:01 10:04:41:06 
* FROM CLIP NAME:  10-9-4 
068  IO_01_03 V     C        00:32:10:21 00:32:13:00 10:04:41:06 10:04:43:10 
* FROM CLIP NAME:  10-5-2 
069  IO_01_03 V     C        00:36:30:14 00:36:43:05 10:04:43:10 10:04:56:01 
* FROM CLIP NAME:  10-9-6 
070  IO_01_03 V     C        00:36:46:02 00:36:50:23 10:04:56:01 10:05:00:22 
* FROM CLIP NAME:  10-9-6 
071  IO_01_03 V     C        00:43:23:10 00:43:27:21 10:05:00:22 10:05:05:08 
* FROM CLIP NAME:  12-1B-1 
072  IO_01_03 V     C        00:34:57:09 00:35:00:18 10:05:05:08 10:05:08:17 
* FROM CLIP NAME:  10-9-3 
073  IO_01_03 V     C        00:19:38:20 00:19:42:23 10:05:08:17 10:05:12:20 
* FROM CLIP NAME:  10-10-1 
074  IO_04_07 V     C        01:03:23:17 01:03:27:00 10:05:12:20 10:05:16:03 
* FROM CLIP NAME:  11-1-4 
075  IO_04_07 V     C        01:03:39:00 01:03:40:01 10:05:16:03 10:05:17:04 
* FROM CLIP NAME:  11-1B-2 
076  IO_04_07 V     C        01:04:23:06 01:04:27:20 10:05:17:04 10:05:21:18 
* FROM CLIP NAME:  11-2B-2 
077  IO_04_07 V     C        01:09:01:12 01:09:10:00 10:05:21:18 10:05:30:06 
* FROM CLIP NAME:  11-3-2 
078  IO_04_07 V     C        01:01:59:15 01:02:05:15 10:05:30:06 10:05:36:06 
* FROM CLIP NAME:  14-1-1 COMP + 
079  IO_01_03 V     C        00:57:08:08 00:57:12:20 10:05:36:06 10:05:40:18 
* FROM CLIP NAME:  11-5-1 
080  IO_01_03 V     C        00:58:40:22 00:58:43:08 10:05:40:18 10:05:43:04 
* FROM CLIP NAME:  11-4-3 
081  IO_04_07 V     C        01:13:50:07 01:13:52:09 10:05:43:04 10:05:45:06 
* FROM CLIP NAME:  11-Z6-2 
082  IO_01_03 V     C        00:58:43:06 00:59:01:00 10:05:45:06 10:06:03:00 
* FROM CLIP NAME:  11-4-3 
083  IO_04_07 V     C        01:13:50:03 01:13:52:19 10:06:03:00 10:06:05:16 
* FROM CLIP NAME:  11-Z6-2 
084  IO_01_03 V     C        00:59:03:02 00:59:07:02 10:06:05:16 10:06:09:16 
* FROM CLIP NAME:  11-4-3 
085  IO_04_07 V     C        01:13:55:09 01:13:58:02 10:06:09:16 10:06:12:09 
* FROM CLIP NAME:  11-Z6-2 
086  IO_01_03 V     C        00:59:06:24 00:59:11:07 10:06:12:09 10:06:16:17 
* FROM CLIP NAME:  11-4-3 
087  IO_01_03 V     C        00:55:24:09 00:55:28:12 10:06:16:17 10:06:20:20 
* FROM CLIP NAME:  14-2-1 COMP FOTO 
088  IO_01_03 V     C        00:56:28:13 00:56:29:04 10:06:20:20 10:06:21:11 
* FROM CLIP NAME:  14-2-3 
089  IO_01_03 V     C        00:55:29:22 00:55:31:14 10:06:21:11 10:06:23:03 
* FROM CLIP NAME:  14-2-1 COMP FOTO 
090  IO_01_03 V     C        00:43:25:02 00:43:35:24 10:06:23:03 10:06:34:00 
* FROM CLIP NAME:  12-1B-1 
091  IO_01_03 V     C        00:43:09:07 00:43:13:07 10:06:34:00 10:06:38:00 
* FROM CLIP NAME:  12-2B-3 
092  IO_01_03 V     C        00:38:06:05 00:38:10:14 10:06:38:00 10:06:42:09 
* FROM CLIP NAME:  12-3-1 
093  IO_01_03 V     C        00:20:01:10 00:20:03:09 10:06:42:09 10:06:44:08 
* EFF_BLEND_RESIZE 
* FROM CLIP NAME:  17-3-1 
094  IO_01_03 V     C        00:38:10:12 00:38:12:05 10:06:44:08 10:06:46:01 
* FROM CLIP NAME:  12-3-1 
095  IO_01_03 V     C        00:39:59:16 00:40:01:03 10:06:46:01 10:06:47:13 
* FROM CLIP NAME:  12-4-3 
096  IO_01_03 V     C        00:38:26:00 00:38:33:07 10:06:47:13 10:06:54:20 
* FROM CLIP NAME:  12-3-2 
097  IO_01_03 V     C        00:22:29:06 00:22:46:18 10:06:54:20 10:07:12:07 
* FROM CLIP NAME:  12-5-5 
098  IO_01_03 V     C        00:24:01:07 00:24:04:07 10:07:12:07 10:07:15:07 
* FROM CLIP NAME:  12-13-6 
099  IO_01_03 V     C        00:25:16:08 00:25:25:16 10:07:15:07 10:07:24:15 
* FROM CLIP NAME:  12-8-2 
100  IO_01_03 V     C        00:25:33:13 00:25:38:22 10:07:24:15 10:07:29:24 
* EFF_BLEND_RESIZE 
* FROM CLIP NAME:  12-7-1 
101  IO_01_03 V     C        00:24:57:18 00:25:04:20 10:07:29:24 10:07:37:01 
* FROM CLIP NAME:  12-8-1 
102  IO_01_03 V     C        00:20:03:05 00:20:07:02 10:07:37:01 10:07:40:23 
* FROM CLIP NAME:  17-3-1 
103  IO_01_03 V     C        00:26:43:10 00:26:52:04 10:07:40:23 10:07:49:17 
* FROM CLIP NAME:  12-9-2 
104  IO_01_03 V     C        00:28:27:23 00:28:42:08 10:07:49:17 10:08:04:02 
* FROM CLIP NAME:  INV 12.10 5 + 
105  IO_04_07 V     C        01:10:32:19 01:10:47:19 10:08:04:02 10:08:19:02 
* FROM CLIP NAME:  11-6-1 
106  IO_01_03 V     C        00:57:37:23 00:57:45:19 10:08:19:02 10:08:26:23 
* FROM CLIP NAME:  11-5-1 
107  IO_04_07 V     C        01:45:50:08 01:45:51:20 10:08:26:23 10:08:28:10 
* FROM CLIP NAME:  15-6-1 
108  IO_04_07 V     C        01:42:28:02 01:42:37:23 10:08:28:10 10:08:38:06 
* FROM CLIP NAME:  15-3-2 
109     AX    V     C        00:00:00:22 00:00:05:00 10:08:38:06 10:08:42:09 
* EFF_BLEND_RESIZE 
* FROM CLIP NAME:  PHOTOWAND COPY.PNG 
110  IO_04_07 V     C        01:42:38:04 01:42:43:08 10:08:42:09 10:08:47:13 
* FROM CLIP NAME:  15-3-2 
111  IO_04_07 V     C        01:48:58:18 01:49:34:16 10:08:47:13 10:09:23:11 
* FROM CLIP NAME:  17-1 SFX 1 COMP 
112  DV       V     C        17:18:13:00 17:19:56:06 10:09:23:11 10:11:06:17 
* FROM CLIP NAME:  ABSPANN 
113     AX    V     C        00:00:00:00 00:00:00:02 10:11:06:17 10:11:06:19 
* EFF_BLEND_GRAPHIC 
* FROM CLIP NAME:  ZWEI ENDE 
>>> SOURCE DV       DV 4037921E.004CCBAB 
>>> SOURCE IO_01_03 INVASION_PAL__RO 3FA3BC5C.0563E972 
>>> SOURCE IO_04_07 INVASION_PAL_RO_ 3FA401A2.06728553 
