TITLE:   DERHENKER1-3_LISTO/V1/3PERF 
002     BL    V     C        00:00:00:00 00:00:48:17 01:00:00:00 01:00:48:17 
006     BL    V     C        00:00:00:00 00:00:00:15 01:01:26:04 01:01:26:19 
010     BL    V     C        00:00:00:00 00:00:05:03 01:01:37:07 01:01:42:10 
012     BL    V     C        00:00:00:00 00:00:03:20 01:01:44:15 01:01:48:10 
014     BL    V     C        00:00:00:00 00:00:02:08 01:01:49:13 01:01:51:21 
019     BL    V     C        00:00:00:00 00:00:06:16 01:02:05:08 01:02:11:24 
022     BL    V     C        00:00:00:00 00:00:25:12 01:02:16:13 01:02:42:00 
024     BL    V     C        00:00:00:00 00:00:02:06 01:02:47:22 01:02:50:03 
026     BL    V     C        00:00:00:00 00:00:02:09 01:02:56:06 01:02:58:15 
028     BL    V     C        00:00:00:00 00:00:06:14 01:03:05:06 01:03:11:20 
032     BL    V     C        00:00:00:00 00:00:25:11 01:03:19:00 01:03:44:11 
094     BL    V     C        00:00:00:00 00:00:12:00 01:07:51:05 01:08:03:05 
097     BL    V     C        00:00:00:00 00:00:03:04 01:08:09:06 01:08:12:10 
158     BL    V     C        00:00:00:00 00:00:00:01 01:12:22:05 01:12:22:06 
165     BL    V     C        00:00:00:00 00:00:07:10 01:13:16:20 01:13:24:05 
230     BL    V     C        00:00:00:00 00:00:00:01 01:18:07:23 01:18:07:24 
252     BL    V     C        00:00:00:00 00:00:00:22 01:20:22:19 01:20:23:16 
355     BL    V     C        00:00:00:00 00:01:26:07 01:29:17:11 01:30:43:18 
366     BL    V     C        00:00:00:00 00:01:07:01 01:31:26:15 01:32:33:16 
370     BL    V     C        00:00:00:00 00:00:03:02 01:32:55:01 01:32:58:03 
394     BL    V     C        00:00:00:00 00:00:02:04 01:34:38:23 01:34:41:02 
400     BL    V     C        00:00:00:00 00:00:01:10 01:34:57:22 01:34:59:07 
404     BL    V     C        00:00:00:00 00:00:04:24 01:35:06:03 01:35:11:02 
416     BL    V     C        00:00:00:00 00:00:02:01 01:35:54:14 01:35:56:15 
421     BL    V     C        00:00:00:00 00:00:09:22 01:36:11:16 01:36:21:13 
423     BL    V     C        00:00:00:00 00:00:03:10 01:36:24:19 01:36:28:04 
425     BL    V     C        00:00:00:00 00:00:03:22 01:36:30:00 01:36:33:22 
430     BL    V     C        00:00:00:00 00:00:06:19 01:36:44:06 01:36:51:00 
432     BL    V     C        00:00:00:00 00:00:03:20 01:36:54:18 01:36:58:13 
437     BL    V     C        00:00:00:00 00:00:03:00 01:37:09:18 01:37:12:18 
443     BL    V     C        00:00:00:00 00:00:04:05 01:37:28:04 01:37:32:09 
445     BL    V     C        00:00:00:00 00:00:05:20 01:37:35:15 01:37:41:10 
448     BL    V     C        00:00:00:00 00:00:00:12 01:37:43:24 01:37:44:11 
451     BL    V     C        00:00:00:00 00:00:05:01 01:37:45:22 01:37:50:23 
455     BL    V     C        00:00:00:00 00:00:03:07 01:37:59:11 01:38:02:18 
459     BL    V     C        00:00:00:00 00:00:04:12 01:38:19:06 01:38:23:18 
479     BL    V     C        00:00:00:00 00:00:01:16 01:39:51:19 01:39:53:10 
481     BL    V     C        00:00:00:00 00:00:03:18 01:40:01:14 01:40:05:07 
524     BL    V     C        00:00:00:00 00:00:03:03 01:42:57:22 01:43:01:00 
526     BL    V     C        00:00:00:00 00:00:01:17 01:43:07:23 01:43:09:15 
530     BL    V     C        00:00:00:00 00:00:08:04 01:43:21:16 01:43:29:20 
532     BL    V     C        00:00:00:00 00:00:06:20 01:43:33:19 01:43:40:14 
539     BL    V     C        00:00:00:00 00:00:02:12 01:44:01:13 01:44:04:00 
542     BL    V     C        00:00:00:00 00:00:01:20 01:44:15:18 01:44:17:13 
545     BL    V     C        00:00:00:00 00:00:04:16 01:44:25:17 01:44:30:08 
547     BL    V     C        00:00:00:00 00:00:03:04 01:44:32:07 01:44:35:11 
558     BL    V     C        00:00:00:00 00:01:22:07 01:47:18:15 01:48:40:22 
569     BL    V     C        00:00:00:00 00:00:04:11 01:50:58:04 01:51:02:15 
001  LISTOSTA V     C        00:01:31:19 00:01:41:19 00:59:50:00 01:00:00:00 
* FROM CLIP NAME:  LISTOSTART 
253     BL    V     C        00:00:00:00 00:00:00:00 01:20:23:16 01:20:23:16 
253  001      V     D    080 00:03:31:22 00:03:35:05 01:20:23:16 01:20:26:24 
* BLEND_DISSOLVE_LOG 
* TO CLIP NAME:  22A/1 
164  001      V     C        00:02:11:22 00:02:17:14 01:13:11:03 01:13:16:20 
* IMAGE, COLOR EFFECT 
* FROM CLIP NAME:  23B/F/1!! 
254  001      V     C        00:03:35:02 00:03:53:16 01:20:26:24 01:20:45:13 
* IMAGE, COLOR EFFECT 
* FROM CLIP NAME:  22A/1 
348  001      V     C        00:08:35:03 00:08:36:13 01:28:44:17 01:28:46:02 
* FROM CLIP NAME:  37A/2!! 
340  001      V     C        00:08:49:10 00:09:04:02 01:28:03:21 01:28:18:13 
* FROM CLIP NAME:  37A/3!!! 
344  001      V     C        00:09:10:02 00:09:14:05 01:28:28:11 01:28:32:14 
* FROM CLIP NAME:  37A/3!!! 
350  001      V     C        00:11:49:04 00:11:56:24 01:28:47:22 01:28:55:17 
* FROM CLIP NAME:  37B/5!!! 
347  001      V     C        00:13:58:17 00:14:04:12 01:28:38:22 01:28:44:17 
* FROM CLIP NAME:  37C/3 
351  001      V     C        00:14:11:13 00:14:14:01 01:28:55:17 01:28:58:05 
* FROM CLIP NAME:  37C/3 
353  001      V     C        00:14:15:23 00:14:20:00 01:29:01:06 01:29:05:08 
* FROM CLIP NAME:  37C/3 
345  001      V     C        00:15:53:21 00:15:56:13 01:28:32:14 01:28:35:06 
* FROM CLIP NAME:  37D/3!!! 
349  001      V     C        00:16:12:10 00:16:14:05 01:28:46:02 01:28:47:22 
* FROM CLIP NAME:  37D/3!!! 
341  001      V     C        00:16:44:18 00:16:49:07 01:28:18:13 01:28:23:02 
* FROM CLIP NAME:  37E/1!!! 
354  001      V     C        00:17:11:02 00:17:23:05 01:29:05:08 01:29:17:11 
* FROM CLIP NAME:  37E/1!!! 
346  001      V     C        00:19:04:18 00:19:08:09 01:28:35:06 01:28:38:22 
* FROM CLIP NAME:  37F/2!!!! 
352  001      V     C        00:19:16:20 00:19:19:21 01:28:58:05 01:29:01:06 
* FROM CLIP NAME:  37F/2!!!! 
255  001      V     C        00:21:27:24 00:21:51:19 01:20:45:13 01:21:09:08 
* FROM CLIP NAME:  23/0/2!! 
258  001      V     C        00:21:54:15 00:21:59:02 01:21:15:23 01:21:20:10 
* FROM CLIP NAME:  23/0/2!! 
261  001      V     C        00:22:04:02 00:22:09:14 01:21:25:07 01:21:30:19 
* FROM CLIP NAME:  23/0/2!! 
263  001      V     C        00:22:09:24 00:22:10:16 01:21:32:05 01:21:32:22 
* FROM CLIP NAME:  23/0/2!! 
266  001      V     C        00:22:11:22 00:22:13:11 01:21:36:11 01:21:38:00 
* FROM CLIP NAME:  23/0/2!! 
269  001      V     C        00:22:16:13 00:22:18:04 01:21:41:11 01:21:43:02 
* FROM CLIP NAME:  23/0/2!! 
275  001      V     C        00:22:26:07 00:22:46:18 01:21:57:06 01:22:17:17 
* FROM CLIP NAME:  23/0/2!! 
277  001      V     C        00:22:46:24 00:22:48:16 01:22:19:11 01:22:21:03 
* FROM CLIP NAME:  23/0/2!! 
259  001      V     C        00:25:50:06 00:25:52:14 01:21:20:10 01:21:22:18 
* FROM CLIP NAME:  23/A/4!! 
270  001      V     C        00:26:09:15 00:26:13:20 01:21:43:02 01:21:47:07 
* FROM CLIP NAME:  23/A/4!! 
272  001      V     C        00:26:17:08 00:26:18:15 01:21:50:10 01:21:51:17 
* FROM CLIP NAME:  23/A/4!! 
257  001      V     C        00:26:31:14 00:26:37:01 01:21:10:11 01:21:15:23 
* FROM CLIP NAME:  23/B/1 
260  001      V     C        00:26:43:06 00:26:45:20 01:21:22:18 01:21:25:07 
* FROM CLIP NAME:  23/B/1 
262  001      V     C        00:26:50:06 00:26:51:17 01:21:30:19 01:21:32:05 
* FROM CLIP NAME:  23/B/1 
265  001      V     C        00:26:52:09 00:26:54:09 01:21:34:11 01:21:36:11 
* FROM CLIP NAME:  23/B/1 
268  001      V     C        00:26:56:02 00:26:58:21 01:21:38:17 01:21:41:11 
* FROM CLIP NAME:  23/B/1 
271  001      V     C        00:27:02:20 00:27:05:23 01:21:47:07 01:21:50:10 
* FROM CLIP NAME:  23/B/1 
274  001      V     C        00:27:06:09 00:27:07:23 01:21:55:17 01:21:57:06 
* FROM CLIP NAME:  23/B/1 
276  001      V     C        00:27:38:24 00:27:40:18 01:22:17:17 01:22:19:11 
* FROM CLIP NAME:  23/C/2VA 
278  001      V     C        00:27:41:18 00:27:46:05 01:22:21:03 01:22:25:15 
* FROM CLIP NAME:  23/C/2VA 
264  001      V     C        00:28:20:00 00:28:21:14 01:21:32:22 01:21:34:11 
* FROM CLIP NAME:  23/D/3!! 
267  001      V     C        00:28:23:18 00:28:24:10 01:21:38:00 01:21:38:17 
* FROM CLIP NAME:  23/D/3!! 
273  001      V     C        00:29:28:17 00:29:32:17 01:21:51:17 01:21:55:17 
* FROM CLIP NAME:  23/E/4!! 
332  001      V     C        00:31:19:23 00:31:27:24 01:27:05:15 01:27:13:16 
* FROM CLIP NAME:  36-0/2!! 
334  001      V     C        00:31:35:17 00:31:46:15 01:27:24:06 01:27:35:04 
* FROM CLIP NAME:  36-0/2!! 
337  001      V     C        00:32:00:24 00:32:05:24 01:27:45:05 01:27:50:05 
* FROM CLIP NAME:  36-0/2!! 
333  001      V     C        00:34:42:24 00:34:53:14 01:27:13:16 01:27:24:06 
* FROM CLIP NAME:  36-A/3!! 
336  001      V     C        00:35:50:12 00:35:59:09 01:27:36:08 01:27:45:05 
* FROM CLIP NAME:  36-B/2!! 
338  001      V     C        00:36:03:24 00:36:14:02 01:27:50:05 01:28:00:08 
* FROM CLIP NAME:  36-B/2!! 
335  001      V     C        00:36:48:07 00:36:49:11 01:27:35:04 01:27:36:08 
* FROM CLIP NAME:  36-C/3!!!! 
339  001      V     C        00:36:56:05 00:36:59:18 01:28:00:08 01:28:03:21 
* FROM CLIP NAME:  36-C/3!!!! 
386  002      V     C        01:05:38:10 01:05:51:04 01:33:59:02 01:34:11:21 
* FROM CLIP NAME:  43/0/1!! 
387  002      V     C        01:15:19:04 01:15:20:14 01:34:11:21 01:34:13:06 
* FROM CLIP NAME:  43/B/4!! 
389  002      V     C        01:15:27:14 01:15:31:24 01:34:21:24 01:34:26:09 
* FROM CLIP NAME:  43/B/4!! 
391  002      V     C        01:15:35:10 01:15:37:21 01:34:32:21 01:34:35:07 
* FROM CLIP NAME:  43/B/4!! 
393  002      V     C        01:15:39:19 01:15:41:10 01:34:37:07 01:34:38:23 
* FROM CLIP NAME:  43/B/4!! 
388  002      V     C        01:17:17:10 01:17:26:03 01:34:13:06 01:34:21:24 
* FROM CLIP NAME:  43/C/2 
390  002      V     C        01:17:30:00 01:17:36:12 01:34:26:09 01:34:32:21 
* FROM CLIP NAME:  43/C/2 
392  002      V     C        01:17:38:18 01:17:40:18 01:34:35:07 01:34:37:07 
* FROM CLIP NAME:  43/C/2 
331  002      V     C        01:20:10:05 01:20:14:06 01:27:01:14 01:27:05:15 
* FROM CLIP NAME:  106/D/1 
167  003      V     C        03:05:52:11 03:06:03:22 01:13:26:20 01:13:38:06 
* FROM CLIP NAME:  28/0/5!! 
174  003      V     C        03:12:18:22 03:12:27:02 01:13:56:17 01:14:04:22 
* FROM CLIP NAME:  28/A/4!!! 
194  003      V     C        03:13:27:07 03:13:45:16 01:15:01:10 01:15:19:19 
* FROM CLIP NAME:  28/A/4!!! 
168  003      V     C        03:14:36:21 03:14:39:06 01:13:38:06 01:13:40:16 
* FROM CLIP NAME:  28/B/2! 
170  003      V     C        03:14:40:03 03:14:41:22 01:13:43:23 01:13:45:17 
* FROM CLIP NAME:  28/B/2! 
172  003      V     C        03:14:41:22 03:14:46:13 01:13:50:18 01:13:55:09 
* FROM CLIP NAME:  28/B/2! 
175  003      V     C        03:14:55:11 03:14:57:07 01:14:04:22 01:14:06:18 
* FROM CLIP NAME:  28/B/2! 
177  003      V     C        03:15:00:23 03:15:02:23 01:14:09:05 01:14:11:05 
* FROM CLIP NAME:  28/B/2! 
179  003      V     C        03:15:05:07 03:15:12:04 01:14:13:19 01:14:20:16 
* FROM CLIP NAME:  28/B/2! 
181  003      V     C        03:15:14:16 03:15:19:11 01:14:22:21 01:14:27:16 
* FROM CLIP NAME:  28/B/2! 
183  003      V     C        03:15:23:15 03:15:26:04 01:14:32:01 01:14:34:15 
* FROM CLIP NAME:  28/B/2! 
185  003      V     C        03:15:29:23 03:15:32:21 01:14:37:19 01:14:40:17 
* FROM CLIP NAME:  28/B/2! 
187  003      V     C        03:15:35:00 03:15:38:04 01:14:42:18 01:14:45:22 
* FROM CLIP NAME:  28/B/2! 
189  003      V     C        03:15:42:10 03:15:44:02 01:14:50:09 01:14:52:01 
* FROM CLIP NAME:  28/B/2! 
191  003      V     C        03:15:46:05 03:15:48:20 01:14:53:08 01:14:55:23 
* FROM CLIP NAME:  28/B/2! 
193  003      V     C        03:15:50:14 03:15:52:21 01:14:59:03 01:15:01:10 
* FROM CLIP NAME:  28/B/2! 
195  003      V     C        03:16:08:06 03:16:10:10 01:15:19:19 01:15:21:23 
* FROM CLIP NAME:  28/B/2! 
197  003      V     C        03:16:11:15 03:16:15:18 01:15:23:13 01:15:27:16 
* FROM CLIP NAME:  28/B/2! 
199  003      V     C        03:16:21:01 03:16:27:10 01:15:31:15 01:15:37:24 
* FROM CLIP NAME:  28/B/2! 
200  003      V     C        03:19:32:24 03:19:39:13 01:15:37:24 01:15:44:13 
* FROM CLIP NAME:  28/C/5!!! 
202  003      V     C        03:20:05:16 03:20:15:07 01:16:06:00 01:16:15:16 
* FROM CLIP NAME:  28/C/5!!! 
201  003      V     C        03:21:06:02 03:21:27:14 01:15:44:13 01:16:06:00 
* FROM CLIP NAME:  28/D/1! 
203  003      V     C        03:22:51:14 03:22:57:04 01:16:15:16 01:16:21:06 
* FROM CLIP NAME:  28/D/2!! 
204  003      V     C        03:25:35:04 03:26:03:07 01:16:21:06 01:16:49:09 
* FROM CLIP NAME:  28/E/4!!! 
205  003      V     C        03:26:02:04 03:26:02:04 01:16:49:09 01:16:49:09 
205  033      V     D    080 09:26:33:01 09:26:36:10 01:16:49:09 01:16:52:18 
* BLEND_DISSOLVE_LOG 
* FROM CLIP NAME:  28/E/4!!! 
* TO CLIP NAME:  29/A/1 
184  003      V     C        03:29:36:15 03:29:39:19 01:14:34:15 01:14:37:19 
* FROM CLIP NAME:  28/F/2! 
169  003      V     C        03:31:05:14 03:31:08:21 01:13:40:16 01:13:43:23 
* FROM CLIP NAME:  28/F/3!! 
171  003      V     C        03:31:10:05 03:31:15:06 01:13:45:17 01:13:50:18 
* FROM CLIP NAME:  28/F/3!! 
173  003      V     C        03:31:16:12 03:31:17:20 01:13:55:09 01:13:56:17 
* FROM CLIP NAME:  28/F/3!! 
176  003      V     C        03:31:30:22 03:31:33:09 01:14:06:18 01:14:09:05 
* FROM CLIP NAME:  28/F/3!! 
178  003      V     C        03:31:37:02 03:31:39:16 01:14:11:05 01:14:13:19 
* FROM CLIP NAME:  28/F/3!! 
180  003      V     C        03:31:42:07 03:31:44:12 01:14:20:16 01:14:22:21 
* FROM CLIP NAME:  28/F/3!! 
182  003      V     C        03:31:48:19 03:31:53:04 01:14:27:16 01:14:32:01 
* FROM CLIP NAME:  28/F/3!! 
186  003      V     C        03:32:04:04 03:32:06:05 01:14:40:17 01:14:42:18 
* FROM CLIP NAME:  28/F/3!! 
188  003      V     C        03:32:10:07 03:32:14:19 01:14:45:22 01:14:50:09 
* FROM CLIP NAME:  28/F/3!! 
190  003      V     C        03:32:18:18 03:32:20:00 01:14:52:01 01:14:53:08 
* FROM CLIP NAME:  28/F/3!! 
192  003      V     C        03:32:23:20 03:32:27:00 01:14:55:23 01:14:59:03 
* FROM CLIP NAME:  28/F/3!! 
196  003      V     C        03:32:48:15 03:32:50:05 01:15:21:23 01:15:23:13 
* FROM CLIP NAME:  28/F/3!! 
198  003      V     C        03:32:53:18 03:32:57:17 01:15:27:16 01:15:31:15 
* FROM CLIP NAME:  28/F/3!! 
234  003      V     C        03:35:12:11 03:35:27:17 01:18:27:15 01:18:42:21 
* FROM CLIP NAME:  30/0/4!!! 
368  004      V     C        04:04:53:08 04:05:08:10 01:32:37:20 01:32:52:22 
* FROM CLIP NAME:  41/0/5N 
373  004      V     C        04:05:42:12 04:05:44:21 01:33:14:08 01:33:16:17 
* FROM CLIP NAME:  41/A/1N 
367  004      V     C        04:08:48:17 04:08:52:21 01:32:33:16 01:32:37:20 
* FROM CLIP NAME:  41/B/4N 
371  004      V     C        04:10:36:00 04:10:38:02 01:32:58:03 01:33:00:05 
* FROM CLIP NAME:  41/C/3N 
369  004      V     C        04:11:15:10 04:11:17:14 01:32:52:22 01:32:55:01 
* FROM CLIP NAME:  41/C/3N 
372  004      V     C        04:13:35:16 04:13:49:19 01:33:00:05 01:33:14:08 
* FROM CLIP NAME:  41/E/2N 
231     BL    V     C        00:00:00:00 00:00:00:00 01:18:07:24 01:18:07:24 
231  006      V     D    050 06:16:22:08 06:16:24:10 01:18:07:24 01:18:10:01 
* BLEND_DISSOLVE_LOG 
* TO CLIP NAME:  WF/4/2 
512  006      V     C        06:02:18:07 06:02:27:24 01:41:58:08 01:42:08:00 
* FROM CLIP NAME:  50/0/1N 
504  006      V     C        06:02:40:23 06:02:44:19 01:41:21:07 01:41:25:03 
* FROM CLIP NAME:  50/0/2N 
505  006      V     C        06:05:23:01 06:05:34:00 01:41:25:03 01:41:36:02 
* FROM CLIP NAME:  50/A/4N 
506  006      V     C        06:07:39:24 06:07:43:06 01:41:36:02 01:41:39:09 
* FROM CLIP NAME:  50/B/3N 
508  006      V     C        06:07:49:00 06:07:52:10 01:41:46:05 01:41:49:15 
* FROM CLIP NAME:  50/B/3N 
510  006      V     C        06:07:53:14 06:07:59:04 01:41:51:09 01:41:56:24 
* FROM CLIP NAME:  50/B/3N 
507  006      V     C        06:09:13:13 06:09:20:09 01:41:39:09 01:41:46:05 
* FROM CLIP NAME:  50/C/3N 
511  006      V     C        06:09:30:07 06:09:31:16 01:41:56:24 01:41:58:08 
* FROM CLIP NAME:  50/C/3N 
509  006      V     C        06:10:15:09 06:10:17:03 01:41:49:15 01:41:51:09 
* FROM CLIP NAME:  50/D/2 
513  006      V     C        06:10:19:21 06:10:22:04 01:42:08:00 01:42:10:08 
* FROM CLIP NAME:  50/D/2 
503  006      V     C        06:14:40:23 06:14:43:20 01:41:18:10 01:41:21:07 
* FROM CLIP NAME:  50/F/1!!! 
232  006      V     C        06:16:24:08 06:16:25:24 01:18:10:01 01:18:11:17 
* FROM CLIP NAME:  WF/4/2 
356  006      V     C        06:20:12:00 06:20:15:02 01:30:43:18 01:30:46:20 
* FROM CLIP NAME:  46/0/5N 
357  006      V     C        06:23:50:02 06:23:53:09 01:30:46:20 01:30:50:02 
* FROM CLIP NAME:  46/A/3N 
519  006      V     C        06:30:20:12 06:30:26:20 01:42:32:03 01:42:38:11 
* FROM CLIP NAME:  50/G/5 
515  006      V     C        06:32:04:17 06:32:08:12 01:42:14:24 01:42:18:19 
* FROM CLIP NAME:  50/H/3!! 
517  006      V     C        06:32:09:22 06:32:12:09 01:42:22:17 01:42:25:04 
* FROM CLIP NAME:  50/H/3!! 
516  007      V     C        07:02:04:05 07:02:08:03 01:42:18:19 01:42:22:17 
* FROM CLIP NAME:  50/J/2 
518  007      V     C        07:02:11:15 07:02:18:14 01:42:25:04 01:42:32:03 
* FROM CLIP NAME:  50/J/2 
514  007      V     C        07:02:50:04 07:02:54:20 01:42:10:08 01:42:14:24 
* FROM CLIP NAME:  50/K/1 
237  007      V     C        07:04:40:03 07:04:44:21 01:19:05:15 01:19:10:08 
* FROM CLIP NAME:  31/0/3!!! 
239  007      V     C        07:04:45:06 07:04:58:09 01:19:14:18 01:19:27:21 
* FROM CLIP NAME:  31/0/3!!! 
240  007      V     C        07:05:55:11 07:06:03:21 01:19:27:21 01:19:36:06 
* FROM CLIP NAME:  31/A/2 
236  007      V     C        07:07:05:09 07:07:11:00 01:18:59:24 01:19:05:15 
* FROM CLIP NAME:  31/B/2!! 
238  007      V     C        07:07:14:03 07:07:18:13 01:19:10:08 01:19:14:18 
* FROM CLIP NAME:  31/B/2!! 
166  007      V     C        07:07:25:19 07:07:28:09 01:13:24:05 01:13:26:20 
* IMAGE, COLOR EFFECT 
* FROM CLIP NAME:  31/C/1 
235  007      V     C        07:08:03:15 07:08:20:18 01:18:42:21 01:18:59:24 
* FROM CLIP NAME:  31/D/1 
358  007      V     C        07:09:19:14 07:09:24:17 01:30:50:02 01:30:55:05 
* FROM CLIP NAME:  46/F/2!!.SUB.01 
570  007      V     C        07:19:42:13 07:19:44:11 01:51:02:15 01:51:04:13 
* FROM CLIP NAME:  62/A/2!!!! 
572  007      V     C        07:20:34:15 07:20:36:10 01:51:06:09 01:51:08:04 
* FROM CLIP NAME:  62/B/2!!! 
571  007      V     C        07:23:57:16 07:23:59:12 01:51:04:13 01:51:06:09 
* FROM CLIP NAME:  62/C/2!!! 
575  007      V     C        07:27:17:13 07:27:20:13 01:51:14:04 01:51:17:04 
* FROM CLIP NAME:  63/B/7!!!! 
573  007      V     C        07:28:01:13 07:28:05:09 01:51:08:04 01:51:12:00 
* FROM CLIP NAME:  62/D/2!!!! 
580  007      V     C        07:28:16:10 07:28:21:15 01:51:28:14 01:51:33:19 
* FROM CLIP NAME:  62/D/2!!!! 
577  007      V     C        07:29:23:06 07:29:25:13 01:51:21:08 01:51:23:15 
* FROM CLIP NAME:  62/E/3 
576  007      V     C        07:30:08:24 07:30:13:03 01:51:17:04 01:51:21:08 
* FROM CLIP NAME:  62/F/1 
578  007      V     C        07:33:12:18 07:33:14:22 01:51:23:15 01:51:25:19 
* FROM CLIP NAME:  62/H/4!!! 
574  007      V     C        07:33:22:21 07:33:25:00 01:51:12:00 01:51:14:04 
* FROM CLIP NAME:  62/J/1 
579  007      V     C        07:34:06:21 07:34:09:16 01:51:25:19 01:51:28:14 
* FROM CLIP NAME:  63/D/1!!! 
581  007      V     C        07:39:30:10 07:39:34:15 01:51:33:19 01:51:37:24 
* FROM CLIP NAME:  64/0/5PU!!! 
593  007      V     C        07:40:11:22 07:40:26:05 01:52:18:24 01:52:33:07 
* FROM CLIP NAME:  64/0/5PU!!! 
583  007      V     C        07:42:47:07 07:42:49:10 01:51:43:15 01:51:45:18 
* FROM CLIP NAME:  64/A/3!!! 
585  007      V     C        07:42:54:11 07:42:59:14 01:51:47:08 01:51:52:11 
* FROM CLIP NAME:  64/A/3!!! 
587  007      V     C        07:43:00:15 07:43:01:20 01:51:54:05 01:51:55:10 
* FROM CLIP NAME:  64/A/3!!! 
589  007      V     C        07:43:09:02 07:43:12:10 01:52:02:03 01:52:05:11 
* FROM CLIP NAME:  64/A/3!!! 
591  007      V     C        07:43:13:01 07:43:21:14 01:52:07:16 01:52:16:04 
* FROM CLIP NAME:  64/A/3!!! 
582  007      V     C        07:45:06:15 07:45:12:06 01:51:37:24 01:51:43:15 
* FROM CLIP NAME:  64/B/3!!! 
584  007      V     C        07:45:14:09 07:45:15:24 01:51:45:18 01:51:47:08 
* FROM CLIP NAME:  64/B/3!!! 
586  007      V     C        07:45:23:23 07:45:25:17 01:51:52:11 01:51:54:05 
* FROM CLIP NAME:  64/B/3!!! 
588  007      V     C        07:45:26:15 07:45:33:08 01:51:55:10 01:52:02:03 
* FROM CLIP NAME:  64/B/3!!! 
590  007      V     C        07:45:37:19 07:45:39:24 01:52:05:11 01:52:07:16 
* FROM CLIP NAME:  64/B/3!!! 
592  007      V     C        07:45:46:05 07:45:49:00 01:52:16:04 01:52:18:24 
* FROM CLIP NAME:  64/B/3!!! 
342  008      V     C        08:25:19:13 08:25:23:12 01:28:23:02 01:28:27:01 
* FROM CLIP NAME:  36/A/1/3!!! 
343  008      V     C        08:25:40:00 08:25:41:10 01:28:27:01 01:28:28:11 
* FROM CLIP NAME:  36/A/2/1!!! 
395  009      V     C        09:03:00:01 09:03:04:10 01:34:41:02 01:34:45:11 
* FROM CLIP NAME:  15/0/1 
397  009      V     C        09:04:33:21 09:04:37:22 01:34:48:01 01:34:52:02 
* FROM CLIP NAME:  15/A/1 
562  010      V     C        10:36:59:15 10:37:15:11 01:49:41:19 01:49:57:15 
* FROM CLIP NAME:  60/0/6!!! 
419  011      V     C        11:02:36:14 11:02:42:04 01:36:05:01 01:36:10:16 
* FROM CLIP NAME:  44/A/1! 
417  011      V     C        11:03:27:07 11:03:31:23 01:35:56:15 01:36:01:06 
* FROM CLIP NAME:  44/B/2!!! 
420  011      V     C        11:03:41:04 11:03:42:04 01:36:10:16 01:36:11:16 
* FROM CLIP NAME:  44/B/2!!! 
418  011      V     C        11:04:34:03 11:04:37:23 01:36:01:06 01:36:05:01 
* FROM CLIP NAME:  44/B/4VA!!! 
422  011      V     C        11:06:06:20 11:06:10:01 01:36:21:13 01:36:24:19 
* FROM CLIP NAME:  44/C/2/CAM A 
424  011      V     C        11:07:17:03 11:07:18:24 01:36:28:04 01:36:30:00 
* FROM CLIP NAME:  44/D/1/CAM A 
428  011      V     C        11:07:27:09 11:07:29:04 01:36:40:07 01:36:42:02 
* FROM CLIP NAME:  44/D/1/CAM A 
426  011      V     C        11:08:24:12 11:08:28:23 01:36:33:22 01:36:38:08 
* FROM CLIP NAME:  44/E/2/CAM A 
444  011      V     C        11:08:43:21 11:08:47:02 01:37:32:09 01:37:35:15 
* FROM CLIP NAME:  44/E/2/CAM A 
427  011      V     C        11:09:21:12 11:09:23:11 01:36:38:08 01:36:40:07 
* FROM CLIP NAME:  44/F/1/CAM A 
429  011      V     C        11:09:24:08 11:09:26:12 01:36:42:02 01:36:44:06 
* FROM CLIP NAME:  44/F/1/CAM A 
431  011      V     C        11:09:26:17 11:09:30:10 01:36:51:00 01:36:54:18 
* FROM CLIP NAME:  44/F/1/CAM A 
435  011      V     C        11:10:04:10 11:10:09:08 01:37:01:09 01:37:06:07 
* FROM CLIP NAME:  44/G/1/CAM A 
446  011      V     C        11:14:31:20 11:14:34:01 01:37:41:10 01:37:43:16 
* FROM CLIP NAME:  44/K/2/CAM A!!! 
438  011      V     C        11:15:04:20 11:15:06:08 01:37:12:18 01:37:14:06 
* FROM CLIP NAME:  44/K/3/CAM A!! 
442  011      V     C        11:15:06:09 11:15:09:07 01:37:25:06 01:37:28:04 
* FROM CLIP NAME:  44/K/3/CAM A!! 
454  011      V     C        11:15:25:02 11:15:26:20 01:37:57:18 01:37:59:11 
* FROM CLIP NAME:  44/K/3/CAM A!! 
456  011      V     C        11:15:30:18 11:15:33:10 01:38:02:18 01:38:05:10 
* FROM CLIP NAME:  44/K/3/CAM A!! 
436  011      V     C        11:16:02:12 11:16:05:23 01:37:06:07 01:37:09:18 
* FROM CLIP NAME:  44/L/1/CAM A!!! 
401  011      V     C        11:17:02:16 11:17:04:08 01:34:59:07 01:35:00:24 
* FROM CLIP NAME:  44/M/2!! 
407  011      V     C        11:19:22:21 11:19:25:23 01:35:17:07 01:35:20:09 
* FROM CLIP NAME:  44/P/2/CAM A!!! 
414  011      V     C        11:19:50:16 11:19:57:20 01:35:44:07 01:35:51:11 
* FROM CLIP NAME:  44/P/2/CAM A!!! 
406  011      V     C        11:20:15:21 11:20:17:15 01:35:15:13 01:35:17:07 
* FROM CLIP NAME:  44/Q/1/CAM A!!! 
409  011      V     C        11:20:24:01 11:20:29:19 01:35:22:06 01:35:27:24 
* FROM CLIP NAME:  44/Q/1/CAM A!!! 
411  011      V     C        11:20:31:20 11:20:34:21 01:35:29:21 01:35:32:22 
* FROM CLIP NAME:  44/Q/1/CAM A!!! 
402  011      V     C        11:21:09:10 11:21:10:20 01:35:00:24 01:35:02:09 
* FROM CLIP NAME:  44/R/1/CAM A 
412  011      V     C        11:22:17:06 11:22:27:04 01:35:32:22 01:35:42:20 
* FROM CLIP NAME:  44/R/2/CAM A!!! 
415  011      V     C        11:22:37:09 11:22:40:12 01:35:51:11 01:35:54:14 
* FROM CLIP NAME:  44/R/2/CAM A!!! 
433  011      V     C        11:23:56:08 11:23:57:18 01:36:58:13 01:36:59:23 
* FROM CLIP NAME:  44/T/2 
441  011      V     C        11:24:05:12 11:24:09:14 01:37:21:04 01:37:25:06 
* FROM CLIP NAME:  44/T/2 
452  011      V     C        11:24:45:17 11:24:49:01 01:37:50:23 01:37:54:07 
* FROM CLIP NAME:  44/V/2 
440  011      V     C        11:25:07:00 11:25:11:00 01:37:17:04 01:37:21:04 
* FROM CLIP NAME:  44/W/1 
450  011      V     C        11:25:39:22 11:25:40:12 01:37:45:07 01:37:45:22 
* FROM CLIP NAME:  44/X/2 
453  011      V     C        11:25:42:00 11:25:45:11 01:37:54:07 01:37:57:18 
* FROM CLIP NAME:  44/X/2 
460  011      V     C        11:26:44:02 11:26:58:01 01:38:23:18 01:38:37:17 
* FROM CLIP NAME:  44/Y/2!!! 
447  011      V     C        11:27:33:03 11:27:33:11 01:37:43:16 01:37:43:24 
* FROM CLIP NAME:  44/S/2/CAM A 
449  011      V     C        11:27:33:20 11:27:34:16 01:37:44:11 01:37:45:07 
* FROM CLIP NAME:  44/S/2/CAM A 
434  011      V     C        11:27:48:23 11:27:50:09 01:36:59:23 01:37:01:09 
* FROM CLIP NAME:  44/Z/1 
439  011      V     C        11:27:53:16 11:27:56:14 01:37:14:06 01:37:17:04 
* FROM CLIP NAME:  44/Z/1 
413  011      V     C        11:28:37:09 11:28:38:21 01:35:42:20 01:35:44:07 
* FROM CLIP NAME:  44/Z/A/1 
457  011      V     C        11:28:48:24 11:28:57:14 01:38:05:10 01:38:14:00 
* FROM CLIP NAME:  44/Z/A/2!!! 
399  011      V     C        11:29:38:04 11:29:41:22 01:34:54:04 01:34:57:22 
* FROM CLIP NAME:  44/Z/B/2 
458  011      V     C        11:30:50:23 11:30:56:04 01:38:14:00 01:38:19:06 
* FROM CLIP NAME:  44/Z/C/2/CAM A!!!! 
478  011      V     C        11:31:55:20 11:32:00:24 01:39:46:15 01:39:51:19 
* FROM CLIP NAME:  45/0/2 
483  011      V     C        11:32:14:09 11:32:18:14 01:40:08:18 01:40:12:23 
* FROM CLIP NAME:  45/0/2 
480  011      V     C        11:33:25:11 11:33:33:15 01:39:53:10 01:40:01:14 
* FROM CLIP NAME:  45/A/2/CAM A!!! 
482  011      V     C        11:33:36:17 11:33:40:03 01:40:05:07 01:40:08:18 
* FROM CLIP NAME:  45/A/2/CAM A!!! 
484  011      V     C        11:33:44:03 11:33:47:12 01:40:12:23 01:40:16:07 
* FROM CLIP NAME:  45/A/2/CAM A!!! 
003     BL    V     C        00:00:00:00 00:00:00:00 01:00:48:17 01:00:48:17 
003  012      V     D    120 12:30:15:09 12:30:20:09 01:00:48:17 01:00:53:17 
* BLEND_DISSOLVE_LOG 
* TO CLIP NAME:  KREUZ AUFSTELLEN 
004  012      V     C        12:30:20:04 12:30:46:10 01:00:53:17 01:01:19:23 
* FROM CLIP NAME:  KREUZ AUFSTELLEN 
005  012      V     C        12:30:45:09 12:30:45:09 01:01:19:23 01:01:19:23 
005     BL    V     D    150 00:00:00:00 00:00:06:06 01:01:19:23 01:01:26:04 
* BLEND_DISSOLVE_LOG 
* FROM CLIP NAME:  KREUZ AUFSTELLEN 
011  013      V     C        13:02:08:01 13:02:10:06 01:01:42:10 01:01:44:15 
* FROM CLIP NAME:  4/0/2!!! 
016  013      V     C        13:02:13:21 13:02:19:05 01:01:53:13 01:01:58:22 
* FROM CLIP NAME:  4/0/2!!! 
017  013      V     C        13:04:04:00 13:04:06:24 01:01:58:22 01:02:01:21 
* FROM CLIP NAME:  4/A/3 
018  013      V     C        13:04:08:02 13:04:11:14 01:02:01:21 01:02:05:08 
* FROM CLIP NAME:  4/A/3 
020  013      V     C        13:04:44:18 13:04:47:13 01:02:11:24 01:02:14:19 
* FROM CLIP NAME:  4/E/2!!! 
021  013      V     C        13:06:24:01 13:06:25:20 01:02:14:19 01:02:16:13 
* FROM CLIP NAME:  4/G/4 
029  013      V     C        13:14:59:22 13:15:01:08 01:03:11:20 01:03:13:06 
* FROM CLIP NAME:  4/M/4 
027  013      V     C        13:15:48:05 13:15:54:21 01:02:58:15 01:03:05:06 
* FROM CLIP NAME:  4/N/1 
023  013      V     C        13:16:06:04 13:16:12:01 01:02:42:00 01:02:47:22 
* FROM CLIP NAME:  4/N/2!!!! 
025  013      V     C        13:16:14:11 13:16:20:14 01:02:50:03 01:02:56:06 
* FROM CLIP NAME:  4/N/2!!!! 
030  013      V     C        13:18:25:17 13:18:28:01 01:03:13:06 01:03:15:15 
* FROM CLIP NAME:  4/P/6!!! 
031  013      V     C        13:18:30:12 13:18:33:22 01:03:15:15 01:03:19:00 
* FROM CLIP NAME:  4/P/6!!! 
410  014B     V     C        14:26:12:11 14:26:14:08 01:35:27:24 01:35:29:21 
* EFF_BLEND_FLIP_HORZ 
* FROM CLIP NAME:  52/0/3/CAM B 
522  015      V     C        15:11:44:06 15:11:49:08 01:42:49:09 01:42:54:11 
* FROM CLIP NAME:  51/0/2/CAM A 
520  015      V     C        15:12:48:06 15:12:50:23 01:42:38:11 01:42:41:03 
* FROM CLIP NAME:  51/0/3/CAM A!!!! 
521  015      V     C        15:14:14:08 15:14:22:14 01:42:41:03 01:42:49:09 
* FROM CLIP NAME:  51/A/1/CAM A!!! 
525  015      V     C        15:14:34:14 15:14:41:12 01:43:01:00 01:43:07:23 
* FROM CLIP NAME:  51/A/1/CAM A!!! 
527  015      V     C        15:14:50:05 15:14:54:07 01:43:09:15 01:43:13:17 
* FROM CLIP NAME:  51/A/1/CAM A!!! 
528  015      V     C        15:14:58:13 15:15:04:04 01:43:13:17 01:43:19:08 
* FROM CLIP NAME:  51/A/1/CAM A!!! 
549  015      V     C        15:18:27:24 15:18:35:08 01:44:41:22 01:44:49:06 
* EFF_BLEND_FLIP_HORZ 
* FROM CLIP NAME:  52/0/2/CAM A!!! 
398  015      V     C        15:18:45:06 15:18:47:08 01:34:52:02 01:34:54:04 
* FROM CLIP NAME:  52/0/3/CAM A 
403  015      V     C        15:18:48:11 15:18:52:05 01:35:02:09 01:35:06:03 
* EFF_BLEND_FLIP_HORZ 
* FROM CLIP NAME:  52/0/3/CAM A 
405  015      V     C        15:18:56:20 15:19:01:06 01:35:11:02 01:35:15:13 
* EFF_BLEND_FLIP_HORZ 
* FROM CLIP NAME:  52/0/3/CAM A 
408  015      V     C        15:19:05:18 15:19:07:15 01:35:20:09 01:35:22:06 
* EFF_BLEND_FLIP_HORZ 
* FROM CLIP NAME:  52/0/3/CAM A 
523  015      V     C        15:20:48:05 15:20:51:16 01:42:54:11 01:42:57:22 
* FROM CLIP NAME:  53/A/2/CAM A!!! 
529  015      V     C        15:21:12:16 15:21:14:24 01:43:19:08 01:43:21:16 
* FROM CLIP NAME:  53/A/2/CAM A!!! 
531  015      V     C        15:21:18:10 15:21:22:09 01:43:29:20 01:43:33:19 
* FROM CLIP NAME:  53/A/2/CAM A!!! 
534  015      V     C        15:21:36:06 15:21:38:07 01:43:42:24 01:43:45:00 
* FROM CLIP NAME:  53/A/2/CAM A!!! 
533  015      V     C        15:26:21:03 15:26:23:13 01:43:40:14 01:43:42:24 
* FROM CLIP NAME:  53/B/5/CAM A!!! 
535  015      V     C        15:26:28:14 15:26:31:18 01:43:45:00 01:43:48:04 
* FROM CLIP NAME:  53/B/5/CAM A!!! 
544  015      V     C        15:27:23:13 15:27:28:13 01:44:20:17 01:44:25:17 
* FROM CLIP NAME:  53/B/5/CAM A!!! 
537  015      V     C        15:28:28:05 15:28:33:16 01:43:53:07 01:43:58:18 
* FROM CLIP NAME:  53/C/1/CAM A!!! 
538  015      V     C        15:28:42:09 15:28:45:04 01:43:58:18 01:44:01:13 
* FROM CLIP NAME:  53/C/1/CAM A!!! 
543  015      V     C        15:29:10:10 15:29:13:14 01:44:17:13 01:44:20:17 
* FROM CLIP NAME:  53/C/1/CAM A!!! 
546  015      V     C        15:29:25:22 15:29:27:21 01:44:30:08 01:44:32:07 
* FROM CLIP NAME:  53/C/1/CAM A!!! 
548  015      V     C        15:29:27:21 15:29:34:07 01:44:35:11 01:44:41:22 
* FROM CLIP NAME:  53/C/1/CAM A!!! 
541  015      V     C        15:31:03:23 15:31:14:05 01:44:05:11 01:44:15:18 
* FROM CLIP NAME:  53/D/2!!!! 
540  015      V     C        15:32:18:15 15:32:20:01 01:44:04:00 01:44:05:11 
* FROM CLIP NAME:  53/E/3!! 
536  015      V     C        15:32:49:05 15:32:54:08 01:43:48:04 01:43:53:07 
* FROM CLIP NAME:  53/E/5!!! 
141  016      V     C        15:35:34:09 15:35:37:11 01:10:48:21 01:10:51:23 
* FROM CLIP NAME:  16/0/3 
147  016      V     C        15:35:57:03 15:36:01:07 01:11:14:02 01:11:18:06 
* FROM CLIP NAME:  16/0/3 
143  016      V     C        15:37:27:18 15:37:31:03 01:10:54:15 01:10:58:00 
* FROM CLIP NAME:  16/B/1 
145  016      V     C        15:37:38:01 15:37:41:08 01:11:08:00 01:11:11:07 
* FROM CLIP NAME:  16/B/1 
149  016      V     C        15:37:51:09 15:37:55:10 01:11:24:20 01:11:28:21 
* FROM CLIP NAME:  16/B/1 
142  016      V     C        15:40:37:05 15:40:39:22 01:10:51:23 01:10:54:15 
* FROM CLIP NAME:  16/C/4!! 
150  016      V     C        15:41:10:10 15:41:13:24 01:11:28:21 01:11:32:10 
* FROM CLIP NAME:  16/C/4!! 
144  016      V     C        15:43:03:18 15:43:13:18 01:10:58:00 01:11:08:00 
* FROM CLIP NAME:  16/D/4!!! 
146  016      V     C        15:43:16:02 15:43:18:22 01:11:11:07 01:11:14:02 
* FROM CLIP NAME:  16/D/4!!! 
148  016      V     C        15:43:22:08 15:43:28:22 01:11:18:06 01:11:24:20 
* FROM CLIP NAME:  16/D/4!!! 
087  016      V     C        15:47:39:19 15:47:49:15 01:07:32:07 01:07:42:03 
* FROM CLIP NAME:  19/0/6!!! 
091  016      V     C        15:47:54:07 15:47:56:01 01:07:47:02 01:07:48:21 
* FROM CLIP NAME:  19/0/6!!! 
088  016      V     C        15:48:26:11 15:48:30:02 01:07:42:03 01:07:45:19 
* FROM CLIP NAME:  19/A/1 
090  016      V     C        15:48:31:03 15:48:31:15 01:07:46:15 01:07:47:02 
* FROM CLIP NAME:  19/A/1 
092  016      V     C        15:48:34:06 15:48:35:04 01:07:48:21 01:07:49:19 
* FROM CLIP NAME:  19/A/1 
089  016      V     C        15:48:56:18 15:48:57:14 01:07:45:19 01:07:46:15 
* FROM CLIP NAME:  19/B/1 
093  016      V     C        15:49:22:11 15:49:23:22 01:07:49:19 01:07:51:05 
* FROM CLIP NAME:  19/B/2!! 
096  016      V     C        15:49:58:13 15:50:02:12 01:08:05:07 01:08:09:06 
* FROM CLIP NAME:  19/C/1!! 
095  016      V     C        15:51:40:07 15:51:42:09 01:08:03:05 01:08:05:07 
* FROM CLIP NAME:  19/D/2!!! 
099  016      V     C        15:55:00:03 15:55:04:10 01:08:13:14 01:08:17:21 
* FROM CLIP NAME:  19/F/3!!! 
104  016      V     C        15:55:19:14 15:55:29:23 01:08:32:02 01:08:42:11 
* FROM CLIP NAME:  19/F/3!!! 
112  016      V     C        15:55:46:01 15:55:50:19 01:09:02:00 01:09:06:18 
* FROM CLIP NAME:  19/F/3!!! 
117  016      V     C        15:55:58:24 15:56:07:11 01:09:18:04 01:09:26:16 
* FROM CLIP NAME:  19/F/3!!! 
102  016      V     C        15:58:12:18 15:58:18:15 01:08:22:10 01:08:28:07 
* FROM CLIP NAME:  19/G/3!! 
107  016      V     C        15:58:37:13 15:58:39:23 01:08:48:21 01:08:51:06 
* FROM CLIP NAME:  19/G/3!! 
100  016      V     C        16:00:25:22 16:00:27:15 01:08:17:21 01:08:19:14 
* FROM CLIP NAME:  19/H/2!! 
103  016      V     C        16:00:36:09 16:00:40:04 01:08:28:07 01:08:32:02 
* FROM CLIP NAME:  19/H/2!! 
108  016      V     C        16:00:56:23 16:00:59:03 01:08:51:06 01:08:53:11 
* FROM CLIP NAME:  19/H/2!! 
110  016      V     C        16:01:01:24 16:01:04:00 01:08:56:23 01:08:58:24 
* FROM CLIP NAME:  19/H/2!! 
101  016      V     C        16:03:38:10 16:03:41:06 01:08:19:14 01:08:22:10 
* FROM CLIP NAME:  19/J/3!!!! 
105  016      V     C        16:03:59:09 16:04:03:18 01:08:42:11 01:08:46:20 
* FROM CLIP NAME:  19/J/3!!!! 
109  016      V     C        16:04:08:03 16:04:11:15 01:08:53:11 01:08:56:23 
* FROM CLIP NAME:  19/J/3!!!! 
111  016      V     C        16:04:12:24 16:04:16:00 01:08:58:24 01:09:02:00 
* FROM CLIP NAME:  19/J/3!!!! 
113  016      V     C        16:04:21:22 16:04:23:15 01:09:06:18 01:09:08:11 
* FROM CLIP NAME:  19/J/3!!!! 
115  016      V     C        16:04:25:09 16:04:30:03 01:09:10:20 01:09:15:14 
* FROM CLIP NAME:  19/J/3!!!! 
098  016      V     C        16:04:57:11 16:04:58:15 01:08:12:10 01:08:13:14 
* FROM CLIP NAME:  19/J/5PU 
106  016      V     C        16:05:36:02 16:05:38:03 01:08:46:20 01:08:48:21 
* FROM CLIP NAME:  19/K/1 
114  017      V     C        16:15:03:18 16:15:06:02 01:09:08:11 01:09:10:20 
* FROM CLIP NAME:  19/M/1 
116  017      V     C        16:16:27:08 16:16:29:23 01:09:15:14 01:09:18:04 
* FROM CLIP NAME:  19/N/2!!! 
015  017      V     C        16:17:51:19 16:17:53:11 01:01:51:21 01:01:53:13 
* FROM CLIP NAME:  19/L/6!!! 
120  017      V     C        16:18:13:12 16:18:15:21 01:09:30:20 01:09:33:04 
* FROM CLIP NAME:  19/L/6!!! 
125  017      V     C        16:20:37:22 16:20:42:01 01:09:45:18 01:09:49:22 
* FROM CLIP NAME:  19/P/3!! 
129  017      V     C        16:20:48:24 16:20:50:01 01:09:58:00 01:09:59:02 
* FROM CLIP NAME:  19/P/3!! 
119  017      V     C        16:22:15:03 16:22:16:15 01:09:29:08 01:09:30:20 
* FROM CLIP NAME:  19/Q/2!!! 
121  017      V     C        16:22:19:04 16:22:21:10 01:09:33:04 01:09:35:10 
* FROM CLIP NAME:  19/Q/2!!! 
127  017      V     C        16:22:36:24 16:22:40:10 01:09:53:23 01:09:57:09 
* FROM CLIP NAME:  19/Q/2!!! 
118  017      V     C        16:25:09:09 16:25:12:01 01:09:26:16 01:09:29:08 
* FROM CLIP NAME:  19/R/2 
122  017      V     C        16:25:18:17 16:25:20:04 01:09:35:10 01:09:36:22 
* FROM CLIP NAME:  19/R/2 
130  017      V     C        16:26:40:24 16:26:43:11 01:09:59:02 01:10:01:14 
* FROM CLIP NAME:  19/S/2 
132  017      V     C        16:28:05:01 16:28:08:19 01:10:03:14 01:10:07:07 
* FROM CLIP NAME:  19/S/4!! 
136  017      V     C        16:28:10:24 16:28:15:16 01:10:14:21 01:10:19:13 
* FROM CLIP NAME:  19/S/4!! 
135  017      V     C        16:28:50:16 16:28:52:16 01:10:12:21 01:10:14:21 
* FROM CLIP NAME:  19/T/1 
131  017      V     C        16:29:22:14 16:29:24:14 01:10:01:14 01:10:03:14 
* FROM CLIP NAME:  19/T/2!!!! 
126  017      V     C        16:29:56:01 16:30:00:02 01:09:49:22 01:09:53:23 
* FROM CLIP NAME:  19/U/2 
124  017      V     C        16:34:09:05 16:34:15:18 01:09:39:05 01:09:45:18 
* FROM CLIP NAME:  19/V/7!!!!! 
133  017      V     C        16:34:33:02 16:34:36:03 01:10:07:07 01:10:10:08 
* FROM CLIP NAME:  19/V/7!!!!! 
128  017      V     C        16:35:22:19 16:35:23:10 01:09:57:09 01:09:58:00 
* FROM CLIP NAME:  19/W/3!! 
123  017      V     C        16:36:52:23 16:36:55:06 01:09:36:22 01:09:39:05 
* FROM CLIP NAME:  19/X/3!!!! 
138  017      V     C        16:37:11:06 16:37:15:13 01:10:23:06 01:10:27:13 
* FROM CLIP NAME:  19/X/3!!!! 
013  017      V     C        16:37:20:04 16:37:21:07 01:01:48:10 01:01:49:13 
* FROM CLIP NAME:  19/X/3!!!! 
134  017      V     C        16:38:14:00 16:38:16:13 01:10:10:08 01:10:12:21 
* FROM CLIP NAME:  19/Y/2!!!! 
137  017      V     C        16:38:20:19 16:38:24:12 01:10:19:13 01:10:23:06 
* FROM CLIP NAME:  19/Y/2!!!! 
139  017      V     C        16:41:05:14 16:41:10:05 01:10:27:13 01:10:32:04 
* FROM CLIP NAME:  20/0/6!!!! 
140  017      V     C        16:42:25:10 16:42:42:02 01:10:32:04 01:10:48:21 
* FROM CLIP NAME:  20/A/2 VA!!! 
007     BL    V     C        00:00:00:00 00:00:00:00 01:01:26:19 01:01:26:19 
007  019      V     D    150 18:15:19:17 18:15:25:23 01:01:26:19 01:01:33:00 
* BLEND_DISSOLVE_LOG 
* TO CLIP NAME:  67/A/0/4 
008  019      V     C        18:15:25:17 18:15:28:08 01:01:33:00 01:01:35:16 
* FROM CLIP NAME:  67/A/0/4 
009  019      V     C        18:15:28:05 18:15:28:05 01:01:35:16 01:01:35:16 
009     BL    V     D    040 00:00:00:00 00:00:01:16 01:01:35:16 01:01:37:07 
* BLEND_DISSOLVE_LOG 
* FROM CLIP NAME:  67/A/0/4 
034  019      V     C        18:19:17:24 18:19:22:15 01:03:49:10 01:03:54:01 
* FROM CLIP NAME:  67/A/D/2 
550  019      V     C        18:24:22:12 18:24:27:02 01:44:49:06 01:44:53:21 
* FROM CLIP NAME:  67/A/G/1 
317  019      V     C        18:24:41:08 18:24:46:06 01:24:49:13 01:24:54:11 
* FROM CLIP NAME:  67/A/G/1 
556  019      V     C        18:38:14:02 18:38:30:16 01:46:07:16 01:46:24:05 
* EFF_BLEND_FLIP_HORZ 
* FROM CLIP NAME:  56/A/A/2!!! 
033  020      V     C        19:07:35:21 19:07:40:20 01:03:44:11 01:03:49:10 
* FROM CLIP NAME:  67/A/H/1 
396  020      V     C        19:26:31:01 19:26:33:16 01:34:45:11 01:34:48:01 
* EFF_BLEND_FLIP_HORZ 
* FROM CLIP NAME:  14/D/1 
037  021      V     C        20:20:48:03 20:20:57:17 01:04:01:24 01:04:11:13 
* FROM CLIP NAME:  3/B/5 
036  021      V     C        20:23:36:11 20:23:40:11 01:03:57:24 01:04:01:24 
* FROM CLIP NAME:  3/C/4 
042  021      V     C        20:33:38:13 20:33:41:13 01:04:46:18 01:04:49:18 
* FROM CLIP NAME:  5/0/3 
056  021      V     C        20:34:28:06 20:34:30:21 01:05:42:07 01:05:44:22 
* FROM CLIP NAME:  5/0/3 
039  021      V     C        20:35:18:08 20:35:35:02 01:04:18:21 01:04:35:15 
* FROM CLIP NAME:  5/A/1 
561  021      V     C        20:37:37:22 20:38:22:12 01:48:57:04 01:49:41:19 
* FROM CLIP NAME:  59/A/0/2!!! 
041  021      V     C        20:39:04:05 20:39:11:02 01:04:39:21 01:04:46:18 
* FROM CLIP NAME:  5/A/2!!! 
045  021      V     C        20:39:19:17 20:39:28:20 01:04:53:01 01:05:02:04 
* FROM CLIP NAME:  5/A/2!!! 
047  021      V     C        20:39:31:10 20:39:35:13 01:05:05:00 01:05:09:03 
* FROM CLIP NAME:  5/A/2!!! 
050  021      V     C        20:39:40:08 20:39:46:03 01:05:14:24 01:05:20:19 
* FROM CLIP NAME:  5/A/2!!! 
052  021      V     C        20:39:53:15 20:39:59:21 01:05:23:11 01:05:29:17 
* FROM CLIP NAME:  5/A/2!!! 
055  021      V     C        20:40:09:05 20:40:11:17 01:05:39:20 01:05:42:07 
* FROM CLIP NAME:  5/A/2!!! 
038  021      V     C        20:44:21:03 20:44:28:11 01:04:11:13 01:04:18:21 
* FROM CLIP NAME:  5/B/3 
040  021      V     C        20:44:41:08 20:44:45:14 01:04:35:15 01:04:39:21 
* FROM CLIP NAME:  5/B/3 
043  021      V     C        20:44:54:13 20:44:56:03 01:04:49:18 01:04:51:08 
* FROM CLIP NAME:  5/B/3 
044  021      V     C        20:44:56:02 20:44:57:20 01:04:51:08 01:04:53:01 
* FROM CLIP NAME:  5/B/3 
048  021      V     C        20:45:14:18 20:45:18:05 01:05:09:03 01:05:12:15 
* FROM CLIP NAME:  5/B/3 
051  021      V     C        20:47:53:12 20:47:56:04 01:05:20:19 01:05:23:11 
* FROM CLIP NAME:  5/C/2 
054  021      V     C        20:48:05:02 20:48:12:00 01:05:32:22 01:05:39:20 
* FROM CLIP NAME:  5/C/2 
057  021      V     C        20:49:48:04 20:50:04:01 01:05:44:22 01:06:00:19 
* FROM CLIP NAME:  5/C/4!!!! 
058  021      V     C        20:50:03:10 20:50:03:10 01:06:00:19 01:06:00:19 
058  024      V     D    100 00:02:55:02 00:03:00:09 01:06:00:19 01:06:06:01 
M2   024            000.0                00:02:55:02 
* BLEND_DISSOLVE_LOG 
* FROM CLIP NAME:  5/C/4!!!! 
* TO CLIP NAME:  18/0/5!! 
049  021      V     C        20:51:01:18 20:51:04:02 01:05:12:15 01:05:14:24 
* FROM CLIP NAME:  5/D/1 
053  021      V     C        20:51:05:11 20:51:08:16 01:05:29:17 01:05:32:22 
* FROM CLIP NAME:  5/D/1 
046  021      V     C        20:51:30:21 20:51:33:17 01:05:02:04 01:05:05:00 
* FROM CLIP NAME:  5/D/1 
151  021      V     C        20:55:44:03 20:56:00:12 01:11:32:10 01:11:48:19 
* FROM CLIP NAME:  17/A/2!!! 
152  021      V     C        20:58:11:08 20:58:20:15 01:11:48:19 01:11:58:01 
* FROM CLIP NAME:  17/B/2!!! 
154  021      V     C        20:58:39:22 20:58:43:14 01:12:01:18 01:12:05:10 
* FROM CLIP NAME:  17/B/2!!! 
156  021      V     C        21:00:52:21 21:01:00:19 01:12:10:03 01:12:18:01 
* FROM CLIP NAME:  17/C/2 
157  021      V     C        21:01:00:11 21:01:00:11 01:12:18:01 01:12:18:01 
157     BL    V     D    100 00:00:00:00 00:00:04:04 01:12:18:01 01:12:22:05 
* BLEND_DISSOLVE_LOG 
* FROM CLIP NAME:  17/C/2 
153  021      V     C        21:01:14:15 21:01:18:07 01:11:58:01 01:12:01:18 
* FROM CLIP NAME:  17/D/1 
155  021      V     C        21:01:41:24 21:01:46:17 01:12:05:10 01:12:10:03 
* FROM CLIP NAME:  17/D/1 
551  021      V     C        21:09:39:11 21:09:59:18 01:44:53:21 01:45:14:03 
* FROM CLIP NAME:  54/0/5!!!! 
553  021      V     C        21:10:15:18 21:10:38:04 01:45:31:06 01:45:53:17 
* FROM CLIP NAME:  54/0/5!!!! 
555  021      V     C        21:10:39:24 21:10:50:15 01:45:57:00 01:46:07:16 
* FROM CLIP NAME:  54/0/5!!!! 
552  021      V     C        21:12:30:12 21:12:47:15 01:45:14:03 01:45:31:06 
* FROM CLIP NAME:  54/A/4 
554  021      V     C        21:13:11:00 21:13:14:08 01:45:53:17 01:45:57:00 
* FROM CLIP NAME:  54/A/4 
557  021      V     C        21:18:32:01 21:19:26:11 01:46:24:05 01:47:18:15 
* FROM CLIP NAME:  57/0/3!! 
360  023      V     C        23:17:05:07 23:17:10:17 01:30:58:21 01:31:04:06 
* FROM CLIP NAME:  39/0/5 
362  023      V     C        23:17:15:11 23:17:20:03 01:31:07:01 01:31:11:18 
* FROM CLIP NAME:  39/0/5 
364  023      V     C        23:17:29:12 23:17:32:04 01:31:21:11 01:31:24:03 
* FROM CLIP NAME:  39/0/5 
361  023      V     C        23:18:37:12 23:18:40:07 01:31:04:06 01:31:07:01 
* FROM CLIP NAME:  39/A/3 
363  023      V     C        23:18:45:23 23:18:55:16 01:31:11:18 01:31:21:11 
* FROM CLIP NAME:  39/A/3 
365  023      V     C        23:18:57:17 23:19:00:04 01:31:24:03 01:31:26:15 
* FROM CLIP NAME:  39/A/3 
359  023      V     C        23:19:24:15 23:19:28:06 01:30:55:05 01:30:58:21 
* FROM CLIP NAME:  39/B/2 
035  023      V     C        23:24:50:13 23:24:54:11 01:03:54:01 01:03:57:24 
* FROM CLIP NAME:  A91/3 
559  023      V     C        23:44:08:09 23:44:12:15 01:48:40:22 01:48:45:03 
* FROM CLIP NAME:  70/E/2!! 
318  023      V     C        23:46:40:14 23:46:57:10 01:24:54:11 01:25:11:07 
* FROM CLIP NAME:  35/0/6 
319  023      V     C        23:46:56:18 23:46:56:18 01:25:11:07 01:25:11:07 
319  037      V     D    040 14:08:26:03 14:08:27:20 01:25:11:07 01:25:12:24 
* BLEND_DISSOLVE_LOG 
* FROM CLIP NAME:  35/0/6 
* TO CLIP NAME:  33/0/3!!! 
059  024      V     C        00:02:55:03 00:03:04:24 01:06:06:01 01:06:15:22 
* FROM CLIP NAME:  18/0/5!! 
061  024      V     C        00:08:24:18 00:08:28:09 01:06:20:19 01:06:24:10 
* FROM CLIP NAME:  18/A/3!! 
075  024      V     C        00:14:16:19 00:14:24:10 01:06:59:24 01:07:07:15 
* FROM CLIP NAME:  18/B/4!! 
080  024      V     C        00:14:30:13 00:14:34:17 01:07:15:24 01:07:20:03 
* FROM CLIP NAME:  18/B/4!! 
086  024      V     C        00:14:41:14 00:14:45:02 01:07:28:19 01:07:32:07 
* FROM CLIP NAME:  18/B/4!! 
060  024      V     C        00:16:29:20 00:16:34:17 01:06:15:22 01:06:20:19 
* FROM CLIP NAME:  18/B/6!!! 
063  024      V     C        00:16:41:11 00:16:45:19 01:06:26:17 01:06:31:00 
* FROM CLIP NAME:  18/B/6!!! 
065  024      V     C        00:16:48:02 00:16:49:23 01:06:34:17 01:06:36:13 
* FROM CLIP NAME:  18/B/6!!! 
068  024      V     C        00:16:54:10 00:17:00:18 01:06:41:00 01:06:47:08 
* FROM CLIP NAME:  18/B/6!!! 
071  024      V     C        00:17:05:01 00:17:07:09 01:06:51:02 01:06:53:10 
* FROM CLIP NAME:  18/B/6!!! 
067  024      V     C        00:20:13:20 00:20:16:17 01:06:38:03 01:06:41:00 
* FROM CLIP NAME:  18/C/3!!! 
069  024      V     C        00:20:22:16 00:20:25:05 01:06:47:08 01:06:49:22 
* FROM CLIP NAME:  18/C/3!!! 
070  024      V     C        00:20:25:02 00:20:26:07 01:06:49:22 01:06:51:02 
* FROM CLIP NAME:  18/C/3!!! 
073  024      V     C        00:20:28:03 00:20:31:12 01:06:55:00 01:06:58:09 
* FROM CLIP NAME:  18/C/3!!! 
076  024      V     C        00:20:39:08 00:20:40:16 01:07:07:15 01:07:08:23 
* FROM CLIP NAME:  18/C/3!!! 
078  024      V     C        00:20:41:05 00:20:45:07 01:07:10:17 01:07:14:19 
* FROM CLIP NAME:  18/C/3!!! 
082  024      V     C        00:20:52:05 00:20:55:07 01:07:22:13 01:07:25:15 
* FROM CLIP NAME:  18/C/3!!! 
084  024      V     C        00:20:56:13 00:20:57:17 01:07:26:19 01:07:27:23 
* FROM CLIP NAME:  18/C/3!!! 
062  024      V     C        00:22:36:00 00:22:38:07 01:06:24:10 01:06:26:17 
* FROM CLIP NAME:  18/D/3 
064  024      V     C        00:22:39:03 00:22:42:20 01:06:31:00 01:06:34:17 
* FROM CLIP NAME:  18/D/3 
066  024      V     C        00:22:43:24 00:22:45:14 01:06:36:13 01:06:38:03 
* FROM CLIP NAME:  18/D/3 
072  024      V     C        00:22:59:01 00:23:00:16 01:06:53:10 01:06:55:00 
* FROM CLIP NAME:  18/D/3 
074  024      V     C        00:23:01:19 00:23:03:09 01:06:58:09 01:06:59:24 
* FROM CLIP NAME:  18/D/3 
077  024      V     C        00:23:12:17 00:23:14:11 01:07:08:23 01:07:10:17 
* FROM CLIP NAME:  18/D/3 
079  024      V     C        00:23:15:04 00:23:16:09 01:07:14:19 01:07:15:24 
* FROM CLIP NAME:  18/D/3 
081  024      V     C        00:23:21:16 00:23:24:01 01:07:20:03 01:07:22:13 
* FROM CLIP NAME:  18/D/3 
083  024      V     C        00:23:26:19 00:23:27:23 01:07:25:15 01:07:26:19 
* FROM CLIP NAME:  18/D/3 
085  024      V     C        00:23:28:17 00:23:29:13 01:07:27:23 01:07:28:19 
* FROM CLIP NAME:  18/D/3 
563  024      V     C        00:27:16:23 00:27:30:12 01:49:57:15 01:50:11:04 
* FROM CLIP NAME:  61/0/8!!! 
567  024      V     C        00:27:47:03 00:27:59:01 01:50:28:24 01:50:40:22 
* FROM CLIP NAME:  61/0/8!!! 
564  024      V     C        00:28:41:07 00:28:51:00 01:50:11:04 01:50:20:22 
* FROM CLIP NAME:  61/A/1 
566  024      V     C        00:28:56:13 00:28:59:09 01:50:26:03 01:50:28:24 
* FROM CLIP NAME:  61/A/1 
565  024      V     C        00:30:19:07 00:30:24:13 01:50:20:22 01:50:26:03 
* FROM CLIP NAME:  61/A/3 
568  024      V     C        00:30:38:15 00:30:55:22 01:50:40:22 01:50:58:04 
* FROM CLIP NAME:  61/A/3 
560  024      V     C        00:49:33:04 00:49:45:05 01:48:45:03 01:48:57:04 
* FROM CLIP NAME:  59/0/5 
374  025      V     C        01:27:14:04 01:27:24:06 01:33:16:17 01:33:26:19 
* FROM CLIP NAME:  42/0/2 
379  025      V     C        01:27:36:07 01:27:40:19 01:33:40:10 01:33:44:22 
* FROM CLIP NAME:  42/0/2 
376  025      V     C        01:30:40:09 01:30:42:00 01:33:31:04 01:33:32:20 
* FROM CLIP NAME:  42/B/5!! 
380  025      V     C        01:30:56:01 01:30:58:02 01:33:44:22 01:33:46:23 
* FROM CLIP NAME:  42/B/5!! 
384  025      V     C        01:31:06:16 01:31:08:12 01:33:55:17 01:33:57:13 
* FROM CLIP NAME:  42/B/5!! 
377  025      V     C        01:32:21:14 01:32:24:18 01:33:32:20 01:33:35:24 
* FROM CLIP NAME:  42/C/2!!! 
382  025      V     C        01:32:38:12 01:32:40:19 01:33:50:17 01:33:52:24 
* FROM CLIP NAME:  42/C/2!!! 
375  025      V     C        01:34:43:10 01:34:47:20 01:33:26:19 01:33:31:04 
* FROM CLIP NAME:  42/D/3!! 
378  025      V     C        01:34:52:12 01:34:56:23 01:33:35:24 01:33:40:10 
* FROM CLIP NAME:  42/D/3!! 
381  025      V     C        01:35:03:15 01:35:07:09 01:33:46:23 01:33:50:17 
* FROM CLIP NAME:  42/D/3!! 
383  025      V     C        01:35:09:09 01:35:12:02 01:33:52:24 01:33:55:17 
* FROM CLIP NAME:  42/D/3!! 
385  025      V     C        01:35:13:18 01:35:15:07 01:33:57:13 01:33:59:02 
* FROM CLIP NAME:  42/D/3!! 
233  033      V     C        09:19:47:05 09:20:03:03 01:18:11:17 01:18:27:15 
* FROM CLIP NAME:  30/A/3!! 
224  033      V     C        09:21:45:11 09:21:46:10 01:17:35:00 01:17:35:24 
* FROM CLIP NAME:  29/0/1 
225  033      V     C        09:21:46:09 09:21:46:09 01:17:35:24 01:17:35:24 
225  033      V     D    100 09:30:47:18 09:30:51:22 01:17:35:24 01:17:40:03 
* BLEND_DISSOLVE_LOG 
* FROM CLIP NAME:  29/0/1 
* TO CLIP NAME:  29/A/2 
210  033      V     C        09:23:26:11 09:23:27:21 01:17:02:07 01:17:03:17 
* FROM CLIP NAME:  29/0/2 
211  033      V     C        09:23:27:19 09:23:27:19 01:17:03:17 01:17:03:17 
211  033      V     D    040 09:29:58:09 09:30:00:00 01:17:03:17 01:17:05:08 
* BLEND_DISSOLVE_LOG 
* FROM CLIP NAME:  29/0/2 
* TO CLIP NAME:  29/A/2 
208  033      V     C        09:23:48:09 09:23:49:11 01:16:59:14 01:17:00:16 
* FROM CLIP NAME:  29/0/2 
209  033      V     C        09:23:49:10 09:23:49:10 01:17:00:16 01:17:00:16 
209  033      V     D    040 09:23:24:21 09:23:26:12 01:17:00:16 01:17:02:07 
* BLEND_DISSOLVE_LOG 
* FROM CLIP NAME:  29/0/2 
* TO CLIP NAME:  29/0/2 
214  033      V     C        09:24:05:04 09:24:06:15 01:17:10:14 01:17:12:00 
* FROM CLIP NAME:  29/0/2 
215  033      V     C        09:24:06:14 09:24:06:14 01:17:12:00 01:17:12:00 
215  033      V     D    040 09:27:44:23 09:27:46:15 01:17:12:00 01:17:13:17 
* BLEND_DISSOLVE_LOG 
* FROM CLIP NAME:  29/0/2 
* TO CLIP NAME:  29/A/1 
218  033      V     C        09:24:35:20 09:24:37:23 01:17:17:23 01:17:20:01 
* FROM CLIP NAME:  29/0/2 
219  033      V     C        09:24:37:21 09:24:37:21 01:17:20:01 01:17:20:01 
219  033      V     D    080 09:25:00:21 09:25:04:04 01:17:20:01 01:17:23:09 
* BLEND_DISSOLVE_LOG 
* FROM CLIP NAME:  29/0/2 
* TO CLIP NAME:  29/0/2 
220  033      V     C        09:25:04:01 09:25:06:05 01:17:23:09 01:17:25:13 
* FROM CLIP NAME:  29/0/2 
221  033      V     C        09:25:06:02 09:25:06:02 01:17:25:13 01:17:25:13 
221  033      V     D    050 09:28:02:20 09:28:04:22 01:17:25:13 01:17:27:15 
* BLEND_DISSOLVE_LOG 
* FROM CLIP NAME:  29/0/2 
* TO CLIP NAME:  29/A/1 
206  033      V     C        09:26:36:06 09:26:41:10 01:16:52:18 01:16:57:22 
* FROM CLIP NAME:  29/A/1 
207  033      V     C        09:26:41:05 09:26:41:05 01:16:57:22 01:16:57:22 
207  033      V     D    040 09:23:46:19 09:23:48:11 01:16:57:22 01:16:59:14 
* BLEND_DISSOLVE_LOG 
* FROM CLIP NAME:  29/A/1 
* TO CLIP NAME:  29/0/2 
216  033      V     C        09:27:46:13 09:27:49:02 01:17:13:17 01:17:16:06 
* FROM CLIP NAME:  29/A/1 
217  033      V     C        09:27:49:00 09:27:49:00 01:17:16:06 01:17:16:06 
217  033      V     D    040 09:24:34:05 09:24:35:22 01:17:16:06 01:17:17:23 
* BLEND_DISSOLVE_LOG 
* FROM CLIP NAME:  29/A/1 
* TO CLIP NAME:  29/0/2 
222  033      V     C        09:28:04:20 09:28:08:22 01:17:27:15 01:17:31:17 
* FROM CLIP NAME:  29/A/1 
223  033      V     C        09:28:08:18 09:28:08:18 01:17:31:17 01:17:31:17 
223  033      V     D    080 09:21:42:06 09:21:45:14 01:17:31:17 01:17:35:00 
* BLEND_DISSOLVE_LOG 
* FROM CLIP NAME:  29/A/1 
* TO CLIP NAME:  29/0/1 
212  033      V     C        09:29:59:24 09:30:03:13 01:17:05:08 01:17:08:22 
* FROM CLIP NAME:  29/A/2 
213  033      V     C        09:30:03:09 09:30:03:09 01:17:08:22 01:17:08:22 
213  033      V     D    040 09:24:03:14 09:24:05:06 01:17:08:22 01:17:10:14 
* BLEND_DISSOLVE_LOG 
* FROM CLIP NAME:  29/A/2 
* TO CLIP NAME:  29/0/2 
226  033      V     C        09:30:51:18 09:30:54:19 01:17:40:03 01:17:43:04 
* FROM CLIP NAME:  29/A/2 
227  033      V     C        09:30:54:16 09:30:54:16 01:17:43:04 01:17:43:04 
227  033      V     D    100 09:32:44:04 09:32:48:08 01:17:43:04 01:17:47:08 
* BLEND_DISSOLVE_LOG 
* FROM CLIP NAME:  29/A/2 
* TO CLIP NAME:  29/B/4. 
228  033      V     C        09:32:48:04 09:33:04:15 01:17:47:08 01:18:03:19 
* FROM CLIP NAME:  29/B/4. 
229  033      V     C        09:33:03:23 09:33:03:23 01:18:03:19 01:18:03:19 
229     BL    V     D    100 00:00:00:00 00:00:04:04 01:18:03:19 01:18:07:23 
* BLEND_DISSOLVE_LOG 
* FROM CLIP NAME:  29/B/4. 
324  033      V     C        09:36:47:07 09:36:52:05 01:26:35:21 01:26:40:19 
* FROM CLIP NAME:  34/B/1 
326  033      V     C        09:38:33:21 09:38:37:08 01:26:45:08 01:26:48:20 
* FROM CLIP NAME:  34/B/2 
325  033      V     C        09:39:47:19 09:39:52:08 01:26:40:19 01:26:45:08 
* FROM CLIP NAME:  34/C/2 
327  033      V     C        09:39:54:05 09:39:58:06 01:26:48:20 01:26:52:21 
* FROM CLIP NAME:  34/C/2 
328  033      V     C        09:39:58:02 09:39:58:02 01:26:52:21 01:26:52:21 
328  037      V     D    080 14:20:10:12 14:20:13:20 01:26:52:21 01:26:56:04 
* BLEND_DISSOLVE_LOG 
* FROM CLIP NAME:  34/C/2 
* TO CLIP NAME:  36/A/0/2 
316  034      V     C        10:01:47:23 10:01:50:16 01:24:46:20 01:24:49:13 
* FROM CLIP NAME:  104/0/1 
279  034      V     C        10:09:16:03 10:09:27:02 01:22:25:15 01:22:36:14 
* FROM CLIP NAME:  24/B/2 
500  034      V     C        10:21:32:06 10:21:36:21 01:41:07:19 01:41:12:09 
* FROM CLIP NAME:  77/0/2 
501  034      V     C        10:22:06:02 10:22:11:00 01:41:12:09 01:41:17:07 
* FROM CLIP NAME:  77/A/1!!! 
502  034      V     C        10:23:45:23 10:23:47:01 01:41:17:07 01:41:18:10 
* FROM CLIP NAME:  77/B/1 
485  034      V     C        10:26:31:05 10:26:33:12 01:40:16:07 01:40:18:14 
* FROM CLIP NAME:  76/0/3!!! 
489  034      V     C        10:26:36:21 10:26:44:18 01:40:24:14 01:40:32:11 
* FROM CLIP NAME:  76/0/3!!! 
496  034      V     C        10:26:58:21 10:27:02:11 01:40:56:04 01:40:59:19 
* FROM CLIP NAME:  76/0/3!!! 
499  034      V     C        10:27:24:12 10:27:26:02 01:41:06:04 01:41:07:19 
* FROM CLIP NAME:  76/0/3!!! 
486  034      V     C        10:29:02:07 10:29:04:23 01:40:18:14 01:40:21:05 
* FROM CLIP NAME:  76/A/2!!! 
490  034      V     C        10:29:12:05 10:29:19:13 01:40:32:11 01:40:39:19 
* FROM CLIP NAME:  76/A/2!!! 
497  034      V     C        10:29:46:17 10:29:51:19 01:40:59:19 01:41:04:21 
* FROM CLIP NAME:  76/A/2!!! 
492  034      V     C        10:31:16:07 10:31:18:16 01:40:41:07 01:40:43:16 
* FROM CLIP NAME:  76/B/3!! 
494  034      V     C        10:31:21:23 10:31:28:23 01:40:47:04 01:40:54:04 
* FROM CLIP NAME:  76/B/3!! 
488  034      V     C        10:32:04:05 10:32:05:21 01:40:22:23 01:40:24:14 
* FROM CLIP NAME:  76/C/2!!! 
498  034      V     C        10:32:25:02 10:32:26:10 01:41:04:21 01:41:06:04 
* FROM CLIP NAME:  76/C/2!!! 
493  034      V     C        10:33:01:17 10:33:05:05 01:40:43:16 01:40:47:04 
* FROM CLIP NAME:  76/D/1 
491  034      V     C        10:33:11:02 10:33:12:15 01:40:39:19 01:40:41:07 
* FROM CLIP NAME:  76/D/1 
487  034      V     C        10:33:39:01 10:33:40:19 01:40:21:05 01:40:22:23 
* FROM CLIP NAME:  76/E/1 
495  034      V     C        10:33:55:20 10:33:57:20 01:40:54:04 01:40:56:04 
* FROM CLIP NAME:  76/E/1 
283  035      V     C        11:11:59:12 11:12:02:22 01:22:43:10 01:22:46:20 
* FROM CLIP NAME:  25/0/7!!! 
288  035      V     C        11:12:19:19 11:12:22:07 01:23:02:21 01:23:05:09 
* FROM CLIP NAME:  25/0/7!!! 
292  035      V     C        11:12:33:10 11:12:43:23 01:23:19:19 01:23:30:07 
* FROM CLIP NAME:  25/0/7!!! 
306  035      V     C        11:13:18:08 11:13:28:04 01:24:05:07 01:24:15:03 
* FROM CLIP NAME:  25/0/7!!! 
315  035      V     C        11:13:47:09 11:13:52:06 01:24:41:23 01:24:46:20 
* FROM CLIP NAME:  25/0/7!!! 
285  035      V     C        11:19:18:21 11:19:25:05 01:22:50:18 01:22:57:02 
* FROM CLIP NAME:  25/A/3!!! 
287  035      V     C        11:19:30:23 11:19:33:05 01:23:00:14 01:23:02:21 
* FROM CLIP NAME:  25/A/3!!! 
290  035      V     C        11:19:44:07 11:19:48:07 01:23:12:16 01:23:16:16 
* FROM CLIP NAME:  25/A/3!!! 
293  035      V     C        11:19:58:09 11:20:00:18 01:23:30:07 01:23:32:16 
* FROM CLIP NAME:  25/A/3!!! 
297  035      V     C        11:20:08:14 11:20:11:10 01:23:41:10 01:23:44:06 
* FROM CLIP NAME:  25/A/3!!! 
301  035      V     C        11:20:15:07 11:20:18:24 01:23:49:22 01:23:53:14 
* FROM CLIP NAME:  25/A/3!!! 
305  035      V     C        11:20:27:12 11:20:31:16 01:24:01:03 01:24:05:07 
* FROM CLIP NAME:  25/A/3!!! 
309  035      V     C        11:20:46:17 11:20:50:07 01:24:23:11 01:24:27:01 
* FROM CLIP NAME:  25/A/3!!! 
311  035      V     C        11:20:55:17 11:20:59:00 01:24:30:17 01:24:34:00 
* FROM CLIP NAME:  25/A/3!!! 
313  035      V     C        11:21:02:03 11:21:04:17 01:24:37:03 01:24:39:17 
* FROM CLIP NAME:  25/A/3!!! 
284  035      V     C        11:30:10:04 11:30:14:02 01:22:46:20 01:22:50:18 
* FROM CLIP NAME:  25/B/5!!! 
289  035      V     C        11:30:26:20 11:30:34:02 01:23:05:09 01:23:12:16 
* FROM CLIP NAME:  25/B/5!!! 
308  035      V     C        11:31:32:05 11:31:35:11 01:24:20:05 01:24:23:11 
* FROM CLIP NAME:  25/B/5!!! 
310  035      V     C        11:31:36:23 11:31:40:14 01:24:27:01 01:24:30:17 
* FROM CLIP NAME:  25/B/5!!! 
312  035      V     C        11:31:45:16 11:31:48:19 01:24:34:00 01:24:37:03 
* FROM CLIP NAME:  25/B/5!!! 
314  035      V     C        11:31:51:06 11:31:53:12 01:24:39:17 01:24:41:23 
* FROM CLIP NAME:  25/B/5!!! 
294  035      V     C        11:32:28:15 11:32:33:09 01:23:32:16 01:23:37:10 
* FROM CLIP NAME:  25/B/6PU!!! 
296  035      V     C        11:32:35:08 11:32:37:02 01:23:39:16 01:23:41:10 
* FROM CLIP NAME:  25/B/6PU!!! 
298  035      V     C        11:32:39:24 11:32:41:24 01:23:44:06 01:23:46:06 
* FROM CLIP NAME:  25/B/6PU!!! 
300  035      V     C        11:32:43:18 11:32:45:11 01:23:48:04 01:23:49:22 
* FROM CLIP NAME:  25/B/6PU!!! 
302  035      V     C        11:32:49:09 11:32:50:23 01:23:53:14 01:23:55:03 
* FROM CLIP NAME:  25/B/6PU!!! 
304  035      V     C        11:32:52:20 11:32:56:21 01:23:57:02 01:24:01:03 
* FROM CLIP NAME:  25/B/6PU!!! 
256  035      V     C        11:33:22:18 11:33:23:21 01:21:09:08 01:21:10:11 
* EFF_BLEND_FLIP_HORZ 
* FROM CLIP NAME:  25/C/4 
291  035      V     C        11:35:34:12 11:35:37:15 01:23:16:16 01:23:19:19 
* FROM CLIP NAME:  25/D/3!!!! 
307  035      V     C        11:35:42:07 11:35:47:09 01:24:15:03 01:24:20:05 
* FROM CLIP NAME:  25/D/3!!!! 
295  035      V     C        11:38:39:18 11:38:41:24 01:23:37:10 01:23:39:16 
* FROM CLIP NAME:  25/E/4!!! 
299  035      V     C        11:38:49:13 11:38:51:11 01:23:46:06 01:23:48:04 
* FROM CLIP NAME:  25/E/4!!! 
303  035      V     C        11:38:53:10 11:38:55:09 01:23:55:03 01:23:57:02 
* FROM CLIP NAME:  25/E/4!!! 
286  035      V     C        11:39:53:07 11:39:56:19 01:22:57:02 01:23:00:14 
* FROM CLIP NAME:  25/F/3 
467  035      V     C        11:44:40:00 11:44:46:15 01:39:09:07 01:39:15:22 
* FROM CLIP NAME:  49/0/4 
472  035      V     C        11:44:54:20 11:44:58:01 01:39:26:17 01:39:29:23 
* FROM CLIP NAME:  49/0/4 
464  035      V     C        11:46:58:17 11:47:04:10 01:38:59:05 01:39:04:23 
* FROM CLIP NAME:  49/A/2 
466  035      V     C        11:47:06:10 11:47:07:21 01:39:07:21 01:39:09:07 
* FROM CLIP NAME:  49/A/2 
469  035      V     C        11:47:15:06 11:47:18:16 01:39:17:10 01:39:20:20 
* FROM CLIP NAME:  49/A/2 
471  035      V     C        11:47:21:14 11:47:23:21 01:39:24:10 01:39:26:17 
* FROM CLIP NAME:  49/A/2 
476  035      V     C        11:47:33:24 11:47:37:10 01:39:37:06 01:39:40:17 
* FROM CLIP NAME:  49/A/2 
462  035      V     C        11:49:34:04 11:49:40:24 01:38:50:21 01:38:57:16 
* FROM CLIP NAME:  49/B/2!! 
473  035      V     C        11:50:08:08 11:50:11:00 01:39:29:23 01:39:32:15 
* FROM CLIP NAME:  49/B/2!! 
474  035      V     C        11:51:22:04 11:51:23:22 01:39:32:15 01:39:34:08 
* FROM CLIP NAME:  49/C/4 
463  035      V     C        11:51:37:01 11:51:38:15 01:38:57:16 01:38:59:05 
* FROM CLIP NAME:  49/D/1 
461  035      V     C        11:52:30:23 11:52:44:02 01:38:37:17 01:38:50:21 
* FROM CLIP NAME:  49/E/2!!! 
465  035      V     C        11:53:34:13 11:53:37:11 01:39:04:23 01:39:07:21 
* FROM CLIP NAME:  49/F/1 
470  035      V     C        11:53:46:22 11:53:50:12 01:39:20:20 01:39:24:10 
* FROM CLIP NAME:  49/F/1 
468  035      V     C        11:55:06:06 11:55:07:19 01:39:15:22 01:39:17:10 
* FROM CLIP NAME:  49/F/2!!! 
475  035      V     C        11:55:24:04 11:55:27:02 01:39:34:08 01:39:37:06 
* FROM CLIP NAME:  49/F/2!!! 
477  035      V     C        11:55:30:12 11:55:36:10 01:39:40:17 01:39:46:15 
* FROM CLIP NAME:  49/F/2!!! 
281  035      V     C        12:07:11:00 12:07:13:07 01:22:38:18 01:22:41:00 
* FROM CLIP NAME:  25/G/1!! 
280  035      V     C        12:07:33:10 12:07:35:14 01:22:36:14 01:22:38:18 
* FROM CLIP NAME:  25/G/2 
282  035      V     C        12:08:10:04 12:08:12:14 01:22:41:00 01:22:43:10 
* FROM CLIP NAME:  25/G/4!! 
159     BL    V     C        00:00:00:00 00:00:00:00 01:12:22:06 01:12:22:06 
159  037      V     D    080 14:37:29:10 14:37:32:19 01:12:22:06 01:12:25:15 
* BLEND_DISSOLVE_LOG 
* TO CLIP NAME:  27/0/3!! 
162  037      V     C        14:02:11:03 14:02:25:13 01:12:53:01 01:13:07:11 
* FROM CLIP NAME:  27/A/3!! 
161  037      V     C        14:03:57:20 14:04:05:06 01:12:45:15 01:12:53:01 
* FROM CLIP NAME:  27/B/2 
163  037      V     C        14:04:53:02 14:04:56:19 01:13:07:11 01:13:11:03 
* FROM CLIP NAME:  23B/B/2 
320  037      V     C        14:08:27:18 14:09:00:09 01:25:12:24 01:25:45:15 
* FROM CLIP NAME:  33/0/3!!! 
322  037      V     C        14:09:20:21 14:09:43:16 01:26:11:09 01:26:34:04 
* FROM CLIP NAME:  33/0/3!!! 
323  037      V     C        14:09:42:18 14:09:42:18 01:26:34:04 01:26:34:04 
323  033      V     D    040 09:36:45:17 09:36:47:09 01:26:34:04 01:26:35:21 
* BLEND_DISSOLVE_LOG 
* FROM CLIP NAME:  33/0/3!!! 
* TO CLIP NAME:  34/B/1 
321  037      V     C        14:12:30:17 14:12:56:11 01:25:45:15 01:26:11:09 
* FROM CLIP NAME:  33/A/3!!! 
329  037      V     C        14:20:13:17 14:20:13:24 01:26:56:04 01:26:56:11 
* FROM CLIP NAME:  36/A/0/2 
330  037      V     C        14:21:17:10 14:21:22:13 01:26:56:11 01:27:01:14 
* FROM CLIP NAME:  36/A/A/3!!! 
243  037      V     C        14:24:13:00 14:24:17:12 01:19:40:17 01:19:45:04 
* FROM CLIP NAME:  32/0/2 
245  037      V     C        14:26:26:17 14:26:31:09 01:19:48:15 01:19:53:07 
* FROM CLIP NAME:  32/A/2 
242  037      V     C        14:29:11:10 14:29:14:02 01:19:38:00 01:19:40:17 
* FROM CLIP NAME:  32/B/3 
250  037      V     C        14:29:32:04 14:29:43:17 01:20:07:02 01:20:18:15 
* FROM CLIP NAME:  32/B/3 
251  037      V     C        14:29:43:05 14:29:43:05 01:20:18:15 01:20:18:15 
251     BL    V     D    100 00:00:00:00 00:00:04:04 01:20:18:15 01:20:22:19 
* BLEND_DISSOLVE_LOG 
* FROM CLIP NAME:  32/B/3 
247  037      V     C        14:30:12:16 14:30:15:03 01:19:56:02 01:19:58:14 
* FROM CLIP NAME:  32/C/1 
249  037      V     C        14:30:19:24 14:30:22:20 01:20:04:06 01:20:07:02 
* FROM CLIP NAME:  32/C/1 
248  037      V     C        14:30:55:07 14:31:00:24 01:19:58:14 01:20:04:06 
* FROM CLIP NAME:  32/D/1 
244  037      V     C        14:31:51:14 14:31:55:00 01:19:45:04 01:19:48:15 
* FROM CLIP NAME:  32/E/1 
246  037      V     C        14:35:49:19 14:35:52:14 01:19:53:07 01:19:56:02 
* FROM CLIP NAME:  32/F/3 
241  037      V     C        14:37:27:15 14:37:29:09 01:19:36:06 01:19:38:00 
* FROM CLIP NAME:  27/0/3!! 
160  037      V     C        14:37:32:15 14:37:52:15 01:12:25:15 01:12:45:15 
* FROM CLIP NAME:  27/0/3!! 
>>> SOURCE LISTOSTA LISTOSTART       be1a9eef.00b78798 
>>> SOURCE 001      001              bd9190c5.00251839 
>>> SOURCE 002      002              bd942710.00b7f6a9 
>>> SOURCE 003      003              bd944134.011e586d 
>>> SOURCE 004      004              bd969a08.000686e6 
>>> SOURCE 006      006              bd9b6aa5.0006891c 
>>> SOURCE 007      007              bd9d5a35.0097de41 
>>> SOURCE 008      008              bd9d951e.017e959a 
>>> SOURCE 009      009              bd9ed71f.002b6282 
>>> SOURCE 010      010              bda2eb57.01c59158 
>>> SOURCE 011      011              bda5912d.0194379f 
>>> SOURCE 012      012              bda6ca33.010cd1b5 
>>> SOURCE 013      013              bda83487.01318940 
>>> SOURCE 014B     014B             bdad5267.0111a69f 
>>> SOURCE 015      015              bdad8181.02014418 
>>> SOURCE 016      016              bdafafd6.00560471 
>>> SOURCE 017      017              bdb03baa.0279a652 
>>> SOURCE 019      019              bdb57412.01a7bfd1 
>>> SOURCE 020      020              bdb6b704.00270d86 
>>> SOURCE 021      021              bdbb87b0.00248b56 
>>> SOURCE 023      023              bdbba46d.00951625 
>>> SOURCE 024      024              bdbea728.006f8559 
>>> SOURCE 025      025              bdbff116.0019638b 
>>> SOURCE 033      033              bdcd55f2.02fc0286 
>>> SOURCE 034      034              bdd140f9.073a394a 
>>> SOURCE 035      035              bdd32654.071fa5a5 
>>> SOURCE 037      037              bdd54900.0246d226 
