xTITLE:   DERHENKER1-3_LISTO/4PERF 
001     BL    V     C        00:00:00:00 00:01:45:16 00:59:50:00 01:01:35:16 
007     BL    V     C        00:00:00:00 00:00:02:05 01:01:42:10 01:01:44:15 
011     BL    V     C        00:00:00:00 00:00:01:03 01:01:48:10 01:01:49:13 
013     BL    V     C        00:00:00:00 00:00:13:12 01:01:51:21 01:02:05:08 
018     BL    V     C        00:00:00:00 00:00:04:14 01:02:11:24 01:02:16:13 
024     BL    V     C        00:00:00:00 00:00:05:22 01:02:42:00 01:02:47:22 
026     BL    V     C        00:00:00:00 00:00:06:03 01:02:50:03 01:02:56:06 
028     BL    V     C        00:00:00:00 00:00:06:16 01:02:58:15 01:03:05:06 
031     BL    V     C        00:00:00:00 00:00:07:05 01:03:11:20 01:03:19:00 
044     BL    V     C        00:00:00:00 00:04:06:19 01:03:44:11 01:07:51:05 
049     BL    V     C        00:00:00:00 00:00:06:01 01:08:03:05 01:08:09:06 
051     BL    V     C        00:00:00:00 00:05:04:10 01:08:12:10 01:13:16:20 
054     BL    V     C        00:00:00:00 00:11:45:06 01:13:24:05 01:25:09:11 
058     BL    V     C        00:00:00:00 00:04:04:01 01:25:13:10 01:29:17:11 
079     BL    V     C        00:00:00:00 00:00:42:22 01:30:43:18 01:31:26:15 
081     BL    V     C        00:00:00:00 00:00:21:10 01:32:33:16 01:32:55:01 
083     BL    V     C        00:00:00:00 00:01:40:20 01:32:58:03 01:34:38:23 
085     BL    V     C        00:00:00:00 00:00:16:20 01:34:41:02 01:34:57:22 
087     BL    V     C        00:00:00:00 00:00:06:21 01:34:59:07 01:35:06:03 
091     BL    V     C        00:00:00:00 00:00:43:12 01:35:11:02 01:35:54:14 
093     BL    V     C        00:00:00:00 00:00:15:01 01:35:56:15 01:36:11:16 
098     BL    V     C        00:00:00:00 00:00:03:06 01:36:21:13 01:36:24:19 
101     BL    V     C        00:00:00:00 00:00:01:21 01:36:28:04 01:36:30:00 
103     BL    V     C        00:00:00:00 00:00:10:09 01:36:33:22 01:36:44:06 
107     BL    V     C        00:00:00:00 00:00:03:18 01:36:51:00 01:36:54:18 
109     BL    V     C        00:00:00:00 00:00:11:05 01:36:58:13 01:37:09:18 
112     BL    V     C        00:00:00:00 00:00:15:11 01:37:12:18 01:37:28:04 
115     BL    V     C        00:00:00:00 00:00:03:06 01:37:32:09 01:37:35:15 
117     BL    V     C        00:00:00:00 00:00:02:14 01:37:41:10 01:37:43:24 
119     BL    V     C        00:00:00:00 00:00:01:11 01:37:44:11 01:37:45:22 
123     BL    V     C        00:00:00:00 00:00:08:13 01:37:50:23 01:37:59:11 
125     BL    V     C        00:00:00:00 00:00:16:13 01:38:02:18 01:38:19:06 
127     BL    V     C        00:00:00:00 00:01:28:01 01:38:23:18 01:39:51:19 
129     BL    V     C        00:00:00:00 00:00:08:04 01:39:53:10 01:40:01:14 
131     BL    V     C        00:00:00:00 00:02:52:15 01:40:05:07 01:42:57:22 
133     BL    V     C        00:00:00:00 00:00:06:23 01:43:01:00 01:43:07:23 
135     BL    V     C        00:00:00:00 00:00:12:01 01:43:09:15 01:43:21:16 
137     BL    V     C        00:00:00:00 00:00:03:24 01:43:29:20 01:43:33:19 
139     BL    V     C        00:00:00:00 00:00:20:24 01:43:40:14 01:44:01:13 
141     BL    V     C        00:00:00:00 00:00:11:18 01:44:04:00 01:44:15:18 
143     BL    V     C        00:00:00:00 00:00:08:04 01:44:17:13 01:44:25:17 
145     BL    V     C        00:00:00:00 00:00:01:24 01:44:30:08 01:44:32:07 
147     BL    V     C        00:00:00:00 00:02:43:04 01:44:35:11 01:47:18:15 
167     BL    V     C        00:00:00:00 00:02:17:07 01:48:40:22 01:50:58:04 
169     BL    V     C        00:00:00:00 00:01:30:17 01:51:02:15 01:52:33:07 
052  001      V     C        00:37:56:23 00:38:01:10 01:13:16:20 01:13:21:07 
* IMAGE, COLOR EFFECT 
* FROM CLIP NAME:  23B/F/1A 
053  001    V     C        00:41:24:20 00:41:27:18 01:13:21:07 01:13:24:05 
* IMAGE, COLOR EFFECT 
* FROM CLIP NAME:  22/1/WT!! 
059  002      V     C        01:25:44:22 01:25:53:04 01:29:17:11 01:29:25:18 
* FROM CLIP NAME:  38/0/4!! 
061  002      V     C        01:25:54:22 01:26:00:10 01:29:26:13 01:29:32:01 
* FROM CLIP NAME:  38/0/4!! 
063  002      V     C        01:26:02:07 01:26:05:08 01:29:33:14 01:29:36:15 
* FROM CLIP NAME:  38/0/4!! 
067  002      V     C        01:26:07:00 01:26:08:02 01:29:39:18 01:29:40:20 
* FROM CLIP NAME:  38/0/4!! 
072  002      V     C        01:26:10:02 01:26:11:10 01:29:44:03 01:29:45:11 
* FROM CLIP NAME:  38/0/4!! 
060  002      V     C        01:26:55:14 01:26:56:09 01:29:25:18 01:29:26:13 
* FROM CLIP NAME:  38/A/2 
062  002      V     C        01:27:03:09 01:27:04:22 01:29:32:01 01:29:33:14 
* FROM CLIP NAME:  38/A/2 
066  002      V     C        01:27:11:00 01:27:12:10 01:29:38:08 01:29:39:18 
* FROM CLIP NAME:  38/A/2 
064  002      V     C        01:27:38:19 01:27:39:24 01:29:36:15 01:29:37:20 
* FROM CLIP NAME:  38/B/2 
065  002      V     C        01:28:35:11 01:28:35:24 01:29:37:20 01:29:38:08 
* FROM CLIP NAME:  38/C/4!! 
068  002      V     C        01:28:56:09 01:28:57:13 01:29:40:20 01:29:41:24 
* FROM CLIP NAME:  38/C/6!!! 
070  002      V     C        01:28:58:17 01:28:59:09 01:29:42:17 01:29:43:09 
* FROM CLIP NAME:  38/C/6!!! 
069  002      V     C        01:30:45:14 01:30:46:07 01:29:41:24 01:29:42:17 
* FROM CLIP NAME:  38/D/9!! 
071  002      V     C        01:30:46:22 01:30:47:16 01:29:43:09 01:29:44:03 
* FROM CLIP NAME:  38/D/9!! 
073  002      V     C        01:31:26:20 01:31:34:12 01:29:45:11 01:29:53:03 
* FROM CLIP NAME:  38/E/3!!! 
074  002      V     C        01:31:58:15 01:32:02:05 01:29:53:03 01:29:56:18 
* FROM CLIP NAME:  38/F/2!! 
076  002      V     C        01:32:02:10 01:32:08:01 01:29:57:04 01:30:02:20 
* FROM CLIP NAME:  38/F/2!! 
078  002      V     C        01:33:05:22 01:33:08:06 01:30:41:09 01:30:43:18 
* FROM CLIP NAME:  38/G/1 
077  002      V     C        01:33:16:00 01:33:54:14 01:30:02:20 01:30:41:09 
* FROM CLIP NAME:  38/G/2!!! 
075  002      V     C        01:34:14:02 01:34:14:13 01:29:56:18 01:29:57:04 
* FROM CLIP NAME:  38/H/2!! 
148  003      V     C        03:37:19:11 03:37:33:13 01:47:18:15 01:47:32:17 
* FROM CLIP NAME:  57/A/0/3 
082  004      V     C        04:33:04:23 04:33:08:00 01:32:55:01 01:32:58:03 
* FROM CLIP NAME:  41/C/3/OSN 
168  007      V     C        07:55:20:03 07:55:24:14 01:50:58:04 01:51:02:15 
* FROM CLIP NAME:  62/G/1 
149  008      V     C        08:33:06:10 08:33:09:24 01:47:32:17 01:47:36:06 
* FROM CLIP NAME:  58/0/3!!! 
152  008      V     C        08:35:56:03 08:35:58:01 01:47:44:09 01:47:46:07 
* FROM CLIP NAME:  58/A/2ABG 
154  008      V     C        08:35:58:20 08:36:05:01 01:47:48:14 01:47:54:20 
* FROM CLIP NAME:  58/A/2ABG 
158  008      V     C        08:36:13:05 08:36:22:18 01:48:02:05 01:48:11:18 
* FROM CLIP NAME:  58/A/2ABG 
162  008      V     C        08:37:55:22 08:37:59:23 01:48:24:15 01:48:28:16 
* FROM CLIP NAME:  58/A/3!!! 
166  008      V     C        08:38:06:11 08:38:08:13 01:48:38:20 01:48:40:22 
* FROM CLIP NAME:  58/A/3!!! 
150  008     V     C        08:38:37:16 08:38:41:12 01:47:36:06 01:47:40:02 
* FROM CLIP NAME:  58/B/1 
155  008      V     C        08:40:41:07 08:40:43:08 01:47:54:20 01:47:56:21 
* FROM CLIP NAME:  58/B/3PU 
157  008      V     C        08:40:45:03 08:40:48:13 01:47:58:20 01:48:02:05 
* FROM CLIP NAME:  58/B/3PU 
160  008      V     C        08:41:05:17 08:41:08:11 01:48:19:04 01:48:21:23 
* FROM CLIP NAME:  58/B/3PU 
164  008      V     C        08:41:13:10 08:41:17:02 01:48:30:05 01:48:33:22 
* FROM CLIP NAME:  58/B/3PU 
156  008      V     C        08:41:54:17 08:41:56:16 01:47:56:21 01:47:58:20 
* FROM CLIP NAME:  58/C/1 
163  008      V     C        08:42:25:16 08:42:27:05 01:48:28:16 01:48:30:05 
* FROM CLIP NAME:  58/C/1 
151  008      V     C        08:42:45:04 08:42:49:11 01:47:40:02 01:47:44:09 
* FROM CLIP NAME:  58/C/2!! 
153  008      V     C        08:42:51:21 08:42:54:03 01:47:46:07 01:47:48:14 
* FROM CLIP NAME:  58/C/2!! 
159  008      V     C        08:43:19:03 08:43:26:14 01:48:11:18 01:48:19:04 
* FROM CLIP NAME:  58/C/2!! 
161  008      V     C        08:43:28:23 08:43:31:15 01:48:21:23 01:48:24:15 
* FROM CLIP NAME:  58/C/2!! 
165  008      V     C        08:43:39:15 08:43:44:13 01:48:33:22 01:48:38:20 
* FROM CLIP NAME:  58/C/2!! 
118  011      V     C        11:35:19:08 11:35:19:20 01:37:43:24 01:37:44:11 
* FROM CLIP NAME:  44/S/2/CAM B 
120  011      V     C        11:36:11:00 11:36:11:13 01:37:45:22 01:37:46:10 
* FROM CLIP NAME:  44/Z/C/2/CAM B!!! 
122  011      V     C        11:36:12:07 11:36:15:02 01:37:48:03 01:37:50:23 
* FROM CLIP NAME:  44/Z/C/2/CAM B!!! 
126  011      V     C        11:36:26:03 11:36:30:15 01:38:19:06 01:38:23:18 
* FROM CLIP NAME:  44/Z/C/2/CAM B!!! 
128  011      V     C        11:36:53:03 11:36:54:19 01:39:51:19 01:39:53:10 
* FROM CLIP NAME:  45/A/2/CAM B!!! 
130  011      V     C        11:37:02:13 11:37:06:06 01:40:01:14 01:40:05:07 
* FROM CLIP NAME:  45/A/2/CAM B!!! 
104  011      V     C        11:37:57:03 11:38:00:12 01:36:44:06 01:36:47:15 
* FROM CLIP NAME:  44/C/1/CAM B 
105  011      V     C        11:38:05:11 11:38:07:04 01:36:47:15 01:36:49:08 
* FROM CLIP NAME:  44/C/1/CAM B 
095  011      V     C        11:38:20:16 11:38:23:02 01:36:16:04 01:36:18:15 
* FROM CLIP NAME:  44/C/2/CAM B 
102  011      V     C        11:39:25:02 11:39:28:24 01:36:30:00 01:36:33:22 
* FROM CLIP NAME:  44/D/1B/CAM B 
099  011      V     C        11:39:34:11 11:39:35:22 01:36:24:19 01:36:26:05 
* FROM CLIP NAME:  44/D/1/CAM B 
094  011      V     C        11:39:53:17 11:39:58:05 01:36:11:16 01:36:16:04 
* FROM CLIP NAME:  44/E/1/CAM B 
100  011      V     C        11:40:01:15 11:40:03:14 01:36:26:05 01:36:28:04 
* FROM CLIP NAME:  44/E/1/CAM B 
010  011      V     C        11:40:04:06 11:40:05:11 01:01:47:05 01:01:48:10 
* FROM CLIP NAME:  44/E/1/CAM B.SUB.01 
097  011      V     C        11:40:12:02 11:40:13:18 01:36:19:22 01:36:21:13 
* FROM CLIP NAME:  44/E/1/CAM B 
096  011      V     C        11:40:17:17 11:40:18:24 01:36:18:15 01:36:19:22 
* FROM CLIP NAME:  44/E/1/CAM B 
106  011      V     C        11:42:40:03 11:42:41:20 01:36:49:08 01:36:51:00 
* FROM CLIP NAME:  44/G/3/CAM B!!! 
108  011      V     C        11:42:45:11 11:42:49:06 01:36:54:18 01:36:58:13 
* FROM CLIP NAME:  44/G/3/CAM B!!! 
116  011      V     C        11:43:14:11 11:43:20:06 01:37:35:15 01:37:41:10 
* FROM CLIP NAME:  44/G/3/CAM B!!! 
114  011      V     C        11:44:49:23 11:44:52:03 01:37:30:04 01:37:32:09 
* FROM CLIP NAME:  44/J/1/CAM B 
121  011      V     C        11:45:49:09 11:45:51:02 01:37:46:10 01:37:48:03 
* FROM CLIP NAME:  44/K/2/CAM B!!!! 
124  011      V     C        11:45:56:11 11:45:59:18 01:37:59:11 01:38:02:18 
* FROM CLIP NAME:  44/K/2/CAM B!!!! 
113  011      V     C        11:46:20:06 11:46:22:06 01:37:28:04 01:37:30:04 
* FROM CLIP NAME:  44/K/3/CAM B!! 
111  011      V     C        11:46:56:24 11:46:58:08 01:37:11:09 01:37:12:18 
* FROM CLIP NAME:  44/L/1/CAM B!! 
110  011      V     C        11:47:10:19 11:47:12:10 01:37:09:18 01:37:11:09 
* FROM CLIP NAME:  44/L/2/CAM B! 
089  011      V     C        11:47:21:12 11:47:23:00 01:35:07:20 01:35:09:08 
* FROM CLIP NAME:  44/P/1A/CAM B 
088  011      V     C        11:47:37:20 11:47:39:12 01:35:06:03 01:35:07:20 
* FROM CLIP NAME:  44/P/1/CAM B 
090  011      V     C        11:47:56:13 11:47:58:07 01:35:09:08 01:35:11:02 
* FROM CLIP NAME:  44/P/2/CAM B 
086  011      V     C        11:48:10:07 11:48:11:17 01:34:57:22 01:34:59:07 
* FROM CLIP NAME:  44/P/2/CAM B 
092  011      V     C        11:48:39:21 11:48:41:22 01:35:54:14 01:35:56:15 
* FROM CLIP NAME:  44/Q/1/CAM B 
014  013      V     C        13:24:11:24 13:24:13:09 01:02:05:08 01:02:06:18 
* FROM CLIP NAME:  4/B/1!! 
008  013      V     C        13:25:18:18 13:25:19:16 01:01:44:15 01:01:45:13 
* FROM CLIP NAME:  4/B/4!! 
016  013      V     C        13:25:27:19 13:25:29:03 01:02:08:22 01:02:10:06 
* FROM CLIP NAME:  4/B/4!! 
009  013      V     C        13:26:44:21 13:26:46:13 01:01:45:13 01:01:47:05 
* FROM CLIP NAME:  4/C/4 
015  013      V     C        13:26:48:18 13:26:50:22 01:02:06:18 01:02:08:22 
* FROM CLIP NAME:  4/C/4 
017  013      V     C        13:26:51:04 13:26:52:22 01:02:10:06 01:02:11:24 
* FROM CLIP NAME:  4/C/4 
019  013      V     C        13:29:01:21 13:29:08:08 01:02:16:13 01:02:23:00 
* FROM CLIP NAME:  4/D/5! 
021  013      V     C        13:29:09:16 13:29:11:22 01:02:24:16 01:02:26:22 
* FROM CLIP NAME:  4/D/5! 
006  013      V     C        13:29:12:08 13:29:14:21 01:01:39:22 01:01:42:10 
* FROM CLIP NAME:  4/D/5!.SUB.01 
020  013      V     C        13:30:43:03 13:30:44:19 01:02:23:00 01:02:24:16 
* FROM CLIP NAME:  4/H/5!! 
022  013      V     C        13:33:17:09 13:33:24:03 01:02:26:22 01:02:33:16 
* FROM CLIP NAME:  4/Q/5!! 
023  013      V     C        13:33:37:20 13:33:46:04 01:02:33:16 01:02:42:00 
* FROM CLIP NAME:  4/R/1VA 
027  013      V     C        13:33:58:01 13:34:00:10 01:02:56:06 01:02:58:15 
* FROM CLIP NAME:  4/R/1VA 
029  013      V     C        13:34:00:13 13:34:03:00 01:03:05:06 01:03:07:18 
* FROM CLIP NAME:  4/R/1VA 
032  013      V     C        13:34:36:06 13:34:39:04 01:03:19:00 01:03:21:23 
* FROM CLIP NAME:  4/R/1VA 
033  013      V     C        13:35:26:19 13:35:30:11 01:03:21:23 01:03:25:15 
* FROM CLIP NAME:  4/R/2 
025  013      V     C        13:35:45:00 13:35:47:06 01:02:47:22 01:02:50:03 
* FROM CLIP NAME:  4/R/2 
036  013      V     C        13:36:40:17 13:36:42:00 01:03:29:19 01:03:31:02 
* FROM CLIP NAME:  4/R/3!!!! 
038  013      V     C        13:36:42:21 13:36:44:00 01:03:32:18 01:03:33:22 
* FROM CLIP NAME:  4/R/3!!!! 
041  013      V     C        13:38:28:06 13:38:32:01 01:03:37:18 01:03:41:13 
* FROM CLIP NAME:  4/S/2!! 
043  013      V     C        13:38:33:13 13:38:35:03 01:03:42:21 01:03:44:11 
* FROM CLIP NAME:  4/S/2!! 
040  013      V     C        13:40:28:23 13:40:31:14 01:03:35:02 01:03:37:18 
* FROM CLIP NAME:  4/T/1 
042  013      V     C        13:40:33:15 13:40:34:23 01:03:41:13 01:03:42:21 
* FROM CLIP NAME:  4/T/1 
132  014      V     C        14:20:35:13 14:20:38:16 01:42:57:22 01:43:01:00 
* FROM CLIP NAME:  51/0/3/CAM B!!! 
134  014      V     C        14:25:31:07 14:25:32:24 01:43:07:23 01:43:09:15 
* FROM CLIP NAME:  52/0/2/CAM B!!! 
136  014      V     C        14:27:59:17 14:28:07:21 01:43:21:16 01:43:29:20 
* FROM CLIP NAME:  53/A/2/CAM B!!!! 
138  014      V     C        14:28:16:06 14:28:23:01 01:43:33:19 01:43:40:14 
* FROM CLIP NAME:  53/A/2/CAM B!!!! 
140  014      V     C        14:35:56:21 14:35:59:08 01:44:01:13 01:44:04:00 
* FROM CLIP NAME:  53/C/1/CAM B!!!! 
142  014      V     C        14:36:02:13 14:36:04:08 01:44:15:18 01:44:17:13 
* FROM CLIP NAME:  53/C/1/CAM B!!!! 
144  014      V     C        14:36:13:11 14:36:18:02 01:44:25:17 01:44:30:08 
* FROM CLIP NAME:  53/C/1/CAM B!!!! 
146  014      V     C        14:36:19:20 14:36:22:24 01:44:32:07 01:44:35:11 
* FROM CLIP NAME:  53/C/1/CAM B!!!! 
046  016      V     C        16:06:19:15 16:06:21:17 01:07:54:14 01:07:56:16 
* FROM CLIP NAME:  19/E/1 
047  016      V     C        16:08:14:23 16:08:18:15 01:07:56:16 01:08:00:08 
* FROM CLIP NAME:  19/E/3!!! 
048  016      V     C        16:08:32:03 16:08:35:00 01:08:00:08 01:08:03:05 
* FROM CLIP NAME:  19/E/3!!! 
045  016      V     C        16:09:08:21 16:09:12:05 01:07:51:05 01:07:54:14 
* FROM CLIP NAME:  19/E/5!!! 
050  016      V     C        16:09:42:09 16:09:45:13 01:08:09:06 01:08:12:10 
* FROM CLIP NAME:  19/E/5!!! 
012  017      V     C        16:56:04:22 16:56:07:05 01:01:49:13 01:01:51:21 
* FROM CLIP NAME:  40/F/1!!! 
055     BL    V     C        00:00:00:00 00:00:00:00 01:25:09:11 01:25:09:11 
055  018      V     D    050 17:36:31:15 17:36:33:18 01:25:09:11 01:25:11:14 
* BLEND_DISSOLVE_LOG 
* TO CLIP NAME:  83/B/1/CAM B 
035  018      V     C        17:32:02:19 17:32:04:21 01:03:27:17 01:03:29:19 
* FROM CLIP NAME:  4/U/1 
037  018      V     C        17:32:13:20 17:32:15:11 01:03:31:02 01:03:32:18 
* EFF_BLOW_UP 
* FROM CLIP NAME:  4/U/1 
039  018      V     C        17:32:15:14 17:32:16:19 01:03:33:22 01:03:35:02 
* FROM CLIP NAME:  4/U/1 
030  018      V     C        17:32:57:16 17:33:01:18 01:03:07:18 01:03:11:20 
* FROM CLIP NAME:  4/U/2!!! 
034  018      V     C        17:33:04:04 17:33:06:06 01:03:25:15 01:03:27:17 
* FROM CLIP NAME:  4/U/2!!! 
056  018      V     C        17:36:33:15 17:36:34:05 01:25:11:14 01:25:12:04 
* BLEND_SUPER, LEVEL = 50. 
* FROM CLIP NAME:  83/B/1/CAM B 
057  018      V     C        17:36:34:05 17:36:34:05 01:25:12:04 01:25:12:04 
057     BL    V     D    030 00:00:00:00 00:00:01:06 01:25:12:04 01:25:13:10 
* BLEND_SUPER, LEVEL = 50. 
* BLEND_DISSOLVE_LOG 
* FROM CLIP NAME:  83/B/1/CAM B 
080  023      V     C        23:54:26:24 23:55:34:00 01:31:26:15 01:32:33:16 
* FROM CLIP NAME:  39/C/7!! 
002     BL    V     C        00:00:00:00 00:00:00:00 01:01:35:16 01:01:35:16 
002  038      V     D    040 15:06:49:24 15:06:51:15 01:01:35:16 01:01:37:07 
* BLEND_DISSOLVE_LOG 
* TO CLIP NAME:  N4/4/1-4!!! 
005  038      V     C        15:01:36:23 15:01:37:16 01:01:39:04 01:01:39:22 
* FROM CLIP NAME:  N1/1/1!! 
084  038      V     C        15:02:16:13 15:02:18:17 01:34:38:23 01:34:41:02 
* FROM CLIP NAME:  N1/3/1 
003  038      V     C        15:06:51:14 15:06:51:20 01:01:37:07 01:01:37:13 
* FROM CLIP NAME:  N4/4/1-4!!! 
004  038      V     C        15:06:51:19 15:06:51:19 01:01:37:13 01:01:37:13 
004  038      V     D    040 15:01:35:08 15:01:36:24 01:01:37:13 01:01:39:04 
* BLEND_DISSOLVE_LOG 
* FROM CLIP NAME:  N4/4/1-4!!! 
* TO CLIP NAME:  N1/1/1!! 
>>> SOURCE 1        001              bd9190c5.00251839 
>>> SOURCE 2        002B             bd943626.00f30e65 
>>> SOURCE 3        003B             bd944e98.0152c8f8 
>>> SOURCE 4        004B             bd96ad5a.00522e26 
>>> SOURCE 7        007B             bd9d72f2.00f8c2bf 
>>> SOURCE 8        008B             bd9da5ff.01c0af8a 
>>> SOURCE 11       011B             bda5a0e4.01d1c1fc 
>>> SOURCE 13       013B             bda83db8.0155885b 
>>> SOURCE 14       014B             bdad5267.0111a69f 
>>> SOURCE 16       016B             bdafba21.007e53d8 
>>> SOURCE 17       017B             bdb05e46.03012f54 
>>> SOURCE 18       018B             bdb15370.01720254 
>>> SOURCE 23       023B             bdbbb1c8.00c96602 
>>> SOURCE 38       038B             be12d0fc.00e00171 

