TITLE:   NOMAD R2 AB
001     AX    V     C        00:00:00:00 00:00:00:01 02:00:00:00 02:00:00:01
* EFF_BLEND_GRAPHIC
* FROM CLIP NAME:  PIX START
002     AX    V     C        00:00:00:00 00:00:00:24 02:00:00:24 02:00:01:23
* EFF_BLEND_GRAPHIC
* FROM CLIP NAME:  7
003     AX    V     C        00:00:00:00 00:00:00:24 02:00:01:23 02:00:02:22
* EFF_BLEND_GRAPHIC
* FROM CLIP NAME:  6.01
004     AX    V     C        00:00:00:00 00:00:00:24 02:00:02:22 02:00:03:21
* EFF_BLEND_GRAPHIC
* FROM CLIP NAME:  5
005     AX    V     C        00:00:00:00 00:00:00:24 02:00:03:21 02:00:04:20
* EFF_BLEND_GRAPHIC
* FROM CLIP NAME:  4
006     AX    V     C        00:00:00:00 00:00:00:24 02:00:04:20 02:00:05:19
* EFF_BLEND_GRAPHIC
* FROM CLIP NAME:  3
007     AX    V     C        00:00:00:00 00:00:00:01 02:00:05:19 02:00:05:20
* EFF_BLEND_GRAPHIC
* FROM CLIP NAME:  2
008  511A     V     C        11:02:51:11 11:03:14:24 02:00:07:19 02:00:31:07
* FROM CLIP NAME:  24/4 B S
009  521A     V     C        01:12:54:16 01:13:00:14 02:00:31:07 02:00:37:05
* FROM CLIP NAME:  24D/3 A S
010  587A     V     C        07:01:21:10 07:01:48:06 02:00:37:05 02:01:04:01
* FROM CLIP NAME:  24G/4 A
011  521A     V     C        01:08:26:07 01:08:54:01 02:01:04:01 02:01:31:20
* FROM CLIP NAME:  24A/2 A S
012  521A     V     C        01:11:28:02 01:11:36:19 02:01:31:20 02:01:40:12
* FROM CLIP NAME:  24C/1 A S
013  521A     V     C        01:06:15:12 01:06:20:06 02:01:40:12 02:01:45:06
* FROM CLIP NAME:  24A/1 A S
014  521A     V     C        01:11:01:21 01:11:04:21 02:01:45:06 02:01:48:06
* FROM CLIP NAME:  24B/1 A S
015  521A     V     C        01:13:42:06 01:13:48:10 02:01:48:06 02:01:54:10
* FROM CLIP NAME:  24F/1 A S
016  521A     V     C        01:09:16:07 01:10:00:08 02:01:54:10 02:02:38:11
* FROM CLIP NAME:  24A/2 A S
017  521A     V     C        01:15:50:19 01:15:58:07 02:02:38:11 02:02:45:24
* FROM CLIP NAME:  24F/3 A S
018  521A     V     C        01:10:12:20 01:10:16:21 02:02:45:24 02:02:50:00
* FROM CLIP NAME:  24A/2 A S
019  521A     V     C        01:16:02:08 01:16:07:04 02:02:50:00 02:02:54:21
* FROM CLIP NAME:  24F/3 A S
020  521A     V     C        01:07:40:11 01:07:43:13 02:02:54:21 02:02:57:23
* FROM CLIP NAME:  24A/1 A S
021  521A     V     C        01:07:43:13 01:07:43:13 02:02:57:23 02:02:57:23
021  224A     V     D    096 04:03:51:04 04:03:58:01 02:02:57:23 02:03:04:20
* FILM, FILM DISSOLVE
* FROM CLIP NAME:  24A/1 A S
* TO CLIP NAME:  B24/1 A S
022  225A     V     C        05:02:09:13 05:02:11:06 02:03:04:20 02:03:06:13
* FROM CLIP NAME:  B24C/4 A S
023  224A     V     C        04:06:44:23 04:06:48:10 02:03:06:13 02:03:10:00
* FROM CLIP NAME:  B24B/2 A
024  225A     V     C        05:02:29:02 05:02:31:16 02:03:10:00 02:03:12:14
* FROM CLIP NAME:  B24C/4 A S
025  224A     V     C        04:06:52:17 04:06:57:18 02:03:12:14 02:03:17:15
* FROM CLIP NAME:  B24B/2 A
026  225A     V     C        05:06:39:21 05:06:44:17 02:03:17:15 02:03:22:11
* FROM CLIP NAME:  C24/4 A S
027  225A     V     C        05:06:44:17 05:06:44:17 02:03:22:11 02:03:22:11
027  411A     V     D    096 11:03:17:12 11:03:23:10 02:03:22:11 02:03:28:09
* BLEND, DISSOLVE
* FROM CLIP NAME:  C24/4 A S
* TO CLIP NAME:  25-C-? SER B
028  398A     V     C        18:01:10:16 18:01:13:09 02:03:28:09 02:03:31:02
* FROM CLIP NAME:  25-C-2 C
029  399A     V     C        19:02:24:21 19:02:26:23 02:03:31:02 02:03:33:04
* FROM CLIP NAME:  25-D-2 C
030  411A     V     C        11:02:05:20 11:02:10:06 02:03:33:04 02:03:37:15
* FROM CLIP NAME:  25-B-2 B
031  463A     V     C        03:01:12:08 03:01:17:05 02:03:37:15 02:03:42:12
* FROM CLIP NAME:  A25/2 A
032  463A     V     C        03:06:14:15 03:06:16:12 02:03:42:12 02:03:44:09
* FROM CLIP NAME:  A25C/2 A S
033  528A     V     C        08:00:44:03 08:00:45:09 02:03:44:09 02:03:45:15
* FROM CLIP NAME:  A25D/2 A S
034  469A     V     C        09:01:31:17 09:01:34:08 02:03:45:15 02:03:48:06
* FROM CLIP NAME:  A25C/2 B
035  528A     V     C        08:00:56:19 08:00:58:18 02:03:48:06 02:03:50:05
* FROM CLIP NAME:  A25D/2 A S
036  463A     V     C        03:04:07:06 03:04:18:16 02:03:50:05 02:04:01:15
* IMAGE, FLOP
* FROM CLIP NAME:  A25B/2 A
037  469A     V     C        09:01:34:16 09:01:37:00 02:04:01:15 02:04:03:24
* FROM CLIP NAME:  A25C/2 B
038  473A     V     C        13:08:26:11 13:08:31:07 02:04:03:24 02:04:08:20
* FROM CLIP NAME:  B25/3 A
039  474A     V     C        14:03:25:16 14:03:29:11 02:04:08:20 02:04:12:15
* FROM CLIP NAME:  B25A/1 A
040  479A     V     C        19:00:16:08 19:00:22:19 02:04:12:15 02:04:19:01
* FROM CLIP NAME:  B25/3 B
041  479A     V     C        19:03:17:06 19:03:19:10 02:04:19:01 02:04:21:05
* FROM CLIP NAME:  B25/6 B
042  479A     V     C        19:00:28:13 19:00:32:12 02:04:21:05 02:04:25:04
* FROM CLIP NAME:  B25/3 B
043  474A     V     C        14:08:52:22 14:08:56:01 02:04:25:04 02:04:28:08
* FROM CLIP NAME:  B25C/2 A S
044  479A     V     C        19:00:42:23 19:00:45:05 02:04:28:08 02:04:30:15
* FROM CLIP NAME:  B25/3 B
045  474A     V     C        14:09:00:24 14:09:06:00 02:04:30:15 02:04:35:16
* FROM CLIP NAME:  B25C/2 A S
046  478A     V     C        18:02:44:20 18:02:48:10 02:04:35:16 02:04:39:06
* FROM CLIP NAME:  B25/2 B
047  474A     V     C        14:07:44:17 14:07:48:08 02:04:39:06 02:04:42:22
* FROM CLIP NAME:  B25B/2 A S
048  473A     V     C        13:07:40:11 13:07:47:24 02:04:42:22 02:04:50:10
* FROM CLIP NAME:  B25/2 A
049  474A     V     C        14:07:18:17 14:07:24:01 02:04:50:10 02:04:55:19
* FROM CLIP NAME:  B25B/1 A S
050  479A     V     C        19:01:14:09 19:01:15:15 02:04:55:19 02:04:57:00
* FROM CLIP NAME:  B25/3 B
051  474A     V     C        14:10:26:23 14:10:28:13 02:04:57:00 02:04:58:15
* FROM CLIP NAME:  B25D/2 A S
052  474A     V     C        14:04:25:00 14:04:27:21 02:04:58:15 02:05:01:11
* FROM CLIP NAME:  B25A/1 A
053  474A     V     C        14:07:28:23 14:07:31:15 02:05:01:11 02:05:04:03
* FROM CLIP NAME:  B25B/1 A S
054  479A     V     C        19:01:23:02 19:01:32:18 02:05:04:03 02:05:13:19
* FROM CLIP NAME:  B25/3 B
055  481A     V     C        01:01:22:20 01:01:27:03 02:05:13:19 02:05:18:02
* FROM CLIP NAME:  B25E/3 B
056  474A     V     C        14:04:48:05 14:04:49:21 02:05:18:02 02:05:19:18
* FROM CLIP NAME:  B25A/1 A
057  474A     V     C        14:08:16:13 14:08:18:03 02:05:19:18 02:05:21:08
* FROM CLIP NAME:  B25B/2 A S
058  474A     V     C        14:04:51:04 14:04:53:08 02:05:21:08 02:05:23:12
* FROM CLIP NAME:  B25A/1 A
059  481A     V     C        01:01:33:05 01:01:35:04 02:05:23:12 02:05:25:11
* FROM CLIP NAME:  B25E/3 B
060  481A     V     C        01:01:35:04 01:01:35:04 02:05:25:11 02:05:25:11
060  487A     V     D    096 07:02:46:17 07:02:51:21 02:05:25:11 02:05:30:15
* FILM, FILM FADE
* FROM CLIP NAME:  B25E/3 B
* TO CLIP NAME:  C25E/1 A
061  486A     V     C        06:03:49:02 06:04:06:06 02:05:30:15 02:05:47:19
* FROM CLIP NAME:  C25/2 A
062  486A     V     C        06:04:06:06 06:04:06:06 02:05:47:19 02:05:47:19
062  601A     V     D    144 01:13:55:13 01:14:01:15 02:05:47:19 02:05:53:21
* FILM, FILM FADE
* FROM CLIP NAME:  C25/2 A
* TO CLIP NAME:  155 LAST SHOOTING
063  601A     V     C        01:14:01:15 01:14:01:15 02:05:53:21 02:05:53:21
063  275A     V     D    080 15:06:18:08 15:06:21:13 02:05:53:21 02:05:57:01
* FILM, FILM DISSOLVE
* FROM CLIP NAME:  155 LAST SHOOTING
* TO CLIP NAME:  XV4C/14 C
064  275A     V     C        15:06:21:13 15:06:21:13 02:05:57:01 02:05:57:01
064  421A     V     D    096 01:00:15:02 01:00:21:01 02:05:57:01 02:06:03:00
M2   421A          -025.0                01:00:15:02
* FILM, FILM FADE
* FROM CLIP NAME:  XV4C/14 C
* TO CLIP NAME:  2-32-1 B (-24.00 FPS)
065  421A     V     C        01:00:09:03 01:00:09:03 02:06:03:00 02:06:03:00
065  486A     V     D    090 06:04:38:23 06:04:42:13 02:06:03:00 02:06:06:15
M2   421A          -025.0                01:00:09:03
* FILM, FILM FADE
* FROM CLIP NAME:  2-32-1 B (-24.00 FPS)
* TO CLIP NAME:  C25/2 A
066  486A     V     C        06:04:42:13 06:04:42:13 02:06:06:15 02:06:06:15
066  535A     V     D    244 15:07:47:13 15:07:57:16 02:06:06:15 02:06:16:18
* FILM, FILM DISSOLVE
* FROM CLIP NAME:  C25/2 A
* TO CLIP NAME:  XF145F/1 D
067  535A     V     C        15:07:57:16 15:07:57:16 02:06:16:18 02:06:16:18
067  491A     V     D    167 11:03:54:19 11:04:05:07 02:06:16:18 02:06:27:06
* FILM, FILM DISSOLVE
* FROM CLIP NAME:  XF145F/1 D
* TO CLIP NAME:  C25B/2 B S
068  491A     V     C        11:04:05:07 11:04:05:07 02:06:27:06 02:06:27:06
068  405A     V     D    096 05:00:35:08 05:00:39:11 02:06:27:06 02:06:31:09
* BLEND, DISSOLVE
* FROM CLIP NAME:  C25B/2 B S
* TO CLIP NAME:  STEPP&CLOUDS
069  405A     V     C        05:00:39:11 05:00:39:11 02:06:31:09 02:06:31:09
069  600A     V     D    106 20:06:42:02 20:06:47:12 02:06:31:09 02:06:36:19
* FILM, FILM DISSOLVE
* FROM CLIP NAME:  STEPP&CLOUDS
* TO CLIP NAME:  155A/4 C
070  600A     V     C        20:06:47:12 20:06:47:12 02:06:36:19 02:06:36:19
070  377A     V     D    128 17:00:42:19 17:00:48:03 02:06:36:19 02:06:42:03
* FILM, FILM DISSOLVE
* FROM CLIP NAME:  155A/4 C
* TO CLIP NAME:  2-29-2 B
071  377A     V     C        17:00:48:03 17:00:48:03 02:06:42:03 02:06:42:03
071  599A     V     D    096 19:07:28:06 19:07:32:02 02:06:42:03 02:06:45:24
* FILM, FILM DISSOLVE
* FROM CLIP NAME:  2-29-2 B
* TO CLIP NAME:  X2-50/1 D
072  599A     V     C        19:07:32:02 19:07:32:02 02:06:45:24 02:06:45:24
072  390A     V     D    080 10:02:22:04 10:02:25:16 02:06:45:24 02:06:49:11
* BLEND, DISSOLVE
* FROM CLIP NAME:  X2-50/1 D
* TO CLIP NAME:  2-40-3 B
073  390A     V     C        10:02:25:16 10:02:25:16 02:06:49:11 02:06:49:11
073  391A     V     D    080 11:01:28:19 11:01:34:06 02:06:49:11 02:06:54:23
* BLEND, DISSOLVE
* FROM CLIP NAME:  2-40-3 B
* TO CLIP NAME:  2-38-3 B
074  391A     V     C        11:01:34:06 11:01:34:06 02:06:54:23 02:06:54:23
074  491A     V     D    096 11:06:50:24 11:07:03:01 02:06:54:23 02:07:07:00
* BLEND, DISSOLVE
* FROM CLIP NAME:  2-38-3 B
* TO CLIP NAME:  C25D/1 B S
075  491A     V     C        11:02:09:12 11:02:11:23 02:07:07:00 02:07:09:11
* FROM CLIP NAME:  C25/2 B
076  487A     V     C        07:01:20:10 07:01:29:04 02:07:09:11 02:07:18:05
* FROM CLIP NAME:  C25A/1 A S
077  424A     V     C        04:01:52:01 04:01:54:05 02:07:18:05 02:07:20:09
* FROM CLIP NAME:  D25/3 A S
078  424A     V     C        04:08:24:14 04:08:28:06 02:07:20:09 02:07:24:01
* FROM CLIP NAME:  D25A/5 A S
079  425A     V     C        05:04:41:07 05:04:42:18 02:07:24:01 02:07:25:12
* FROM CLIP NAME:  D25E/1 A S
080  429A     V     C        09:03:31:24 09:03:35:00 02:07:25:12 02:07:28:13
* FROM CLIP NAME:  D25 SER MOS B
081  425A     V     C        05:05:50:08 05:05:53:00 02:07:28:13 02:07:31:05
* FROM CLIP NAME:  D25E/3 A S
082  425A     V     C        05:02:53:24 05:02:57:06 02:07:31:05 02:07:34:12
* FROM CLIP NAME:  D25C/4 A S
083  425A     V     C        05:06:37:22 05:06:40:02 02:07:34:12 02:07:36:17
* FROM CLIP NAME:  D25F/1 A S
084  429A     V     C        09:01:51:09 09:01:55:10 02:07:36:17 02:07:40:18
* FROM CLIP NAME:  D25 SER MOS B
085  425A     V     C        05:03:44:04 05:03:45:15 02:07:40:18 02:07:42:04
* FROM CLIP NAME:  D25C/5 A S
086  425A     V     C        05:06:10:09 05:06:13:24 02:07:42:04 02:07:45:19
* FROM CLIP NAME:  D25E/3 A S
087  425A     V     C        05:01:04:13 05:01:06:24 02:07:45:19 02:07:48:05
* FROM CLIP NAME:  D25B/3 A S
088  425A     V     C        05:08:27:11 05:08:33:01 02:07:48:05 02:07:53:20
* FROM CLIP NAME:  D25G/2 A S
089  425A     V     C        05:01:07:18 05:01:13:03 02:07:53:20 02:07:59:05
* FROM CLIP NAME:  D25B/3 A S
090  426A     V     C        06:03:08:23 06:03:15:01 02:07:59:05 02:08:05:08
* FROM CLIP NAME:  D25H/4 A
091  430A     V     C        10:03:02:07 10:03:05:07 02:08:05:08 02:08:08:08
* FROM CLIP NAME:  D25H/4 B
092  426A     V     C        06:03:17:23 06:03:19:17 02:08:08:08 02:08:10:02
* FROM CLIP NAME:  D25H/4 A
093  432A     V     C        12:02:35:06 12:02:37:06 02:08:10:02 02:08:12:02
* FROM CLIP NAME:  D25K/2 B
094  430A     V     C        10:03:08:17 10:03:10:22 02:08:12:02 02:08:14:07
* FROM CLIP NAME:  D25H/4 B
095  427A     V     C        07:06:20:02 07:06:21:12 02:08:14:07 02:08:15:17
* FROM CLIP NAME:  D25P/3 A S
096  427A     V     C        07:03:30:01 07:03:31:07 02:08:15:17 02:08:16:23
* FROM CLIP NAME:  D25L/1 A S
097  428A     V     C        08:00:14:11 08:00:17:19 02:08:16:23 02:08:20:06
* FROM CLIP NAME:  D25M/2 B S
098  427A     V     C        07:05:48:03 07:05:52:16 02:08:20:06 02:08:24:19
* FROM CLIP NAME:  D25P/2 A S
099  427A     V     C        07:03:38:11 07:03:41:15 02:08:24:19 02:08:27:23
* FROM CLIP NAME:  D25L/1 A S
100  428A     V     C        08:00:43:03 08:00:44:00 02:08:27:23 02:08:28:20
* FROM CLIP NAME:  D25M/3 B S
101  427A     V     C        07:06:35:15 07:06:37:19 02:08:28:20 02:08:30:24
* FROM CLIP NAME:  D25P/3 A S
102  427A     V     C        07:03:45:11 07:03:46:15 02:08:30:24 02:08:32:03
* FROM CLIP NAME:  D25L/1 A S
103  427A     V     C        07:06:41:02 07:06:42:07 02:08:32:03 02:08:33:08
* FROM CLIP NAME:  D25P/3 A S
104  427A     V     C        07:04:42:13 07:04:44:11 02:08:33:08 02:08:35:06
* FROM CLIP NAME:  D25O/1 A
105  427A     V     C        07:04:44:11 07:04:44:11 02:08:35:06 02:08:35:06
105  340A     V     D    096 20:03:06:05 20:03:18:14 02:08:35:06 02:08:47:15
* FILM, FILM DISSOLVE
* FROM CLIP NAME:  D25O/1 A
* TO CLIP NAME:  25/10 A S
106  526A     V     C        06:00:49:05 06:00:54:19 02:08:47:15 02:08:53:04
* FROM CLIP NAME:  X22AV/3 D
107  526A     V     C        06:00:54:19 06:00:54:19 02:08:53:04 02:08:53:04
107  597A     V     D    048 17:08:56:20 17:09:00:06 02:08:53:04 02:08:56:15
* FILM, FILM DISSOLVE
* IMAGE, FLOP
* FROM CLIP NAME:  X22AV/3 D
* TO CLIP NAME:  XV4B/11 D
108  597A     V     C        17:09:00:06 17:09:00:06 02:08:56:15 02:08:56:15
108  527A     V     D    032 07:16:32:10 07:16:37:02 02:08:56:15 02:09:01:07
* IMAGE, FLOP
* FILM, FILM DISSOLVE
* FROM CLIP NAME:  XV4B/11 D
* TO CLIP NAME:  X22AV/4 E
109  528A     V     C        08:01:18:00 08:01:23:00 02:09:01:07 02:09:06:07
* FROM CLIP NAME:  A27/2 A
110  514A     V     C        14:05:50:13 14:05:51:16 02:09:06:07 02:09:07:10
* FROM CLIP NAME:  A27A/2 B
111  528A     V     C        08:03:13:09 08:03:14:03 02:09:07:10 02:09:08:04
* EFF_RGB_COLOR_CORRECTION
* FROM CLIP NAME:  A27A/2 A
112  514A     V     C        14:07:57:04 14:07:57:18 02:09:08:04 02:09:08:18
* FROM CLIP NAME:  A27B/2 B
113  528A     V     C        08:03:14:09 08:03:15:04 02:09:08:18 02:09:09:13
* EFF_RGB_COLOR_CORRECTION
* FROM CLIP NAME:  A27A/2 A
114  514A     V     C        14:07:58:00 14:07:59:00 02:09:09:13 02:09:10:13
* FROM CLIP NAME:  A27B/2 B
115  514A     V     C        14:02:14:05 14:02:14:16 02:09:10:13 02:09:10:24
* FROM CLIP NAME:  A27B/2 A
116  514A     V     C        14:07:59:11 14:08:00:17 02:09:10:24 02:09:12:05
* FROM CLIP NAME:  A27B/2 B
117  514A     V     C        14:02:15:17 14:02:16:13 02:09:12:05 02:09:13:01
* FROM CLIP NAME:  A27B/2 A
118  528A     V     C        08:03:17:14 08:03:18:23 02:09:13:01 02:09:14:10
* EFF_RGB_COLOR_CORRECTION
* FROM CLIP NAME:  A27A/2 A
119  454A     V     C        14:01:24:20 14:01:27:14 02:09:14:10 02:09:17:04
* FROM CLIP NAME:  A48G/3 A S
120  514A     V     C        14:05:56:18 14:05:58:00 02:09:17:04 02:09:18:11
* FROM CLIP NAME:  A27A/2 B
121  528A     V     C        08:03:19:21 08:03:20:09 02:09:18:11 02:09:18:24
* EFF_RGB_COLOR_CORRECTION
* FROM CLIP NAME:  A27A/2 A
122  514A     V     C        14:07:07:01 14:07:08:00 02:09:18:24 02:09:19:23
* FROM CLIP NAME:  A27B/1 B
123  514A     V     C        14:00:10:17 14:00:13:06 02:09:19:23 02:09:22:12
* FROM CLIP NAME:  A27D/3 A
124  514A     V     C        14:03:00:12 14:03:01:24 02:09:22:12 02:09:23:24
* FROM CLIP NAME:  A27C/1 A
125  514A     V     C        14:08:46:07 14:08:46:18 02:09:23:24 02:09:24:10
* FROM CLIP NAME:  A27C/1 B
126  514A     V     C        14:00:14:21 14:00:16:18 02:09:24:10 02:09:26:07
* FROM CLIP NAME:  A27D/3 A
127  514A     V     C        14:08:03:07 14:08:03:14 02:09:26:07 02:09:26:14
* FROM CLIP NAME:  A27B/2 B
128  514A     V     C        14:01:38:17 14:01:39:06 02:09:26:14 02:09:27:03
* FROM CLIP NAME:  A27B/1 A
129  514A     V     C        14:07:16:06 14:07:16:12 02:09:27:03 02:09:27:09
* FROM CLIP NAME:  A27B/1 B
130  514A     V     C        14:03:04:24 14:03:05:23 02:09:27:09 02:09:28:08
* FROM CLIP NAME:  A27C/1 A
131  514A     V     C        14:07:17:04 14:07:19:10 02:09:28:08 02:09:30:14
* FROM CLIP NAME:  A27B/1 B
132  514A     V     C        14:02:22:23 14:02:25:23 02:09:30:14 02:09:33:14
* FROM CLIP NAME:  A27B/2 A
133  514A     V     C        14:08:10:19 14:08:13:09 02:09:33:14 02:09:36:04
* FROM CLIP NAME:  A27B/2 B
134  514A     V     C        14:02:28:11 14:02:30:08 02:09:36:04 02:09:38:01
* FROM CLIP NAME:  A27B/2 A
135  514A     V     C        14:07:26:00 14:07:29:01 02:09:38:01 02:09:41:02
* FROM CLIP NAME:  A27B/1 B
136  251A     V     C        11:07:22:08 11:07:28:20 02:09:41:02 02:09:47:14
* FROM CLIP NAME:  38J/7 B
137  247A     V     C        07:02:07:06 07:02:11:12 02:09:47:14 02:09:51:20
* FROM CLIP NAME:  38J/7 A
138  251A     V     C        11:07:37:11 11:07:39:08 02:09:51:20 02:09:53:17
* FROM CLIP NAME:  38J/7 B
139  247A     V     C        07:02:18:01 07:02:26:04 02:09:53:17 02:10:01:20
* FROM CLIP NAME:  38J/7 A
140  266A     V     C        06:00:14:23 06:00:19:18 02:10:01:20 02:10:06:15
* FROM CLIP NAME:  38L/3 A S
141  239A     V     C        19:03:50:24 19:03:52:03 02:10:06:15 02:10:07:19
* FROM CLIP NAME:  38B/4 B
142  234A     V     C        14:04:28:20 14:04:31:08 02:10:07:19 02:10:10:07
* FROM CLIP NAME:  38B/4 A
143  239A     V     C        19:05:19:21 19:05:21:14 02:10:10:07 02:10:12:00
* FROM CLIP NAME:  38E/1 B
144  266A     V     C        06:00:25:03 06:00:27:07 02:10:12:00 02:10:14:04
* FROM CLIP NAME:  38L/3 A S
145  239A     V     C        19:00:33:18 19:00:35:00 02:10:14:04 02:10:15:11
* FROM CLIP NAME:  38A/2 B
146  234A     V     C        14:04:24:01 14:04:24:23 02:10:15:11 02:10:16:08
* FROM CLIP NAME:  38B/4 A
147  239A     V     C        19:03:47:19 19:03:49:11 02:10:16:08 02:10:18:00
* FROM CLIP NAME:  38B/4 B
148  234A     V     C        14:06:14:02 14:06:15:11 02:10:18:00 02:10:19:09
* FROM CLIP NAME:  38C/3 A S
149  230A     V     C        10:06:25:21 10:06:27:12 02:10:19:09 02:10:21:00
* FROM CLIP NAME:  38/2 A
150  230A     V     C        10:04:36:03 10:04:41:12 02:10:21:00 02:10:26:09
* FROM CLIP NAME:  38/1 A
151  232A     V     C        12:00:22:13 12:00:24:19 02:10:26:09 02:10:28:15
* FROM CLIP NAME:  38/1 B
152  230A     V     C        10:04:43:12 10:04:48:22 02:10:28:15 02:10:34:00
* FROM CLIP NAME:  38/1 A
153  236A     V     C        16:02:20:10 16:02:22:18 02:10:34:00 02:10:36:08
* FROM CLIP NAME:  38F/1 A
154  239A     V     C        19:05:29:17 19:05:33:05 02:10:36:08 02:10:39:21
* FROM CLIP NAME:  38E/1 B
155  247A     V     C        07:08:08:08 07:08:15:03 02:10:39:21 02:10:46:16
* FROM CLIP NAME:  39/2 A S
156  265A     V     C        05:00:33:20 05:00:35:14 02:10:46:16 02:10:48:10
* FROM CLIP NAME:  39G/2 A S
157  258A     V     C        18:03:23:23 18:03:25:10 02:10:48:10 02:10:49:22
* FROM CLIP NAME:  39B/2 B
158  261A     V     C        01:05:15:09 01:05:17:09 02:10:49:22 02:10:51:22
* FROM CLIP NAME:  39D/1 A
159  244A     V     C        04:01:20:02 04:01:21:12 02:10:51:22 02:10:53:07
* FROM CLIP NAME:  LR244
160  245A     V     C        05:00:43:19 05:00:45:19 02:10:53:07 02:10:55:07
* FROM CLIP NAME:  LR245
161  257A     V     C        17:03:32:19 17:03:35:09 02:10:55:07 02:10:57:22
* FROM CLIP NAME:  39A/3 B
162  237A     V     C        17:00:28:20 17:00:31:24 02:10:57:22 02:11:01:01
* FROM CLIP NAME:  38H/3 A
163  264A     V     C        04:00:58:00 04:00:59:07 02:11:01:01 02:11:02:08
* FROM CLIP NAME:  39F/2 A S
164  269A     V     C        09:05:38:02 09:05:39:10 02:11:02:08 02:11:03:16
* FROM CLIP NAME:  39D/1 B
165  258A     V     C        18:01:33:09 18:01:36:05 02:11:03:16 02:11:06:12
* FROM CLIP NAME:  39B/1 B
166  232A     V     C        12:01:14:05 12:01:16:21 02:11:06:12 02:11:09:03
* FROM CLIP NAME:  38/1 B
167  261A     V     C        01:05:57:21 01:06:00:03 02:11:09:03 02:11:11:10
* FROM CLIP NAME:  39D/1 A
168  261A     V     C        01:01:26:24 01:01:28:10 02:11:11:10 02:11:12:21
* FROM CLIP NAME:  39C/2 A
169  269A     V     C        09:05:51:15 09:05:55:13 02:11:12:21 02:11:16:19
* FROM CLIP NAME:  39D/1 B
170  245A     V     C        05:01:04:12 05:01:07:12 02:11:16:19 02:11:19:19
* FROM CLIP NAME:  LR245
171  261A     V     C        01:01:36:17 01:01:41:24 02:11:19:19 02:11:25:01
* FROM CLIP NAME:  39C/2 A
172  245A     V     C        05:00:49:10 05:00:52:00 02:11:25:01 02:11:27:16
* FROM CLIP NAME:  LR245
173  261A     V     C        01:06:16:14 01:06:17:20 02:11:27:16 02:11:28:22
* FROM CLIP NAME:  39D/1 A
174  264A     V     C        04:01:55:14 04:01:56:10 02:11:28:22 02:11:29:18
* FROM CLIP NAME:  39F/2 A S
175  261A     V     C        01:06:27:08 01:06:27:22 02:11:29:18 02:11:30:07
* FROM CLIP NAME:  39D/1 A
176  244A     V     C        04:00:35:15 04:00:36:19 02:11:30:07 02:11:31:11
* FROM CLIP NAME:  LR244
177  230A     V     C        10:08:02:05 10:08:03:14 02:11:31:11 02:11:32:20
* FROM CLIP NAME:  38/2 A
178  232A     V     C        12:03:32:19 12:03:36:14 02:11:32:20 02:11:36:15
* FROM CLIP NAME:  38/2 B
179  237A     V     C        17:00:31:21 17:00:33:17 02:11:36:15 02:11:38:11
* IMAGE, FLOP
* FROM CLIP NAME:  38H/3 A
180  240A     V     C        20:10:12:17 20:10:14:04 02:11:38:11 02:11:39:23
* IMAGE, FLOP
* FROM CLIP NAME:  38H/1 B
181  260A     V     C        20:00:10:23 20:00:18:15 02:11:39:23 02:11:47:15
* FROM CLIP NAME:  41/6 A S
182  260A     V     C        20:01:47:11 20:01:51:06 02:11:47:15 02:11:51:10
* FROM CLIP NAME:  42/2 A
183  260A     V     C        20:00:18:15 20:00:21:07 02:11:51:10 02:11:54:02
* FROM CLIP NAME:  41/6 A S
184  260A     V     C        20:00:21:07 20:00:21:07 02:11:54:02 02:11:54:02
184  273A     V     D    096 13:01:54:11 13:02:05:23 02:11:54:02 02:12:05:14
* FILM, FILM DISSOLVE
* FROM CLIP NAME:  41/6 A S
* TO CLIP NAME:  43/2 A
185  273A     V     C        13:02:14:17 13:02:31:15 02:12:05:14 02:12:22:12
* FROM CLIP NAME:  43/2 A
186  286A     V     C        06:04:54:14 06:04:57:12 02:12:22:12 02:12:25:10
* FROM CLIP NAME:  43A/4 C
187  285A     V     C        05:04:47:19 05:04:52:22 02:12:25:10 02:12:30:13
* FROM CLIP NAME:  43A/4 B
188  286A     V     C        06:04:58:14 06:05:01:04 02:12:30:13 02:12:33:03
* FROM CLIP NAME:  43A/4 C
189  285A     V     C        05:03:27:10 05:03:36:01 02:12:33:03 02:12:41:19
* FROM CLIP NAME:  43A/3 B
190  286A     V     C        06:03:29:02 06:03:40:09 02:12:41:19 02:12:53:01
* FROM CLIP NAME:  43A/3 C
191  285A     V     C        05:05:43:03 05:05:48:05 02:12:53:01 02:12:58:03
* FROM CLIP NAME:  43A/4 B
192  294A     V     C        14:03:48:13 14:03:52:18 02:12:58:03 02:13:02:08
* FROM CLIP NAME:  A43A/2 A S
193  294A     V     C        14:03:52:18 14:03:52:18 02:13:02:08 02:13:02:08
193  285A     V     D    076 05:05:53:09 05:06:00:12 02:13:02:08 02:13:09:11
M2   285A           015.0                05:05:53:09
* FILM, FILM FADE
* FROM CLIP NAME:  A43A/2 A S
* TO CLIP NAME:  43A/4 B
194  285A     V     C        05:05:57:16 05:05:57:16 02:13:09:11 02:13:09:11
194  294A     V     D    128 14:03:59:02 14:04:12:03 02:13:09:11 02:13:22:12
M2   285A           015.0                05:05:57:16
* FILM, FILM DISSOLVE
* FROM CLIP NAME:  43A/4 B
* TO CLIP NAME:  A43A/2 A S
195  294A     V     C        14:00:30:12 14:00:53:21 02:13:22:12 02:13:45:21
* FROM CLIP NAME:  A43/11 A S
196  295A     V     C        15:00:17:05 15:00:23:21 02:13:45:21 02:13:52:12
* FROM CLIP NAME:  A43B/1
197  304A     V     C        04:00:25:00 04:00:33:13 02:13:52:12 02:14:01:00
* FROM CLIP NAME:  A43F/5 A S
198  295A     V     C        15:00:33:03 15:00:40:17 02:14:01:00 02:14:08:14
* FROM CLIP NAME:  A43B/1
199  306A     V     C        06:01:03:11 06:01:06:24 02:14:08:14 02:14:12:02
* FROM CLIP NAME:  A43G/2 A S
200  299A     V     C        19:00:49:02 19:01:01:17 02:14:12:02 02:14:24:17
* FROM CLIP NAME:  A43C/6 A S
201  306A     V     C        06:01:52:02 06:01:57:02 02:14:24:17 02:14:29:17
* FROM CLIP NAME:  A43G/2 A S
202  299A     V     C        19:01:40:00 19:01:49:10 02:14:29:17 02:14:39:02
* FROM CLIP NAME:  A43C/6 A S
203  305A     V     C        05:02:21:23 05:02:24:19 02:14:39:02 02:14:41:23
* FROM CLIP NAME:  A43G/1 A S
204  299A     V     C        19:01:52:21 19:01:56:13 02:14:41:23 02:14:45:15
* FROM CLIP NAME:  A43C/6 A S
205  304A     V     C        04:02:15:22 04:02:23:12 02:14:45:15 02:14:53:05
* FROM CLIP NAME:  A43F/5 A S
206  294A     V     C        14:02:45:21 14:02:54:01 02:14:53:05 02:15:01:10
* FROM CLIP NAME:  A43/11 A S
207  295A     V     C        15:02:15:07 15:02:20:03 02:15:01:10 02:15:06:06
* FROM CLIP NAME:  A43B/1
208  300A     V     C        20:00:10:15 20:00:19:18 02:15:06:06 02:15:15:09
* FROM CLIP NAME:  A43E/1
209  259A     V     C        19:05:59:23 19:06:17:07 02:15:15:09 02:15:32:18
* FROM CLIP NAME:  A47/8 A S
210  368A     V     C        08:09:19:19 08:09:23:11 02:15:32:18 02:15:36:10
* FROM CLIP NAME:  B47F/4 A S
211  365A     V     C        05:06:25:16 05:06:36:09 02:15:36:10 02:15:47:03
* FROM CLIP NAME:  B47/4 A S
212  368A     V     C        08:06:10:16 08:06:15:18 02:15:47:03 02:15:52:05
* FROM CLIP NAME:  B47D/1 A S
213  366A     V     C        06:00:35:23 06:00:44:06 02:15:52:05 02:16:00:13
* FROM CLIP NAME:  B47/5 A S
214  369A     V     C        09:00:28:20 09:00:35:23 02:16:00:13 02:16:07:16
* FROM CLIP NAME:  B47D/2 A S
215  367A     V     C        07:03:21:13 07:03:25:05 02:16:07:16 02:16:11:08
* FROM CLIP NAME:  B47B/1 A S
216  369A     V     C        09:01:39:03 09:01:41:24 02:16:11:08 02:16:14:04
* FROM CLIP NAME:  B47D/2 A S
217  368A     V     C        08:00:56:15 08:00:58:21 02:16:14:04 02:16:16:10
* FROM CLIP NAME:  B47B/6PU A S
218  369A     V     C        09:00:45:19 09:00:50:23 02:16:16:10 02:16:21:14
* FROM CLIP NAME:  B47D/2 A S
219  367A     V     C        07:04:34:21 07:04:40:14 02:16:21:14 02:16:27:07
* FROM CLIP NAME:  B47B/1 A S
220  367A     V     C        07:04:40:14 07:04:40:14 02:16:27:07 02:16:27:07
220     BL    V     D    064 00:00:00:00 00:00:02:14 02:16:27:07 02:16:29:21
* FILM, FILM DISSOLVE
* FROM CLIP NAME:  B47B/1 A S
221     BL    V     C        00:00:00:00 00:00:00:00 02:16:30:06 02:16:30:06
221  29A      V     D    064 09:01:42:04 09:01:49:02 02:16:30:06 02:16:37:04
* FILM, FILM FADE
* TO CLIP NAME:  V13A/4 C
222  23A      V     C        03:02:12:15 03:02:17:24 02:16:37:04 02:16:42:13
* FROM CLIP NAME:  V13/2 A S
223  89A      V     C        09:07:30:19 09:07:36:05 02:16:42:13 02:16:47:24
* FROM CLIP NAME:  15E/3 B
224  87A      V     C        07:07:36:16 07:07:38:18 02:16:47:24 02:16:50:01
* FROM CLIP NAME:  15E/3 A
225  26A      V     C        06:01:33:12 06:01:59:19 02:16:50:01 02:17:16:08
* FROM CLIP NAME:  15/6 B S
226  27A      V     C        07:02:40:11 07:02:42:16 02:17:16:08 02:17:18:13
* FROM CLIP NAME:  15A/6 B S
227  28A      V     C        08:02:26:18 08:02:28:14 02:17:18:13 02:17:20:09
* FROM CLIP NAME:  15C/4 B S
228  26A      V     C        06:02:04:18 06:02:10:10 02:17:20:09 02:17:26:01
* FROM CLIP NAME:  15/6 B S
229  28A      V     C        08:01:52:07 08:01:53:20 02:17:26:01 02:17:27:14
* FROM CLIP NAME:  15C/3 B S
230  27A      V     C        07:02:52:18 07:02:56:13 02:17:27:14 02:17:31:09
* FROM CLIP NAME:  15A/6 B S
231  28A      V     C        08:01:57:09 08:01:59:06 02:17:31:09 02:17:33:06
* FROM CLIP NAME:  15C/3 B S
232  26A      V     C        06:02:17:14 06:02:26:02 02:17:33:06 02:17:41:19
* FROM CLIP NAME:  15/6 B S
233  28A      V     C        08:03:19:05 08:03:22:07 02:17:41:19 02:17:44:21
* FROM CLIP NAME:  15D/1 B S
234  552A     V     C        12:01:59:12 12:02:13:19 02:17:44:21 02:17:59:03
* FROM CLIP NAME:  C27/3 A
235     AX    V     C        00:00:00:09 00:00:00:12 02:17:59:03 02:17:59:06
* FROM CLIP NAME:  COLORBARS_100PCT.PCT
>>> SOURCE 23A      23A 3F84F599.001A8CBE
>>> SOURCE 26A      26A 3F84F599.001A8EE4
>>> SOURCE 27A      27A 3F84F599.001A8F8B
>>> SOURCE 28A      28A 3F84F59A.001A9042
>>> SOURCE 29A      29A 3F84F59A.001A90E9
>>> SOURCE 87A      87A 3F84F5A4.001AB904
>>> SOURCE 89A      89A 3F84F5A4.001ABA83
>>> SOURCE 224A     224A 3F9B0708.00E991F2
>>> SOURCE 225A     225A 3F9B0708.00E993F6
>>> SOURCE 230A     230A 3F9B070E.00E9A8AA
>>> SOURCE 232A     232A 3F9B070E.00E9AB02
>>> SOURCE 234A     234A 3F9B070F.00E9AD6B
>>> SOURCE 236A     236A 3F9B070F.00E9AFD4
>>> SOURCE 237A     237A 3F9B0710.00E9B100
>>> SOURCE 239A     239A 3F9B0710.00E9B379
>>> SOURCE 240A     240A 3F9B0711.00E9B4A5
>>> SOURCE 244A     244A BD054759.0A262C7C
>>> SOURCE 245A     245A BD0547B4.0A278F6F
>>> SOURCE 247A     247A 3F9B0713.00E9BD6F
>>> SOURCE 251A     251A 3F9B0714.00E9C283
>>> SOURCE 257A     257A 3F9B0716.00E9CA00
>>> SOURCE 258A     258A 3F9B0716.00E9CB2C
>>> SOURCE 259A     259A 3FA2C848.0044F253
>>> SOURCE 260A     260A 3FA2C849.0044F3F4
>>> SOURCE 261A     261A 3FA2C849.0044F4AB
>>> SOURCE 264A     264A 3FA2C84A.0044F6C0
>>> SOURCE 265A     265A 3FA2C84A.0044F756
>>> SOURCE 266A     266A 3FA2C84A.0044F7FD
>>> SOURCE 269A     269A 3FA2C84B.0044FA87
>>> SOURCE 273A     273A 3FA2C84B.0044FD22
>>> SOURCE 275A     275A 3FA2C84C.0044FE90
>>> SOURCE 285A     285A 3FA2C84E.00450707
>>> SOURCE 286A     286A 3FA2C84E.004507BE
>>> SOURCE 294A     294A 3FA2F985.0105C044
>>> SOURCE 295A     295A 3FA2F985.0105C0EB
>>> SOURCE 299A     299A 3FA2F986.0105C44E
>>> SOURCE 300A     300A 3FA2F986.0105C505
>>> SOURCE 304A     304A 3FA2F987.0105C7C1
>>> SOURCE 305A     305A 3FA2F987.0105C889
>>> SOURCE 306A     306A 3FA2F987.0105C940
>>> SOURCE 340A     340A 3FB56EB3.012E915B
>>> SOURCE 365A     365A 3FBE72A6.00CB2D8A
>>> SOURCE 366A     366A 3FBE72A6.00CB2F2B
>>> SOURCE 367A     367A 3FBE72A7.00CB309A
>>> SOURCE 368A     368A 3FBE72A7.00CB322A
>>> SOURCE 369A     369A 3FBE72A7.00CB33A9
>>> SOURCE 377A     377A BD4A54EB.1871321F
>>> SOURCE 390A     390A BD4A2B0B.17CD31E0
>>> SOURCE 391A     391A BD4A2B2C.17CDB3B2
>>> SOURCE 398A     398A BD4A3C78.18117214
>>> SOURCE 399A     399A BD4A3C93.1811DC22
>>> SOURCE 405A     405A BD4A3D67.18151A78
>>> SOURCE 411A     411A BD4A3E02.18177865
>>> SOURCE 421A     421A 4138A9B2.002002A4
>>> SOURCE 424A     424A 4138BD5D.006CDE4C
>>> SOURCE 425A     425A 4138BE65.0070E56D
>>> SOURCE 426A     426A 4138BEFD.007336A1
>>> SOURCE 427A     427A 4138BF34.00740DB7
>>> SOURCE 428A     428A 4138BFA9.0075DA49
>>> SOURCE 429A     429A 4138BFF4.0076FDAB
>>> SOURCE 430A     430A 4138C038.00780576
>>> SOURCE 432A     432A 4138C0A2.0079A626
>>> SOURCE 454A     454A 4138F0F7.0136753B
>>> SOURCE 463A     463A 413C3D62.0E192B92
>>> SOURCE 469A     469A 4142CC48.0E44DC62
>>> SOURCE 473A     473A 4142CC8A.0E45DE13
>>> SOURCE 474A     474A 4142CC96.0E460E99
>>> SOURCE 478A     478A 4142CCCB.0E46DC1A
>>> SOURCE 479A     479A 4142CCD7.0E470E84
>>> SOURCE 481A     481A 4142E303.0E9DA880
>>> SOURCE 486A     486A 4142E349.0E9EBB57
>>> SOURCE 487A     487A 4142E354.0E9EE72A
>>> SOURCE 491A     491A 4142F57D.0EE5D7FE
>>> SOURCE 511A     511A 41480D78.0A2EB3FA
>>> SOURCE 514A     514A 41481F61.0A74A967
>>> SOURCE 521A     521A 414A8628.13D64CBD
>>> SOURCE 526A     526A 414AAB71.1467F530
>>> SOURCE 527A     527A 414ACE8E.14F11EA7
>>> SOURCE 528A     528A 414ACEAB.14F1902E
>>> SOURCE 535A     535A 415E8FC7.0A7F7F25
>>> SOURCE 552A     552A 415F9ED9.02AD469A
>>> SOURCE 587A     587A 417465F4.03627D88
>>> SOURCE 597A     597A 416FBCB3.00AB28A6
>>> SOURCE 599A     599A 416FBCDD.00ABCC87
>>> SOURCE 600A     600A 416FD039.00F7704C
>>> SOURCE 601A     601A 417D215A.01981DE7
