TITLE:   NK VS DEF AKTE 3 VOOR EDL BEELD 
001     AX    V     C        00:00:00:00 00:00:00:01 03:00:00:00 03:00:00:01 
* FROM CLIP NAME:  ASDF.08 
002     AX    V     C        00:00:00:00 00:00:00:01 03:15:56:24 03:15:57:00 
* EFF_BLEND_GRAPHIC 
* FROM CLIP NAME:  ASDF.09 
TITLE:   NK VS DEF AKTE 3 VOOR EDL BEELD 
001  NK007    V     C        07:14:02:06 07:14:04:09 03:00:15:15 03:00:17:18 
* FROM CLIP NAME:  086A/2AFG 
002  NK007    V     C        07:10:02:07 07:10:05:11 03:00:29:21 03:00:33:00 
* FROM CLIP NAME:  086A/1 
003  NK007    V     C        07:06:57:21 07:07:00:05 03:00:39:04 03:00:41:13 
* FROM CLIP NAME:  085A/2 
004  NK006    V     C        06:36:55:06 06:36:57:17 03:00:47:19 03:00:50:05 
* FROM CLIP NAME:  085B/1 
005  NK006    V     C        06:36:58:21 06:37:01:01 03:00:52:18 03:00:54:23 
* FROM CLIP NAME:  085B/1 
006  NK008    V     C        08:10:33:17 08:10:35:06 03:00:54:23 03:00:56:12 
* FROM CLIP NAME:  089A/1 
007  NK007    V     C        07:31:40:05 07:31:44:05 03:00:56:12 03:01:00:12 
* FROM CLIP NAME:  087A/2 
008  NK008    V     C        08:05:09:12 08:05:10:24 03:01:00:12 03:01:01:24 
* FROM CLIP NAME:  089B/1 
009  NK007    V     C        07:31:49:13 07:31:53:00 03:01:01:24 03:01:05:11 
* FROM CLIP NAME:  087A/2 
010  NK007    V     C        07:26:32:03 07:26:35:05 03:01:05:11 03:01:08:13 
* FROM CLIP NAME:  087B/2 
011  NK008    V     C        08:12:46:08 08:12:47:16 03:01:08:13 03:01:09:21 
* FROM CLIP NAME:  089A/2 
012  NK007    V     C        07:32:05:08 07:32:07:19 03:01:09:21 03:01:12:07 
* FROM CLIP NAME:  087A/2 
013  NK008    V     C        08:05:37:09 08:05:39:02 03:01:12:07 03:01:14:00 
* FROM CLIP NAME:  089B/1 
014  NK007    V     C        07:21:23:14 07:21:25:09 03:01:14:00 03:01:15:20 
* FROM CLIP NAME:  086B/3 
015  NK008    V     C        08:13:06:14 08:13:08:00 03:01:15:20 03:01:17:06 
* FROM CLIP NAME:  089A/2 
016  NK007    V     C        07:32:23:19 07:32:31:15 03:01:17:06 03:01:25:02 
* FROM CLIP NAME:  087A/2 
017  NK008    V     C        08:06:05:09 08:06:06:05 03:01:25:02 03:01:25:23 
* FROM CLIP NAME:  089B/1 
018  NK007    V     C        07:32:54:05 07:32:58:19 03:01:25:23 03:01:30:12 
* FROM CLIP NAME:  087A/2 
019  NK008    V     C        08:16:06:14 08:16:08:19 03:01:30:12 03:01:32:17 
* FROM CLIP NAME:  092/2 
020  NK007    V     C        07:27:31:18 07:27:35:01 03:01:32:17 03:01:36:00 
* FROM CLIP NAME:  087B/2 
021  NK008    V     C        08:22:40:10 08:22:43:21 03:01:36:00 03:01:39:11 
* FROM CLIP NAME:  094B/3PU 
022  NK008    V     C        08:24:16:11 08:24:17:19 03:01:39:11 03:01:40:19 
* FROM CLIP NAME:  094A/2 
023  NK008    V     C        08:09:48:05 08:09:49:08 03:01:40:19 03:01:41:22 
* FROM CLIP NAME:  094B/1 
024  NK008    V     C        08:08:30:10 08:08:33:01 03:01:41:22 03:01:44:13 
* FROM CLIP NAME:  094B/1 
025  NK008    V     C        08:24:19:08 08:24:21:06 03:01:44:13 03:01:46:11 
* FROM CLIP NAME:  094A/2 
026  NK008    V     C        08:20:31:08 08:20:32:14 03:01:46:11 03:01:47:17 
* FROM CLIP NAME:  094B/2 
027  NK008    V     C        08:24:47:03 08:24:48:06 03:01:47:17 03:01:48:20 
* FROM CLIP NAME:  094A/2 
028  NK008    V     C        08:20:35:23 08:20:37:20 03:01:48:20 03:01:50:17 
* FROM CLIP NAME:  094B/2 
029  NK008    V     C        08:23:18:01 08:23:19:02 03:01:50:17 03:01:51:18 
* FROM CLIP NAME:  094B/3PU 
030  NK008    V     C        08:27:55:08 08:27:57:03 03:01:51:18 03:01:53:13 
* FROM CLIP NAME:  094A/3 
031  NK008    V     C        08:23:44:02 08:23:45:03 03:01:53:13 03:01:54:14 
* FROM CLIP NAME:  094B/3PU 
032  NK008    V     C        08:27:59:10 08:28:03:16 03:01:54:14 03:01:58:20 
* FROM CLIP NAME:  094A/3 
033  NK006    V     C        06:00:11:23 06:00:30:19 03:01:58:20 03:02:17:16 
* FROM CLIP NAME:  077/1 
034  NK006    V     C        06:08:21:03 06:08:24:17 03:02:17:16 03:02:21:05 
* FROM CLIP NAME:  078A/1 
035  NK006    V     C        06:15:30:04 06:15:35:15 03:02:21:05 03:02:26:16 
* FROM CLIP NAME:  078B/3 
036  NK006    V     C        06:22:57:13 06:23:01:21 03:02:26:16 03:02:30:24 
* FROM CLIP NAME:  078A/3 
037  NK006    V     C        06:04:25:00 06:04:28:03 03:02:30:24 03:02:34:02 
* FROM CLIP NAME:  077/3 
038  NK006    V     C        06:10:21:15 06:10:24:02 03:02:34:02 03:02:36:14 
* FROM CLIP NAME:  078A/2RO 
039  NK006    V     C        06:04:32:10 06:04:36:14 03:02:36:14 03:02:40:18 
* FROM CLIP NAME:  077/3 
040  NK006    V     C        06:16:02:14 06:16:05:00 03:02:40:18 03:02:43:04 
* FROM CLIP NAME:  078B/3 
041  NK006    V     C        06:04:40:18 06:04:42:01 03:02:43:04 03:02:44:12 
* FROM CLIP NAME:  077/3 
042  NK006    V     C        06:09:12:18 06:09:14:17 03:02:44:12 03:02:46:11 
* FROM CLIP NAME:  078A/1 
043  NK006    V     C        06:26:07:10 06:26:09:15 03:02:46:11 03:02:48:16 
* FROM CLIP NAME:  079A/3 
044  NK006    V     C        06:09:19:10 06:09:22:23 03:02:48:16 03:02:52:04 
* FROM CLIP NAME:  078A/1 
045  NK006    V     C        06:17:19:03 06:17:19:18 03:02:52:04 03:02:52:19 
* FROM CLIP NAME:  079B/1 
046  NK006    V     C        06:04:54:17 06:04:55:07 03:02:52:19 03:02:53:09 
* FROM CLIP NAME:  077/3 
047  NK006    V     C        06:26:37:07 06:26:37:20 03:02:53:09 03:02:53:22 
* FROM CLIP NAME:  079A/3 
048  NK007    V     C        07:04:50:07 07:04:51:11 03:02:53:22 03:02:55:01 
* FROM CLIP NAME:  084/3 
049  NK006    V     C        06:26:42:08 06:26:44:00 03:02:55:01 03:02:56:18 
* FROM CLIP NAME:  079A/3 
050  NK007    V     C        07:03:47:03 07:03:48:16 03:02:56:18 03:02:58:06 
* FROM CLIP NAME:  084/1 
051  NK006    V     C        06:26:44:19 06:26:46:20 03:02:58:06 03:03:00:07 
* FROM CLIP NAME:  079A/3 
052  NK007    V     C        07:05:00:16 07:05:01:18 03:03:00:07 03:03:01:09 
* FROM CLIP NAME:  084/3 
053  NK006    V     C        06:16:30:08 06:16:31:17 03:03:01:09 03:03:02:18 
* FROM CLIP NAME:  078B/3 
054  NK006    V     C        06:25:57:05 06:25:58:01 03:03:02:18 03:03:03:14 
* FROM CLIP NAME:  079A/2AFG 
055  NK007    V     C        07:05:03:16 07:05:04:11 03:03:03:14 03:03:04:09 
* FROM CLIP NAME:  084/3 
056  NK006    V     C        06:25:59:00 06:25:59:16 03:03:04:09 03:03:05:00 
* FROM CLIP NAME:  079A/2AFG 
057  NK007    V     C        07:05:07:14 07:05:08:05 03:03:05:00 03:03:05:16 
* FROM CLIP NAME:  084/3 
058  NK006    V     C        06:26:49:12 06:26:50:05 03:03:05:16 03:03:06:09 
* FROM CLIP NAME:  079A/3 
059  NK007    V     C        07:02:18:00 07:02:18:12 03:03:06:09 03:03:06:21 
* FROM CLIP NAME:  083/2 
060  NK006    V     C        06:26:50:11 06:26:52:02 03:03:06:21 03:03:08:12 
* FROM CLIP NAME:  079A/3 
061  NK007    V     C        07:01:39:04 07:01:41:05 03:03:08:12 03:03:10:13 
* FROM CLIP NAME:  083/1 
062  NK006    V     C        06:30:17:07 06:30:18:11 03:03:10:13 03:03:11:17 
* FROM CLIP NAME:  082A/1 
063  NK006    V     C        06:26:52:18 06:26:54:06 03:03:11:17 03:03:13:05 
* FROM CLIP NAME:  079A/3 
064  NK007    V     C        07:01:41:13 07:01:43:10 03:03:13:05 03:03:15:02 
* FROM CLIP NAME:  083/1 
065  NK006    V     C        06:27:23:08 06:27:25:08 03:03:15:02 03:03:17:02 
* FROM CLIP NAME:  080A/1 
066  NK006    V     C        06:27:51:15 06:27:52:19 03:03:17:02 03:03:18:06 
* FROM CLIP NAME:  081A/1 
067  NK007    V     C        07:01:43:18 07:01:45:03 03:03:18:06 03:03:19:16 
* FROM CLIP NAME:  083/1 
068  NK007    V     C        07:00:09:06 07:00:10:11 03:03:19:16 03:03:20:21 
* FROM CLIP NAME:  082A/2 
069  NK006    V     C        06:27:53:21 06:27:56:19 03:03:20:21 03:03:23:19 
* FROM CLIP NAME:  081A/1 
070  NK006    V     C        06:20:49:22 06:20:54:01 03:03:23:19 03:03:27:23 
* FROM CLIP NAME:  081B/1RO 
071  NK007    V     C        07:02:30:15 07:02:33:04 03:03:27:23 03:03:30:12 
* FROM CLIP NAME:  083/2 
072  NK006    V     C        06:30:23:18 06:30:30:17 03:03:30:12 03:03:37:11 
* FROM CLIP NAME:  082A/1 
073  NK007    V     C        07:02:35:05 07:02:36:10 03:03:37:11 03:03:38:16 
* FROM CLIP NAME:  083/2 
074  NK006    V     C        06:30:35:07 06:30:38:07 03:03:38:16 03:03:41:16 
* FROM CLIP NAME:  082A/1 
075  NK007    V     C        07:02:01:08 07:02:04:02 03:03:41:16 03:03:44:10 
* FROM CLIP NAME:  083/1 
076  NK006    V     C        06:30:42:10 06:30:51:16 03:03:44:10 03:03:53:16 
* FROM CLIP NAME:  082A/1 
077  NK006    V     C        06:28:42:19 06:28:53:15 03:03:53:16 03:04:04:12 
* FROM CLIP NAME:  081A/1 
078  NK014    V     C        14:27:32:21 14:27:52:21 03:04:04:12 03:04:24:12 
* FROM CLIP NAME:  192/2 
079  NK025    V     C        05:33:57:02 05:34:06:17 03:04:24:12 03:04:34:02 
* FROM CLIP NAME:  376/2 
080  NK025    V     C        05:34:51:06 05:34:57:16 03:04:34:02 03:04:40:12 
* FROM CLIP NAME:  377/1 
081  NK005    V     C        05:29:12:08 05:29:17:02 03:04:40:12 03:04:45:06 
* FROM CLIP NAME:  075/7 
082  NK005    V     C        05:32:36:18 05:32:38:21 03:04:45:06 03:04:47:09 
* FROM CLIP NAME:  076/1 
083  NK005    V     C        05:31:29:11 05:31:31:21 03:04:47:09 03:04:49:19 
* FROM CLIP NAME:  075/9 
084  NK005    V     C        05:32:42:07 05:32:43:22 03:04:49:19 03:04:51:09 
* FROM CLIP NAME:  076/1 
085  NK005    V     C        05:31:33:11 05:31:41:12 03:04:51:09 03:04:59:10 
* FROM CLIP NAME:  075/9 
086  NK005    V     C        05:34:15:11 05:34:19:16 03:04:59:10 03:05:03:15 
* FROM CLIP NAME:  076/2 
087  NK005    V     C        05:31:55:15 05:32:07:12 03:05:03:15 03:05:15:12 
* FROM CLIP NAME:  075/9 
088  NK010    V     C        10:07:00:04 10:07:10:08 03:05:15:12 03:05:25:16 
* FROM CLIP NAME:  115/2 
089  NK010    V     C        10:10:43:17 10:10:47:08 03:05:25:16 03:05:29:07 
* FROM CLIP NAME:  116/1 
090  NK010    V     C        10:07:23:15 10:07:29:05 03:05:29:07 03:05:34:22 
* FROM CLIP NAME:  115/2 
091  NK010    V     C        10:12:09:17 10:12:12:01 03:05:34:22 03:05:37:06 
* FROM CLIP NAME:  116/2 
092  NK010    V     C        10:16:02:06 10:16:05:01 03:05:37:06 03:05:40:01 
* FROM CLIP NAME:  117/2 
093  NK010    V     C        10:11:07:01 10:11:10:14 03:05:40:01 03:05:43:14 
* FROM CLIP NAME:  116/1 
094  NK010    V     C        10:16:11:24 10:16:14:22 03:05:43:14 03:05:46:12 
* FROM CLIP NAME:  117/2 
095  NK010    V     C        10:12:35:12 10:12:44:18 03:05:46:12 03:05:55:18 
* FROM CLIP NAME:  116/2 
096  NK010    V     C        10:16:26:20 10:16:33:11 03:05:55:18 03:06:02:09 
* FROM CLIP NAME:  117/2 
097  NK048    V     C        08:19:02:18 08:19:08:13 03:06:02:09 03:06:08:04 
* FROM CLIP NAME:  679/4 
098  NK048    V     C        08:24:01:12 08:24:02:18 03:06:08:04 03:06:09:10 
* FROM CLIP NAME:  682/1  (25FPS) 
099  NK048    V     C        08:27:22:04 08:27:27:08 03:06:09:10 03:06:14:14 
* FROM CLIP NAME:  685/3 (25FPS) 
100  NK048    V     C        08:21:30:12 08:21:32:10 03:06:14:14 03:06:16:12 
* FROM CLIP NAME:  680/6 
101  NK048    V     C        08:28:51:15 08:28:54:04 03:06:16:12 03:06:19:01 
* FROM CLIP NAME:  686/1(25FPS) 
102  NK048    V     C        08:20:11:09 08:20:14:12 03:06:19:01 03:06:22:04 
* FROM CLIP NAME:  680/3 
103  NK048    V     C        08:29:10:18 08:29:13:03 03:06:22:04 03:06:24:14 
* FROM CLIP NAME:  686/1(25FPS) 
104  NK048    V     C        08:20:14:17 08:20:17:05 03:06:24:14 03:06:27:02 
* FROM CLIP NAME:  680/3 
105  NK048    V     C        08:29:15:22 08:29:19:00 03:06:27:02 03:06:30:05 
* FROM CLIP NAME:  686/1(25FPS) 
106  NK048    V     C        08:20:21:16 08:20:23:14 03:06:30:05 03:06:32:03 
* FROM CLIP NAME:  680/3 
107  NK048    V     C        08:29:19:08 08:29:20:14 03:06:32:03 03:06:33:09 
* FROM CLIP NAME:  686/1(25FPS) 
108  NK048    V     C        08:20:23:14 08:20:24:02 03:06:33:09 03:06:33:22 
* FROM CLIP NAME:  680/3 
109  NK048    V     C        08:23:19:12 08:23:23:02 03:06:33:22 03:06:37:12 
* FROM CLIP NAME:  681/3  (25FPS) 
110  NK054    V     C        14:29:35:15 14:29:38:22 03:06:37:12 03:06:40:19 
* FROM CLIP NAME:  NK DIGI.09 
111  NK022    V     C        02:36:24:15 02:36:32:02 03:06:43:02 03:06:50:14 
* FROM CLIP NAME:  331/1A 
112  NK023    V     C        03:06:02:08 03:06:05:14 03:06:50:14 03:06:53:20 
* FROM CLIP NAME:  334/4 
113  NK022    V     C        02:40:55:22 02:40:58:10 03:06:53:20 03:06:56:08 
* FROM CLIP NAME:  332/4 
114  NK023    V     C        03:06:08:17 03:06:11:14 03:06:56:08 03:06:59:05 
* FROM CLIP NAME:  334/4 
115  NK022    V     C        02:39:35:10 02:39:36:13 03:06:59:05 03:07:00:08 
* FROM CLIP NAME:  332/3 
116  NK023    V     C        03:06:12:04 03:06:13:11 03:07:00:08 03:07:01:15 
* FROM CLIP NAME:  334/4 
117  NK022    V     C        02:39:37:09 02:39:38:13 03:07:01:15 03:07:02:19 
* FROM CLIP NAME:  332/3 
118  NK023    V     C        03:06:17:11 03:06:19:17 03:07:02:19 03:07:05:00 
* FROM CLIP NAME:  334/4 
119  NK022    V     C        02:44:54:00 02:44:57:21 03:07:05:00 03:07:08:21 
* FROM CLIP NAME:  333/2 
120  NK023    V     C        03:06:26:16 03:06:30:01 03:07:08:21 03:07:12:06 
* FROM CLIP NAME:  334/4 
121  NK022    V     C        02:42:52:05 02:42:55:10 03:07:12:06 03:07:15:11 
* FROM CLIP NAME:  333/1 
122  NK023    V     C        03:06:30:16 03:06:32:22 03:07:15:11 03:07:17:17 
* FROM CLIP NAME:  334/4 
123  NK023    V     C        03:00:10:10 03:00:14:19 03:07:17:17 03:07:22:01 
* FROM CLIP NAME:  333/3PU 
124  NK022    V     C        02:36:58:22 02:37:05:24 03:07:22:01 03:07:29:03 
* FROM CLIP NAME:  331/1B 
125  NK023    V     C        03:10:27:12 03:10:30:21 03:07:29:03 03:07:32:12 
* FROM CLIP NAME:  334/6PU 
126  NK022    V     C        02:46:01:00 02:46:02:06 03:07:32:12 03:07:33:18 
* FROM CLIP NAME:  333/2 
127  NK022    V     C        02:37:11:19 02:37:16:12 03:07:33:18 03:07:38:11 
* FROM CLIP NAME:  331/1B 
128  NK023    V     C        03:00:41:12 03:00:44:01 03:07:38:11 03:07:41:00 
* FROM CLIP NAME:  333/3PU 
129  NK023    V     C        03:09:26:13 03:09:28:03 03:07:41:00 03:07:42:15 
* FROM CLIP NAME:  334/5 
130  NK023    V     C        03:02:14:03 03:02:15:23 03:07:42:15 03:07:44:10 
* FROM CLIP NAME:  333/4PU 
131  NK023    V     C        03:07:07:05 03:07:11:22 03:07:44:10 03:07:49:02 
* FROM CLIP NAME:  334/4 
132  NK023    V     C        03:00:58:06 03:01:02:12 03:07:49:02 03:07:53:08 
* FROM CLIP NAME:  333/3PU 
133  NK023    V     C        03:05:23:03 03:05:26:11 03:07:53:08 03:07:56:16 
* FROM CLIP NAME:  334/2 
134  NK023    V     C        03:02:35:15 03:02:36:17 03:07:56:16 03:07:57:18 
* FROM CLIP NAME:  333/4PU 
135  NK023    V     C        03:09:49:20 03:09:50:20 03:07:57:18 03:07:58:18 
* FROM CLIP NAME:  334/5 
136  NK023    V     C        03:02:39:05 03:02:40:09 03:07:58:18 03:07:59:22 
* FROM CLIP NAME:  333/4PU 
137  NK023    V     C        03:11:13:05 03:11:14:19 03:07:59:22 03:08:01:11 
* FROM CLIP NAME:  334/6PU 
138  NK022    V     C        02:44:07:02 02:44:08:24 03:08:01:11 03:08:03:08 
* FROM CLIP NAME:  333/1 
139  NK023    V     C        03:11:22:04 03:11:24:16 03:08:03:08 03:08:05:20 
* FROM CLIP NAME:  334/6PU 
140  NK015    V     C        15:00:05:02 15:00:20:15 03:08:05:20 03:08:21:08 
* FROM CLIP NAME:  194/1 
141  NK015    V     C        15:04:17:00 15:04:24:12 03:08:21:08 03:08:28:20 
* FROM CLIP NAME:  196/3 
142  NK025    V     C        05:43:52:04 05:44:00:21 03:08:28:20 03:08:37:12 
* FROM CLIP NAME:  378/9 
143  NK047    V     C        07:08:30:04 07:08:35:04 03:08:37:12 03:08:42:12 
* FROM CLIP NAME:  653/3 
144  NK047    V     C        07:08:39:23 07:08:40:19 03:08:42:12 03:08:43:08 
* FROM CLIP NAME:  653/3 
145  NK047    V     C        07:08:02:02 07:08:05:01 03:08:43:08 03:08:46:07 
* FROM CLIP NAME:  653/2 
146  NK047    V     C        07:08:48:17 07:08:50:21 03:08:46:07 03:08:48:11 
* FROM CLIP NAME:  653/3 
147  NK047    V     C        07:08:56:24 07:08:59:19 03:08:48:11 03:08:51:06 
* FROM CLIP NAME:  653/3 
148  NK047    V     C        07:12:18:08 07:12:37:15 03:08:51:06 03:09:10:13 
* FROM CLIP NAME:  654/4 
149  NK047    V     C        07:19:46:05 07:19:50:01 03:09:10:13 03:09:14:09 
* FROM CLIP NAME:  657/2 
150  NK047    V     C        07:10:02:23 07:10:04:17 03:09:14:09 03:09:16:03 
* FROM CLIP NAME:  654/2 
151  NK047    V     C        07:18:40:10 07:18:42:00 03:09:16:03 03:09:17:18 
* FROM CLIP NAME:  656/4 
152  NK047    V     C        07:23:36:01 07:23:38:16 03:09:17:18 03:09:20:08 
* FROM CLIP NAME:  658/5 
153  NK047    V     C        07:10:07:07 07:10:09:18 03:09:20:08 03:09:22:19 
* FROM CLIP NAME:  654/2 
154  NK047    V     C        07:23:42:14 07:23:46:20 03:09:22:19 03:09:27:00 
* FROM CLIP NAME:  658/5 
155  NK047    V     C        07:10:09:18 07:10:16:24 03:09:27:00 03:09:34:06 
* FROM CLIP NAME:  654/2 
156  NK047    V     C        07:19:35:05 07:19:37:00 03:09:34:06 03:09:36:01 
* FROM CLIP NAME:  657/1 
157  NK047    V     C        07:10:22:10 07:10:30:16 03:09:36:01 03:09:44:07 
* FROM CLIP NAME:  654/2 
158  NK047    V     C        07:15:59:12 07:16:03:02 03:09:44:07 03:09:47:22 
* FROM CLIP NAME:  655/2 
159  NK037    V     C        17:22:14:19 17:22:17:05 03:09:47:22 03:09:50:08 
* FROM CLIP NAME:  540/2 
160  NK037    V     C        17:09:16:10 17:09:19:06 03:09:50:08 03:09:53:04 
* FROM CLIP NAME:  537/1 
161  NK037    V     C        17:22:22:20 17:22:25:16 03:09:53:04 03:09:56:00 
* FROM CLIP NAME:  540/2 
162  NK037    V     C        17:15:05:07 17:15:08:13 03:09:56:00 03:09:59:06 
* FROM CLIP NAME:  537/4 
163  NK037    V     C        17:11:21:14 17:11:23:02 03:09:59:06 03:10:00:19 
* FROM CLIP NAME:  537/2 
164  NK037    V     C        17:22:32:03 17:22:34:12 03:10:00:19 03:10:03:03 
* FROM CLIP NAME:  540/2 
165  NK037    V     C        17:15:09:24 17:15:11:08 03:10:03:03 03:10:04:12 
* FROM CLIP NAME:  537/4 
166  NK037    V     C        17:02:30:16 17:02:33:03 03:10:04:12 03:10:06:24 
* FROM CLIP NAME:  536/2 
167  NK037    V     C        17:22:35:10 17:22:38:03 03:10:06:24 03:10:09:17 
* FROM CLIP NAME:  540/2 
168  NK037    V     C        17:02:37:12 17:02:41:06 03:10:09:17 03:10:13:11 
* FROM CLIP NAME:  536/2 
169  NK037    V     C        17:15:19:12 17:15:21:17 03:10:13:11 03:10:15:16 
* FROM CLIP NAME:  537/4 
170  NK037    V     C        17:22:43:12 17:22:44:22 03:10:15:16 03:10:17:01 
* FROM CLIP NAME:  540/2 
171  NK037    V     C        17:15:22:08 17:15:24:16 03:10:17:01 03:10:19:09 
* FROM CLIP NAME:  537/4 
172  NK037    V     C        17:22:48:23 17:22:50:07 03:10:19:09 03:10:20:18 
* FROM CLIP NAME:  540/2 
173  NK037    V     C        17:02:47:16 17:02:53:07 03:10:20:18 03:10:26:09 
* FROM CLIP NAME:  536/2 
174  NK037    V     C        17:22:57:23 17:23:00:17 03:10:26:09 03:10:29:03 
* FROM CLIP NAME:  540/2 
175  NK037    V     C        17:11:36:12 17:11:38:10 03:10:29:03 03:10:31:01 
* FROM CLIP NAME:  537/2 
176  NK037    V     C        17:25:48:08 17:25:50:08 03:10:31:01 03:10:33:01 
* FROM CLIP NAME:  540/4 
177  NK037    V     C        17:15:39:05 17:15:41:07 03:10:33:01 03:10:35:03 
* FROM CLIP NAME:  537/4 
178  NK037    V     C        17:25:51:07 17:25:52:13 03:10:35:03 03:10:36:09 
* FROM CLIP NAME:  540/4 
179  NK037    V     C        17:11:53:08 17:11:55:13 03:10:36:09 03:10:38:14 
* FROM CLIP NAME:  537/2 
180  NK037    V     C        17:15:42:14 17:15:46:10 03:10:38:14 03:10:42:10 
* FROM CLIP NAME:  537/4 
181  NK057    V     C        16:05:46:23 16:05:48:19 03:10:42:10 03:10:44:06 
* FROM CLIP NAME:  RESHOOT 
182  NK037    V     C        17:25:59:08 17:26:01:12 03:10:44:06 03:10:46:10 
* FROM CLIP NAME:  540/4 
183  NK037    V     C        17:12:03:23 17:12:05:22 03:10:46:10 03:10:48:09 
* FROM CLIP NAME:  537/2 
184  NK037    V     C        17:23:15:19 17:23:17:05 03:10:48:09 03:10:49:20 
* FROM CLIP NAME:  540/2 
185  NK037    V     C        17:15:51:11 17:15:53:15 03:10:49:20 03:10:51:24 
* FROM CLIP NAME:  537/4 
186  NK057    V     C        16:04:42:20 16:04:44:13 03:10:51:24 03:10:53:17 
* FROM CLIP NAME:  RESHOOT 
187  NK037    V     C        17:12:05:20 17:12:08:10 03:10:53:17 03:10:56:07 
* FROM CLIP NAME:  537/2 
188  NK017    V     C        17:34:14:20 17:34:23:18 03:10:56:07 03:11:05:05 
* FROM CLIP NAME:  229/2 
189  NK017    V     C        17:36:12:19 17:36:14:00 03:11:05:05 03:11:06:11 
* FROM CLIP NAME:  231/1 
190  NK017    V     C        17:34:25:08 17:34:27:13 03:11:06:11 03:11:08:16 
* FROM CLIP NAME:  229/2 
191  NK017    V     C        17:36:18:02 17:36:21:01 03:11:08:16 03:11:11:15 
* FROM CLIP NAME:  231/1 
192  NK017    V     C        17:35:12:21 17:35:14:09 03:11:11:15 03:11:13:03 
* FROM CLIP NAME:  230/2 
193  NK012    V     C        12:18:52:06 12:18:56:05 03:11:13:03 03:11:17:02 
* FROM CLIP NAME:  154/3 
194  NK012    V     C        12:16:26:09 12:16:30:10 03:11:17:02 03:11:21:03 
* FROM CLIP NAME:  153/3 
195  NK012    V     C        12:17:21:05 12:17:22:17 03:11:21:03 03:11:22:15 
* FROM CLIP NAME:  154/1 
196  NK012    V     C        12:20:50:08 12:20:51:15 03:11:22:15 03:11:23:22 
* FROM CLIP NAME:  155/2 
197  NK014    V     C        14:00:17:13 14:00:19:20 03:11:23:22 03:11:26:04 
* FROM CLIP NAME:  176/2 
198  NK014    V     C        14:01:01:04 14:01:04:03 03:11:26:04 03:11:29:03 
* FROM CLIP NAME:  177/1 
199  NK014    V     C        14:04:03:12 14:04:04:24 03:11:29:03 03:11:30:15 
* FROM CLIP NAME:  179/2 
200  NK014    V     C        14:02:26:09 14:02:27:01 03:11:30:15 03:11:31:07 
* FROM CLIP NAME:  178/3 
201  NK014    V     C        14:05:10:20 14:05:11:11 03:11:31:07 03:11:31:23 
* FROM CLIP NAME:  179/4 
202  NK014    V     C        14:02:02:15 14:02:03:13 03:11:31:23 03:11:32:21 
* FROM CLIP NAME:  178/2 
203  NK014    V     C        14:03:45:14 14:03:46:07 03:11:32:21 03:11:33:14 
* FROM CLIP NAME:  179/1 
204  NK014    V     C        14:03:22:22 14:03:25:07 03:11:33:14 03:11:35:24 
* FROM CLIP NAME:  178/6PU 
205  NK012    V     C        12:22:40:00 12:22:52:03 03:11:35:24 03:11:48:02 
* FROM CLIP NAME:  157/2A 
206  NK012    V     C        12:25:29:03 12:25:32:00 03:11:48:02 03:11:50:24 
* FROM CLIP NAME:  158/2 
207  NK012    V     C        12:31:05:24 12:31:07:07 03:11:50:24 03:11:52:07 
* FROM CLIP NAME:  159/3 
208  NK012    V     C        12:25:36:13 12:25:37:10 03:11:52:07 03:11:53:04 
* FROM CLIP NAME:  158/2 
209  NK012    V     C        12:31:10:11 12:31:11:22 03:11:53:04 03:11:54:15 
* FROM CLIP NAME:  159/3 
210  NK012    V     C        12:27:47:11 12:27:48:19 03:11:54:15 03:11:55:23 
* FROM CLIP NAME:  158/4 
211  NK012    V     C        12:30:06:14 12:30:09:00 03:11:55:23 03:11:58:09 
* FROM CLIP NAME:  159/2 
212  NK015    V     C        15:08:11:07 15:08:12:24 03:12:13:19 03:12:15:11 
* FROM CLIP NAME:  198/3 
213  NK015    V     C        15:18:22:16 15:18:24:17 03:12:15:11 03:12:17:12 
* FROM CLIP NAME:  202/2 
214  NK015    V     C        15:17:40:14 15:17:43:04 03:12:17:12 03:12:20:02 
* FROM CLIP NAME:  201/2 
215  NK012    V     C        12:41:30:23 12:41:33:09 03:12:20:02 03:12:22:13 
* FROM CLIP NAME:  167/1 
216  NK015    V     C        15:07:11:19 15:07:15:03 03:12:22:13 03:12:25:22 
* FROM CLIP NAME:  198/2 
217  NK015    V     C        15:14:51:15 15:14:52:11 03:12:25:22 03:12:26:18 
* FROM CLIP NAME:  200/2 
218  NK012    V     C        12:30:33:24 12:30:35:06 03:12:26:18 03:12:28:00 
* FROM CLIP NAME:  159/2 
219  NK012    V     C        12:28:03:15 12:28:04:18 03:12:28:00 03:12:29:03 
* FROM CLIP NAME:  158/4 
220  NK012    V     C        12:41:38:24 12:41:40:17 03:12:33:15 03:12:35:08 
* FROM CLIP NAME:  167/1 
221  NK012    V     C        12:36:36:23 12:36:38:24 03:12:35:08 03:12:37:09 
* FROM CLIP NAME:  163/1 
222  NK012    V     C        12:35:49:09 12:35:51:20 03:12:37:09 03:12:39:20 
* FROM CLIP NAME:  162/4PU 
223  NK012    V     C        12:43:09:00 12:43:10:00 03:12:39:20 03:12:40:20 
* FROM CLIP NAME:  167/5 
224  NK014    V     C        14:03:33:11 14:03:35:09 03:12:40:20 03:12:42:18 
* FROM CLIP NAME:  179/1 
225  NK014    V     C        14:02:08:20 14:02:09:23 03:12:42:18 03:12:43:21 
* FROM CLIP NAME:  178/2 
226  NK015    V     C        15:23:50:22 15:23:52:15 03:12:43:21 03:12:45:14 
* FROM CLIP NAME:  209/2A 
227  NK015    V     C        15:22:41:23 15:22:42:17 03:12:45:14 03:12:46:08 
* FROM CLIP NAME:  208/1 
228  NK015    V     C        15:24:51:10 15:24:52:08 03:12:51:05 03:12:52:03 
* FROM CLIP NAME:  210/1 
229  NK015    V     C        15:26:21:12 15:26:22:03 03:12:52:03 03:12:52:19 
* FROM CLIP NAME:  210/4 
230  NK015    V     C        15:25:12:16 15:25:13:08 03:12:52:19 03:12:53:11 
* FROM CLIP NAME:  210/1 
231  NK015    V     C        15:24:03:14 15:24:04:08 03:12:54:06 03:12:55:00 
* FROM CLIP NAME:  209/2B 
232  NK015    V     C        15:24:29:01 15:24:31:04 03:12:56:20 03:12:58:23 
* FROM CLIP NAME:  210/1 
233  NK015    V     C        15:25:17:04 15:25:17:24 03:13:02:02 03:13:02:22 
* FROM CLIP NAME:  210/1 
234  NK015    V     C        15:25:52:20 15:25:53:21 03:13:02:22 03:13:03:23 
* FROM CLIP NAME:  210/3 
235  NK012    V     C        12:43:41:11 12:43:45:11 03:13:03:23 03:13:07:23 
* FROM CLIP NAME:  168/1 
236  NK013    V     C        13:00:25:04 13:00:26:08 03:13:07:23 03:13:09:02 
* FROM CLIP NAME:  168/5 
237  NK012    V     C        12:43:58:21 12:44:02:16 03:13:09:02 03:13:12:22 
* FROM CLIP NAME:  168/1 
238  NK013    V     C        13:13:26:11 13:13:28:04 03:13:12:22 03:13:14:15 
* FROM CLIP NAME:  170/1 
239  NK012    V     C        12:45:45:23 12:45:47:07 03:13:14:15 03:13:15:24 
* FROM CLIP NAME:  168/3AFG 
240  NK013    V     C        13:03:19:23 13:03:24:02 03:13:15:24 03:13:20:03 
* FROM CLIP NAME:  168/6 
241  NK013    V     C        13:15:12:23 13:15:15:16 03:13:20:03 03:13:22:21 
* FROM CLIP NAME:  170/3PU 
242  NK013    V     C        13:06:28:01 13:06:30:09 03:13:22:21 03:13:25:04 
* FROM CLIP NAME:  169/1 
243  NK013    V     C        13:15:17:12 13:15:26:23 03:13:25:04 03:13:34:15 
* FROM CLIP NAME:  170/3PU 
244  NK013    V     C        13:18:56:07 13:18:59:13 03:13:34:15 03:13:37:21 
* FROM CLIP NAME:  172/4 
245  NK013    V     C        13:14:33:08 13:14:35:03 03:13:37:21 03:13:39:16 
* FROM CLIP NAME:  170/2PU 
246  NK013    V     C        13:16:17:10 13:16:18:12 03:13:39:16 03:13:40:18 
* FROM CLIP NAME:  171/2 
247  NK013    V     C        13:03:47:00 13:03:47:12 03:13:40:18 03:13:41:05 
* FROM CLIP NAME:  168/6 
248  NK013    V     C        13:19:05:19 13:19:07:13 03:13:41:05 03:13:42:24 
* FROM CLIP NAME:  172/4 
249  NK013    V     C        13:16:40:16 13:16:44:08 03:13:42:24 03:13:46:16 
* FROM CLIP NAME:  171/2 
250  NK013    V     C        13:19:22:24 13:19:25:07 03:13:46:16 03:13:48:24 
* FROM CLIP NAME:  172/4 
251  NK012    V     C        12:47:26:13 12:47:31:22 03:13:48:24 03:13:54:08 
* FROM CLIP NAME:  168/4 
252  NK013    V     C        13:01:44:00 13:01:46:09 03:13:54:08 03:13:56:17 
* FROM CLIP NAME:  168/5 
253  NK012    V     C        12:47:34:16 12:47:35:19 03:13:56:17 03:13:57:20 
* FROM CLIP NAME:  168/4 
254  NK012    V     C        12:47:37:19 12:47:45:05 03:13:57:20 03:14:05:06 
* FROM CLIP NAME:  168/4 
255  NK013    V     C        13:24:11:22 13:24:13:23 03:14:05:06 03:14:07:07 
* FROM CLIP NAME:  173/7 
256  NK013    V     C        13:10:04:10 13:10:14:21 03:14:07:07 03:14:17:18 
* FROM CLIP NAME:  169/4PU 
257  NK003    V     C        03:05:56:13 03:05:59:15 03:14:17:18 03:14:20:20 
* FROM CLIP NAME:  040/1 
258  NK003    V     C        03:15:57:23 03:15:58:21 03:14:20:20 03:14:21:18 
* FROM CLIP NAME:  042/5 
259  NK003    V     C        03:06:02:05 03:06:06:21 03:14:21:18 03:14:26:09 
* FROM CLIP NAME:  040/1 
260  NK003    V     C        03:16:02:15 03:16:06:18 03:14:26:09 03:14:30:12 
* FROM CLIP NAME:  042/5 
261  NK003    V     C        03:08:24:06 03:08:25:23 03:14:30:12 03:14:32:04 
* FROM CLIP NAME:  041/1 
262  NK003    V     C        03:16:07:02 03:16:08:22 03:14:32:04 03:14:33:24 
* FROM CLIP NAME:  042/5 
263  NK003    V     C        03:09:49:17 03:09:55:22 03:14:33:24 03:14:40:04 
* FROM CLIP NAME:  041/2 
264  NK003    V     C        03:15:11:03 03:15:20:12 03:14:40:04 03:14:49:13 
* FROM CLIP NAME:  042/4 
265  NK003    V     C        03:08:56:06 03:08:59:09 03:14:49:13 03:14:52:16 
* FROM CLIP NAME:  041/1 
266  NK003    V     C        03:15:21:11 03:15:23:01 03:14:52:16 03:14:54:06 
* FROM CLIP NAME:  042/4 
267  NK014    V     C        14:15:22:02 14:15:33:17 03:14:54:06 03:15:05:21 
* FROM CLIP NAME:  186/3 
268  NK034    V     C        14:22:24:10 14:22:30:04 03:15:05:21 03:15:11:15 
* FROM CLIP NAME:  498/1 
269  NK034    V     C        14:22:30:04 14:22:30:04 03:15:11:15 03:15:11:15 
269  NK034    V     D    030 14:22:32:14 14:22:33:19 03:15:11:15 03:15:12:20 
* BLEND_DISSOLVE_LOG 
* FROM CLIP NAME:  498/1 
* TO CLIP NAME:  498/1 
270  NK034    V     C        14:22:33:19 14:22:33:19 03:15:12:20 03:15:12:20 
270  NK034    V     D    026 14:22:35:06 14:22:36:09 03:15:12:20 03:15:13:23 
* BLEND_DISSOLVE_LOG 
* FROM CLIP NAME:  498/1 
* TO CLIP NAME:  498/1 
271  NK034    V     C        14:22:36:09 14:22:36:09 03:15:13:23 03:15:13:23 
271  NK034    V     D    030 14:22:39:10 14:22:46:13 03:15:13:23 03:15:21:01 
* BLEND_DISSOLVE_LOG 
* FROM CLIP NAME:  498/1 
* TO CLIP NAME:  498/1 
272  NK034    V     C        14:27:33:24 14:27:36:06 03:15:21:01 03:15:23:08 
* FROM CLIP NAME:  499/3 
273  NK034    V     C        14:33:50:01 14:33:54:21 03:15:23:08 03:15:28:03 
* FROM CLIP NAME:  502/2 
274  NK034    V     C        14:27:39:16 14:27:42:12 03:15:28:03 03:15:30:24 
* FROM CLIP NAME:  499/3 
275  NK030    V     C        10:34:25:04 10:34:34:00 03:15:30:24 03:15:39:20 
* FROM CLIP NAME:  448/4 
276  NK030    V     C        10:14:24:09 10:14:26:00 03:15:39:20 03:15:41:11 
* FROM CLIP NAME:  442/3 
277  NK030    V     C        10:07:03:10 10:07:04:08 03:15:42:12 03:15:43:10 
* FROM CLIP NAME:  440/2 
278  NK030    V     C        10:05:21:13 10:05:23:23 03:15:43:10 03:15:45:20 
* FROM CLIP NAME:  439/4 
279  NK030    V     C        10:14:28:19 10:14:38:02 03:15:45:20 03:15:55:03 
* FROM CLIP NAME:  442/3 
>>> SOURCE NK003    NK003            b83c2612.021c3e8a 
>>> SOURCE NK005    NK005            b83c4032.02829ef0 
>>> SOURCE NK006    NK006            b846c68e.00cded72 
>>> SOURCE NK007    NK007            b846d5e2.0109fd4b 
>>> SOURCE NK008    NK008            b846e1d2.0138c7be 
>>> SOURCE NK010    NK010            b846fdd6.01a68be0 
>>> SOURCE NK012    NK012            b84a7dc1.0081779e 
>>> SOURCE NK013    NK013            b84a7fd6.0089a0bf 
>>> SOURCE NK014    NK014            b84a8135.008f00a8 
>>> SOURCE NK015    NK015            b84a82e7.0095a5e5 
>>> SOURCE NK017    NK017            b84a88e1.00ad0ecc 
>>> SOURCE NK022    NK022            b8624375.01dffa59 
>>> SOURCE NK023    NK023            b862493a.01f695fa 
>>> SOURCE NK025    NK025            b8652b63.00929dfc 
>>> SOURCE NK030    NK030            b86f1d2d.0015290e 
>>> SOURCE NK034    NK034            b87618a8.022fb6a7 
>>> SOURCE NK037    NK037            b8763a41.02b35c7a 
>>> SOURCE NK047    NK047            b8989f05.00bdacc5 
>>> SOURCE NK048    NK048            b89aed55.01e1ca16 
>>> SOURCE NK054    NK054            b8db89c6.01f181c8 
>>> SOURCE NK057    NK057            b9111c65.00258320 

TITLE:   NK VS DEF AKTE 3 VOOR EDL BEELD 
001  DVTP05   V     C        00:12:28:08 00:12:33:18 03:00:07:17 03:00:13:02 
* IMAGE, RESIZE 
* FROM CLIP NAME:  DV FRANKRIJK 
002  DVTP05   V     C        00:09:19:06 00:09:21:19 03:00:13:02 03:00:15:15 
* IMAGE, RESIZE 
* FROM CLIP NAME:  DV FRANKRIJK 
003  DVTP05   V     C        00:13:32:19 00:13:35:09 03:00:17:18 03:00:20:08 
* IMAGE, RESIZE 
* FROM CLIP NAME:  DV FRANKRIJK 
004  DVTP05   V     C        00:11:11:04 00:11:17:14 03:00:20:08 03:00:26:18 
* IMAGE, RESIZE 
* FROM CLIP NAME:  DV FRANKRIJK 
005  DVTP05   V     C        00:11:19:03 00:11:20:03 03:00:26:18 03:00:27:18 
* IMAGE, RESIZE 
* FROM CLIP NAME:  DV FRANKRIJK 
006  DVTP05   V     C        00:15:26:23 00:15:29:01 03:00:27:18 03:00:29:21 
* IMAGE, RESIZE 
* FROM CLIP NAME:  DV FRANKRIJK 
007  DVTP05   V     C        00:18:34:16 00:18:36:01 03:00:33:00 03:00:34:10 
* FROM CLIP NAME:  DV FRANKRIJK 
008  DVTP05   V     C        00:18:40:16 00:18:43:21 03:00:34:10 03:00:37:15 
* IMAGE, RESIZE 
* FROM CLIP NAME:  DV FRANKRIJK 
009  DVTP05   V     C        00:05:33:14 00:05:35:03 03:00:37:15 03:00:39:04 
* IMAGE, RESIZE 
* FROM CLIP NAME:  DV FRANKRIJK 
010  DVTP05   V     C        00:18:48:12 00:18:49:11 03:00:41:13 03:00:42:12 
* IMAGE, RESIZE 
* FROM CLIP NAME:  DV FRANKRIJK 
011  DVTP05   V     C        00:18:52:20 00:18:54:13 03:00:42:12 03:00:44:05 
* IMAGE, RESIZE 
* FROM CLIP NAME:  DV FRANKRIJK 
012  DVTP05   V     C        00:04:52:17 00:04:56:06 03:00:44:05 03:00:47:19 
* IMAGE, RESIZE 
* FROM CLIP NAME:  DV FRANKRIJK 
013  DVTP05   V     C        00:04:59:00 00:05:01:13 03:00:50:05 03:00:52:18 
* IMAGE, RESIZE 
* FROM CLIP NAME:  DV FRANKRIJK 
014  NK054    V     C        14:31:23:20 14:31:26:03 03:06:40:19 03:06:43:02 
* IMAGE, RESIZE 
* FROM CLIP NAME:  NK DIGI.09 
015  NK012    V     C        12:23:01:23 12:23:13:17 03:11:58:09 03:12:10:03 
* FROM CLIP NAME:  157/2C 
016  NK012    V     C        12:23:13:17 12:23:13:17 03:12:10:03 03:12:10:03 
016  NK015    V     W001 006 15:12:33:21 15:12:37:12 03:12:10:03 03:12:13:19 
* PUSH, RIGHT TO LEFT 
* FROM CLIP NAME:  157/2C 
* TO CLIP NAME:  199/2 
017  NK015    V     C        15:21:30:05 15:21:31:18 03:12:29:03 03:12:30:16 
* FROM CLIP NAME:  205/2 
018  NK015    V     C        15:21:31:18 15:21:31:18 03:12:30:16 03:12:30:16 
018  NK015    V     W001 006 15:22:22:04 15:22:23:05 03:12:30:16 03:12:31:17 
* PUSH, TOP TO BOTTOM 
* FROM CLIP NAME:  205/2 
* TO CLIP NAME:  207/2 
019  NK015    V     C        15:22:23:05 15:22:23:05 03:12:31:17 03:12:31:17 
019  NK015    V     W001 006 15:21:48:19 15:21:50:17 03:12:31:17 03:12:33:15 
* PUSH, TOP TO BOTTOM 
* FROM CLIP NAME:  207/2 
* TO CLIP NAME:  206/1 
020  NK015    V     C        15:22:47:09 15:22:49:04 03:12:46:08 03:12:48:03 
* FROM CLIP NAME:  208/1 
021  NK015    V     C        15:22:49:03 15:22:49:13 03:12:48:03 03:12:48:13 
M2   NK015          000.0                15:22:49:03 
* FROM CLIP NAME:  208/1 
* * FREEZE FRAME: 
022  NK015    V     C        15:22:55:23 15:22:56:12 03:12:48:13 03:12:49:02 
* FROM CLIP NAME:  208/1 
023  NK015    V     C        15:22:56:12 15:22:56:22 03:12:49:02 03:12:49:12 
M2   NK015          000.0                15:22:56:12 
* FROM CLIP NAME:  208/1 
* * FREEZE FRAME: 
024  NK015    V     C        15:25:01:02 15:25:02:09 03:12:49:12 03:12:50:19 
* FROM CLIP NAME:  210/1 
025  NK015    V     C        15:25:02:09 15:25:02:20 03:12:50:19 03:12:51:05 
M2   NK015          000.0                15:25:02:09 
* FROM CLIP NAME:  210/1 
* * FREEZE FRAME: 
026  NK015    V     C        15:24:01:22 15:24:02:08 03:12:53:11 03:12:53:22 
* FROM CLIP NAME:  209/2B 
027  NK015    V     C        15:24:02:08 15:24:02:17 03:12:53:22 03:12:54:06 
M2   NK015          000.0                15:24:02:08 
* FROM CLIP NAME:  209/2B 
* * FREEZE FRAME: 
028  NK015    V     C        15:24:07:20 15:24:08:07 03:12:55:00 03:12:55:12 
* FROM CLIP NAME:  209/2B 
029  NK015    V     C        15:24:08:07 15:24:08:18 03:12:55:12 03:12:55:23 
M2   NK015          000.0                15:24:08:07 
* FROM CLIP NAME:  209/2B 
* * FREEZE FRAME: 
030  NK015    V     C        15:24:11:13 15:24:12:01 03:12:55:23 03:12:56:11 
* FROM CLIP NAME:  209/2B 
031  NK015    V     C        15:24:12:01 15:24:12:10 03:12:56:11 03:12:56:20 
M2   NK015          000.0                15:24:12:01 
* FROM CLIP NAME:  209/2B 
* * FREEZE FRAME: 
032  NK015    V     C        15:25:04:23 15:25:05:18 03:12:58:23 03:12:59:18 
* FROM CLIP NAME:  210/1 
033  NK015    V     C        15:25:05:18 15:25:06:01 03:12:59:18 03:13:00:01 
M2   NK015          000.0                15:25:05:18 
* FROM CLIP NAME:  210/1 
* * FREEZE FRAME: 
034  NK015    V     C        15:25:06:01 15:25:06:11 03:13:00:01 03:13:00:11 
* FROM CLIP NAME:  210/1 
035  NK015    V     C        15:25:06:11 15:25:06:19 03:13:00:11 03:13:00:19 
M2   NK015          000.0                15:25:06:11 
* FROM CLIP NAME:  210/1 
* * FREEZE FRAME: 
036  NK015    V     C        15:25:15:16 15:25:16:12 03:13:00:19 03:13:01:15 
* FROM CLIP NAME:  210/1 
037  NK015    V     C        15:25:16:12 15:25:16:24 03:13:01:15 03:13:02:02 
M2   NK015          000.0                15:25:16:12 
* FROM CLIP NAME:  210/1 
* * FREEZE FRAME: 
038  NK030    V     C        10:26:43:13 10:26:44:14 03:15:41:11 03:15:42:12 
M2   NK030          050.0                10:26:43:13 
* FROM CLIP NAME:  445/5 
>>> SOURCE DVTP05   DVTP05           b917c59f.00104f64 
>>> SOURCE NK012    NK012            b84a7dc1.0081779e 
>>> SOURCE NK015    NK015            b84a82e7.0095a5e5 
>>> SOURCE NK030    NK030            b86f1d2d.0015290e 
>>> SOURCE NK054    NK054            b8db89c6.01f181c8 

TITLE:   NK VS DEF AKTE 1 VOOR EDL BEELD 
001     AX    V     C        00:00:00:00 00:00:00:01 01:00:00:00 01:00:00:01 
* FROM CLIP NAME:  ASDF.08 
002     AX    V     C        00:00:00:01 00:00:19:06 01:00:07:17 01:00:26:22 
* EFF_BLEND_GRAPHIC 
* FROM CLIP NAME:  SADF 
003     AX    V     C        00:00:00:01 00:00:03:24 01:00:27:14 01:00:31:12 
* EFF_BLEND_GRAPHIC 
* FROM CLIP NAME:  SADF.01 
004     AX    V     C        00:00:00:00 00:00:03:20 01:00:32:05 01:00:36:00 
* EFF_BLEND_GRAPHIC 
* FROM CLIP NAME:  SADF.03 
005     AX    V     C        00:00:00:00 00:00:03:19 01:00:36:16 01:00:40:10 
* EFF_BLEND_GRAPHIC 
* FROM CLIP NAME:  SADF.04 
006     AX    V     C        00:00:00:00 00:00:00:10 01:01:03:03 01:01:03:13 
* EFF_BLEND_GRAPHIC 
* FROM CLIP NAME:  NK TITLE.01 
007     AX    V     C        00:00:00:00 00:00:01:19 01:01:03:13 01:01:05:07 
* EFF_BLEND_GRAPHIC 
* FROM CLIP NAME:  NK TITLE 
008     AX    V     C        00:00:00:00 00:00:00:05 01:01:08:17 01:01:08:22 
* EFF_BLEND_GRAPHIC 
* FROM CLIP NAME:  NK TITLE.04 
009     AX    V     C        00:00:00:00 00:00:01:20 01:01:08:22 01:01:10:17 
* EFF_BLEND_GRAPHIC 
* FROM CLIP NAME:  NK TITLE.03 
010     AX    V     C        00:00:00:00 00:00:00:11 01:01:13:16 01:01:14:02 
* EFF_BLEND_GRAPHIC 
* FROM CLIP NAME:  NK TITLE.01 
011     AX    V     C        00:00:00:00 00:00:00:07 01:01:15:22 01:01:16:04 
* EFF_BLEND_GRAPHIC 
* FROM CLIP NAME:  NK TITLE.01 
012     AX    V     C        00:00:00:00 00:00:00:05 01:01:16:12 01:01:16:17 
* EFF_BLEND_GRAPHIC 
* FROM CLIP NAME:  NK TITLE.01 
013     AX    V     C        00:00:00:00 00:00:03:10 01:01:16:17 01:01:20:02 
* EFF_BLEND_GRAPHIC 
* FROM CLIP NAME:  NK TITLE.01 
014     AX    V     C        00:00:00:00 00:00:01:18 01:01:21:16 01:01:23:09 
* EFF_BLEND_GRAPHIC 
* FROM CLIP NAME:  NK TITLE.16 
015     AX    V     C        00:00:00:00 00:00:01:17 01:01:24:08 01:01:26:00 
* EFF_BLEND_GRAPHIC 
* FROM CLIP NAME:  NK TITLE.15 
016     AX    V     C        00:00:00:00 00:00:01:14 01:01:28:20 01:01:30:09 
* EFF_BLEND_GRAPHIC 
* FROM CLIP NAME:  NK TITLE.02 
017     AX    V     C        00:00:00:00 00:00:01:14 01:01:30:17 01:01:32:06 
* EFF_BLEND_GRAPHIC 
* FROM CLIP NAME:  NK TITLE.05 
018     AX    V     C        00:00:00:00 00:00:01:11 01:01:32:14 01:01:34:00 
* EFF_BLEND_GRAPHIC 
* FROM CLIP NAME:  NK TITLE.06 
019     AX    V     C        00:00:00:00 00:00:01:14 01:01:34:08 01:01:35:22 
* EFF_BLEND_GRAPHIC 
* FROM CLIP NAME:  NK TITLE.07 
020     AX    V     C        00:00:00:00 00:00:01:16 01:01:36:14 01:01:38:05 
* EFF_BLEND_GRAPHIC 
* FROM CLIP NAME:  NK TITLE.14 
021     AX    V     C        00:00:00:00 00:00:01:15 01:01:38:08 01:01:39:23 
* EFF_BLEND_GRAPHIC 
* FROM CLIP NAME:  NK TITLE.08 
022     AX    V     C        00:00:00:00 00:00:01:16 01:01:40:02 01:01:41:18 
* EFF_BLEND_GRAPHIC 
* FROM CLIP NAME:  NK TITLE.13 
023     AX    V     C        00:00:00:00 00:00:01:16 01:01:42:05 01:01:43:21 
* EFF_BLEND_GRAPHIC 
* FROM CLIP NAME:  NK TITLE.17 
024     AX    V     C        00:00:00:00 00:00:02:14 01:01:46:08 01:01:48:22 
* EFF_BLEND_GRAPHIC 
* FROM CLIP NAME:  NK TITLE.09 
025     AX    V     C        00:00:00:00 00:00:03:05 01:01:49:20 01:01:53:00 
* EFF_BLEND_GRAPHIC 
* FROM CLIP NAME:  NK TITLE.12 
026     AX    V     C        00:00:00:00 00:00:02:14 01:01:59:12 01:02:02:01 
* EFF_BLEND_GRAPHIC 
* FROM CLIP NAME:  NK TITLE.18 
027     AX    V     C        00:00:00:00 00:00:03:05 01:02:02:12 01:02:05:17 
* EFF_BLEND_GRAPHIC 
* FROM CLIP NAME:  NK TITLE.18 
028     AX    V     C        00:00:00:00 00:00:02:14 01:02:06:06 01:02:08:20 
* EFF_BLEND_GRAPHIC 
* FROM CLIP NAME:  NK TITLE.18 
029     AX    V     C        00:00:00:00 00:00:02:14 01:02:12:01 01:02:14:15 
* EFF_BLEND_GRAPHIC 
* FROM CLIP NAME:  NK TITLE.19 
030     AX    V     C        00:00:00:00 00:00:02:14 01:02:15:00 01:02:17:14 
* EFF_BLEND_GRAPHIC 
* FROM CLIP NAME:  NK TITLE.20 
031     AX    V     C        00:00:00:00 00:00:02:14 01:02:18:02 01:02:20:16 
* EFF_BLEND_GRAPHIC 
* FROM CLIP NAME:  NK TITLE.21 
032     AX    V     C        00:00:00:00 00:00:03:07 01:02:21:01 01:02:24:08 
* EFF_BLEND_GRAPHIC 
* FROM CLIP NAME:  NK TITLE.22 
033     AX    V     C        00:00:00:00 00:00:03:07 01:02:24:16 01:02:27:23 
* EFF_BLEND_GRAPHIC 
* FROM CLIP NAME:  NK TITLE.22 
034     AX    V     C        00:00:00:00 00:00:03:00 01:02:28:14 01:02:31:14 
* EFF_BLEND_GRAPHIC 
* FROM CLIP NAME:  NK TITLE.18 
035     AX    V     C        00:00:00:00 00:00:03:00 01:02:33:24 01:02:36:24 
* EFF_BLEND_GRAPHIC 
* FROM CLIP NAME:  NK TITLE.18 
036     AX    V     C        00:00:00:00 00:00:03:08 01:02:46:19 01:02:50:02 
* EFF_BLEND_GRAPHIC 
* FROM CLIP NAME:  NK TITLE.19 
037     AX    V     C        00:00:00:06 00:00:03:14 01:03:07:20 01:03:11:03 
* EFF_BLEND_GRAPHIC 
* FROM CLIP NAME:  NLNU.01 
038     AX    V     C        00:00:31:10 00:00:31:24 01:07:53:14 01:07:54:03 
* EFF_BLEND_GRAPHIC 
* FROM CLIP NAME:  NLNU 
039     AX    V     C        00:00:31:24 00:00:31:24 01:07:54:03 01:07:54:03 
039     AX    V     D    006 00:00:00:10 00:00:04:06 01:07:54:03 01:07:57:24 
* EFF_BLEND_GRAPHIC 
* BLEND_DISSOLVE_LOG 
* FROM CLIP NAME:  NLNU 
* TO CLIP NAME:  TITEL.01 
040     AX    V     C        00:00:04:06 00:00:04:06 01:07:57:24 01:07:57:24 
040     AX    V     D    006 00:00:35:20 00:00:39:13 01:07:57:24 01:08:01:17 
* EFF_BLEND_GRAPHIC 
* BLEND_DISSOLVE_LOG 
* FROM CLIP NAME:  TITEL.01 
* TO CLIP NAME:  NLNU 
041     AX    V     C        00:01:07:01 00:01:07:01 01:08:01:17 01:08:01:17 
041     AX    V     D    006 00:00:00:00 00:00:03:04 01:08:01:17 01:08:04:21 
* EFF_BLEND_GRAPHIC 
* BLEND_DISSOLVE_LOG 
* FROM CLIP NAME:  NLNU 
* TO CLIP NAME:  TITEL.03 
042     AX    V     C        00:00:03:04 00:00:03:04 01:08:04:21 01:08:04:21 
042     AX    V     D    006 00:00:39:12 00:00:40:16 01:08:04:21 01:08:06:00 
* EFF_BLEND_GRAPHIC 
* BLEND_DISSOLVE_LOG 
* FROM CLIP NAME:  TITEL.03 
* TO CLIP NAME:  NLNU 
043     AX    V     C        00:00:40:16 00:00:40:16 01:08:06:00 01:08:06:00 
043     AX    V     D    006 00:00:29:08 00:00:32:11 01:08:06:00 01:08:09:03 
* EFF_BLEND_GRAPHIC 
* BLEND_DISSOLVE_LOG 
* FROM CLIP NAME:  NLNU 
* TO CLIP NAME:  TITEL.02 
044     AX    V     C        00:00:32:11 00:00:32:11 01:08:09:03 01:08:09:03 
044     AX    V     D    006 00:01:04:17 00:01:13:20 01:08:09:03 01:08:18:06 
* EFF_BLEND_GRAPHIC 
* BLEND_DISSOLVE_LOG 
* FROM CLIP NAME:  TITEL.02 
* TO CLIP NAME:  NLNU 
045     AX    V     C        00:01:11:08 00:01:24:16 01:08:18:06 01:08:31:14 
* EFF_BLEND_GRAPHIC 
* FROM CLIP NAME:  NLNU 
046     AX    V     C        00:01:23:13 00:01:26:11 01:08:31:14 01:08:34:12 
* EFF_BLEND_GRAPHIC 
* FROM CLIP NAME:  NLNU 
047     AX    V     C        00:00:00:00 00:00:00:01 01:17:19:18 01:17:19:19 
* EFF_BLEND_GRAPHIC 
* FROM CLIP NAME:  ASDF.09 
TITLE:   NK VS DEF AKTE 1 VOOR EDL BEELD 
001  NK043    V     C        03:18:38:08 03:18:45:20 01:00:41:11 01:00:48:23 
* FROM CLIP NAME:  612A/1 (75 FPS) 
002  NK043    V     C        03:06:54:06 03:06:55:05 01:00:48:23 01:00:49:22 
* FROM CLIP NAME:  610B/1 (75 FPS) 
003  NK043    V     C        03:21:33:07 03:21:33:23 01:00:49:22 01:00:50:13 
* FROM CLIP NAME:  613/1 (75FPS) 
004  NK043    V     C        03:06:59:00 03:07:01:09 01:00:50:13 01:00:52:22 
* FROM CLIP NAME:  610B/1 (75 FPS) 
005  NK043    V     C        03:07:05:22 03:07:06:05 01:00:53:19 01:00:54:02 
* FROM CLIP NAME:  610B/1 (75 FPS) 
006     BL    V     C        00:00:00:00 00:00:00:00 01:00:54:24 01:00:54:24 
006  NK046    V     D    015 06:05:31:12 06:05:33:02 01:00:54:24 01:00:56:14 
* BLEND_DISSOLVE_LOG 
* TO CLIP NAME:  639/7 50FPS* 
007  NK046    V     C        06:05:33:02 06:05:33:02 01:00:56:14 01:00:56:14 
007     BL    V     D    015 00:00:00:00 00:00:00:15 01:00:56:14 01:00:57:04 
* BLEND_DISSOLVE_LOG 
* FROM CLIP NAME:  639/7 50FPS* 
008     BL    V     C        00:00:00:00 00:00:00:00 01:00:57:13 01:00:57:13 
008  NK046    V     D    015 06:05:39:03 06:05:45:03 01:00:57:13 01:01:03:13 
* BLEND_DISSOLVE_LOG 
* TO CLIP NAME:  639/7 50FPS* 
009  NK046    V     C        06:03:13:18 06:03:14:16 01:01:05:07 01:01:06:05 
* FROM CLIP NAME:  639/5* 
010  NK046    V     C        06:03:15:23 06:03:16:20 01:01:06:05 01:01:07:02 
* FROM CLIP NAME:  639/5* 
011  NK046    V     C        06:00:11:14 06:00:13:09 01:01:07:02 01:01:08:22 
* FROM CLIP NAME:  639/1* 
012  NK046    V     C        06:00:55:22 06:00:56:17 01:01:10:17 01:01:11:12 
* FROM CLIP NAME:  639/2* 
013  NK046    V     C        06:04:00:13 06:04:01:08 01:01:11:12 01:01:12:07 
* FROM CLIP NAME:  640/1A* 
014  NK046    V     C        06:01:38:01 06:01:39:12 01:01:12:07 01:01:13:18 
* FROM CLIP NAME:  639/3* 
015  NK046    V     C        06:02:34:06 06:02:35:01 01:01:15:22 01:01:16:17 
* FROM CLIP NAME:  639/4* 
016  NK046    V     C        06:11:47:24 06:11:48:21 01:01:20:02 01:01:20:24 
* FROM CLIP NAME:  640/3 
017  NK046    V     C        06:10:44:23 06:10:45:14 01:01:20:24 01:01:21:15 
* FROM CLIP NAME:  640/2A 
018  NK046    V     C        06:12:10:03 06:12:12:00 01:01:21:15 01:01:23:12 
* FROM CLIP NAME:  640/4 
019  NK046    V     C        06:10:54:14 06:10:55:08 01:01:23:12 01:01:24:06 
* FROM CLIP NAME:  640/2A 
020  NK046    V     C        06:12:12:10 06:12:14:11 01:01:24:06 01:01:26:07 
* FROM CLIP NAME:  640/4 
021  NK046    V     C        06:18:46:23 06:18:47:19 01:01:26:07 01:01:27:03 
* FROM CLIP NAME:  644/1 
022  NK046    V     C        06:17:20:20 06:17:21:17 01:01:27:03 01:01:28:00 
* FROM CLIP NAME:  643/1 
023  NK046    V     C        06:17:22:23 06:17:23:18 01:01:28:00 01:01:28:20 
* FROM CLIP NAME:  643/1 
024  NK048    V     C        08:13:35:12 08:13:36:10 01:01:46:08 01:01:47:06 
* FROM CLIP NAME:  676/3 
025  NK048    V     C        08:14:17:18 08:14:19:24 01:01:47:06 01:01:49:12 
* FROM CLIP NAME:  676/5 
026  NK048    V     C        08:07:13:24 08:07:18:09 01:01:49:12 01:01:53:22 
* FROM CLIP NAME:  673/3 
027  NK048    V     C        08:09:57:09 08:09:59:15 01:01:53:22 01:01:56:03 
* FROM CLIP NAME:  674/2 
028  NK048    V     C        08:07:28:10 08:07:31:10 01:01:56:03 01:01:59:03 
* FROM CLIP NAME:  673/3 
029  NK048    V     C        08:15:33:09 08:15:40:06 01:01:59:03 01:02:06:00 
* FROM CLIP NAME:  677/2 
030  NK051    V     C        11:15:57:17 11:16:01:22 01:02:06:00 01:02:10:05 
* FROM CLIP NAME:  727/9 
031  NK051    V     C        11:16:57:16 11:16:59:06 01:02:10:05 01:02:11:20 
* FROM CLIP NAME:  729/1 
032  NK051    V     C        11:16:33:08 11:16:39:04 01:02:11:20 01:02:17:16 
* FROM CLIP NAME:  728/1 
033  NK051    V     C        11:09:16:22 11:09:23:19 01:02:17:16 01:02:24:13 
* FROM CLIP NAME:  724/1 
034  NK051    V     C        11:11:20:01 11:11:23:16 01:02:24:13 01:02:28:03 
* FROM CLIP NAME:  726/1 
035  NK051    V     C        11:07:51:00 11:07:54:13 01:02:28:03 01:02:31:16 
* FROM CLIP NAME:  722/2 
036  NK051    V     C        11:06:42:23 11:06:45:11 01:02:37:15 01:02:40:03 
* FROM CLIP NAME:  720/5 
037  NK051    V     C        11:05:41:21 11:05:43:17 01:02:40:03 01:02:41:24 
* FROM CLIP NAME:  720/3 
038  NK051    V     C        11:05:02:12 11:05:05:05 01:02:41:24 01:02:44:17 
* FROM CLIP NAME:  720/2 
039  NK051    V     C        11:19:36:02 11:19:43:15 01:02:44:17 01:02:52:05 
* FROM CLIP NAME:  731/3 
040  NK051    V     C        11:23:02:07 11:23:07:01 01:02:52:05 01:02:56:24 
* FROM CLIP NAME:  733/4 
041  NK051    V     C        11:19:53:08 11:19:55:15 01:02:56:24 01:02:59:06 
* FROM CLIP NAME:  731/3 
042  NK051    V     C        11:23:26:03 11:23:28:09 01:02:59:06 01:03:01:12 
* FROM CLIP NAME:  734/1 
043  NK051    V     C        11:24:25:13 11:24:31:05 01:03:01:12 01:03:07:04 
* FROM CLIP NAME:  734/2 
044  NK001    V     C        01:10:53:06 01:10:56:12 01:03:11:03 01:03:14:09 
* FROM CLIP NAME:  008/5 
045  NK001    V     C        01:11:46:06 01:11:47:18 01:03:14:09 01:03:15:21 
* FROM CLIP NAME:  009/1 
046  NK001    V     C        01:11:05:04 01:11:06:17 01:03:15:21 01:03:17:09 
* FROM CLIP NAME:  008/5 
047  NK001    V     C        01:14:28:17 01:14:29:09 01:03:17:09 01:03:18:01 
* FROM CLIP NAME:  010/4 
048  NK001    V     C        01:11:10:14 01:11:11:08 01:03:18:01 01:03:18:20 
* FROM CLIP NAME:  008/5 
049  NK001    V     C        01:15:38:10 01:15:39:16 01:03:18:20 01:03:20:01 
* FROM CLIP NAME:  011/3 
050  NK001    V     C        01:12:34:24 01:12:37:22 01:03:20:01 01:03:22:24 
* FROM CLIP NAME:  009/2 
051  NK001    V     C        01:15:43:03 01:15:46:05 01:03:22:24 01:03:26:01 
* FROM CLIP NAME:  011/3 
052  NK001    V     C        01:12:47:12 01:12:48:15 01:03:26:01 01:03:27:04 
* FROM CLIP NAME:  009/2 
053  NK001    V     C        01:12:01:24 01:12:03:06 01:03:27:04 01:03:28:11 
* FROM CLIP NAME:  009/1 
054  NK001    V     C        01:16:23:23 01:16:25:02 01:03:28:11 01:03:29:15 
* FROM CLIP NAME:  011/4 
055  NK001    V     C        01:09:53:24 01:09:55:06 01:03:29:15 01:03:30:22 
* FROM CLIP NAME:  008/2 
056  NK001    V     C        01:12:55:07 01:12:57:02 01:03:30:22 01:03:32:17 
* FROM CLIP NAME:  009/2 
057  NK001    V     C        01:16:36:01 01:16:36:21 01:03:32:17 01:03:33:12 
* FROM CLIP NAME:  011/4 
058  NK001    V     C        01:15:29:13 01:15:32:20 01:03:33:12 01:03:36:19 
* FROM CLIP NAME:  011/2 
059  NK001    V     C        01:01:47:09 01:01:49:03 01:03:36:19 01:03:38:13 
* FROM CLIP NAME:  002/1 
060  NK001    V     C        01:01:21:10 01:01:23:12 01:03:38:13 01:03:40:15 
* FROM CLIP NAME:  001/3 
061  NK001    V     C        01:03:39:15 01:03:41:01 01:03:40:15 01:03:42:01 
* FROM CLIP NAME:  003/6 
062  NK001    V     C        01:08:15:17 01:08:17:23 01:03:42:01 01:03:44:07 
* FROM CLIP NAME:  007/2 
063  NK001    V     C        01:03:43:12 01:03:45:07 01:03:44:07 01:03:46:02 
* FROM CLIP NAME:  003/6 
064  NK001    V     C        01:06:15:01 01:06:15:17 01:03:46:02 01:03:46:18 
* FROM CLIP NAME:  006/3 
065  NK001    V     C        01:06:20:09 01:06:22:01 01:03:46:18 01:03:48:10 
* FROM CLIP NAME:  006/3 
066  NK001    V     C        01:03:50:23 01:03:52:11 01:03:48:10 01:03:49:23 
* FROM CLIP NAME:  004/1 
067  NK001    V     C        01:05:09:00 01:05:09:23 01:03:49:23 01:03:50:21 
* FROM CLIP NAME:  005/1 
068  NK001    V     C        01:04:22:22 01:04:25:16 01:03:50:21 01:03:53:15 
* FROM CLIP NAME:  004/2 
069  NK010    V     C        10:34:53:09 10:34:58:24 01:03:53:15 01:03:59:05 
* FROM CLIP NAME:  124/2 
070  NK010    V     C        10:21:56:20 10:21:58:22 01:03:59:05 01:04:01:07 
* FROM CLIP NAME:  120/3 
071  NK010    V     C        10:36:16:06 10:36:21:06 01:04:01:07 01:04:06:07 
* FROM CLIP NAME:  124/3 
072  NK010    V     C        10:23:01:11 10:23:02:11 01:04:06:07 01:04:07:07 
* FROM CLIP NAME:  120/4 
073  NK010    V     C        10:36:22:10 10:36:27:09 01:04:07:07 01:04:12:06 
* FROM CLIP NAME:  124/3 
074  NK011    V     C        11:20:06:06 11:20:08:04 01:04:12:06 01:04:14:04 
* FROM CLIP NAME:  138/3 
075  NK011    V     C        11:01:08:17 11:01:09:20 01:04:14:04 01:04:15:07 
* FROM CLIP NAME:  130/2 
076  NK011    V     C        11:00:08:06 11:00:09:04 01:04:15:07 01:04:16:05 
* FROM CLIP NAME:  130/1 
077  NK011    V     C        11:07:12:19 11:07:13:16 01:04:16:05 01:04:17:02 
* FROM CLIP NAME:  131/2AFG 
078  NK011    V     C        11:12:19:13 11:12:20:12 01:04:17:02 01:04:18:01 
* FROM CLIP NAME:  133/1 
079  NK011    V     C        11:02:41:06 11:02:42:03 01:04:18:01 01:04:18:23 
* FROM CLIP NAME:  130/4 
080  NK011    V     C        11:20:45:10 11:20:46:10 01:04:18:23 01:04:19:23 
* FROM CLIP NAME:  138/5 
081  NK011    V     C        11:09:10:05 11:09:10:22 01:04:19:23 01:04:20:15 
* FROM CLIP NAME:  132/2 
082  NK011    V     C        11:05:04:14 11:05:05:16 01:04:20:15 01:04:21:17 
* FROM CLIP NAME:  130/6 
083  NK011    V     C        11:09:12:09 11:09:13:03 01:04:21:17 01:04:22:11 
* FROM CLIP NAME:  132/2 
084  NK011    V     C        11:03:56:22 11:03:57:16 01:04:22:11 01:04:23:05 
* FROM CLIP NAME:  130/5 
085  NK011    V     C        11:09:14:22 11:09:15:13 01:04:23:05 01:04:23:21 
* FROM CLIP NAME:  132/2 
086  NK011    V     C        11:00:37:18 11:00:38:16 01:04:23:21 01:04:24:19 
* FROM CLIP NAME:  130/1 
087  NK011    V     C        11:18:25:22 11:18:27:08 01:04:24:19 01:04:26:05 
* FROM CLIP NAME:  137/1 
088  NK011    V     C        11:00:41:20 11:00:44:23 01:04:26:05 01:04:29:08 
* FROM CLIP NAME:  130/1 
089  NK011    V     C        11:05:28:19 11:05:29:21 01:04:31:01 01:04:32:03 
* FROM CLIP NAME:  130/6 
090  NK011    V     C        11:18:32:16 11:18:33:03 01:04:32:03 01:04:32:15 
* FROM CLIP NAME:  137/1 
091  NK011    V     C        11:11:41:20 11:11:42:15 01:04:32:15 01:04:33:10 
* FROM CLIP NAME:  132/4 
092  NK011    V     C        11:18:05:04 11:18:06:04 01:04:33:10 01:04:34:10 
* FROM CLIP NAME:  136/5 
093  NK011    V     C        11:06:52:18 11:06:53:13 01:04:34:10 01:04:35:05 
* FROM CLIP NAME:  131/1 
094  NK011    V     C        11:18:06:23 11:18:07:23 01:04:35:05 01:04:36:05 
* FROM CLIP NAME:  136/5 
095  NK011    V     C        11:00:50:06 11:00:53:06 01:04:36:05 01:04:39:05 
* FROM CLIP NAME:  130/1 
096  NK011    V     C        11:14:55:14 11:14:56:15 01:04:39:05 01:04:40:06 
* FROM CLIP NAME:  135/1 
097  NK011    V     C        11:17:13:14 11:17:15:07 01:04:40:06 01:04:41:24 
* FROM CLIP NAME:  136/2 
098  NK011    V     C        11:15:56:08 11:15:57:16 01:04:41:24 01:04:43:07 
* FROM CLIP NAME:  135/3 
099  NK011    V     C        11:17:18:06 11:17:19:17 01:04:43:07 01:04:44:18 
* FROM CLIP NAME:  136/2 
100  NK011    V     C        11:16:34:03 11:16:35:13 01:04:44:18 01:04:46:03 
* FROM CLIP NAME:  135/4 
101  NK011    V     C        11:07:01:12 11:07:02:12 01:04:46:03 01:04:47:03 
* FROM CLIP NAME:  131/1 
102  NK011    V     C        11:02:16:12 11:02:19:16 01:04:47:03 01:04:50:07 
* FROM CLIP NAME:  130/3PU 
103  NK011    V     C        11:25:10:21 11:25:13:22 01:04:50:07 01:04:53:08 
* FROM CLIP NAME:  140/1 
104  NK012    V     C        12:02:12:03 12:02:13:12 01:04:53:08 01:04:54:17 
* FROM CLIP NAME:  146/3 
105  NK011    V     C        11:21:27:05 11:21:31:00 01:04:54:17 01:04:58:12 
* FROM CLIP NAME:  139/2 
106  NK011    V     C        11:36:44:15 11:36:46:16 01:04:58:12 01:05:00:13 
* FROM CLIP NAME:  144/1A 
107  NK011    V     C        11:23:18:20 11:23:21:08 01:05:00:13 01:05:03:01 
* FROM CLIP NAME:  139/3 
108  NK011    V     C        11:40:56:19 11:40:58:15 01:05:03:01 01:05:04:22 
* FROM CLIP NAME:  145/2 
109  NK012    V     C        12:09:55:03 12:09:56:19 01:05:04:22 01:05:06:13 
* FROM CLIP NAME:  150/1 
110  NK011    V     C        11:27:45:16 11:27:47:04 01:05:06:13 01:05:08:01 
* FROM CLIP NAME:  140/2 
111  NK011    V     C        11:39:18:17 11:39:22:08 01:05:08:01 01:05:11:17 
* FROM CLIP NAME:  145/1 
112  NK011    V     C        11:25:53:13 11:25:56:13 01:05:11:17 01:05:14:17 
* FROM CLIP NAME:  140/1 
113  NK012    V     C        12:05:18:05 12:05:21:14 01:05:14:17 01:05:18:01 
* FROM CLIP NAME:  146/4 
114  NK011    V     C        11:24:00:21 11:24:04:21 01:05:18:01 01:05:22:01 
* FROM CLIP NAME:  139/3 
115  NK011    V     C        11:36:58:19 11:37:02:02 01:05:22:01 01:05:25:09 
* FROM CLIP NAME:  144/1B 
116  NK011    V     C        11:24:10:01 11:24:11:24 01:05:25:09 01:05:27:07 
* FROM CLIP NAME:  139/3 
117  NK012    V     C        12:00:36:16 12:00:39:10 01:05:27:07 01:05:30:01 
* FROM CLIP NAME:  145/3PU 
118  NK011    V     C        11:26:22:05 11:26:24:06 01:05:30:01 01:05:32:02 
* FROM CLIP NAME:  140/1 
119  NK011    V     C        11:37:11:00 11:37:14:02 01:05:32:02 01:05:35:04 
* FROM CLIP NAME:  144/1B 
120  NK011    V     C        11:22:28:15 11:22:32:01 01:05:35:04 01:05:38:15 
* FROM CLIP NAME:  139/2 
121  NK011    V     C        11:26:29:08 11:26:30:23 01:05:38:15 01:05:40:05 
* FROM CLIP NAME:  140/1 
122  NK011    V     C        11:39:47:00 11:39:51:07 01:05:40:05 01:05:44:12 
* FROM CLIP NAME:  145/1 
123  NK011    V     C        11:31:59:10 11:32:04:05 01:05:44:12 01:05:49:07 
* FROM CLIP NAME:  142/2 
124  NK011    V     C        11:36:09:17 11:36:10:14 01:05:49:07 01:05:50:04 
* FROM CLIP NAME:  143/6PU 
125  NK011    V     C        11:37:46:23 11:37:48:17 01:05:50:04 01:05:51:23 
* FROM CLIP NAME:  144/1D 
126  NK012    V     C        12:04:11:06 12:04:12:09 01:05:51:23 01:05:53:01 
* FROM CLIP NAME:  146/3 
127  NK011    V     C        11:32:11:16 11:32:13:01 01:05:53:01 01:05:54:11 
* FROM CLIP NAME:  142/2 
128  NK012    V     C        12:07:04:01 12:07:05:04 01:05:54:11 01:05:55:14 
* FROM CLIP NAME:  147/1 
129  NK012    V     C        12:07:07:14 12:07:07:22 01:05:55:14 01:05:55:22 
* FROM CLIP NAME:  147/1 
130  NK012    V     C        12:09:37:00 12:09:37:16 01:05:55:22 01:05:56:13 
* FROM CLIP NAME:  149/2 
131  NK012    V     C        12:08:12:13 12:08:13:18 01:05:56:13 01:05:57:18 
* FROM CLIP NAME:  147/3 
132  NK012    V     C        12:07:08:23 12:07:10:21 01:05:57:18 01:05:59:16 
* FROM CLIP NAME:  147/1 
133  NK012    V     C        12:09:02:02 12:09:02:23 01:05:59:16 01:06:00:12 
* FROM CLIP NAME:  148/3 
134  NK010    V     C        10:39:27:03 10:39:28:22 01:06:00:12 01:06:02:06 
* FROM CLIP NAME:  125/3 
135  NK010    V     C        10:33:09:09 10:33:10:19 01:06:02:06 01:06:03:16 
* FROM CLIP NAME:  123/2 
136  NK010    V     C        10:38:46:18 10:38:47:20 01:06:03:16 01:06:04:18 
* FROM CLIP NAME:  125/2 
137  NK010    V     C        10:43:52:12 10:43:53:07 01:06:04:18 01:06:05:13 
* FROM CLIP NAME:  126/2 
138  NK010    V     C        10:38:51:17 10:38:52:13 01:06:05:13 01:06:06:09 
* FROM CLIP NAME:  125/2 
139  NK010    V     C        10:52:47:19 10:52:49:10 01:06:06:09 01:06:08:00 
* FROM CLIP NAME:  127A/3 
140  NK010    V     C        10:33:17:16 10:33:18:10 01:06:08:00 01:06:08:19 
* FROM CLIP NAME:  123/2 
141  NK010    V     C        10:41:04:18 10:41:05:13 01:06:08:19 01:06:09:14 
* FROM CLIP NAME:  125/4 
142  NK010    V     C        10:30:27:15 10:30:28:02 01:06:09:14 01:06:10:01 
* FROM CLIP NAME:  122/4 
143  NK010    V     C        10:41:09:10 10:41:11:02 01:06:10:01 01:06:11:18 
* FROM CLIP NAME:  125/4 
144  NK010    V     C        10:32:58:24 10:32:59:17 01:06:11:18 01:06:12:11 
* FROM CLIP NAME:  123/2 
145  NK010    V     C        10:52:52:19 10:52:53:08 01:06:12:11 01:06:13:00 
* FROM CLIP NAME:  127A/3 
146  NK010    V     C        10:52:54:19 10:52:55:08 01:06:13:00 01:06:13:14 
* FROM CLIP NAME:  127A/3 
147  NK010    V     C        10:39:48:17 10:39:49:20 01:06:13:14 01:06:14:17 
* FROM CLIP NAME:  125/3 
148  NK010    V     C        10:30:53:14 10:30:54:16 01:06:14:17 01:06:15:19 
* FROM CLIP NAME:  122/4 
149  NK010    V     C        10:52:56:19 10:52:58:05 01:06:15:19 01:06:17:05 
* FROM CLIP NAME:  127A/3 
150  NK010    V     C        10:41:31:15 10:41:33:03 01:06:17:05 01:06:18:18 
* FROM CLIP NAME:  125/4 
151  NK010    V     C        10:44:00:21 10:44:01:16 01:06:18:18 01:06:19:13 
* FROM CLIP NAME:  126/2 
152  NK010    V     C        10:33:24:20 10:33:25:14 01:06:19:13 01:06:20:07 
* FROM CLIP NAME:  123/2 
153  NK010    V     C        10:40:16:16 10:40:17:20 01:06:20:07 01:06:21:11 
* FROM CLIP NAME:  125/3 
154  NK010    V     C        10:33:27:10 10:33:28:04 01:06:21:11 01:06:22:05 
* FROM CLIP NAME:  123/2 
155  NK010    V     C        10:44:46:22 10:44:47:12 01:06:22:05 01:06:22:20 
* FROM CLIP NAME:  127C/3 
156  NK010    V     C        10:53:25:01 10:53:26:06 01:06:22:20 01:06:24:00 
* FROM CLIP NAME:  128A/1 
157  NK010    V     C        10:45:18:05 10:45:19:09 01:06:24:00 01:06:25:04 
* FROM CLIP NAME:  128C/1 
158  NK010    V     C        10:49:37:13 10:49:38:09 01:06:25:04 01:06:26:00 
* FROM CLIP NAME:  128B/1 
159  NK010    V     C        10:53:57:22 10:53:58:13 01:06:26:00 01:06:26:16 
* IMAGE, COLOR EFFECT 
* FROM CLIP NAME:  128A/2 
160  NK041    V     C        01:42:44:06 01:42:50:21 01:06:26:16 01:06:33:06 
* FROM CLIP NAME:  593/5 
161  NK019    V     C        19:00:33:16 19:00:38:12 01:06:33:06 01:06:38:02 
* FROM CLIP NAME:  266/1* 
162  NK019    V     C        19:36:49:12 19:36:52:11 01:06:38:02 01:06:41:01 
* FROM CLIP NAME:  280/4PU 
163  NK020    V     C        20:07:20:07 20:07:22:21 01:06:41:01 01:06:43:15 
* FROM CLIP NAME:  288/2 
164  NK019    V     C        19:36:59:08 19:37:02:06 01:06:43:15 01:06:46:13 
* FROM CLIP NAME:  280/4PU 
165  NK020    V     C        20:08:16:10 20:08:22:10 01:06:46:13 01:06:52:13 
* FROM CLIP NAME:  288/3 
166  NK019    V     C        19:33:58:13 19:34:01:15 01:06:52:13 01:06:55:15 
* FROM CLIP NAME:  279/1 
167  NK020    V     C        20:05:25:23 20:05:28:17 01:06:55:15 01:06:58:09 
* FROM CLIP NAME:  287/1 
168  NK019    V     C        19:09:55:05 19:09:57:08 01:06:58:09 01:07:00:12 
* FROM CLIP NAME:  267/2 
169  NK019    V     C        19:35:12:07 19:35:14:03 01:07:00:12 01:07:02:08 
* FROM CLIP NAME:  279/2 
170  NK020    V     C        20:05:44:07 20:05:46:11 01:07:02:08 01:07:04:12 
* FROM CLIP NAME:  287/1 
171  NK019    V     C        19:13:02:10 19:13:09:07 01:07:04:12 01:07:11:09 
* FROM CLIP NAME:  268/1 EXTRA 
172  NK020    V     C        20:00:48:10 20:00:49:12 01:07:11:09 01:07:12:11 
* FROM CLIP NAME:  285/2 
173  NK020    V     C        20:04:57:10 20:04:58:06 01:07:12:11 01:07:13:07 
* FROM CLIP NAME:  286/3 
174  NK019    V     C        19:10:15:05 19:10:18:14 01:07:13:07 01:07:16:16 
* FROM CLIP NAME:  267/2 
175  NK020    V     C        20:05:00:06 20:05:01:09 01:07:16:16 01:07:17:19 
* FROM CLIP NAME:  286/3 
176  NK020    V     C        20:01:55:12 20:01:57:03 01:07:17:19 01:07:19:10 
* FROM CLIP NAME:  285/3 
177  NK020    V     C        20:05:13:21 20:05:14:21 01:07:19:10 01:07:20:10 
* FROM CLIP NAME:  286/3 
178  NK020    V     C        20:01:08:02 20:01:09:04 01:07:20:10 01:07:21:12 
* FROM CLIP NAME:  285/2 
179  NK023    V     C        03:36:41:08 03:36:42:21 01:07:21:12 01:07:23:00 
* FROM CLIP NAME:  343/1A 
180  NK023    V     C        03:28:07:02 03:28:08:18 01:07:23:00 01:07:24:16 
* FROM CLIP NAME:  338/1 
181  NK023    V     C        03:41:20:06 03:41:21:20 01:07:24:16 01:07:26:05 
* FROM CLIP NAME:  343/4 
182  NK023    V     C        03:25:50:21 03:25:51:14 01:07:26:05 01:07:26:23 
* FROM CLIP NAME:  337/3 
183  NK023    V     C        03:28:12:24 03:28:13:19 01:07:26:23 01:07:27:18 
* FROM CLIP NAME:  338/1 
184  NK023    V     C        03:33:18:20 03:33:20:24 01:07:27:18 01:07:29:22 
* FROM CLIP NAME:  341/2 
185  NK023    V     C        03:23:32:16 03:23:38:19 01:07:29:22 01:07:36:00 
* FROM CLIP NAME:  337/2 
186  NK023    V     C        03:39:24:20 03:39:26:17 01:07:36:00 01:07:37:22 
* FROM CLIP NAME:  343/3B 
187  NK023    V     C        03:26:04:22 03:26:08:23 01:07:37:22 01:07:41:23 
* FROM CLIP NAME:  337/3 
188  NK023    V     C        03:32:34:02 03:32:37:05 01:07:41:23 01:07:45:01 
* FROM CLIP NAME:  341/1 
189  NK023    V     C        03:26:23:08 03:26:28:15 01:07:45:01 01:07:50:08 
* FROM CLIP NAME:  337/3 
190  NK023    V     C        03:28:48:04 03:28:51:10 01:07:50:08 01:07:53:14 
* FROM CLIP NAME:  338/1 
191     BL    V     C        00:00:00:00 00:00:00:00 01:08:36:02 01:08:36:02 
191  NK001    V     D    015 01:19:41:12 01:19:50:14 01:08:36:02 01:08:45:04 
* BLEND_DISSOLVE_LOG 
* TO CLIP NAME:  012/5 
192  NK001    V     C        01:26:17:16 01:26:20:18 01:08:45:04 01:08:48:06 
* FROM CLIP NAME:  014/4 
193  NK001    V     C        01:22:46:06 01:22:47:23 01:08:48:06 01:08:49:23 
* FROM CLIP NAME:  012/7 
194  NK001    V     C        01:29:32:00 01:29:34:10 01:08:49:23 01:08:52:08 
* FROM CLIP NAME:  015/3 
195  NK001    V     C        01:22:58:19 01:23:04:10 01:08:52:08 01:08:57:24 
* FROM CLIP NAME:  012/7 
196  NK001    V     C        01:29:47:01 01:29:49:06 01:08:57:24 01:09:00:04 
* FROM CLIP NAME:  015/3 
197  NK001    V     C        01:17:17:11 01:17:18:15 01:09:00:04 01:09:01:08 
* FROM CLIP NAME:  012/1 
198  NK001    V     C        01:28:41:12 01:28:42:08 01:09:01:08 01:09:02:04 
* FROM CLIP NAME:  015/2 
199  NK001    V     C        01:17:19:11 01:17:20:22 01:09:02:04 01:09:03:15 
* FROM CLIP NAME:  012/1 
200  NK001    V     C        01:29:58:14 01:30:01:24 01:09:03:15 01:09:07:00 
* FROM CLIP NAME:  015/3 
201  NK001    V     C        01:17:23:05 01:17:24:11 01:09:07:00 01:09:08:06 
* FROM CLIP NAME:  012/1 
202  NK001    V     C        01:28:49:02 01:28:52:12 01:09:08:06 01:09:11:16 
* FROM CLIP NAME:  015/2 
203  NK001    V     C        01:19:06:06 01:19:08:19 01:09:11:16 01:09:14:04 
* FROM CLIP NAME:  012/3 
204  NK001    V     C        01:33:42:16 01:33:45:23 01:09:14:04 01:09:17:11 
* FROM CLIP NAME:  016/3 
205  NK001    V     C        01:19:10:15 01:19:14:19 01:09:17:11 01:09:21:15 
* FROM CLIP NAME:  012/3 
206  NK001    V     C        01:29:02:08 01:29:03:09 01:09:21:15 01:09:22:16 
* FROM CLIP NAME:  015/2 
207  NK001    V     C        01:23:29:04 01:23:35:12 01:09:22:16 01:09:28:24 
* FROM CLIP NAME:  012/7 
208  NK025    V     C        05:01:27:07 05:01:36:12 01:09:28:24 01:09:38:04 
* FROM CLIP NAME:  360/2 
209  NK025    V     C        05:02:44:23 05:02:54:16 01:09:38:04 01:09:47:22 
* FROM CLIP NAME:  361/1 
210  NK025    V     C        05:01:53:00 05:01:56:12 01:09:47:22 01:09:51:09 
* FROM CLIP NAME:  360/2 
211  NK025    V     C        05:04:20:16 05:04:22:14 01:09:51:09 01:09:53:07 
* FROM CLIP NAME:  361/3 
212  NK025    V     C        05:01:59:01 05:02:04:01 01:09:53:07 01:09:58:07 
* FROM CLIP NAME:  360/2 
213  NK025    V     C        05:04:25:09 05:04:27:02 01:09:58:07 01:10:00:00 
* FROM CLIP NAME:  361/3 
214  NK025    V     C        05:07:19:09 05:07:22:11 01:10:00:00 01:10:03:02 
* FROM CLIP NAME:  363/2 
215  NK025    V     C        05:04:30:05 05:04:31:21 01:10:03:02 01:10:04:18 
* FROM CLIP NAME:  361/3 
216  NK025    V     C        05:05:32:22 05:05:53:04 01:10:04:18 01:10:25:00 
* FROM CLIP NAME:  362/2 
217     BL    V     C        00:00:00:00 00:00:00:00 01:10:28:01 01:10:28:01 
217  NK051    V     D    020 11:44:13:22 11:44:23:13 01:10:28:01 01:10:37:17 
* BLEND_DISSOLVE_LOG 
* TO CLIP NAME:  740/5 
218  NK051    V     C        11:50:27:12 11:50:41:03 01:10:37:17 01:10:51:08 
* FROM CLIP NAME:  741/4 
219  NK051    V     C        11:42:56:10 11:42:58:14 01:10:51:08 01:10:53:12 
* FROM CLIP NAME:  740/4 
220  NK010    V     C        10:17:33:24 10:17:37:09 01:10:53:12 01:10:56:22 
* FROM CLIP NAME:  118/1 
221  NK051    V     C        11:38:19:07 11:38:26:12 01:10:56:22 01:11:04:02 
* FROM CLIP NAME:  739/2 
222  NK010    V     C        10:17:50:22 10:17:53:11 01:11:04:02 01:11:06:16 
* FROM CLIP NAME:  118/1 
223  NK051    V     C        11:45:21:14 11:45:32:15 01:11:06:16 01:11:17:17 
* FROM CLIP NAME:  740/5 
224  NK052    V     C        12:10:27:04 12:10:31:16 01:11:17:17 01:11:22:04 
* FROM CLIP NAME:  746/1 
225  NK052    V     C        12:07:32:09 12:07:33:17 01:11:22:04 01:11:23:12 
* FROM CLIP NAME:  744/3 
226  NK052    V     C        12:02:18:06 12:02:20:03 01:11:23:12 01:11:25:09 
* FROM CLIP NAME:  742/3 
227  NK052    V     C        12:03:51:23 12:03:56:05 01:11:25:09 01:11:29:16 
* FROM CLIP NAME:  743/3 
228  NK052    V     C        12:01:31:06 12:01:33:02 01:11:29:16 01:11:31:12 
* FROM CLIP NAME:  742/2 
229  NK052    V     C        12:03:58:23 12:04:00:20 01:11:31:12 01:11:33:09 
* FROM CLIP NAME:  743/3 
230  NK052    V     C        12:15:33:21 12:15:36:22 01:11:33:09 01:11:36:10 
* FROM CLIP NAME:  749/1 
231  NK052    V     C        12:04:04:01 12:04:05:16 01:11:36:10 01:11:38:00 
* FROM CLIP NAME:  743/3 
232  NK052    V     C        12:17:12:01 12:17:16:05 01:11:38:00 01:11:42:04 
* FROM CLIP NAME:  750/1 
233  NK052    V     C        12:05:42:04 12:05:55:11 01:11:42:04 01:11:55:11 
* FROM CLIP NAME:  744/1 
234  NK054    V     C        14:24:33:12 14:24:35:14 01:11:55:11 01:11:57:13 
* FROM CLIP NAME:  NK DIGI.09 
235  NK054    V     C        14:24:24:04 14:24:25:20 01:11:57:13 01:11:59:04 
* FROM CLIP NAME:  NK DIGI.09 
236  NK028    V     C        08:00:03:23 08:00:05:24 01:12:01:06 01:12:03:07 
* FROM CLIP NAME:  417/1 
237  NK028    V     C        08:03:04:16 08:03:08:05 01:12:03:07 01:12:06:21 
* FROM CLIP NAME:  417/4 
238  NK028    V     C        08:03:10:03 08:03:12:01 01:12:06:21 01:12:08:19 
* FROM CLIP NAME:  417/4 
239  NK028    V     C        08:08:33:23 08:08:35:05 01:12:08:19 01:12:10:01 
* FROM CLIP NAME:  419/3 
240  NK028    V     C        08:03:14:18 08:03:16:08 01:12:10:01 01:12:11:16 
* FROM CLIP NAME:  417/4 
241  NK028    V     C        08:12:47:09 08:12:49:24 01:12:11:16 01:12:14:06 
* FROM CLIP NAME:  420/3 
242  NK028    V     C        08:03:16:21 08:03:19:12 01:12:14:06 01:12:16:22 
* FROM CLIP NAME:  417/4 
243  NK028    V     C        08:12:54:11 08:12:57:15 01:12:16:22 01:12:20:01 
* FROM CLIP NAME:  420/3 
244  NK028    V     C        08:03:21:12 08:03:23:19 01:12:20:01 01:12:22:08 
* FROM CLIP NAME:  417/4 
245  NK028    V     C        08:13:24:14 08:13:28:03 01:12:22:08 01:12:25:22 
* FROM CLIP NAME:  421/1 
246  NK028    V     C        08:03:28:02 08:03:29:04 01:12:25:22 01:12:26:24 
* FROM CLIP NAME:  417/4 
247  NK028    V     C        08:14:50:04 08:14:51:18 01:12:26:24 01:12:28:13 
* FROM CLIP NAME:  421/2 
248  NK028    V     C        08:03:32:20 08:03:35:09 01:12:28:13 01:12:31:02 
* FROM CLIP NAME:  417/4 
249  NK028    V     C        08:14:57:20 08:14:59:16 01:12:31:02 01:12:32:23 
* FROM CLIP NAME:  421/2 
250  NK028    V     C        08:03:36:16 08:03:38:17 01:12:32:23 01:12:34:24 
* FROM CLIP NAME:  417/4 
251  NK028    V     C        08:15:00:18 08:15:03:04 01:12:34:24 01:12:37:10 
* FROM CLIP NAME:  421/2 
252  NK028    V     C        08:03:43:04 08:03:44:07 01:12:37:10 01:12:38:13 
* FROM CLIP NAME:  417/4 
253  NK028    V     C        08:08:58:20 08:09:03:16 01:12:38:13 01:12:43:09 
* FROM CLIP NAME:  419/3 
254  NK028    V     C        08:03:47:08 08:03:49:02 01:12:43:09 01:12:45:03 
* FROM CLIP NAME:  417/4 
255  NK028    V     C        08:16:31:15 08:16:32:21 01:12:45:03 01:12:46:09 
* FROM CLIP NAME:  421/3 
256  NK028    V     C        08:03:49:21 08:03:51:11 01:12:46:09 01:12:47:24 
* FROM CLIP NAME:  417/4 
257  NK028    V     C        08:15:12:12 08:15:15:13 01:12:47:24 01:12:51:00 
* FROM CLIP NAME:  421/2 
258  NK028    V     C        08:03:57:05 08:04:00:03 01:12:51:00 01:12:53:23 
* FROM CLIP NAME:  417/4 
259  NK028    V     C        08:15:15:11 08:15:17:16 01:12:53:23 01:12:56:03 
* FROM CLIP NAME:  421/2 
260  NK028    V     C        08:05:06:22 08:05:08:14 01:12:56:03 01:12:57:20 
* FROM CLIP NAME:  418/1 
261  NK028    V     C        08:16:43:13 08:16:46:13 01:12:57:20 01:13:00:20 
* FROM CLIP NAME:  421/3 
262  NK028    V     C        08:04:00:21 08:04:03:23 01:13:00:20 01:13:03:22 
* FROM CLIP NAME:  417/4 
263  NK028    V     C        08:16:49:06 08:16:51:10 01:13:03:22 01:13:06:01 
* FROM CLIP NAME:  421/3 
264  NK028    V     C        08:04:05:24 08:04:08:22 01:13:06:01 01:13:08:24 
* FROM CLIP NAME:  417/4 
265  NK028    V     C        08:21:57:18 08:22:01:05 01:13:08:24 01:13:12:11 
* FROM CLIP NAME:  423/5 
266  NK028    V     C        08:18:10:14 08:18:12:22 01:13:12:11 01:13:14:19 
* FROM CLIP NAME:  422/3 
267  NK028    V     C        08:22:01:24 08:22:02:15 01:13:14:19 01:13:15:10 
* FROM CLIP NAME:  423/5 
268  NK028    V     C        08:28:43:04 08:28:43:24 01:13:15:10 01:13:16:05 
* FROM CLIP NAME:  427/4 
269  NK028    V     C        08:27:55:00 08:27:55:11 01:13:16:05 01:13:16:16 
* FROM CLIP NAME:  426/2 
270  NK028    V     C        08:27:06:08 08:27:06:16 01:13:16:16 01:13:16:24 
* FROM CLIP NAME:  425/1 
271  NK028    V     C        08:29:00:11 08:29:01:00 01:13:16:24 01:13:17:13 
* FROM CLIP NAME:  428/1 
272  NK028    V     C        08:23:19:01 08:23:20:00 01:13:17:13 01:13:18:12 
* FROM CLIP NAME:  424/1 
273  NK028    V     C        08:18:13:04 08:18:14:10 01:13:18:12 01:13:19:18 
* FROM CLIP NAME:  422/3 
274  NK028    V     C        08:23:19:19 08:23:21:00 01:13:19:18 01:13:20:24 
* FROM CLIP NAME:  424/1 
275  NK028    V     C        08:28:08:24 08:28:10:20 01:13:20:24 01:13:22:20 
* FROM CLIP NAME:  427/1 
276  NK028    V     C        08:21:22:17 08:21:25:07 01:13:22:20 01:13:25:10 
* FROM CLIP NAME:  423/3 
277  NK028    V     C        08:19:06:20 08:19:08:23 01:13:25:10 01:13:27:13 
* FROM CLIP NAME:  422/4 
278  NK028    V     C        08:23:40:00 08:23:41:03 01:13:27:13 01:13:28:16 
* FROM CLIP NAME:  424/1 
279  NK028    V     C        08:19:11:16 08:19:12:23 01:13:28:16 01:13:29:23 
* FROM CLIP NAME:  422/4 
280  NK028    V     C        08:22:32:04 08:22:34:15 01:13:29:23 01:13:32:09 
* FROM CLIP NAME:  423/5 
281  NK028    V     C        08:30:17:21 08:30:21:16 01:13:32:09 01:13:36:04 
* FROM CLIP NAME:  429/3 
282  NK028    V     C        08:33:13:18 08:33:29:17 01:13:36:04 01:13:52:03 
* FROM CLIP NAME:  430/5 
283  NK023    V     C        03:14:36:18 03:14:39:04 01:13:52:03 01:13:54:14 
* FROM CLIP NAME:  335/6 
284  NK022    V     C        02:24:45:20 02:24:48:20 01:13:54:14 01:13:57:14 
* FROM CLIP NAME:  327/1 
285  NK022    V     C        02:33:31:23 02:33:35:08 01:13:57:14 01:14:00:24 
* FROM CLIP NAME:  329/3 
286  NK022    V     C        02:23:22:02 02:23:23:20 01:14:00:24 01:14:02:17 
* FROM CLIP NAME:  326/3 
287  NK022    V     C        02:33:36:18 02:33:38:09 01:14:02:17 01:14:04:08 
* FROM CLIP NAME:  329/3 
288  NK022    V     C        02:22:20:21 02:22:22:11 01:14:04:08 01:14:05:23 
* FROM CLIP NAME:  325/2 
289  NK022    V     C        02:24:53:19 02:24:56:08 01:14:05:23 01:14:08:12 
* FROM CLIP NAME:  327/1 
290  NK022    V     C        02:33:46:09 02:33:49:15 01:14:08:12 01:14:11:18 
* FROM CLIP NAME:  329/3 
291  NK022    V     C        02:26:39:09 02:26:41:19 01:14:11:18 01:14:14:03 
* FROM CLIP NAME:  327/2 
292  NK022    V     C        02:33:52:00 02:33:56:11 01:14:14:03 01:14:18:14 
* FROM CLIP NAME:  329/3 
293  NK022    V     C        02:23:42:03 02:23:44:13 01:14:18:14 01:14:20:24 
* FROM CLIP NAME:  326/3 
294  NK022    V     C        02:34:01:17 02:34:03:11 01:14:20:24 01:14:22:18 
* FROM CLIP NAME:  329/3 
295  NK022    V     C        02:27:27:14 02:27:30:12 01:14:22:18 01:14:25:16 
* FROM CLIP NAME:  327/3PU 
296  NK022    V     C        02:35:46:07 02:35:47:16 01:14:25:16 01:14:27:00 
* FROM CLIP NAME:  330/3 
297  NK022    V     C        02:32:05:16 02:32:06:23 01:14:27:00 01:14:28:07 
* FROM CLIP NAME:  329/1 
298  NK022    V     C        02:27:35:02 02:27:36:24 01:14:28:07 01:14:30:04 
* FROM CLIP NAME:  327/3PU 
299  NK022    V     C        02:34:11:12 02:34:12:08 01:14:30:04 01:14:31:00 
* FROM CLIP NAME:  329/3 
300  NK022    V     C        02:23:59:03 02:24:01:09 01:14:31:00 01:14:33:06 
* FROM CLIP NAME:  326/3 
301  NK022    V     C        02:35:57:24 02:35:59:10 01:14:33:06 01:14:34:17 
* FROM CLIP NAME:  330/3 
302  NK022    V     C        02:27:07:11 02:27:10:14 01:14:34:17 01:14:37:20 
* FROM CLIP NAME:  327/2 
303  NK022    V     C        02:32:18:09 02:32:19:08 01:14:37:20 01:14:38:19 
* FROM CLIP NAME:  329/1 
304  NK022    V     C        02:27:10:13 02:27:17:24 01:14:38:19 01:14:46:05 
* FROM CLIP NAME:  327/2 
305  NK022    V     C        02:24:13:08 02:24:14:06 01:14:46:05 01:14:47:03 
* FROM CLIP NAME:  326/3 
306  NK022    V     C        02:34:28:04 02:34:28:23 01:14:47:03 01:14:47:22 
* FROM CLIP NAME:  329/3 
307  NK022    V     C        02:24:16:17 02:24:17:20 01:14:47:22 01:14:49:00 
* FROM CLIP NAME:  326/3 
308  NK022    V     C        02:34:29:17 02:34:31:17 01:14:49:00 01:14:51:00 
* FROM CLIP NAME:  329/3 
309  NK022    V     C        02:28:07:08 02:28:09:18 01:14:51:00 01:14:53:10 
* FROM CLIP NAME:  327/3PU 
310  NK022    V     C        02:34:34:16 02:34:36:09 01:14:53:10 01:14:55:03 
* FROM CLIP NAME:  329/3 
311  NK022    V     C        02:28:09:24 02:28:17:17 01:14:55:03 01:15:02:21 
* FROM CLIP NAME:  327/3PU 
312  NK028    V     C        08:42:08:21 08:42:11:20 01:15:07:16 01:15:10:15 
* FROM CLIP NAME:  432/3 
313  NK028    V     C        08:49:53:00 08:49:54:13 01:15:10:15 01:15:12:03 
* FROM CLIP NAME:  434/3 
314  NK029    V     C        09:02:59:22 09:03:01:06 01:15:12:03 01:15:13:12 
* FROM CLIP NAME:  435/6 
315  NK028    V     C        08:51:37:13 08:51:41:08 01:15:13:12 01:15:17:07 
* FROM CLIP NAME:  434/4 
316  NK029    V     C        09:03:04:08 09:03:06:13 01:15:17:07 01:15:19:12 
* FROM CLIP NAME:  435/6 
317  NK028    V     C        08:51:45:23 08:51:46:21 01:15:19:12 01:15:20:10 
* FROM CLIP NAME:  434/4 
318  NK028    V     C        08:51:47:13 08:51:48:02 01:15:21:02 01:15:21:16 
* FROM CLIP NAME:  434/4 
319  NK029    V     C        09:03:09:15 09:03:11:17 01:15:21:16 01:15:23:18 
* FROM CLIP NAME:  435/6 
320  NK028    V     C        08:51:50:01 08:51:51:07 01:15:23:18 01:15:24:24 
* FROM CLIP NAME:  434/4 
321  NK028    V     C        08:41:12:19 08:41:13:16 01:15:24:24 01:15:25:21 
* FROM CLIP NAME:  432/2 
322  NK029    V     C        09:03:13:18 09:03:14:17 01:15:25:21 01:15:26:20 
* FROM CLIP NAME:  435/6 
323  NK028    V     C        08:50:39:07 08:50:44:12 01:15:26:20 01:15:32:00 
* FROM CLIP NAME:  434/3 
324  NK029    V     C        09:03:34:19 09:03:37:11 01:15:32:00 01:15:34:17 
* FROM CLIP NAME:  435/6 
325  NK028    V     C        08:50:46:07 08:50:48:09 01:15:34:17 01:15:36:19 
* FROM CLIP NAME:  434/3 
326  NK029    V     C        09:03:39:10 09:03:41:03 01:15:36:19 01:15:38:12 
* FROM CLIP NAME:  435/6 
327  NK028    V     C        08:47:59:15 08:48:02:12 01:15:38:12 01:15:41:09 
* FROM CLIP NAME:  434/1 
328  NK028    V     C        08:46:33:14 08:46:36:08 01:15:41:09 01:15:44:03 
* FROM CLIP NAME:  433/8 
329  NK028    V     C        08:48:06:16 08:48:10:10 01:15:44:03 01:15:47:22 
* FROM CLIP NAME:  434/1 
330  NK028    V     C        08:36:32:17 08:36:35:00 01:15:47:22 01:15:50:05 
* FROM CLIP NAME:  431/3 
331  NK028    V     C        08:45:29:15 08:45:31:08 01:15:50:05 01:15:51:23 
* FROM CLIP NAME:  433/6 
332  NK028    V     C        08:37:53:11 08:37:55:22 01:15:51:23 01:15:54:09 
* FROM CLIP NAME:  431/4 
333  NK028    V     C        08:44:34:19 08:44:38:23 01:15:54:09 01:15:58:13 
* FROM CLIP NAME:  433/4 
334  NK028    V     C        08:37:55:22 08:38:02:05 01:15:58:13 01:16:04:21 
* FROM CLIP NAME:  431/4 
335  NK029    V     C        09:05:53:07 09:05:55:07 01:16:04:21 01:16:06:21 
* FROM CLIP NAME:  436/4 MUTE 
336  NK028    V     C        08:43:44:00 08:43:47:04 01:16:06:21 01:16:10:00 
* FROM CLIP NAME:  433/3 
337  NK028    V     C        08:39:01:03 08:39:06:22 01:16:10:00 01:16:15:19 
* FROM CLIP NAME:  431/6PU 
338  NK005    V     C        05:25:00:08 05:25:07:18 01:16:15:19 01:16:23:04 
* FROM CLIP NAME:  074/4 
339  NK005    V     C        05:14:39:20 05:14:43:00 01:16:23:04 01:16:26:09 
* FROM CLIP NAME:  071/2 
340  NK005    V     C        05:20:02:23 05:20:06:03 01:16:26:09 01:16:29:14 
* FROM CLIP NAME:  073/3 
341  NK005    V     C        05:14:54:06 05:14:58:13 01:16:29:14 01:16:33:21 
* FROM CLIP NAME:  071/2 
342  NK005    V     C        05:20:19:14 05:20:20:15 01:16:33:21 01:16:34:22 
* FROM CLIP NAME:  073/3 
343  NK005    V     C        05:16:59:19 05:17:01:20 01:16:34:22 01:16:36:23 
* FROM CLIP NAME:  072/1 
344  NK005    V     C        05:20:26:17 05:20:27:20 01:16:36:23 01:16:38:01 
* FROM CLIP NAME:  073/3 
345  NK005    V     C        05:16:19:02 05:16:21:03 01:16:38:01 01:16:40:02 
* FROM CLIP NAME:  071/4 
346  NK005    V     C        05:19:43:10 05:19:44:21 01:16:40:02 01:16:41:13 
* FROM CLIP NAME:  073/2 
347  NK001    V     C        01:37:26:02 01:37:36:22 01:16:41:13 01:16:52:08 
* FROM CLIP NAME:  017/4 
348  NK001    V     C        01:44:29:04 01:44:30:17 01:16:52:08 01:16:53:21 
* FROM CLIP NAME:  021/1 
349  NK001    V     C        01:46:14:18 01:46:16:06 01:16:53:21 01:16:55:09 
* FROM CLIP NAME:  022/5 
350  NK001    V     C        01:39:59:10 01:40:01:00 01:16:55:09 01:16:56:24 
* FROM CLIP NAME:  018/2 
351  NK001    V     C        01:45:42:20 01:45:45:04 01:16:56:24 01:16:59:08 
* FROM CLIP NAME:  022/3 
352  NK001    V     C        01:42:58:19 01:42:59:18 01:16:59:08 01:17:00:07 
* FROM CLIP NAME:  020/2 
353  NK001    V     C        01:37:49:17 01:37:52:05 01:17:00:07 01:17:02:20 
* FROM CLIP NAME:  017/4 
354  NK001    V     C        01:40:10:15 01:40:12:01 01:17:02:20 01:17:04:06 
* FROM CLIP NAME:  018/2 
355  NK001    V     C        01:44:16:04 01:44:17:06 01:17:04:06 01:17:05:08 
* FROM CLIP NAME:  020/4 
356  NK001    V     C        01:38:00:00 01:38:01:07 01:17:05:08 01:17:06:15 
* FROM CLIP NAME:  017/4 
357  NK003    V     C        03:04:05:19 03:04:09:10 01:17:06:15 01:17:10:06 
* FROM CLIP NAME:  039/3 
358  NK001    V     C        01:37:01:09 01:37:03:12 01:17:10:06 01:17:12:09 
* FROM CLIP NAME:  017/3 
359  NK003    V     C        03:04:18:02 03:04:23:14 01:17:12:09 01:17:17:21 
* FROM CLIP NAME:  039/3 
>>> SOURCE NK001    NK001            b83bf824.0168470e 
>>> SOURCE NK003    NK003            b83c2612.021c3e8a 
>>> SOURCE NK005    NK005            b83c4032.02829ef0 
>>> SOURCE NK010    NK010            b846fdd6.01a68be0 
>>> SOURCE NK011    NK011            b848eb4a.00a95056 
>>> SOURCE NK012    NK012            b84a7dc1.0081779e 
>>> SOURCE NK019    NK019            b84cfe6f.012d5ca2 
>>> SOURCE NK020    NK020            b84cffe8.0133221b 
>>> SOURCE NK022    NK022            b8624375.01dffa59 
>>> SOURCE NK023    NK023            b862493a.01f695fa 
>>> SOURCE NK025    NK025            b8652b63.00929dfc 
>>> SOURCE NK028    NK028            b86633ca.00808604 
>>> SOURCE NK029    NK029            b86643d0.00bf4e7a 
>>> SOURCE NK041    NK041            b8766bbb.03753d9d 
>>> SOURCE NK043    NK043            b8777fe7.027feb88 
>>> SOURCE NK046    NK046            b877a10a.0301c3b3 
>>> SOURCE NK048    NK048            b89aed55.01e1ca16 
>>> SOURCE NK051    NK051            b89c5678.0237d7c6 
>>> SOURCE NK052    NK052            b89c6b3a.00492768 
>>> SOURCE NK054    NK054            b8db89c6.01f181c8 
TITLE:   NK VS DEF AKTE 1 VOOR EDL BEELD 
001  NK043    V     C        03:15:31:18 03:15:32:15 01:00:52:22 01:00:53:19 
* FROM CLIP NAME:  608A/3 (75FPS) 
002  NK046    V     C        06:03:05:18 06:03:07:22 01:01:13:18 01:01:15:22 
* FROM CLIP NAME:  639/5* 
003  NK046    V     C        06:13:51:21 06:13:59:02 01:01:28:20 01:01:36:01 
* FROM CLIP NAME:  641/4 
004  NK046    V     C        06:13:59:02 06:13:59:02 01:01:36:01 01:01:36:01 
004  NK046    V     W001 006 06:16:58:21 06:17:05:13 01:01:36:01 01:01:42:18 
* PUSH, RIGHT TO LEFT 
* FROM CLIP NAME:  641/4 
* TO CLIP NAME:  642/6 
005  NK046    V     C        06:17:05:13 06:17:07:03 01:01:42:18 01:01:44:08 
M2   NK046          000.0                06:17:05:13 
* IMAGE, RESIZE 
* FROM CLIP NAME:  642/6 
* * FREEZE FRAME: 
006  NK046    V     C        06:17:05:13 06:17:05:13 01:01:44:08 01:01:44:08 
006  NK048    V     W001 006 08:17:03:20 08:17:05:20 01:01:44:08 01:01:46:08 
M2   NK046          000.0                06:17:05:13 
* IMAGE, RESIZE 
* PUSH, RIGHT TO LEFT 
* FROM CLIP NAME:  642/6 
* TO CLIP NAME:  676/1 
* * FREEZE FRAME: 
007  NK051    V     C        11:03:22:08 11:03:28:07 01:02:31:16 01:02:37:15 
* IMAGE, FLIP 
* FROM CLIP NAME:  719/2 
008  NK011    V     C        11:18:30:05 11:18:31:12 01:04:29:08 01:04:30:15 
* FROM CLIP NAME:  137/1 
009  NK011    V     C        11:18:31:12 11:18:31:23 01:04:30:15 01:04:31:01 
M2   NK011          000.0                11:18:31:12 
* FROM CLIP NAME:  137/1 
* * FREEZE FRAME: 
010  DVTP02   V     C        02:24:01:01 02:24:08:22 01:07:53:14 01:08:01:10 
* FROM CLIP NAME:  DV2/F 
011  DVTP02   V     C        02:20:22:02 02:20:26:17 01:08:01:10 01:08:06:00 
* FROM CLIP NAME:  DV2/F 
012  DVTP02   V     C        02:16:26:07 02:16:31:05 01:08:06:00 01:08:10:23 
* FROM CLIP NAME:  DV2/E 
013  DVTP02   V     C        02:21:30:15 02:21:37:23 01:08:10:23 01:08:18:06 
* FROM CLIP NAME:  DV2/F 
014  DVTP02   V     C        02:26:41:24 02:26:48:21 01:08:18:06 01:08:25:03 
* FROM CLIP NAME:  DV2/F 
015  DVTP02   V     C        02:18:35:18 02:18:38:24 01:08:25:03 01:08:28:09 
* FROM CLIP NAME:  DV2/F 
016  DVTP02   V     C        02:26:49:24 02:26:56:02 01:08:28:09 01:08:34:12 
* FROM CLIP NAME:  DV2/F 
017  NK054    V     C        14:25:08:17 14:25:10:19 01:11:59:04 01:12:01:06 
M2   NK054         -025.0                14:25:08:17 
* FROM CLIP NAME:  NK DIGI.09 
018  NK054    V     C        14:25:23:06 14:25:24:10 01:15:02:21 01:15:04:00 
* FROM CLIP NAME:  NK DIGI.09 
019  NK054    V     C        14:25:24:09 14:25:25:02 01:15:04:00 01:15:04:18 
M2   NK054          000.0                14:25:24:09 
* FROM CLIP NAME:  NK DIGI.09 
* * FREEZE FRAME: 
020  NK054    V     C        14:25:38:12 14:25:39:02 01:15:04:18 01:15:05:08 
* FROM CLIP NAME:  NK DIGI.09 
021  NK054    V     C        14:25:39:01 14:25:39:20 01:15:05:08 01:15:06:02 
M2   NK054          000.0                14:25:39:01 
* FROM CLIP NAME:  NK DIGI.09 
* * FREEZE FRAME: 
022  NK054    V     C        14:25:50:21 14:25:51:09 01:15:06:02 01:15:06:15 
* FROM CLIP NAME:  NK DIGI.09 
023  NK054    V     C        14:25:51:08 14:25:52:09 01:15:06:15 01:15:07:16 
M2   NK054          000.0                14:25:51:08 
* FROM CLIP NAME:  NK DIGI.09 
* * FREEZE FRAME: 
024  NK054    V     C        14:26:22:01 14:26:22:06 01:15:20:10 01:15:20:15 
* FROM CLIP NAME:  NK DIGI.09 
025  NK054    V     C        14:26:22:05 14:26:22:17 01:15:20:15 01:15:21:02 
M2   NK054          000.0                14:26:22:05 
* FROM CLIP NAME:  NK DIGI.09 
* * FREEZE FRAME: 
>>> SOURCE DVTP02   DVTP02           b8a8be43.01e4e1f2 
>>> SOURCE NK011    NK011            b848eb4a.00a95056 
>>> SOURCE NK043    NK043            b8777fe7.027feb88 
>>> SOURCE NK046    NK046            b877a10a.0301c3b3 
>>> SOURCE NK048    NK048            b89aed55.01e1ca16 
>>> SOURCE NK051    NK051            b89c5678.0237d7c6 
>>> SOURCE NK054    NK054            b8db89c6.01f181c8 
TITLE:   NK VS DEF AKTE 1 VOOR EDL BEELD 
001  NK043    V     C        03:16:52:24 03:16:53:21 01:00:52:22 01:00:53:19 
* FROM CLIP NAME:  611A/3 (75 FPS) 
002  NK003    V     C        03:25:06:04 03:25:06:07 01:07:53:14 01:07:53:17 
M2   NK003          000.0                03:25:06:04 
* BLEND_SUPER, LEVEL = 50. 
* FROM CLIP NAME:  049/1 
* * FREEZE FRAME: 
003  NK003    V     C        03:25:06:04 03:25:06:07 01:08:34:10 01:08:34:13 
M2   NK003          000.0                03:25:06:04 
* BLEND_SUPER, LEVEL = 48. 
* FROM CLIP NAME:  049/1 
* * FREEZE FRAME: 
>>> SOURCE NK003    NK003            b83c2612.021c3e8a 
>>> SOURCE NK043    NK043            b8777fe7.027feb88 
TITLE:   NK VS DEF AKTE 2 VOOR EDL BEELD 
001     AX    V     C        00:00:00:00 00:00:00:01 02:00:00:00 02:00:00:01 
* FROM CLIP NAME:  ASDF.08 
002     AX    V     C        00:00:00:00 00:00:00:01 02:17:42:06 02:17:42:07 
* EFF_BLEND_GRAPHIC 
* FROM CLIP NAME:  ASDF.09 
TITLE:   NK VS DEF AKTE 2 VOOR EDL BEELD 
001  NK005    V     C        05:00:10:08 05:00:12:22 02:00:07:17 02:00:10:06 
* FROM CLIP NAME:  066B/1 
002  NK004    V     C        04:33:32:08 04:33:34:01 02:00:10:06 02:00:11:24 
* FROM CLIP NAME:  066A/1 
003  NK005    V     C        05:00:23:00 05:00:24:15 02:00:11:24 02:00:13:14 
* FROM CLIP NAME:  066B/1 
004  NK004    V     C        04:33:42:20 04:33:44:15 02:00:13:14 02:00:15:09 
* FROM CLIP NAME:  066A/1 
005  NK005    V     C        05:00:29:09 05:00:31:08 02:00:15:09 02:00:17:08 
* FROM CLIP NAME:  066B/1 
006  NK004    V     C        04:15:00:05 04:15:02:15 02:00:17:08 02:00:19:18 
* FROM CLIP NAME:  059/5 
007  NK005    V     C        05:01:56:20 05:01:58:14 02:00:19:18 02:00:21:12 
* FROM CLIP NAME:  067A/1 
008  NK005    V     C        05:03:02:15 05:03:03:14 02:00:21:12 02:00:22:11 
* FROM CLIP NAME:  067A/1 
009  NK005    V     C        05:02:45:17 05:02:47:12 02:00:22:11 02:00:24:06 
* FROM CLIP NAME:  067A/1 
010  NK005    V     C        05:02:38:01 05:02:40:01 02:00:24:06 02:00:26:06 
* FROM CLIP NAME:  067A/1 
011  NK005    V     C        05:02:28:08 05:02:30:04 02:00:26:06 02:00:28:02 
* FROM CLIP NAME:  067A/1 
012  NK005    V     C        05:03:23:06 05:03:27:16 02:00:28:02 02:00:32:12 
* FROM CLIP NAME:  067A/1 
013  NK004    V     C        04:36:44:24 04:36:48:16 02:00:32:12 02:00:36:04 
* FROM CLIP NAME:  067B/1 
014  NK005    V     C        05:05:42:21 05:05:44:19 02:00:36:04 02:00:38:02 
* FROM CLIP NAME:  068B/2 
015  NK004    V     C        04:37:28:05 04:37:29:23 02:00:38:02 02:00:39:20 
* FROM CLIP NAME:  068A/1 
016  NK005    V     C        05:03:31:19 05:03:35:06 02:00:39:20 02:00:43:07 
* FROM CLIP NAME:  067A/1 
017  NK005    V     C        05:05:11:03 05:05:12:08 02:00:43:07 02:00:44:12 
* FROM CLIP NAME:  068B/2 
018  NK005    V     C        05:06:05:17 05:06:06:19 02:00:44:12 02:00:45:14 
* FROM CLIP NAME:  068B/2 
019  NK005    V     C        05:03:55:00 05:03:56:11 02:00:45:14 02:00:47:00 
* FROM CLIP NAME:  068B/1 
020  NK004    V     C        04:39:56:03 04:39:57:10 02:00:47:00 02:00:48:07 
* FROM CLIP NAME:  068A/2C 
021  NK005    V     C        05:06:21:21 05:06:22:20 02:00:48:07 02:00:49:06 
* FROM CLIP NAME:  068B/2 
022  NK005    V     C        05:09:27:24 05:09:29:04 02:00:49:06 02:00:50:11 
* FROM CLIP NAME:  070/1 
023  NK005    V     C        05:09:39:24 05:09:40:14 02:00:50:11 02:00:51:01 
* FROM CLIP NAME:  070/1 
024  NK005    V     C        05:09:46:07 05:09:50:14 02:00:51:01 02:00:55:08 
* FROM CLIP NAME:  070/1 
025  NK005    V     C        05:09:44:14 05:09:46:03 02:00:55:08 02:00:56:22 
* FROM CLIP NAME:  070/1 
026  NK005    V     C        05:09:54:10 05:10:00:05 02:00:56:22 02:01:02:17 
* FROM CLIP NAME:  070/1 
027  NK004    V     C        04:15:21:13 04:15:23:15 02:01:02:17 02:01:04:19 
* FROM CLIP NAME:  059/5 
028  NK005    V     C        05:10:02:09 05:10:08:14 02:01:04:19 02:01:10:24 
* FROM CLIP NAME:  070/1 
029  NK040    V     C        20:05:21:22 20:05:25:23 02:01:10:24 02:01:15:00 
* FROM CLIP NAME:  574/3 
030  NK040    V     C        20:05:34:06 20:05:37:07 02:01:15:00 02:01:18:01 
* FROM CLIP NAME:  574/3 
031  NK040    V     C        20:22:04:11 20:22:06:12 02:01:18:01 02:01:20:02 
* FROM CLIP NAME:  577/3 
032  NK040    V     C        20:05:50:15 20:05:52:18 02:01:20:02 02:01:22:05 
* FROM CLIP NAME:  574/3 
033  NK040    V     C        20:25:28:08 20:25:31:10 02:01:22:05 02:01:25:07 
* FROM CLIP NAME:  578/1 
034  NK040    V     C        20:12:53:05 20:12:54:18 02:01:25:07 02:01:26:20 
* FROM CLIP NAME:  576/1 
035  NK040    V     C        20:09:44:18 20:09:50:09 02:01:26:20 02:01:32:11 
* FROM CLIP NAME:  575/2RO 
036  NK040    V     C        20:17:48:01 20:17:48:21 02:01:32:11 02:01:33:06 
* FROM CLIP NAME:  577/1 
037  NK040    V     C        20:20:29:12 20:20:31:15 02:01:33:06 02:01:35:09 
* FROM CLIP NAME:  577/2 
038  NK040    V     C        20:09:53:24 20:09:54:22 02:01:35:09 02:01:36:07 
* FROM CLIP NAME:  575/2RO 
039  NK040    V     C        20:17:51:22 20:17:52:17 02:01:36:07 02:01:37:02 
* FROM CLIP NAME:  577/1 
040  NK040    V     C        20:06:02:06 20:06:03:00 02:01:37:02 02:01:37:21 
* FROM CLIP NAME:  574/3 
041  NK040    V     C        20:13:31:23 20:13:33:05 02:01:37:21 02:01:39:03 
* FROM CLIP NAME:  576/1 
042  NK040    V     C        20:02:02:14 20:02:06:11 02:01:39:03 02:01:43:00 
* FROM CLIP NAME:  574/1 
043  NK040    V     C        20:18:01:20 20:18:04:05 02:01:43:00 02:01:45:10 
* FROM CLIP NAME:  577/1 
044  NK040    V     C        20:08:10:07 20:08:15:03 02:01:45:10 02:01:50:06 
* FROM CLIP NAME:  575/1 
045  NK040    V     C        20:18:16:01 20:18:18:22 02:01:50:06 02:01:53:02 
* FROM CLIP NAME:  577/1 
046  NK040    V     C        20:06:29:01 20:06:30:20 02:01:53:02 02:01:54:21 
* FROM CLIP NAME:  574/3 
047  NK040    V     C        20:18:22:21 20:18:23:22 02:01:54:21 02:01:55:22 
* FROM CLIP NAME:  577/1 
048  NK040    V     C        20:11:46:17 20:11:47:19 02:01:55:22 02:01:56:24 
* FROM CLIP NAME:  575/3 
049  NK040    V     C        20:22:26:06 20:22:27:13 02:01:56:24 02:01:58:06 
* FROM CLIP NAME:  577/3 
050  NK040    V     C        20:06:35:05 20:06:36:10 02:01:58:06 02:01:59:11 
* FROM CLIP NAME:  574/3 
051  NK040    V     C        20:10:31:02 20:10:32:02 02:01:59:11 02:02:00:11 
* FROM CLIP NAME:  575/2RO 
052  NK040    V     C        20:11:56:09 20:11:57:01 02:02:00:11 02:02:01:03 
* FROM CLIP NAME:  575/3 
053  NK040    V     C        20:04:37:24 20:04:43:09 02:02:01:03 02:02:06:13 
* FROM CLIP NAME:  574/2 
054  NK040    V     C        20:18:41:09 20:18:42:10 02:02:06:13 02:02:07:14 
* FROM CLIP NAME:  577/1 
055  NK040    V     C        20:22:47:13 20:22:48:16 02:02:07:14 02:02:08:17 
* FROM CLIP NAME:  577/3 
056  NK040    V     C        20:08:46:16 20:08:47:20 02:02:08:17 02:02:09:21 
* FROM CLIP NAME:  575/1 
057  NK040    V     C        20:16:27:14 20:16:28:14 02:02:09:21 02:02:10:21 
* FROM CLIP NAME:  576/2 
058  NK040    V     C        20:02:45:06 20:02:47:06 02:02:10:21 02:02:12:21 
* FROM CLIP NAME:  574/1 
059  NK040    V     C        20:08:55:01 20:08:56:19 02:02:12:21 02:02:14:14 
* FROM CLIP NAME:  575/1 
060  NK040    V     C        20:23:13:17 20:23:14:19 02:02:14:14 02:02:15:16 
* FROM CLIP NAME:  577/3 
061  NK040    V     C        20:20:41:19 20:20:44:14 02:02:15:16 02:02:18:11 
* FROM CLIP NAME:  577/2 
062  NK040    V     C        20:02:52:18 20:02:56:10 02:02:18:11 02:02:22:03 
* FROM CLIP NAME:  574/1 
063  NK044    V     C        04:21:12:10 04:21:16:07 02:02:22:03 02:02:26:00 
* FROM CLIP NAME:  629A/1 
064  NK044    V     C        04:37:48:15 04:37:50:18 02:02:26:00 02:02:28:03 
* FROM CLIP NAME:  629B/1 
065  NK045    V     C        05:14:09:05 05:14:11:11 02:02:28:03 02:02:30:09 
* FROM CLIP NAME:  635A/1 
066  NK045    V     C        05:09:47:05 05:09:49:05 02:02:30:09 02:02:32:09 
* FROM CLIP NAME:  637/2 
067  NK044    V     C        04:34:27:11 04:34:28:24 02:02:32:09 02:02:33:22 
* FROM CLIP NAME:  627/2 
068  NK045    V     C        05:14:13:01 05:14:16:13 02:02:33:22 02:02:37:09 
* FROM CLIP NAME:  635A/1 
069  NK044    V     C        04:49:00:21 04:49:03:13 02:02:37:09 02:02:40:01 
* FROM CLIP NAME:  631B/1RO 
070  NK045    V     C        05:14:18:03 05:14:19:13 02:02:40:01 02:02:41:11 
* FROM CLIP NAME:  635A/1 
071  NK044    V     C        04:41:12:24 04:41:14:10 02:02:41:11 02:02:42:22 
* FROM CLIP NAME:  629B/2 
072  NK044    V     C        04:24:21:10 04:24:22:20 02:02:42:22 02:02:44:07 
* FROM CLIP NAME:  629A/2 
073  NK044    V     C        04:45:05:07 04:45:06:14 02:02:44:07 02:02:45:14 
* FROM CLIP NAME:  629B/4 
074  NK045    V     C        05:14:40:08 05:14:42:12 02:02:45:14 02:02:47:18 
* FROM CLIP NAME:  635A/1 
075  NK044    V     C        04:41:22:15 04:41:27:03 02:02:47:18 02:02:52:06 
* FROM CLIP NAME:  629B/2 
076  NK044    V     C        04:38:11:19 04:38:12:11 02:02:52:06 02:02:52:23 
* FROM CLIP NAME:  629B/1 
077  NK044    V     C        04:24:35:04 04:24:36:24 02:02:52:23 02:02:54:18 
* FROM CLIP NAME:  629A/2 
078  NK044    V     C        04:45:20:20 04:45:21:24 02:02:54:18 02:02:55:22 
* FROM CLIP NAME:  629B/4 
079  NK045    V     C        05:14:55:07 05:14:59:10 02:02:55:22 02:03:00:00 
* FROM CLIP NAME:  635A/1 
080  NK044    V     C        04:28:24:15 04:28:26:03 02:03:00:00 02:03:01:13 
* FROM CLIP NAME:  629A/4 
081  NK044    V     C        04:45:39:15 04:45:40:04 02:03:01:13 02:03:02:02 
* FROM CLIP NAME:  629B/4 
082  NK044    V     C        04:28:28:19 04:28:30:02 02:03:02:02 02:03:03:10 
* FROM CLIP NAME:  629A/4 
083  NK044    V     C        04:41:51:08 04:41:52:04 02:03:03:10 02:03:04:06 
* FROM CLIP NAME:  629B/2 
084  NK044    V     C        04:22:05:11 04:22:06:04 02:03:04:06 02:03:04:24 
* FROM CLIP NAME:  629A/1 
085  NK044    V     C        04:41:52:13 04:41:53:13 02:03:04:24 02:03:05:24 
* FROM CLIP NAME:  629B/2 
086  NK045    V     C        05:01:15:09 05:01:16:07 02:03:05:24 02:03:06:22 
* FROM CLIP NAME:  631A/1 
087  NK045    V     C        05:19:21:04 05:19:22:19 02:03:06:22 02:03:08:12 
* FROM CLIP NAME:  638A/1 
088  NK045    V     C        05:15:26:04 05:15:28:05 02:03:09:12 02:03:11:13 
* FROM CLIP NAME:  635A/1 
089  NK044    V     C        04:38:49:09 04:38:50:10 02:03:11:13 02:03:12:14 
* FROM CLIP NAME:  629B/1 
090  NK044    V     C        04:45:50:09 04:45:52:03 02:03:12:14 02:03:14:08 
* FROM CLIP NAME:  629B/4 
091  NK045    V     C        05:15:28:17 05:15:31:16 02:03:14:08 02:03:17:07 
* FROM CLIP NAME:  635A/1 
092  NK044    V     C        04:42:06:13 04:42:07:04 02:03:17:07 02:03:17:23 
* FROM CLIP NAME:  629B/2 
093  NK044    V     C        04:25:13:12 04:25:14:07 02:03:17:23 02:03:18:18 
* FROM CLIP NAME:  629A/2 
094  NK044    V     C        04:46:03:17 04:46:05:08 02:03:18:18 02:03:20:09 
* FROM CLIP NAME:  629B/4 
095  NK045    V     C        05:01:32:13 05:01:36:00 02:03:20:09 02:03:23:21 
* FROM CLIP NAME:  631A/1 
096  NK045    V     C        05:15:41:15 05:15:44:23 02:03:23:21 02:03:27:04 
* FROM CLIP NAME:  635A/1 
097  NK045    V     C        05:01:57:11 05:02:00:07 02:03:27:04 02:03:30:00 
* FROM CLIP NAME:  631A/1 
098  NK044    V     C        04:25:42:09 04:25:43:19 02:03:30:00 02:03:31:10 
* FROM CLIP NAME:  629A/2 
099  NK044    V     C        04:42:36:19 04:42:37:16 02:03:31:10 02:03:32:07 
* FROM CLIP NAME:  629B/2 
100  NK044    V     C        04:25:56:03 04:25:56:19 02:03:32:07 02:03:32:23 
* FROM CLIP NAME:  629A/2 
101  NK045    V     C        05:02:18:20 05:02:19:04 02:03:32:23 02:03:33:07 
* FROM CLIP NAME:  631A/1 
102  NK044    V     C        04:42:50:00 04:42:50:06 02:03:33:07 02:03:33:13 
* FROM CLIP NAME:  629B/2 
103  NK044    V     C        04:25:59:21 04:26:02:21 02:03:33:13 02:03:36:13 
* FROM CLIP NAME:  629A/2 
104  NK045    V     C        05:17:41:09 05:17:43:10 02:03:36:13 02:03:38:14 
* FROM CLIP NAME:  636A/1 
105  NK044    V     C        04:46:52:10 04:46:54:05 02:03:38:14 02:03:40:09 
* FROM CLIP NAME:  629B/4 
106  NK044    V     C        04:39:39:12 04:39:40:02 02:03:40:09 02:03:40:24 
* FROM CLIP NAME:  629B/1 
107  NK045    V     C        05:02:28:19 05:02:29:06 02:03:40:24 02:03:41:11 
* FROM CLIP NAME:  631A/1 
108  NK044    V     C        04:43:00:18 04:43:01:10 02:03:41:11 02:03:42:03 
* FROM CLIP NAME:  629B/2 
109  NK044    V     C        04:46:58:16 04:46:59:02 02:03:42:03 02:03:42:14 
* FROM CLIP NAME:  629B/4 
110  NK044    V     C        04:43:01:20 04:43:02:07 02:03:42:14 02:03:43:01 
* FROM CLIP NAME:  629B/2 
111  NK044    V     C        04:23:14:04 04:23:14:16 02:03:43:01 02:03:43:13 
* FROM CLIP NAME:  629A/1 
112  NK044    V     C        04:47:00:16 04:47:01:20 02:03:43:13 02:03:44:17 
* FROM CLIP NAME:  629B/4 
113  NK044    V     C        04:26:12:10 04:26:13:04 02:03:44:17 02:03:45:11 
* FROM CLIP NAME:  629A/2 
114  NK044    V     C        04:43:08:14 04:43:10:11 02:03:45:11 02:03:47:08 
* FROM CLIP NAME:  629B/2 
115  NK044    V     C        04:47:11:07 04:47:12:01 02:03:47:08 02:03:48:02 
* FROM CLIP NAME:  629B/4 
116  NK044    V     C        04:39:52:13 04:39:53:22 02:03:48:02 02:03:49:11 
* FROM CLIP NAME:  629B/1 
117  NK045    V     C        05:15:40:12 05:15:42:10 02:03:49:11 02:03:51:09 
* FROM CLIP NAME:  635A/1 
118  NK044    V     C        04:43:19:06 04:43:21:01 02:03:51:09 02:03:53:04 
* FROM CLIP NAME:  629B/2 
119  NK044    V     C        04:40:01:10 04:40:04:02 02:03:53:04 02:03:55:21 
* FROM CLIP NAME:  629B/1 
120  NK045    V     C        05:16:46:10 05:16:48:02 02:03:55:21 02:03:57:13 
* FROM CLIP NAME:  635A/1 
121  NK045    V     C        05:06:21:20 05:06:23:05 02:03:57:13 02:03:58:23 
* FROM CLIP NAME:  633B/1 
122  NK045    V     C        05:10:13:15 05:10:16:17 02:03:58:23 02:04:02:00 
* FROM CLIP NAME:  632A/1 
123  NK044    V     C        04:47:41:09 04:47:42:12 02:04:02:00 02:04:03:03 
* FROM CLIP NAME:  629B/4 
124  NK045    V     C        05:08:45:07 05:08:46:18 02:04:03:03 02:04:04:14 
* FROM CLIP NAME:  635B/1.5 
125  NK044    V     C        04:40:12:07 04:40:21:09 02:04:04:14 02:04:13:16 
* FROM CLIP NAME:  629B/1 
126  NK045    V     C        05:11:25:07 05:11:28:05 02:04:13:16 02:04:16:14 
* FROM CLIP NAME:  632A/2 
127  NK045    V     C        05:06:39:15 05:06:44:06 02:04:16:14 02:04:21:05 
* FROM CLIP NAME:  633B/1 
128  NK045    V     C        05:12:52:16 05:12:56:01 02:04:21:05 02:04:24:15 
* FROM CLIP NAME:  633A/1 
129  NK045    V     C        05:04:17:04 05:04:19:06 02:04:24:15 02:04:26:17 
* FROM CLIP NAME:  632B/1 
130  NK045    V     C        05:06:50:20 05:06:54:13 02:04:26:17 02:04:30:10 
* FROM CLIP NAME:  633B/1 
131  NK045    V     C        05:04:28:17 05:04:30:00 02:04:30:10 02:04:31:18 
* FROM CLIP NAME:  632B/1 
132  NK046    V     C        06:31:23:16 06:31:26:02 02:04:38:16 02:04:41:02 
* FROM CLIP NAME:  647/2 
133  NK046    V     C        06:23:56:22 06:23:59:06 02:04:41:02 02:04:43:11 
* FROM CLIP NAME:  645/5 
134  NK046    V     C        06:35:00:22 06:35:02:23 02:04:43:11 02:04:45:12 
* FROM CLIP NAME:  648/1 
135  NK046    V     C        06:24:05:15 06:24:08:07 02:04:45:12 02:04:48:04 
* FROM CLIP NAME:  645/5 
136  NK046    V     C        06:36:16:13 06:36:21:17 02:04:48:04 02:04:53:08 
* FROM CLIP NAME:  648/3 
137  NK046    V     C        06:28:46:19 06:28:48:00 02:04:53:08 02:04:54:14 
* FROM CLIP NAME:  646/4 
138  NK046    V     C        06:31:44:15 06:31:46:13 02:04:54:14 02:04:56:12 
* FROM CLIP NAME:  647/2 
139  NK046    V     C        06:24:22:02 06:24:25:21 02:04:56:12 02:05:00:06 
* FROM CLIP NAME:  645/5 
140  NK046    V     C        06:27:55:23 06:27:58:08 02:05:00:06 02:05:02:16 
* FROM CLIP NAME:  646/3 
141  NK046    V     C        06:31:58:12 06:31:59:07 02:05:02:16 02:05:03:11 
* FROM CLIP NAME:  647/2 
142  NK046    V     C        06:24:41:08 06:24:43:10 02:05:03:11 02:05:05:13 
* FROM CLIP NAME:  645/5 
143  NK046    V     C        06:32:06:02 06:32:09:00 02:05:05:13 02:05:08:11 
* FROM CLIP NAME:  647/2 
144  NK046    V     C        06:26:47:03 06:26:50:02 02:05:08:11 02:05:11:10 
* FROM CLIP NAME:  646/2 
145  NK046    V     C        06:33:52:23 06:33:54:13 02:05:11:10 02:05:13:00 
* FROM CLIP NAME:  647/3 
146  NK046    V     C        06:28:07:14 06:28:10:02 02:05:13:00 02:05:15:13 
* FROM CLIP NAME:  646/3 
147  NK046    V     C        06:33:57:08 06:33:58:23 02:05:15:13 02:05:17:03 
* FROM CLIP NAME:  647/3 
148  NK046    V     C        06:28:13:01 06:28:14:05 02:05:17:03 02:05:18:07 
* FROM CLIP NAME:  646/3 
149  NK046    V     C        06:32:30:05 06:32:30:23 02:05:18:07 02:05:19:00 
* FROM CLIP NAME:  647/2 
150  NK046    V     C        06:34:26:06 06:34:30:11 02:05:19:00 02:05:23:05 
* FROM CLIP NAME:  647/3 
151  NK046    V     C        06:29:42:09 06:29:44:03 02:05:23:05 02:05:24:24 
* FROM CLIP NAME:  646/4 
152  NK046    V     C        06:34:34:17 06:34:38:12 02:05:24:24 02:05:28:19 
* FROM CLIP NAME:  647/3 
153  NK046    V     C        06:29:48:12 06:29:51:00 02:05:28:19 02:05:31:07 
* FROM CLIP NAME:  646/4 
154  NK046    V     C        06:32:37:05 06:32:40:16 02:05:31:07 02:05:34:18 
* FROM CLIP NAME:  647/2 
155  NK046    V     C        06:21:50:09 06:21:57:09 02:05:34:18 02:05:41:18 
* FROM CLIP NAME:  645/3 
156  NK046    V     C        06:21:57:09 06:21:57:09 02:05:41:18 02:05:41:18 
156  NK014    V     D    090 14:17:52:02 14:18:04:22 02:05:41:18 02:05:54:13 
* BLEND_DISSOLVE_LOG 
* FROM CLIP NAME:  645/3 
* TO CLIP NAME:  188/4 
157  NK014    V     C        14:25:37:24 14:25:40:22 02:05:54:13 02:05:57:11 
* FROM CLIP NAME:  191/4 
158  NK014    V     C        14:19:52:13 14:20:01:12 02:05:57:11 02:06:06:10 
* FROM CLIP NAME:  189/4 
159  NK014    V     C        14:26:32:02 14:26:33:15 02:06:06:10 02:06:07:23 
* FROM CLIP NAME:  191/5PU 
160  NK014    V     C        14:22:49:22 14:22:51:01 02:06:07:23 02:06:09:02 
* FROM CLIP NAME:  190/4 
161  NK014    V     C        14:25:22:13 14:25:24:17 02:06:09:02 02:06:11:06 
* FROM CLIP NAME:  191/3 
162  NK014    V     C        14:20:36:22 14:20:38:07 02:06:11:06 02:06:12:16 
* FROM CLIP NAME:  189/5 
163  NK013    V     C        13:29:19:03 13:29:29:10 02:06:12:16 02:06:22:23 
* FROM CLIP NAME:  174/8 
164  NK013    V     C        13:31:45:24 13:31:53:06 02:06:22:23 02:06:30:05 
* FROM CLIP NAME:  175/3 
165  NK015    V     C        15:27:18:09 15:27:36:11 02:06:30:05 02:06:48:07 
* FROM CLIP NAME:  211/2AFG 
166  NK015    V     C        15:35:34:16 15:35:37:02 02:06:48:07 02:06:50:18 
* FROM CLIP NAME:  213/2 
167  NK015    V     C        15:33:41:03 15:33:43:13 02:06:50:18 02:06:53:03 
* FROM CLIP NAME:  212/3ING 
168  NK015    V     C        15:35:42:07 15:35:46:10 02:06:53:03 02:06:57:06 
* FROM CLIP NAME:  213/2 
169  NK015    V     C        15:28:17:19 15:28:20:09 02:06:57:06 02:06:59:21 
* FROM CLIP NAME:  211/3 
170  NK015    V     C        15:39:32:16 15:39:38:04 02:06:59:21 02:07:05:09 
* FROM CLIP NAME:  213/6 
171  NK015    V     C        15:44:16:22 15:44:19:14 02:07:05:09 02:07:08:01 
* FROM CLIP NAME:  215/4 
172  NK015    V     C        15:40:49:19 15:41:00:11 02:07:08:01 02:07:18:18 
* FROM CLIP NAME:  214/2 
173  NK015    V     C        15:44:31:02 15:44:33:22 02:07:18:18 02:07:21:13 
* FROM CLIP NAME:  215/4 
174  NK016    V     C        16:02:50:14 16:02:53:02 02:07:21:13 02:07:24:01 
* FROM CLIP NAME:  216/7 
175  NK015    V     C        15:44:36:07 15:44:39:04 02:07:24:01 02:07:26:23 
* FROM CLIP NAME:  215/4 
176  NK016    V     C        16:01:49:18 16:01:53:03 02:07:26:23 02:07:30:08 
* FROM CLIP NAME:  216/5 
177  NK015    V     C        15:43:11:15 15:43:17:21 02:07:30:08 02:07:36:14 
* FROM CLIP NAME:  215/3 
178  NK016    V     C        16:03:07:11 16:03:09:20 02:07:36:14 02:07:38:23 
* FROM CLIP NAME:  216/7 
179  NK015    V     C        15:43:19:01 15:43:21:19 02:07:38:23 02:07:41:16 
* FROM CLIP NAME:  215/3 
180  NK016    V     C        16:03:13:23 16:03:15:11 02:07:41:16 02:07:43:04 
* FROM CLIP NAME:  216/7 
181  NK015    V     C        15:42:31:05 15:42:33:11 02:07:43:04 02:07:45:10 
* FROM CLIP NAME:  215/2 
182  NK016    V     C        16:03:20:20 16:03:22:01 02:07:45:10 02:07:46:16 
* FROM CLIP NAME:  216/7 
183  NK015    V     C        15:44:50:17 15:44:52:07 02:07:46:16 02:07:48:06 
* FROM CLIP NAME:  215/4 
184  NK016    V     C        16:03:22:06 16:03:25:17 02:07:48:06 02:07:51:17 
* FROM CLIP NAME:  216/7 
185  NK015    V     C        15:42:36:22 15:42:38:19 02:07:51:17 02:07:53:14 
* FROM CLIP NAME:  215/2 
186  NK015    V     C        15:43:30:12 15:43:34:23 02:07:53:14 02:07:58:00 
* FROM CLIP NAME:  215/3 
187  NK016    V     C        16:05:50:14 16:05:52:18 02:07:58:00 02:08:00:04 
* FROM CLIP NAME:  217/2 
188  NK015    V     C        15:45:12:19 15:45:14:19 02:08:00:04 02:08:02:04 
* FROM CLIP NAME:  215/4 
189  NK017    V     C        17:39:20:19 17:39:26:15 02:08:02:04 02:08:08:00 
* FROM CLIP NAME:  234/2 
190  NK017    V     C        17:40:08:09 17:40:10:20 02:08:08:00 02:08:10:11 
* FROM CLIP NAME:  235/2 
191  NK017    V     C        17:37:14:15 17:37:17:01 02:08:10:11 02:08:12:22 
* FROM CLIP NAME:  232/1 
192  NK017    V     C        17:40:11:24 17:40:15:04 02:08:12:22 02:08:16:02 
* FROM CLIP NAME:  235/2 
193  NK017    V     C        17:37:23:09 17:37:30:07 02:08:16:02 02:08:23:00 
* FROM CLIP NAME:  232/1 
194  NK017    V     C        17:40:20:02 17:40:23:01 02:08:23:00 02:08:25:24 
* FROM CLIP NAME:  235/2 
195  NK017    V     C        17:39:34:04 17:39:44:16 02:08:25:24 02:08:36:11 
* FROM CLIP NAME:  234/2 
196  NK054    V     C        14:20:28:07 14:20:33:09 02:08:36:11 02:08:41:13 
* FROM CLIP NAME:  NK DIGI.08 
197  NK016    V     C        16:14:12:16 16:14:16:04 02:08:41:13 02:08:45:01 
* FROM CLIP NAME:  219/3 
198  NK016    V     C        16:14:22:14 16:14:39:05 02:08:45:01 02:09:01:17 
* FROM CLIP NAME:  219/3 
199  NK016    V     C        16:13:40:24 16:13:43:02 02:09:01:17 02:09:03:20 
* FROM CLIP NAME:  219/2 
200  NK016    V     C        16:10:27:02 16:10:30:02 02:09:03:20 02:09:06:20 
* FROM CLIP NAME:  218/1 
201  NK016    V     C        16:18:13:05 16:18:16:01 02:09:06:20 02:09:09:16 
* FROM CLIP NAME:  220/3 
202  NK017    V     C        17:42:17:10 17:42:19:10 02:09:09:16 02:09:11:16 
* FROM CLIP NAME:  236/2 
203  NK016    V     C        16:18:18:06 16:18:22:08 02:09:11:16 02:09:15:18 
* FROM CLIP NAME:  220/3 
204  NK017    V     C        17:43:04:23 17:43:08:24 02:09:15:18 02:09:19:19 
* FROM CLIP NAME:  236/3 
205  NK016    V     C        16:18:22:15 16:18:25:12 02:09:19:19 02:09:22:16 
* FROM CLIP NAME:  220/3 
206  NK017    V     C        17:43:12:16 17:43:15:18 02:09:22:16 02:09:25:18 
* FROM CLIP NAME:  236/3 
207  NK016    V     C        16:17:16:01 16:17:16:24 02:09:25:18 02:09:26:16 
* FROM CLIP NAME:  220/2 
208  NK017    V     C        17:43:16:18 17:43:17:07 02:09:26:16 02:09:27:05 
* FROM CLIP NAME:  236/3 
209  NK016    V     C        16:25:01:05 16:25:02:13 02:09:30:16 02:09:31:24 
* FROM CLIP NAME:  222/3AFG 
210  NK016    V     C        16:18:44:19 16:18:47:06 02:09:31:24 02:09:34:11 
* FROM CLIP NAME:  220/3 
211  NK016    V     C        16:23:17:00 16:23:18:18 02:09:34:11 02:09:36:04 
* FROM CLIP NAME:  222/1 
212  NK016    V     C        16:17:37:11 16:17:39:20 02:09:36:04 02:09:38:13 
* FROM CLIP NAME:  220/2 
213  NK016    V     C        16:23:22:14 16:23:24:22 02:09:38:13 02:09:40:21 
* FROM CLIP NAME:  222/1 
214  NK016    V     C        16:17:39:20 16:17:41:11 02:09:40:21 02:09:42:12 
* FROM CLIP NAME:  220/2 
215  NK016    V     C        16:18:58:11 16:19:01:19 02:09:44:07 02:09:47:15 
* FROM CLIP NAME:  220/3 
216  NK016    V     C        16:26:00:11 16:26:02:09 02:09:47:15 02:09:49:13 
* FROM CLIP NAME:  222/4 
217  NK016    V     C        16:19:04:01 16:19:10:16 02:09:49:13 02:09:56:03 
* FROM CLIP NAME:  220/3 
218  NK016    V     C        16:23:44:06 16:23:46:12 02:09:56:03 02:09:58:09 
* FROM CLIP NAME:  222/1 
219  NK016    V     C        16:19:13:20 16:19:18:06 02:09:58:09 02:10:02:20 
* FROM CLIP NAME:  220/3 
220  NK016    V     C        16:25:24:16 16:25:26:00 02:10:02:20 02:10:04:04 
* FROM CLIP NAME:  222/4 
221  NK016    V     C        16:16:25:21 16:16:30:03 02:10:04:04 02:10:08:11 
* FROM CLIP NAME:  220/1 
222  NK016    V     C        16:20:31:01 16:20:36:19 02:10:08:11 02:10:14:04 
* FROM CLIP NAME:  221/1 
223  NK016    V     C        16:34:06:02 16:34:10:01 02:10:14:04 02:10:18:03 
* FROM CLIP NAME:  223/3 
224  NK016    V     C        16:20:44:23 16:20:56:01 02:10:18:03 02:10:29:06 
* FROM CLIP NAME:  221/1 
225  NK017    V     C        17:19:56:23 17:19:59:07 02:10:29:06 02:10:31:15 
* FROM CLIP NAME:  228/1 
226  NK016    V     C        16:34:59:02 16:35:01:10 02:10:31:15 02:10:33:23 
* FROM CLIP NAME:  223/4 
227  NK017    V     C        17:19:59:09 17:20:03:03 02:10:33:23 02:10:37:17 
* FROM CLIP NAME:  228/1 
228  NK016    V     C        16:35:11:24 16:35:16:03 02:10:37:17 02:10:41:21 
* FROM CLIP NAME:  223/4 
229  NK016    V     C        16:36:35:15 16:36:38:24 02:10:41:21 02:10:45:05 
* FROM CLIP NAME:  224A/1 
230  NK017    V     C        17:32:08:05 17:32:11:04 02:10:45:05 02:10:48:04 
* FROM CLIP NAME:  228/3 
231  NK016    V     C        16:35:21:03 16:35:22:24 02:10:48:04 02:10:50:00 
* FROM CLIP NAME:  223/4 
232  NK017    V     C        17:32:12:16 17:32:14:08 02:10:50:00 02:10:51:17 
* FROM CLIP NAME:  228/3 
233  NK016    V     C        16:35:22:24 16:35:25:02 02:10:51:17 02:10:53:20 
* FROM CLIP NAME:  223/4 
234  NK017    V     C        17:33:23:11 17:33:25:12 02:10:53:20 02:10:55:21 
* FROM CLIP NAME:  228/4 
235  NK016    V     C        16:35:25:15 16:35:27:11 02:10:55:21 02:10:57:17 
* FROM CLIP NAME:  223/4 
236  NK017    V     C        17:00:36:19 17:00:41:10 02:10:57:17 02:11:02:08 
* FROM CLIP NAME:  224B/1 
237  NK016    V     C        16:44:54:08 16:45:01:07 02:11:02:08 02:11:09:07 
* FROM CLIP NAME:  226A/1A 
238  NK017    V     C        17:00:47:05 17:00:48:24 02:11:09:07 02:11:11:01 
* FROM CLIP NAME:  224B/1 
239  NK016    V     C        16:37:08:01 16:37:10:17 02:11:11:01 02:11:13:17 
* FROM CLIP NAME:  224A/1 
240  NK017    V     C        17:00:51:01 17:00:55:04 02:11:13:17 02:11:17:20 
* FROM CLIP NAME:  224B/1 
241  NK016    V     C        16:37:18:01 16:37:22:09 02:11:17:20 02:11:22:03 
* FROM CLIP NAME:  224A/1 
242  NK017    V     C        17:00:59:21 17:01:02:08 02:11:22:03 02:11:24:15 
* FROM CLIP NAME:  224B/1 
243  NK016    V     C        16:37:24:13 16:37:29:06 02:11:24:15 02:11:29:08 
* FROM CLIP NAME:  224A/1 
244  NK017    V     C        17:01:07:11 17:01:13:23 02:11:29:08 02:11:35:20 
* FROM CLIP NAME:  224B/1 
245  NK016    V     C        16:37:35:18 16:37:37:11 02:11:35:20 02:11:37:13 
* FROM CLIP NAME:  224A/1 
246  NK017    V     C        17:01:15:08 17:01:17:12 02:11:37:13 02:11:39:17 
* FROM CLIP NAME:  224B/1 
247  NK017    V     C        17:22:00:17 17:22:04:22 02:11:39:17 02:11:43:22 
* FROM CLIP NAME:  227B/2 
248  NK017    V     C        17:11:40:00 17:11:43:13 02:11:43:22 02:11:47:10 
* FROM CLIP NAME:  227A/2 
249  NK017    V     C        17:05:14:18 17:05:20:13 02:11:47:10 02:11:53:05 
* FROM CLIP NAME:  225B/1 
250  NK017    V     C        17:11:47:01 17:11:48:17 02:11:53:05 02:11:54:21 
* FROM CLIP NAME:  227A/2 
251  NK017    V     C        17:01:28:14 17:01:31:12 02:11:54:21 02:11:57:19 
* FROM CLIP NAME:  224B/1 
252  NK017    V     C        17:11:49:22 17:11:51:14 02:11:57:19 02:11:59:11 
* FROM CLIP NAME:  227A/2 
253  NK017    V     C        17:01:32:13 17:01:39:00 02:11:59:11 02:12:05:23 
* FROM CLIP NAME:  224B/1 
254  NK016    V     C        16:38:01:04 16:38:02:13 02:12:05:23 02:12:07:07 
* FROM CLIP NAME:  224A/1 
255  NK017    V     C        17:01:40:02 17:01:42:09 02:12:07:07 02:12:09:14 
* FROM CLIP NAME:  224B/1 
256  NK016    V     C        16:38:04:08 16:38:06:00 02:12:09:14 02:12:11:06 
* FROM CLIP NAME:  224A/1 
257  NK017    V     C        17:22:29:21 17:22:30:12 02:12:11:06 02:12:11:22 
* FROM CLIP NAME:  227B/2 
258  NK017    V     C        17:01:44:19 17:01:46:21 02:12:11:22 02:12:13:24 
* FROM CLIP NAME:  224B/1 
259  NK016    V     C        16:45:41:04 16:45:43:08 02:12:13:24 02:12:16:03 
* FROM CLIP NAME:  226A/1B 
260  NK016    V     C        16:38:10:15 16:38:12:22 02:12:16:03 02:12:18:10 
* FROM CLIP NAME:  224A/1 
261  NK017    V     C        17:09:54:22 17:09:57:13 02:12:18:10 02:12:21:01 
* FROM CLIP NAME:  226B/1 
262  NK016    V     C        16:38:15:22 16:38:17:15 02:12:21:01 02:12:22:19 
* FROM CLIP NAME:  224A/1 
263  NK016    V     C        16:45:52:03 16:45:55:04 02:12:22:19 02:12:25:20 
* FROM CLIP NAME:  226A/1B 
264  NK016    V     C        16:38:22:16 16:38:23:19 02:12:25:20 02:12:26:23 
* FROM CLIP NAME:  224A/1 
265  NK017    V     C        17:02:01:06 17:02:02:17 02:12:26:23 02:12:28:09 
* FROM CLIP NAME:  224B/1 
266  NK016    V     C        16:45:59:05 16:46:03:06 02:12:28:09 02:12:32:10 
* FROM CLIP NAME:  226A/1B 
267  NK017    V     C        17:02:09:09 17:02:12:20 02:12:32:10 02:12:35:21 
* FROM CLIP NAME:  224B/1 
268  NK016    V     C        16:38:45:18 16:38:47:22 02:12:35:21 02:12:38:00 
* FROM CLIP NAME:  224A/1 
269  NK017    V     C        17:10:23:03 17:10:24:17 02:12:38:00 02:12:39:14 
* FROM CLIP NAME:  226B/1 
270  NK017    V     C        17:02:26:09 17:02:27:09 02:12:39:14 02:12:40:14 
* FROM CLIP NAME:  224B/1 
271  NK016    V     C        16:38:49:11 16:38:52:15 02:12:40:14 02:12:43:18 
* FROM CLIP NAME:  224A/1 
272  NK016    V     C        16:46:15:11 16:46:19:08 02:12:43:18 02:12:47:15 
* FROM CLIP NAME:  226A/1C 
273  NK018    V     C        18:00:58:09 18:01:00:05 02:12:47:15 02:12:49:11 
* FROM CLIP NAME:  238/1 
274  NK018    V     C        18:00:22:05 18:00:24:14 02:12:49:11 02:12:51:20 
* FROM CLIP NAME:  237/2 
275  NK018    V     C        18:01:14:03 18:01:18:13 02:12:51:20 02:12:56:05 
* FROM CLIP NAME:  239/1 
276  NK018    V     C        18:03:28:18 18:03:30:08 02:12:56:05 02:12:57:20 
* FROM CLIP NAME:  240/6 
277  NK017    V     C        17:06:43:02 17:06:45:17 02:12:57:20 02:13:00:10 
* FROM CLIP NAME:  225B/1 
278  NK016    V     C        16:43:14:16 16:43:18:05 02:13:00:10 02:13:03:24 
* FROM CLIP NAME:  225A/1 
279  NK017    V     C        17:06:52:02 17:06:53:21 02:13:03:24 02:13:05:18 
* FROM CLIP NAME:  225B/1 
280  NK018    V     C        18:03:57:12 18:03:58:12 02:13:05:18 02:13:06:18 
* FROM CLIP NAME:  241/2 
281  NK018    V     C        18:05:58:07 18:06:00:01 02:13:06:18 02:13:08:12 
* FROM CLIP NAME:  243/2 
282  NK018    V     C        18:05:29:14 18:05:30:18 02:13:08:12 02:13:09:16 
* FROM CLIP NAME:  242/5 
283  NK018    V     C        18:06:00:01 18:06:01:14 02:13:09:16 02:13:11:04 
* FROM CLIP NAME:  243/2 
284  NK017    V     C        17:10:28:16 17:10:30:24 02:13:11:04 02:13:13:12 
* FROM CLIP NAME:  226B/1 
285  NK017    V     C        17:13:19:02 17:13:21:20 02:13:13:12 02:13:16:05 
* FROM CLIP NAME:  227A/2 
286  NK017    V     C        17:06:58:01 17:07:01:16 02:13:16:05 02:13:19:20 
* FROM CLIP NAME:  225B/1 
287  NK018    V     C        18:18:48:19 18:18:51:04 02:13:19:20 02:13:22:05 
* FROM CLIP NAME:  249/3 
288  NK018    V     C        18:20:48:04 18:20:49:22 02:13:22:05 02:13:23:23 
* FROM CLIP NAME:  251/1 
289  NK017    V     C        17:02:53:21 17:02:58:23 02:13:23:23 02:13:29:00 
* FROM CLIP NAME:  224B/1 
290  NK016    V     C        16:43:31:03 16:43:34:11 02:13:29:00 02:13:32:08 
* FROM CLIP NAME:  225A/1 
291  NK017    V     C        17:07:15:10 17:07:16:18 02:13:32:08 02:13:33:16 
* FROM CLIP NAME:  225B/1 
292  NK017    V     C        17:14:23:05 17:14:24:12 02:13:33:16 02:13:34:23 
* FROM CLIP NAME:  227A/4 
293  NK018    V     C        18:18:21:13 18:18:23:11 02:13:34:23 02:13:36:21 
* FROM CLIP NAME:  249/2 
294  NK017    V     C        17:07:19:02 17:07:20:14 02:13:38:20 02:13:40:07 
* FROM CLIP NAME:  225B/1 
295  NK017    V     C        17:14:27:23 17:14:28:07 02:13:40:07 02:13:40:16 
* FROM CLIP NAME:  227A/4 
296  NK016    V     C        16:43:41:15 16:43:43:10 02:13:40:16 02:13:42:11 
* FROM CLIP NAME:  225A/1 
297  NK017    V     C        17:07:24:14 17:07:27:00 02:13:42:11 02:13:44:22 
* FROM CLIP NAME:  225B/1 
298  NK017    V     C        17:15:41:22 17:15:43:19 02:13:44:22 02:13:46:19 
* FROM CLIP NAME:  227A/6 
299  NK018    V     C        18:14:31:16 18:14:33:04 02:13:46:19 02:13:48:07 
* FROM CLIP NAME:  248/2 
300  NK018    V     C        18:19:43:13 18:19:44:15 02:13:48:07 02:13:49:09 
* FROM CLIP NAME:  249/4 
301  NK018    V     C        18:11:02:10 18:11:03:14 02:13:49:09 02:13:50:13 
* FROM CLIP NAME:  246/3 
302  NK018    V     C        18:15:16:05 18:15:17:07 02:13:50:13 02:13:51:15 
* FROM CLIP NAME:  249/1 
303  NK018    V     C        18:09:16:04 18:09:17:03 02:13:51:15 02:13:52:14 
* FROM CLIP NAME:  245/2 
304  NK017    V     C        17:03:21:21 17:03:23:02 02:13:52:14 02:13:53:20 
* FROM CLIP NAME:  224B/1 
305  NK017    V     C        17:18:23:12 17:18:24:06 02:13:53:20 02:13:54:14 
* FROM CLIP NAME:  227A/10 
306  NK017    V     C        17:29:22:12 17:29:23:06 02:13:54:14 02:13:55:08 
* FROM CLIP NAME:  227B/10 
307  NK018    V     C        18:15:20:01 18:15:20:08 02:13:55:08 02:13:55:15 
* FROM CLIP NAME:  249/1 
308  NK018    V     C        18:20:25:24 18:20:26:08 02:13:55:15 02:13:55:24 
* FROM CLIP NAME:  250/1 
309  NK018    V     C        18:12:14:00 18:12:14:09 02:13:55:24 02:13:56:08 
* FROM CLIP NAME:  247/3 
310  NK017    V     C        17:18:20:09 17:18:21:12 02:13:57:14 02:13:58:17 
* FROM CLIP NAME:  227A/10 
311  NK017    V     C        17:27:55:13 17:27:56:13 02:13:58:17 02:13:59:17 
* FROM CLIP NAME:  227B/8 
312  NK017    V     C        17:18:21:13 17:18:23:08 02:13:59:17 02:14:01:12 
* FROM CLIP NAME:  227A/10 
313  NK017    V     C        17:29:47:04 17:29:49:18 02:14:01:12 02:14:04:01 
* FROM CLIP NAME:  227B/11 
314  NK017    V     C        17:03:39:04 17:03:43:02 02:14:04:01 02:14:07:24 
* FROM CLIP NAME:  224B/1 
315  NK017    V     C        17:17:09:00 17:17:17:24 02:14:07:24 02:14:16:23 
* FROM CLIP NAME:  227A/8 
316  NK014    V     C        14:07:31:19 14:07:35:10 02:14:16:23 02:14:20:14 
* FROM CLIP NAME:  180/6 
317  NK014    V     C        14:06:11:13 14:06:13:17 02:14:20:14 02:14:22:18 
* FROM CLIP NAME:  180/3 
318  NK022    V     C        02:08:00:20 02:08:04:08 02:14:22:18 02:14:26:06 
* FROM CLIP NAME:  319/1 
319  NK022    V     C        02:13:47:23 02:13:49:05 02:14:26:06 02:14:27:13 
* FROM CLIP NAME:  320/2 
320  NK047    V     C        07:06:20:14 07:06:22:06 02:14:27:13 02:14:29:05 
* FROM CLIP NAME:  652/3 
321  NK047    V     C        07:04:53:00 07:04:58:21 02:14:29:05 02:14:35:01 
* FROM CLIP NAME:  651/4 
322  NK022    V     C        02:20:30:12 02:20:35:12 02:14:35:01 02:14:40:01 
* FROM CLIP NAME:  324/2A 
323  NK022    V     C        02:08:05:02 02:08:07:05 02:14:40:01 02:14:42:04 
* FROM CLIP NAME:  319/1 
324  NK022    V     C        02:13:51:09 02:13:53:03 02:14:42:04 02:14:43:23 
* FROM CLIP NAME:  320/2 
325  NK022    V     C        02:08:14:03 02:08:16:00 02:14:43:23 02:14:45:20 
* FROM CLIP NAME:  319/1 
326  NK022    V     C        02:14:19:17 02:14:22:23 02:14:45:20 02:14:49:01 
* FROM CLIP NAME:  320/2 
327  NK022    V     C        02:16:55:17 02:17:01:01 02:14:49:01 02:14:54:10 
* FROM CLIP NAME:  322/1 
328  NK022    V     C        02:13:07:07 02:13:08:12 02:14:54:10 02:14:55:15 
* FROM CLIP NAME:  320/1 
329  NK022    V     C        02:11:33:22 02:11:36:16 02:14:55:15 02:14:58:09 
* FROM CLIP NAME:  319/3PU 
330  NK022    V     C        02:14:41:18 02:14:43:17 02:14:58:09 02:15:00:08 
* FROM CLIP NAME:  320/2 
331  NK022    V     C        02:18:41:12 02:18:44:14 02:15:00:08 02:15:03:10 
* FROM CLIP NAME:  323/1B 
332  NK041    V     C        01:39:04:03 01:39:05:20 02:15:03:10 02:15:05:02 
* FROM CLIP NAME:  592/3 
333  NK041    V     C        01:00:08:16 01:00:10:20 02:15:05:02 02:15:07:06 
* FROM CLIP NAME:  580/1 
334  NK041    V     C        01:03:26:11 01:03:30:03 02:15:07:06 02:15:10:23 
* FROM CLIP NAME:  581/1 
335  NK041    V     C        01:01:42:24 01:01:48:02 02:15:10:23 02:15:16:01 
* FROM CLIP NAME:  580/2 
336  NK041    V     C        01:03:37:15 01:03:42:12 02:15:16:01 02:15:20:23 
* FROM CLIP NAME:  581/1 
337  NK041    V     C        01:08:37:11 01:08:38:15 02:15:20:23 02:15:22:02 
* FROM CLIP NAME:  583/2 
338  NK041    V     C        01:00:47:06 01:00:50:04 02:15:22:02 02:15:25:00 
* FROM CLIP NAME:  580/1 
339  NK041    V     C        01:08:03:09 01:08:04:22 02:15:25:00 02:15:26:13 
* FROM CLIP NAME:  583/1AFG 
340  NK041    V     C        01:20:11:04 01:20:12:08 02:15:26:13 02:15:27:17 
* FROM CLIP NAME:  586/1 
341  NK041    V     C        01:16:09:09 01:16:10:16 02:15:27:17 02:15:28:24 
* FROM CLIP NAME:  584/1 
342  NK041    V     C        01:08:45:12 01:08:47:08 02:15:28:24 02:15:30:20 
* FROM CLIP NAME:  583/2 
343  NK041    V     C        01:04:13:02 01:04:15:23 02:15:30:20 02:15:33:16 
* FROM CLIP NAME:  581/1 
344  NK041    V     C        01:08:50:04 01:08:53:01 02:15:33:16 02:15:36:13 
* FROM CLIP NAME:  583/2 
345  NK041    V     C        01:25:06:13 01:25:07:17 02:15:36:13 02:15:37:17 
* FROM CLIP NAME:  588/1 
346  NK041    V     C        01:02:42:06 01:02:44:15 02:15:37:17 02:15:40:01 
* FROM CLIP NAME:  580/2 
347  NK041    V     C        01:12:05:10 01:12:06:12 02:15:40:01 02:15:41:03 
* FROM CLIP NAME:  583/3 
348  NK041    V     C        01:16:27:10 01:16:28:02 02:15:41:03 02:15:41:20 
* FROM CLIP NAME:  584/1 
349  NK041    V     C        01:20:32:04 01:20:35:09 02:15:41:20 02:15:45:00 
* FROM CLIP NAME:  586/1 
350  NK041    V     C        01:28:28:15 01:28:30:12 02:15:45:00 02:15:46:22 
* FROM CLIP NAME:  588/3 
351  NK041    V     C        01:09:08:00 01:09:10:15 02:15:46:22 02:15:49:12 
* FROM CLIP NAME:  583/2 
352  NK041    V     C        01:28:32:16 01:28:33:20 02:15:49:12 02:15:50:16 
* FROM CLIP NAME:  588/3 
353  NK041    V     C        01:12:21:02 01:12:21:24 02:15:50:16 02:15:51:13 
* FROM CLIP NAME:  583/3 
354  NK041    V     C        01:28:36:21 01:28:37:15 02:15:51:13 02:15:52:07 
* FROM CLIP NAME:  588/3 
355  NK041    V     C        01:20:48:10 01:20:49:23 02:15:52:07 02:15:53:20 
* FROM CLIP NAME:  586/1 
356  NK041    V     C        01:28:39:16 01:28:41:05 02:15:53:20 02:15:55:09 
* FROM CLIP NAME:  588/3 
357  NK041    V     C        01:09:21:10 01:09:25:05 02:15:55:09 02:15:59:04 
* FROM CLIP NAME:  583/2 
358  NK041    V     C        01:28:47:13 01:28:48:14 02:15:59:04 02:16:00:05 
* FROM CLIP NAME:  588/3 
359  NK041    V     C        01:16:37:07 01:16:38:03 02:16:00:05 02:16:01:01 
* FROM CLIP NAME:  584/1 
360  NK041    V     C        01:28:50:24 01:28:52:00 02:16:01:01 02:16:02:02 
* FROM CLIP NAME:  588/3 
361  NK041    V     C        01:16:55:01 01:16:57:16 02:16:02:02 02:16:04:17 
* FROM CLIP NAME:  584/1 
362  NK041    V     C        01:09:35:09 01:09:36:05 02:16:04:17 02:16:05:13 
* FROM CLIP NAME:  583/2 
363  NK041    V     C        01:21:03:03 01:21:04:07 02:16:05:13 02:16:06:17 
* FROM CLIP NAME:  586/1 
364  NK041    V     C        01:28:58:08 01:28:59:09 02:16:06:17 02:16:07:18 
* FROM CLIP NAME:  588/3 
365  NK041    V     C        01:17:02:01 01:17:02:20 02:16:07:18 02:16:08:12 
* FROM CLIP NAME:  584/1 
366  NK041    V     C        01:09:40:13 01:09:41:15 02:16:08:12 02:16:09:14 
* FROM CLIP NAME:  583/2 
367  NK041    V     C        01:17:03:17 01:17:04:18 02:16:09:14 02:16:10:15 
* FROM CLIP NAME:  584/1 
368  NK041    V     C        01:09:44:03 01:09:44:20 02:16:10:15 02:16:11:07 
* FROM CLIP NAME:  583/2 
369  NK041    V     C        01:29:02:14 01:29:03:18 02:16:11:07 02:16:12:11 
* FROM CLIP NAME:  588/3 
370  NK041    V     C        01:09:45:11 01:09:47:02 02:16:12:11 02:16:14:02 
* FROM CLIP NAME:  583/2 
371  NK041    V     C        01:21:04:15 01:21:05:18 02:16:14:02 02:16:15:05 
* FROM CLIP NAME:  586/1 
372  NK041    V     C        01:29:13:05 01:29:13:18 02:16:15:05 02:16:15:18 
* FROM CLIP NAME:  588/3 
373  NK041    V     C        01:17:12:09 01:17:13:11 02:16:15:18 02:16:16:20 
* FROM CLIP NAME:  584/1 
374  NK041    V     C        01:09:49:03 01:09:50:16 02:16:16:20 02:16:18:08 
* FROM CLIP NAME:  583/2 
375  NK041    V     C        01:21:18:03 01:21:20:18 02:16:18:08 02:16:20:23 
* FROM CLIP NAME:  586/1 
376  NK041    V     C        01:29:17:05 01:29:18:04 02:16:20:23 02:16:21:22 
* FROM CLIP NAME:  588/3 
377  NK041    V     C        01:21:21:17 01:21:25:00 02:16:21:22 02:16:25:05 
* FROM CLIP NAME:  586/1 
378  NK041    V     C        01:10:02:00 01:10:03:03 02:16:25:05 02:16:26:08 
* FROM CLIP NAME:  583/2 
379  NK041    V     C        01:17:20:23 01:17:21:23 02:16:26:08 02:16:27:08 
* FROM CLIP NAME:  584/1 
380  NK041    V     C        01:21:27:03 01:21:29:11 02:16:27:08 02:16:29:16 
* FROM CLIP NAME:  586/1 
381  NK041    V     C        01:10:04:12 01:10:05:17 02:16:29:16 02:16:30:21 
* FROM CLIP NAME:  583/2 
382  NK041    V     C        01:31:16:01 01:31:18:08 02:16:30:21 02:16:33:03 
* FROM CLIP NAME:  588/4PU 
383  NK041    V     C        01:34:18:12 01:34:20:02 02:16:33:03 02:16:34:18 
* FROM CLIP NAME:  589/1RO 
384  NK041    V     C        01:10:11:16 01:10:13:20 02:16:34:18 02:16:36:22 
* FROM CLIP NAME:  583/2 
385  NK041    V     C        01:31:20:17 01:31:22:21 02:16:36:22 02:16:39:01 
* FROM CLIP NAME:  588/4PU 
386  NK041    V     C        01:34:25:23 01:34:34:20 02:16:39:01 02:16:47:23 
* FROM CLIP NAME:  589/1RO 
387  NK041    V     C        01:26:26:05 01:26:27:20 02:16:47:23 02:16:49:13 
* FROM CLIP NAME:  588/1 
388  NK041    V     C        01:34:39:00 01:34:41:16 02:16:49:13 02:16:52:04 
* FROM CLIP NAME:  589/1RO 
389  NK041    V     C        01:10:18:00 01:10:20:04 02:16:52:04 02:16:54:08 
* FROM CLIP NAME:  583/2 
390  NK041    V     C        01:26:33:16 01:26:34:10 02:16:54:08 02:16:55:02 
* FROM CLIP NAME:  588/1 
391  NK041    V     C        01:34:46:13 01:34:48:19 02:16:55:02 02:16:57:08 
* FROM CLIP NAME:  589/1RO 
392  NK041    V     C        01:17:52:06 01:17:53:08 02:16:57:08 02:16:58:10 
* FROM CLIP NAME:  584/1 
393  NK041    V     C        01:10:30:14 01:10:32:10 02:16:58:10 02:17:00:06 
* FROM CLIP NAME:  583/2 
394  NK041    V     C        01:31:43:15 01:31:44:12 02:17:00:06 02:17:01:03 
* FROM CLIP NAME:  588/4PU 
395  NK041    V     C        01:34:54:00 01:34:54:23 02:17:01:03 02:17:02:01 
* FROM CLIP NAME:  589/1RO 
396  NK041    V     C        01:14:45:14 01:14:48:23 02:17:02:01 02:17:05:10 
* FROM CLIP NAME:  583/5PU 
397  NK041    V     C        01:32:02:12 01:32:03:11 02:17:05:10 02:17:06:09 
* FROM CLIP NAME:  588/4PU 
398  NK041    V     C        01:14:50:13 01:14:51:22 02:17:06:09 02:17:07:18 
* FROM CLIP NAME:  583/5PU 
399  NK041    V     C        01:22:25:15 01:22:26:16 02:17:07:18 02:17:08:19 
* FROM CLIP NAME:  586/1 
400  NK041    V     C        01:18:12:10 01:18:13:17 02:17:08:19 02:17:10:01 
* FROM CLIP NAME:  584/1 
401  NK041    V     C        01:14:54:05 01:14:56:02 02:17:10:01 02:17:11:23 
* FROM CLIP NAME:  583/5PU 
402  NK041    V     C        01:32:13:03 01:32:14:10 02:17:11:23 02:17:13:05 
* FROM CLIP NAME:  588/4PU 
403  NK041    V     C        01:10:54:00 01:10:54:22 02:17:13:05 02:17:14:02 
* FROM CLIP NAME:  583/2 
404  NK041    V     C        01:32:16:17 01:32:17:23 02:17:14:02 02:17:15:08 
* FROM CLIP NAME:  588/4PU 
405  NK041    V     C        01:10:56:13 01:10:59:09 02:17:15:08 02:17:18:04 
* FROM CLIP NAME:  583/2 
406  NK041    V     C        01:32:23:13 01:32:24:07 02:17:18:04 02:17:18:23 
* FROM CLIP NAME:  588/4PU 
407  NK041    V     C        01:36:37:08 01:36:40:01 02:17:18:23 02:17:21:16 
* FROM CLIP NAME:  590/2 
408  NK041    V     C        01:27:21:24 01:27:24:10 02:17:21:16 02:17:24:02 
* FROM CLIP NAME:  588/1 
409  NK041    V     C        01:11:10:14 01:11:11:23 02:17:24:02 02:17:25:11 
* FROM CLIP NAME:  583/2 
410  NK041    V     C        01:32:37:01 01:32:39:16 02:17:25:11 02:17:28:01 
* FROM CLIP NAME:  588/4PU 
411  NK041    V     C        01:15:19:14 01:15:21:10 02:17:28:01 02:17:29:22 
* FROM CLIP NAME:  583/5PU 
412  NK041    V     C        01:31:01:17 01:31:02:20 02:17:29:22 02:17:31:00 
* FROM CLIP NAME:  588/3 
413  NK041    V     C        01:36:57:18 01:37:01:07 02:17:31:00 02:17:34:14 
* FROM CLIP NAME:  590/2 
414  NK041    V     C        01:11:20:11 01:11:21:02 02:17:34:14 02:17:35:05 
* FROM CLIP NAME:  583/2 
415  NK041    V     C        01:19:45:16 01:19:46:15 02:17:35:05 02:17:36:04 
* FROM CLIP NAME:  585/1 
416  NK041    V     C        01:23:00:18 01:23:01:08 02:17:36:04 02:17:36:19 
* FROM CLIP NAME:  586/1 
417  NK041    V     C        01:11:22:19 01:11:26:09 02:17:36:19 02:17:40:09 
* FROM CLIP NAME:  583/2 
>>> SOURCE NK004    NK004            b83c33a4.02516cbb 
>>> SOURCE NK005    NK005            b83c4032.02829ef0 
>>> SOURCE NK013    NK013            b84a7fd6.0089a0bf 
>>> SOURCE NK014    NK014            b84a8135.008f00a8 
>>> SOURCE NK015    NK015            b84a82e7.0095a5e5 
>>> SOURCE NK016    NK016            b84a8692.00a404de 
>>> SOURCE NK017    NK017            b84a88e1.00ad0ecc 
>>> SOURCE NK018    NK018            b84a8ae1.00b4e628 
>>> SOURCE NK022    NK022            b8624375.01dffa59 
>>> SOURCE NK040    NK040            b87663b7.0355d5c5 
>>> SOURCE NK041    NK041            b8766bbb.03753d9d 
>>> SOURCE NK044    NK044            b8778bdc.02aec59b 
>>> SOURCE NK045    NK045            b8779a71.02e7ebd0 
>>> SOURCE NK046    NK046            b877a10a.0301c3b3 
>>> SOURCE NK047    NK047            b8989f05.00bdacc5 
>>> SOURCE NK054    NK054            b8db89c6.01f181c8 
TITLE:   NK VS DEF AKTE 2 VOOR EDL BEELD 
001  NK044    V     C        04:28:32:14 04:28:33:14 02:03:08:12 02:03:09:12 
M2   NK044          012.5                04:28:32:14 
* FROM CLIP NAME:  629A/4 
002  NK045    V     C        05:12:55:17 05:12:58:16 02:04:31:18 02:04:34:17 
* FROM CLIP NAME:  633A/1 
003  NK045    V     C        05:12:58:16 05:12:59:08 02:04:34:17 02:04:35:09 
M2   NK045          012.5                05:12:58:16 
* FROM CLIP NAME:  633A/1 
004  NK045    V     C        05:12:58:24 05:12:58:24 02:04:35:09 02:04:35:09 
004  NK046    V     D    040 06:23:50:18 06:23:54:00 02:04:35:09 02:04:38:16 
M2   NK045          012.5                05:12:58:24 
* BLEND_DISSOLVE_LOG 
* FROM CLIP NAME:  633A/1 
* TO CLIP NAME:  645/5 
005  NK016    V     C        16:19:34:24 16:19:38:10 02:09:27:05 02:09:30:16 
* FROM CLIP NAME:  221/1 
006  NK016    V     C        16:19:58:04 16:19:59:24 02:09:42:12 02:09:44:07 
* FROM CLIP NAME:  221/1 
007  NK018    V     C        18:15:57:06 18:15:59:05 02:13:36:21 02:13:38:20 
M2   NK018          050.0                18:15:57:06 
* FROM CLIP NAME:  244B/1(48FPS) 
008  NK018    V     C        18:16:51:02 18:16:51:13 02:13:56:08 02:13:56:19 
M2   NK018          050.0                18:16:51:02 
* FROM CLIP NAME:  244B/2(48FPS) 
009  NK018    V     C        18:14:08:13 18:14:08:20 02:13:56:19 02:13:57:01 
M2   NK018          050.0                18:14:08:13 
* FROM CLIP NAME:  248/1 
010  NK018    V     C        18:14:09:02 18:14:09:15 02:13:57:01 02:13:57:14 
* FROM CLIP NAME:  248/1 
>>> SOURCE NK016    NK016            b84a8692.00a404de 
>>> SOURCE NK018    NK018            b84a8ae1.00b4e628 
>>> SOURCE NK044    NK044            b8778bdc.02aec59b 
>>> SOURCE NK045    NK045            b8779a71.02e7ebd0 
>>> SOURCE NK046    NK046            b877a10a.0301c3b3 
TITLE:   NK VS DEF AKTE 2 VOOR EDL BEELD 
001  NK017    V     C        17:43:18:21 17:43:18:23 02:09:27:05 02:09:27:07 
* FROM CLIP NAME:  236/3 
>>> SOURCE NK017    NK017            b84a88e1.00ad0ecc 
TITLE:   NK VS DEF AKTE 4 VOOR EDL BEELD 
001     AX    V     C        00:00:00:00 00:00:00:01 04:00:00:00 04:00:00:01 
* FROM CLIP NAME:  ASDF.08 
002     AX    V     C        00:00:00:00 00:00:00:01 04:18:04:19 04:18:04:20 
* EFF_BLEND_GRAPHIC 
* FROM CLIP NAME:  ASDF.09 
TITLE:   NK VS DEF AKTE 4 VOOR EDL BEELD 
001  NK030    V     C        10:33:08:17 10:33:15:00 04:00:07:17 04:00:14:00 
* FROM CLIP NAME:  447/2 
002  NK030    V     C        10:21:48:13 10:21:50:08 04:00:14:00 04:00:15:20 
* FROM CLIP NAME:  444/2 
003  NK030    V     C        10:29:42:19 10:29:45:20 04:00:15:20 04:00:18:21 
* FROM CLIP NAME:  446/3 
004  NK030    V     C        10:16:58:18 10:17:07:04 04:00:18:21 04:00:27:07 
* FROM CLIP NAME:  442/4 
005  NK030    V     C        10:30:05:09 10:30:06:08 04:00:27:07 04:00:28:06 
* FROM CLIP NAME:  446/3 
006  NK030    V     C        10:22:14:15 10:22:17:14 04:00:28:06 04:00:31:05 
* FROM CLIP NAME:  444/2 
007  NK030    V     C        10:30:09:18 10:30:14:04 04:00:31:05 04:00:35:16 
* FROM CLIP NAME:  446/3 
008  NK030    V     C        10:23:39:13 10:23:42:09 04:00:35:16 04:00:38:12 
* FROM CLIP NAME:  444/3 
009  NK030    V     C        10:30:19:24 10:30:22:16 04:00:38:12 04:00:41:04 
* FROM CLIP NAME:  446/3 
010  NK030    V     C        10:23:46:22 10:23:48:16 04:00:41:04 04:00:42:23 
* FROM CLIP NAME:  444/3 
011  NK030    V     C        10:30:27:14 10:30:30:01 04:00:42:23 04:00:45:10 
* FROM CLIP NAME:  446/3 
012  NK030    V     C        10:23:51:10 10:23:53:14 04:00:45:10 04:00:47:14 
* FROM CLIP NAME:  444/3 
013  NK033    V     C        13:38:20:18 13:38:24:18 04:00:47:14 04:00:51:14 
* FROM CLIP NAME:  491/2 
014  NK033    V     C        13:29:31:23 13:29:34:11 04:00:51:14 04:00:54:02 
* FROM CLIP NAME:  491/1 
015  NK033    V     C        13:30:17:04 13:30:21:15 04:00:54:02 04:00:58:13 
* FROM CLIP NAME:  491/1 
016  NK033    V     C        13:06:50:12 13:06:55:20 04:00:58:13 04:01:03:21 
* FROM CLIP NAME:  480/1 
017  NK033    V     C        13:08:30:17 13:08:33:16 04:01:03:21 04:01:06:20 
* FROM CLIP NAME:  480/3 
018  NK034    V     C        14:20:36:15 14:20:46:06 04:01:06:20 04:01:16:11 
* FROM CLIP NAME:  497/2 
019  NK033    V     C        13:36:25:20 13:36:30:10 04:01:16:11 04:01:21:01 
* FROM CLIP NAME:  489/4 
020  NK033    V     C        13:35:10:11 13:35:11:19 04:01:21:01 04:01:22:09 
* FROM CLIP NAME:  488/3 
021  NK031    V     C        11:29:11:05 11:29:18:00 04:01:22:09 04:01:29:04 
* FROM CLIP NAME:  464/3 
022  NK031    V     C        11:29:39:11 11:29:41:12 04:01:29:04 04:01:31:05 
* FROM CLIP NAME:  464/4 
023  NK031    V     C        11:35:19:24 11:35:41:16 04:01:31:05 04:01:52:22 
* FROM CLIP NAME:  465/4 
024  NK031    V     C        11:39:34:13 11:39:40:22 04:01:52:22 04:01:59:06 
* FROM CLIP NAME:  466/2 
025  NK031    V     C        11:35:47:03 11:35:53:22 04:01:59:06 04:02:06:00 
* FROM CLIP NAME:  465/4 
026  NK031    V     C        11:39:50:04 11:40:01:21 04:02:06:00 04:02:17:17 
* FROM CLIP NAME:  466/2 
027  NK031    V     C        11:40:08:04 11:40:22:15 04:02:17:17 04:02:32:03 
* FROM CLIP NAME:  466/2 
028  NK031    V     C        11:36:29:15 11:36:32:07 04:02:32:03 04:02:34:20 
* FROM CLIP NAME:  465/4 
029  NK031    V     C        11:41:18:09 11:41:20:15 04:02:34:20 04:02:37:01 
* FROM CLIP NAME:  467/1 
030  NK031    V     C        11:36:32:05 11:36:39:02 04:02:37:01 04:02:43:23 
* FROM CLIP NAME:  465/4 
031  NK047    V     C        07:25:26:19 07:25:28:03 04:02:43:23 04:02:45:07 
* FROM CLIP NAME:  659/4 
032  NK047    V     C        07:25:31:18 07:25:32:10 04:02:45:07 04:02:45:24 
* FROM CLIP NAME:  659/4 
033  NK047    V     C        07:26:42:14 07:26:43:23 04:02:45:24 04:02:47:08 
* FROM CLIP NAME:  660/3 
034  NK047    V     C        07:28:42:06 07:28:44:04 04:02:47:08 04:02:49:06 
* FROM CLIP NAME:  662/1 
035  NK047    V     C        07:29:48:14 07:29:51:12 04:02:49:06 04:02:52:04 
* FROM CLIP NAME:  662/3 
036  NK047    V     C        07:29:23:11 07:29:24:07 04:02:52:04 04:02:53:00 
* FROM CLIP NAME:  662/2 
037  NK047    V     C        07:30:26:09 07:30:28:15 04:02:53:00 04:02:55:06 
* FROM CLIP NAME:  663/2 
038  NK047    V     C        07:32:39:04 07:32:42:09 04:02:55:06 04:02:58:11 
* FROM CLIP NAME:  664/4 
039  NK014    V     C        14:10:32:00 14:10:33:23 04:02:58:11 04:03:00:09 
* FROM CLIP NAME:  182/3AFG 
040  NK014    V     C        14:12:39:17 14:12:41:13 04:03:00:09 04:03:02:05 
* FROM CLIP NAME:  184/1 
041  NK014    V     C        14:12:15:21 14:12:17:01 04:03:02:05 04:03:03:10 
* FROM CLIP NAME:  183/2 
042  NK014    V     C        14:11:01:05 14:11:02:05 04:03:03:10 04:03:04:10 
* FROM CLIP NAME:  182/4 
043  NK014    V     C        14:12:43:19 14:12:45:00 04:03:04:10 04:03:05:16 
* FROM CLIP NAME:  184/1 
044  NK031    V     C        11:14:56:08 11:14:59:01 04:03:05:16 04:03:08:09 
* FROM CLIP NAME:  460B/2 
045  NK031    V     C        11:03:13:23 11:03:16:03 04:03:10:03 04:03:12:08 
* FROM CLIP NAME:  456/2 
046  NK031    V     C        11:01:01:04 11:01:02:21 04:03:12:08 04:03:14:00 
* FROM CLIP NAME:  455/1 
047  NK031    V     C        11:12:01:19 11:12:03:00 04:03:14:00 04:03:15:06 
* FROM CLIP NAME:  459/1 
048  NK031    V     C        11:06:46:15 11:06:47:08 04:03:15:06 04:03:15:24 
* FROM CLIP NAME:  457/1 
049  NK031    V     C        11:06:48:09 11:06:48:23 04:03:15:24 04:03:16:13 
* FROM CLIP NAME:  457/1 
050  NK031    V     C        11:07:54:00 11:07:55:01 04:03:16:13 04:03:17:14 
* FROM CLIP NAME:  458/1RO 
051  NK031    V     C        11:23:27:03 11:23:29:02 04:03:17:14 04:03:19:13 
* FROM CLIP NAME:  462/6 
052  NK031    V     C        11:09:35:01 11:09:36:13 04:03:19:13 04:03:21:00 
* FROM CLIP NAME:  458/3 
053  NK031    V     C        11:08:45:14 11:08:49:06 04:03:21:00 04:03:24:17 
* FROM CLIP NAME:  458/2 
054  NK031    V     C        11:02:42:14 11:02:46:11 04:03:24:17 04:03:28:14 
* FROM CLIP NAME:  456/1 
055  NK031    V     C        11:09:55:02 11:10:05:04 04:03:28:14 04:03:38:16 
* FROM CLIP NAME:  458/3 
056  NK031    V     C        11:05:49:20 11:05:54:11 04:03:38:16 04:03:43:07 
* FROM CLIP NAME:  456/3 
057  NK030    V     C        10:45:10:24 10:45:19:06 04:03:43:07 04:03:51:14 
* FROM CLIP NAME:  450/2 
058  NK030    V     C        10:45:23:06 10:45:32:17 04:03:51:14 04:04:01:00 
* FROM CLIP NAME:  450/2 
059  NK030    V     C        10:44:36:23 10:44:43:15 04:04:01:00 04:04:07:17 
* FROM CLIP NAME:  449/5 
060  NK030    V     C        10:51:14:05 10:51:24:19 04:04:07:17 04:04:18:06 
* FROM CLIP NAME:  451/2 
061  NK030    V     C        10:54:03:20 10:54:08:21 04:04:18:06 04:04:23:07 
* FROM CLIP NAME:  452/2 
062  NK030    V     C        10:49:47:24 10:49:52:13 04:04:23:07 04:04:27:21 
* FROM CLIP NAME:  451/1 
063  NK030    V     C        10:54:18:11 10:54:22:10 04:04:27:21 04:04:31:20 
* FROM CLIP NAME:  452/2 
064  NK030    V     C        10:51:46:18 10:51:51:07 04:04:31:20 04:04:36:09 
* FROM CLIP NAME:  451/2 
065  NK030    V     C        10:56:52:12 10:56:55:00 04:04:36:09 04:04:38:22 
* FROM CLIP NAME:  453/2PU 
066  NK030    V     C        10:51:52:00 10:51:54:17 04:04:38:22 04:04:41:14 
* FROM CLIP NAME:  451/2 
067  NK030    V     C        10:56:55:24 10:56:58:08 04:04:41:14 04:04:43:23 
* FROM CLIP NAME:  453/2PU 
068  NK030    V     C        10:52:04:09 10:52:07:03 04:04:43:23 04:04:46:17 
* FROM CLIP NAME:  451/2 
069  NK030    V     C        10:56:59:16 10:57:03:20 04:04:46:17 04:04:50:21 
* FROM CLIP NAME:  453/2PU 
070  NK030    V     C        10:52:08:21 10:52:13:20 04:04:50:21 04:04:55:20 
* FROM CLIP NAME:  451/2 
071  NK030    V     C        10:54:54:14 10:54:55:13 04:04:55:20 04:04:56:19 
* FROM CLIP NAME:  452/2 
072  NK030    V     C        10:52:20:15 10:52:22:03 04:04:56:19 04:04:58:07 
* FROM CLIP NAME:  451/2 
073  NK030    V     C        10:57:14:06 10:57:17:13 04:04:58:07 04:05:01:14 
* FROM CLIP NAME:  453/2PU 
074  NK030    V     C        10:52:23:20 10:52:29:18 04:05:01:14 04:05:07:12 
* FROM CLIP NAME:  451/2 
075  NK031    V     C        11:25:35:07 11:25:37:12 04:05:07:12 04:05:09:17 
* FROM CLIP NAME:  463/1 MUTE 
076  NK031    V     C        11:16:39:12 11:16:48:12 04:05:09:17 04:05:18:17 
* FROM CLIP NAME:  461/2 
077  NK033    V     C        13:11:42:07 13:11:46:08 04:05:18:17 04:05:22:18 
* FROM CLIP NAME:  482/1 
078  NK033    V     C        13:16:58:03 13:17:02:06 04:05:22:18 04:05:26:21 
* FROM CLIP NAME:  483/4 
079  NK033    V     C        13:13:30:11 13:13:31:03 04:05:26:21 04:05:27:13 
* FROM CLIP NAME:  482/2 
080  NK033    V     C        13:15:22:06 13:15:24:23 04:05:27:13 04:05:30:05 
* FROM CLIP NAME:  483/2 
081  NK033    V     C        13:22:25:17 13:22:28:11 04:05:30:05 04:05:32:24 
* FROM CLIP NAME:  484/3 
082  NK033    V     C        13:17:24:12 13:17:34:20 04:05:32:24 04:05:43:07 
* FROM CLIP NAME:  483/4 
083  NK033    V     C        13:23:02:01 13:23:11:01 04:05:43:07 04:05:52:07 
* FROM CLIP NAME:  484/3 
084  NK054    V     C        14:16:16:11 14:16:21:02 04:05:52:07 04:05:56:23 
* FROM CLIP NAME:  NK DIGI.08 
085  NK020    V     C        20:10:41:16 20:10:44:05 04:05:56:23 04:05:59:12 
* FROM CLIP NAME:  289/1A 
086  NK020    V     C        20:17:05:09 20:17:06:09 04:05:59:12 04:06:00:12 
* FROM CLIP NAME:  292/1AFG 
087  NK020    V     C        20:22:21:23 20:22:23:00 04:06:00:12 04:06:01:14 
* FROM CLIP NAME:  293/2AFG 
088  NK020    V     C        20:17:23:15 20:17:25:16 04:06:01:14 04:06:03:15 
* FROM CLIP NAME:  292/2 
089  NK020    V     C        20:22:55:14 20:22:56:19 04:06:03:15 04:06:04:20 
* FROM CLIP NAME:  293/3RO 
090  NK020    V     C        20:17:26:14 20:17:27:06 04:06:04:20 04:06:05:12 
* FROM CLIP NAME:  292/2 
091  NK020    V     C        20:22:58:07 20:23:00:06 04:06:05:12 04:06:07:11 
* FROM CLIP NAME:  293/3RO 
092  NK020    V     C        20:26:04:23 20:26:06:07 04:06:07:11 04:06:08:20 
* FROM CLIP NAME:  294/1 
093  NK020    V     C        20:17:31:19 20:17:33:13 04:06:08:20 04:06:10:14 
* FROM CLIP NAME:  292/2 
094  NK020    V     C        20:23:03:01 20:23:04:03 04:06:10:14 04:06:11:16 
* FROM CLIP NAME:  293/3RO 
095  NK020    V     C        20:17:33:15 20:17:36:03 04:06:11:16 04:06:14:04 
* FROM CLIP NAME:  292/2 
096  NK020    V     C        20:23:13:11 20:23:14:11 04:06:14:04 04:06:15:04 
* FROM CLIP NAME:  293/3RO 
097  NK020    V     C        20:27:50:19 20:27:52:00 04:06:15:04 04:06:16:10 
* FROM CLIP NAME:  294/2 
098  NK020    V     C        20:13:49:17 20:13:50:07 04:06:16:10 04:06:17:00 
* FROM CLIP NAME:  289/3A 
099  NK020    V     C        20:20:54:00 20:20:54:18 04:06:17:00 04:06:17:18 
* FROM CLIP NAME:  292/4 
100  NK020    V     C        20:23:16:09 20:23:17:09 04:06:17:18 04:06:18:18 
* FROM CLIP NAME:  293/3RO 
101  NK020    V     C        20:17:51:10 20:17:54:10 04:06:18:18 04:06:21:18 
* FROM CLIP NAME:  292/2 
102  NK020    V     C        20:23:23:00 20:23:23:11 04:06:21:18 04:06:22:04 
* FROM CLIP NAME:  293/3RO 
103  NK020    V     C        20:19:34:18 20:19:35:19 04:06:22:04 04:06:23:05 
* FROM CLIP NAME:  292/3 
104  NK020    V     C        20:20:48:04 20:20:51:18 04:06:23:05 04:06:26:19 
* FROM CLIP NAME:  292/4 
105  NK020    V     C        20:23:27:06 20:23:29:08 04:06:26:19 04:06:28:21 
* FROM CLIP NAME:  293/3RO 
106  NK020    V     C        20:17:36:02 20:17:37:01 04:06:28:21 04:06:29:20 
* FROM CLIP NAME:  292/2 
107  NK020    V     C        20:26:34:12 20:26:35:06 04:06:29:20 04:06:30:14 
* FROM CLIP NAME:  294/1 
108  NK020    V     C        20:12:49:21 20:12:51:19 04:06:30:14 04:06:32:12 
* FROM CLIP NAME:  289/2B 
109  NK020    V     C        20:29:19:22 20:29:21:06 04:06:32:12 04:06:33:21 
* FROM CLIP NAME:  295/1 
110  NK020    V     C        20:19:41:19 20:19:42:24 04:06:33:21 04:06:35:01 
* FROM CLIP NAME:  292/3 
111  NK020    V     C        20:23:57:10 20:23:58:20 04:06:35:01 04:06:36:11 
* FROM CLIP NAME:  293/4PU 
112  NK020    V     C        20:19:45:23 20:19:47:21 04:06:36:11 04:06:38:09 
* FROM CLIP NAME:  292/3 
113  NK020    V     C        20:23:43:06 20:23:44:15 04:06:38:09 04:06:39:18 
* FROM CLIP NAME:  293/3RO 
114  NK020    V     C        20:28:34:22 20:28:36:02 04:06:39:18 04:06:40:23 
* FROM CLIP NAME:  294/2 
115  NK020    V     C        20:23:46:05 20:23:47:08 04:06:40:23 04:06:42:01 
* FROM CLIP NAME:  293/3RO 
116  NK020    V     C        20:30:29:22 20:30:31:15 04:06:42:01 04:06:43:19 
* FROM CLIP NAME:  295/2 
117  NK020    V     C        20:13:07:05 20:13:07:23 04:06:43:19 04:06:44:12 
* FROM CLIP NAME:  289/2B 
118  NK020    V     C        20:29:37:11 20:29:38:20 04:06:44:12 04:06:45:21 
* FROM CLIP NAME:  295/1 
119  NK020    V     C        20:25:23:10 20:25:25:07 04:06:45:21 04:06:47:18 
* FROM CLIP NAME:  293/6PU 
120  NK020    V     C        20:18:36:02 20:18:38:07 04:06:47:18 04:06:49:23 
* FROM CLIP NAME:  292/2 
121  NK020    V     C        20:28:46:09 20:28:47:08 04:06:49:23 04:06:50:22 
* FROM CLIP NAME:  294/2 
122  NK020    V     C        20:14:51:21 20:14:52:17 04:06:50:22 04:06:51:18 
* FROM CLIP NAME:  289/4B 
123  NK020    V     C        20:28:48:09 20:28:49:02 04:06:51:18 04:06:52:11 
* FROM CLIP NAME:  294/2 
124  NK020    V     C        20:25:35:17 20:25:36:16 04:06:52:11 04:06:53:10 
* FROM CLIP NAME:  293/6PU 
125  NK020    V     C        20:29:47:21 20:29:48:21 04:06:53:10 04:06:54:10 
* FROM CLIP NAME:  295/1 
126  NK020    V     C        20:15:12:03 20:15:12:21 04:06:54:10 04:06:55:03 
* FROM CLIP NAME:  289/4D 
127  NK020    V     C        20:30:40:00 20:30:40:15 04:06:55:03 04:06:55:18 
* FROM CLIP NAME:  295/2 
128  NK020    V     C        20:11:45:22 20:11:47:01 04:06:55:18 04:06:56:22 
* FROM CLIP NAME:  289/1C 
129  NK021    V     C        21:10:08:06 21:10:08:23 04:06:56:22 04:06:57:14 
* FROM CLIP NAME:  298/2B 
130  NK021    V     C        21:01:37:20 21:01:38:16 04:06:57:14 04:06:58:10 
* FROM CLIP NAME:  296/2 
131  NK021    V     C        21:10:10:15 21:10:11:06 04:06:58:10 04:06:59:01 
* FROM CLIP NAME:  298/2B 
132  NK021    V     C        21:20:38:13 21:20:39:09 04:06:59:01 04:06:59:22 
* FROM CLIP NAME:  301/3 
133  NK021    V     C        21:36:29:21 21:36:30:23 04:06:59:22 04:07:00:24 
* FROM CLIP NAME:  309/3 
134  NK021    V     C        21:38:15:21 21:38:17:00 04:07:00:24 04:07:02:03 
* FROM CLIP NAME:  310/2 
135  NK021    V     C        21:21:43:15 21:21:46:00 04:07:02:03 04:07:04:13 
* FROM CLIP NAME:  301/3 
136  NK021    V     C        21:36:31:14 21:36:33:03 04:07:04:13 04:07:06:02 
* FROM CLIP NAME:  309/3 
137  NK021    V     C        21:33:02:05 21:33:04:06 04:07:06:02 04:07:08:03 
* FROM CLIP NAME:  304/2 
138  NK021    V     C        21:21:50:22 21:21:53:14 04:07:08:03 04:07:10:20 
* FROM CLIP NAME:  301/3 
139  NK021    V     C        21:36:26:03 21:36:27:02 04:07:10:20 04:07:11:19 
* FROM CLIP NAME:  309/3 
140  NK021    V     C        21:38:23:15 21:38:24:13 04:07:11:19 04:07:12:17 
* FROM CLIP NAME:  310/2 
141  NK021    V     C        21:11:21:16 21:11:23:00 04:07:12:17 04:07:14:01 
* FROM CLIP NAME:  301/1B* 
142  NK021    V     C        21:01:13:23 21:01:15:14 04:07:14:01 04:07:15:17 
* FROM CLIP NAME:  296/2 
143  NK021    V     C        21:21:49:10 21:21:50:18 04:07:15:17 04:07:17:00 
* FROM CLIP NAME:  301/3 
144  NK021    V     C        21:05:42:10 21:05:43:07 04:07:17:00 04:07:17:22 
* FROM CLIP NAME:  296/5 
145  NK021    V     C        21:22:19:17 21:22:21:08 04:07:17:22 04:07:19:13 
* FROM CLIP NAME:  301/3 
146  NK021    V     C        21:37:52:24 21:37:55:00 04:07:19:13 04:07:21:14 
* FROM CLIP NAME:  310/2 
147  NK021    V     C        21:06:11:20 21:06:13:12 04:07:21:14 04:07:23:06 
* FROM CLIP NAME:  296/5 
148  NK021    V     C        21:38:26:03 21:38:27:00 04:07:23:06 04:07:24:03 
* FROM CLIP NAME:  310/2 
149  NK021    V     C        21:22:21:18 21:22:22:09 04:07:24:03 04:07:24:19 
* FROM CLIP NAME:  301/3 
150  NK021    V     C        21:44:48:06 21:44:48:18 04:07:24:19 04:07:25:06 
* FROM CLIP NAME:  314/DIV 
151  NK021    V     C        21:36:40:14 21:36:41:05 04:07:25:06 04:07:25:22 
* FROM CLIP NAME:  309/3 
152  NK021    V     C        21:45:56:04 21:45:56:10 04:07:25:22 04:07:26:03 
* FROM CLIP NAME:  315/DIV 
153  NK021    V     C        21:38:30:08 21:38:30:21 04:07:26:03 04:07:26:16 
* FROM CLIP NAME:  310/2 
154  NK021    V     C        21:45:56:17 21:45:57:07 04:07:26:16 04:07:27:06 
* FROM CLIP NAME:  315/DIV 
155  NK021    V     C        21:41:06:00 21:41:06:05 04:07:27:06 04:07:27:11 
* FROM CLIP NAME:  311B/4 
156  NK021    V     C        21:22:22:13 21:22:23:03 04:07:27:11 04:07:28:01 
* FROM CLIP NAME:  301/3 
157  NK021    V     C        21:40:27:02 21:40:27:12 04:07:28:01 04:07:28:11 
* FROM CLIP NAME:  311A/4 
158  NK021    V     C        21:06:15:19 21:06:16:09 04:07:28:11 04:07:29:01 
* FROM CLIP NAME:  296/5 
159  NK021    V     C        21:36:44:03 21:36:45:06 04:07:29:01 04:07:30:04 
* FROM CLIP NAME:  309/3 
160  NK021    V     C        21:43:52:06 21:43:53:09 04:07:30:04 04:07:31:07 
* FROM CLIP NAME:  313/2 
161  NK021    V     C        21:38:35:02 21:38:37:23 04:07:31:07 04:07:34:03 
* FROM CLIP NAME:  310/2 
162  NK021    V     C        21:42:06:17 21:42:09:07 04:07:34:03 04:07:36:18 
* FROM CLIP NAME:  312/4 
163  NK021    V     C        21:43:57:15 21:43:59:11 04:07:36:18 04:07:38:14 
* FROM CLIP NAME:  313/2 
164  NK021    V     C        21:41:32:23 21:41:39:00 04:07:38:14 04:07:44:16 
* FROM CLIP NAME:  312/2 
165  NK030    V     C        10:01:29:08 10:01:37:07 04:07:44:16 04:07:52:15 
* FROM CLIP NAME:  438/5 
166  NK030    V     C        10:00:11:21 10:00:14:23 04:07:52:15 04:07:55:17 
* FROM CLIP NAME:  437/1 
167  NK034    V     C        14:17:37:20 14:17:41:04 04:07:55:17 04:07:59:01 
* FROM CLIP NAME:  496/2 
168  NK034    V     C        14:15:02:16 14:15:10:10 04:07:59:01 04:08:06:20 
* FROM CLIP NAME:  495/4 
169  NK034    V     C        14:19:12:17 14:19:14:18 04:08:06:20 04:08:08:21 
* FROM CLIP NAME:  496/3 
170  NK034    V     C        14:13:55:23 14:13:58:03 04:08:08:21 04:08:11:01 
* FROM CLIP NAME:  495/3 
171  NK034    V     C        14:19:14:19 14:19:15:20 04:08:11:01 04:08:12:02 
* FROM CLIP NAME:  496/3 
172  NK034    V     C        14:14:00:12 14:14:03:13 04:08:12:02 04:08:15:03 
* FROM CLIP NAME:  495/3 
173  NK034    V     C        14:19:25:04 14:19:29:08 04:08:15:03 04:08:19:07 
* FROM CLIP NAME:  496/3 
174  NK034    V     C        14:14:10:19 14:14:12:11 04:08:19:07 04:08:20:24 
* FROM CLIP NAME:  495/3 
175  NK034    V     C        14:19:35:04 14:19:38:22 04:08:20:24 04:08:24:17 
* FROM CLIP NAME:  496/3 
176  NK034    V     C        14:14:19:08 14:14:21:12 04:08:24:17 04:08:26:21 
* FROM CLIP NAME:  495/3 
177  NK034    V     C        14:17:15:04 14:17:17:23 04:08:26:21 04:08:29:15 
* FROM CLIP NAME:  496/1 
178  NK034    V     C        14:15:49:13 14:15:52:22 04:08:29:15 04:08:32:24 
* FROM CLIP NAME:  495/4 
179  NK034    V     C        14:17:18:08 14:17:22:07 04:08:32:24 04:08:36:23 
* FROM CLIP NAME:  496/1 
180  NK034    V     C        14:11:41:12 14:11:45:24 04:08:36:23 04:08:41:10 
* FROM CLIP NAME:  495/1 
181  NK044    V     C        04:01:52:16 04:01:57:03 04:08:41:10 04:08:45:22 
* FROM CLIP NAME:  621/1AFG 
182  NK044    V     C        04:00:13:05 04:00:22:16 04:08:45:22 04:08:55:08 
* FROM CLIP NAME:  619/1 
183  NK044    V     C        04:02:14:23 04:02:17:06 04:08:55:08 04:08:57:16 
* FROM CLIP NAME:  621/1AFG 
184  NK044    V     C        04:11:11:18 04:11:14:09 04:08:57:16 04:09:00:07 
* FROM CLIP NAME:  622/2 
185  NK044    V     C        04:03:53:01 04:03:55:24 04:09:00:07 04:09:03:05 
* FROM CLIP NAME:  621/3 
186  NK044    V     C        04:12:44:02 04:12:45:06 04:09:03:05 04:09:04:09 
* FROM CLIP NAME:  622/3 
187  NK044    V     C        04:06:52:21 04:06:59:06 04:09:04:09 04:09:10:19 
* FROM CLIP NAME:  621/4 
188  NK044    V     C        04:13:31:13 04:13:32:12 04:09:10:19 04:09:11:18 
* FROM CLIP NAME:  622/3 
189  NK044    V     C        04:01:34:00 04:01:37:03 04:09:11:18 04:09:14:21 
* FROM CLIP NAME:  620/1 
190  NK044    V     C        04:02:51:13 04:02:54:11 04:09:14:21 04:09:17:19 
* FROM CLIP NAME:  621/1AFG 
191  NK044    V     C        04:11:41:15 04:11:43:08 04:09:17:19 04:09:19:12 
* FROM CLIP NAME:  622/2 
192  NK044    V     C        04:04:55:09 04:05:03:14 04:09:19:12 04:09:27:17 
* FROM CLIP NAME:  621/3 
193  NK044    V     C        04:13:50:22 04:13:54:00 04:09:27:17 04:09:30:20 
* FROM CLIP NAME:  622/3 
194  NK044    V     C        04:18:03:09 04:18:22:24 04:09:30:20 04:09:50:10 
* FROM CLIP NAME:  624/1 
195  NK044    V     C        04:10:03:08 04:10:05:18 04:09:50:10 04:09:52:20 
* FROM CLIP NAME:  622/1 
196  NK044    V     C        04:20:24:03 04:20:39:13 04:09:52:20 04:10:08:05 
* FROM CLIP NAME:  624/3 
197  NK033    V     C        13:27:38:14 13:27:46:17 04:10:08:05 04:10:16:08 
* FROM CLIP NAME:  490/3 
198  NK033    V     C        13:24:59:22 13:25:02:15 04:10:16:08 04:10:19:01 
* FROM CLIP NAME:  487/2 
199  NK033    V     C        13:26:12:15 13:26:15:21 04:10:19:01 04:10:22:07 
* FROM CLIP NAME:  487/4 
200  NK033    V     C        13:25:09:24 13:25:28:20 04:10:22:07 04:10:41:03 
* FROM CLIP NAME:  487/2 
201  NK031    V     C        11:45:14:03 11:45:28:15 04:10:41:03 04:10:55:15 
* FROM CLIP NAME:  468/6 
202  NK031    V     C        11:46:12:23 11:46:34:09 04:10:55:15 04:11:17:01 
* FROM CLIP NAME:  469/1 
203  NK032    V     C        12:04:24:04 12:04:37:11 04:11:17:01 04:11:30:08 
* FROM CLIP NAME:  470/2 
204  NK031    V     C        11:46:48:12 11:46:52:15 04:11:30:08 04:11:34:11 
* FROM CLIP NAME:  469/1 
205  NK032    V     C        12:02:19:19 12:02:23:17 04:11:34:11 04:11:38:09 
* FROM CLIP NAME:  470/1 
206  NK031    V     C        11:47:00:05 11:47:02:14 04:11:38:09 04:11:40:18 
* FROM CLIP NAME:  469/1 
207  NK032    V     C        12:06:49:20 12:06:53:05 04:11:40:18 04:11:44:03 
* FROM CLIP NAME:  471/1 
208  NK032    V     C        12:01:15:08 12:01:17:23 04:11:44:03 04:11:46:18 
* FROM CLIP NAME:  469/2 
209  NK032    V     C        12:05:57:05 12:05:59:05 04:11:46:18 04:11:48:18 
* FROM CLIP NAME:  470/2 
210  NK032    V     C        12:29:47:19 12:29:52:05 04:11:48:18 04:11:53:04 
* FROM CLIP NAME:  476/2 
211  NK032    V     C        12:06:05:13 12:06:07:11 04:11:53:04 04:11:55:02 
* FROM CLIP NAME:  470/2 
212  NK032    V     C        12:30:04:14 12:30:07:14 04:11:55:02 04:11:58:02 
* FROM CLIP NAME:  476/2 
213  NK032    V     C        12:03:55:18 12:03:58:07 04:11:58:02 04:12:00:16 
* FROM CLIP NAME:  470/1 
214  NK032    V     C        12:30:07:24 12:30:09:19 04:12:00:16 04:12:02:11 
* FROM CLIP NAME:  476/2 
215  NK032    V     C        12:07:41:15 12:07:44:00 04:12:02:11 04:12:04:21 
* FROM CLIP NAME:  472/2 
216  NK032    V     C        12:31:14:00 12:31:18:19 04:12:04:21 04:12:09:15 
* FROM CLIP NAME:  476/3 
217  NK032    V     C        12:06:10:23 12:06:12:14 04:12:09:15 04:12:11:06 
* FROM CLIP NAME:  470/2 
218  NK032    V     C        12:14:20:15 12:14:21:14 04:12:11:06 04:12:12:05 
* FROM CLIP NAME:  473/2AFG 
219  NK032    V     C        12:08:01:23 12:08:03:02 04:12:12:05 04:12:13:09 
* FROM CLIP NAME:  472/2 
220  NK032    V     C        12:35:54:18 12:35:56:08 04:12:13:09 04:12:14:24 
* FROM CLIP NAME:  477/3 
221  NK032    V     C        12:08:03:21 12:08:06:14 04:12:14:24 04:12:17:17 
* FROM CLIP NAME:  472/2 
222  NK032    V     C        12:20:14:21 12:20:18:15 04:12:17:17 04:12:21:11 
* FROM CLIP NAME:  474/1RO 
223  NK032    V     C        12:35:59:02 12:36:00:18 04:12:21:11 04:12:23:02 
* FROM CLIP NAME:  477/3 
224  NK032    V     C        12:15:40:09 12:15:42:15 04:12:23:02 04:12:25:08 
* FROM CLIP NAME:  473/3PU 
225  NK032    V     C        12:36:03:07 12:36:06:03 04:12:25:08 04:12:28:04 
* FROM CLIP NAME:  477/3 
226  NK032    V     C        12:11:15:07 12:11:16:05 04:12:28:04 04:12:29:02 
* FROM CLIP NAME:  472/3 
227  NK032    V     C        12:36:06:21 12:36:07:09 04:12:29:02 04:12:29:15 
* FROM CLIP NAME:  477/3 
228  NK032    V     C        12:15:48:19 12:15:50:00 04:12:29:15 04:12:30:21 
* FROM CLIP NAME:  473/3PU 
229  NK032    V     C        12:36:10:21 12:36:12:20 04:12:30:21 04:12:32:20 
* FROM CLIP NAME:  477/3 
230  NK032    V     C        12:11:21:13 12:11:25:02 04:12:32:20 04:12:36:09 
* FROM CLIP NAME:  472/3 
231  NK032    V     C        12:36:14:24 12:36:16:22 04:12:36:09 04:12:38:07 
* FROM CLIP NAME:  477/3 
232  NK032    V     C        12:15:58:02 12:16:00:04 04:12:38:07 04:12:40:09 
* FROM CLIP NAME:  473/3PU 
233  NK032    V     C        12:36:18:18 12:36:22:00 04:12:40:09 04:12:43:16 
* FROM CLIP NAME:  477/3 
234  NK032    V     C        12:16:11:07 12:16:12:20 04:12:43:16 04:12:45:04 
* FROM CLIP NAME:  473/3PU 
235  NK032    V     C        12:36:22:22 12:36:24:19 04:12:45:04 04:12:47:01 
* FROM CLIP NAME:  477/3 
236  NK032    V     C        12:16:15:14 12:16:22:05 04:12:47:01 04:12:53:17 
* FROM CLIP NAME:  473/3PU 
237  NK032    V     C        12:36:30:03 12:36:31:18 04:12:53:17 04:12:55:07 
* FROM CLIP NAME:  477/3 
238  NK032    V     C        12:08:35:06 12:08:36:13 04:12:55:07 04:12:56:14 
* FROM CLIP NAME:  472/2 
239  NK032    V     C        12:16:24:10 12:16:24:23 04:12:56:14 04:12:57:02 
* FROM CLIP NAME:  473/3PU 
240  NK032    V     C        12:08:37:01 12:08:37:12 04:12:57:02 04:12:57:13 
* FROM CLIP NAME:  472/2 
241  NK032    V     C        12:16:25:01 12:16:25:20 04:12:57:13 04:12:58:07 
* FROM CLIP NAME:  473/3PU 
242  NK032    V     C        12:08:38:15 12:08:39:21 04:12:58:07 04:12:59:13 
* FROM CLIP NAME:  472/2 
243  NK032    V     C        12:36:46:20 12:36:48:17 04:12:59:13 04:13:01:10 
* FROM CLIP NAME:  477/3 
244  NK032    V     C        12:08:44:01 12:08:47:18 04:13:01:10 04:13:05:02 
* FROM CLIP NAME:  472/2 
245  NK032    V     C        12:34:08:18 12:34:10:06 04:13:05:02 04:13:06:15 
* FROM CLIP NAME:  477/1 
246  NK032    V     C        12:16:42:07 12:16:44:06 04:13:06:15 04:13:08:14 
* FROM CLIP NAME:  473/3PU 
247  NK032    V     C        12:08:53:02 12:08:53:21 04:13:08:14 04:13:09:08 
* FROM CLIP NAME:  472/2 
248  NK032    V     C        12:16:46:13 12:16:47:20 04:13:09:08 04:13:10:15 
* FROM CLIP NAME:  473/3PU 
249  NK032    V     C        12:37:07:08 12:37:09:08 04:13:10:15 04:13:12:15 
* FROM CLIP NAME:  477/3 
250  NK032    V     C        12:16:56:04 12:16:59:00 04:13:12:15 04:13:15:11 
* FROM CLIP NAME:  473/3PU 
251  NK032    V     C        12:09:08:12 12:09:10:18 04:13:15:11 04:13:17:17 
* FROM CLIP NAME:  472/2 
252  NK032    V     C        12:37:28:17 12:37:29:20 04:13:17:17 04:13:18:20 
* FROM CLIP NAME:  477/3 
253  NK032    V     C        12:12:17:06 12:12:18:14 04:13:18:20 04:13:20:03 
* FROM CLIP NAME:  472/3 
254  NK032    V     C        12:17:07:19 12:17:09:09 04:13:20:03 04:13:21:18 
* FROM CLIP NAME:  473/3PU 
255  NK032    V     C        12:34:43:22 12:34:45:09 04:13:21:18 04:13:23:05 
* FROM CLIP NAME:  477/1 
256  NK032    V     C        12:17:11:10 12:17:13:11 04:13:23:05 04:13:25:06 
* FROM CLIP NAME:  473/3PU 
257  NK032    V     C        12:34:46:20 12:34:48:01 04:13:25:06 04:13:26:12 
* FROM CLIP NAME:  477/1 
258  NK032    V     C        12:17:13:16 12:17:14:20 04:13:26:12 04:13:27:16 
* FROM CLIP NAME:  473/3PU 
259  NK032    V     C        12:09:16:24 12:09:18:12 04:13:27:16 04:13:29:04 
* FROM CLIP NAME:  472/2 
260  NK032    V     C        12:17:16:09 12:17:16:22 04:13:29:04 04:13:29:17 
* FROM CLIP NAME:  473/3PU 
261  NK032    V     C        12:09:19:10 12:09:20:14 04:13:29:17 04:13:30:21 
* FROM CLIP NAME:  472/2 
262  NK032    V     C        12:38:42:04 12:38:44:09 04:13:30:21 04:13:33:01 
* FROM CLIP NAME:  477/4PU 
263  NK032    V     C        12:28:15:10 12:28:19:03 04:13:33:01 04:13:36:19 
* FROM CLIP NAME:  475/2 
264  NK032    V     C        12:35:00:06 12:35:03:18 04:13:36:19 04:13:40:06 
* FROM CLIP NAME:  477/1 
265  NK032    V     C        12:28:21:21 12:28:23:19 04:13:40:06 04:13:42:04 
* FROM CLIP NAME:  475/2 
266  NK032    V     C        12:38:06:08 12:38:09:16 04:13:42:04 04:13:45:12 
* FROM CLIP NAME:  477/3 
267  NK032    V     C        12:26:52:23 12:26:54:15 04:13:45:12 04:13:47:04 
* FROM CLIP NAME:  474/5 
268  NK032    V     C        12:39:03:23 12:39:06:20 04:13:47:04 04:13:50:01 
* FROM CLIP NAME:  477/4PU 
269  NK032    V     C        12:26:09:06 12:26:13:10 04:13:50:01 04:13:54:05 
* FROM CLIP NAME:  474/4 
270  NK032    V     C        12:35:16:05 12:35:18:16 04:13:54:05 04:13:56:16 
* FROM CLIP NAME:  477/1 
271  NK032    V     C        12:28:40:06 12:28:45:19 04:13:56:16 04:14:02:04 
* FROM CLIP NAME:  475/2 
272  NK032    V     C        12:39:18:13 12:39:19:20 04:14:02:04 04:14:03:11 
* FROM CLIP NAME:  477/4PU 
273  NK032    V     C        12:28:49:02 12:28:50:16 04:14:03:11 04:14:05:00 
* FROM CLIP NAME:  475/2 
274  NK032    V     C        12:39:22:06 12:39:23:18 04:14:05:00 04:14:06:12 
* FROM CLIP NAME:  477/4PU 
275  NK032    V     C        12:12:53:09 12:12:57:08 04:14:06:12 04:14:10:11 
* FROM CLIP NAME:  472/3 
276  NK032    V     C        12:17:55:20 12:17:57:24 04:14:10:11 04:14:12:15 
* FROM CLIP NAME:  473/3PU 
277  NK033    V     C        13:23:54:17 13:23:57:21 04:14:12:15 04:14:15:19 
* FROM CLIP NAME:  486/2 
278  NK032    V     C        12:39:31:03 12:39:33:12 04:14:15:19 04:14:18:03 
* FROM CLIP NAME:  477/4PU 
279  NK033    V     C        13:24:02:16 13:24:06:06 04:14:18:03 04:14:21:18 
* FROM CLIP NAME:  486/2 
280  NK033    V     C        13:47:03:17 13:47:08:03 04:14:21:18 04:14:26:04 
* FROM CLIP NAME:  494/1 
281  NK033    V     C        13:41:43:11 13:41:54:10 04:14:26:04 04:14:37:03 
* FROM CLIP NAME:  492/4 
282  NK033    V     C        13:43:22:11 13:43:25:09 04:14:37:03 04:14:40:01 
* FROM CLIP NAME:  493/2 
283  NK033    V     C        13:41:59:14 13:42:03:16 04:14:40:01 04:14:44:03 
* FROM CLIP NAME:  492/4 
284  NK033    V     C        13:43:30:13 13:43:31:14 04:14:44:03 04:14:45:04 
* FROM CLIP NAME:  493/2 
285  NK033    V     C        13:42:05:21 13:42:06:15 04:14:45:04 04:14:45:23 
* FROM CLIP NAME:  492/4 
286  NK033    V     C        13:43:34:13 13:43:35:21 04:14:45:23 04:14:47:06 
* FROM CLIP NAME:  493/2 
287  NK033    V     C        13:42:08:22 13:42:09:14 04:14:47:06 04:14:47:23 
* FROM CLIP NAME:  492/4 
288  NK034    V     C        14:02:42:16 14:02:59:09 04:14:47:23 04:15:04:16 
* FROM CLIP NAME:  503/3 
289  NK034    V     C        14:06:08:10 14:06:09:23 04:15:04:16 04:15:06:04 
* FROM CLIP NAME:  504/3 
290  NK034    V     C        14:03:00:21 14:03:07:03 04:15:06:04 04:15:12:11 
* FROM CLIP NAME:  503/3 
291  NK034    V     C        14:05:18:20 14:05:20:21 04:15:12:11 04:15:14:12 
* FROM CLIP NAME:  504/2 
292  NK034    V     C        14:05:28:18 14:05:46:02 04:15:14:12 04:15:31:21 
* FROM CLIP NAME:  504/2 
293  NK034    V     C        14:39:22:24 14:39:26:08 04:15:31:21 04:15:35:05 
* FROM CLIP NAME:  506/1 
294  NK034    V     C        14:42:07:09 14:42:08:16 04:15:35:05 04:15:36:12 
* FROM CLIP NAME:  507/2 
295  NK034    V     C        14:39:27:04 14:39:30:11 04:15:36:12 04:15:39:19 
* FROM CLIP NAME:  506/1 
296  NK034    V     C        14:41:25:13 14:41:27:12 04:15:39:19 04:15:41:18 
* FROM CLIP NAME:  507/1 
297  NK034    V     C        14:39:32:07 14:39:34:15 04:15:41:18 04:15:44:01 
* FROM CLIP NAME:  506/1 
298  NK034    V     C        14:41:30:03 14:41:32:14 04:15:44:01 04:15:46:12 
* FROM CLIP NAME:  507/1 
299  NK034    V     C        14:39:38:23 14:39:45:22 04:15:46:12 04:15:53:11 
* FROM CLIP NAME:  506/1 
300  NK034    V     C        14:41:39:10 14:41:41:20 04:15:53:11 04:15:55:21 
* FROM CLIP NAME:  507/1 
301  NK034    V     C        14:39:54:13 14:39:58:05 04:15:55:21 04:15:59:13 
* FROM CLIP NAME:  506/1 
302  NK034    V     C        14:44:49:21 14:44:50:20 04:15:59:13 04:16:00:12 
* FROM CLIP NAME:  508/3 
303  NK034    V     C        14:39:59:15 14:40:00:07 04:16:00:12 04:16:01:04 
* FROM CLIP NAME:  506/1 
304  NK034    V     C        14:07:18:01 14:07:18:10 04:16:01:04 04:16:01:13 
* FROM CLIP NAME:  504/3 
305  NK034    V     C        14:50:52:17 14:50:54:11 04:16:01:13 04:16:03:07 
* FROM CLIP NAME:  511/1 
306  NK034    V     C        14:37:46:07 14:37:46:24 04:16:03:07 04:16:03:24 
* FROM CLIP NAME:  505/2 
307  NK034    V     C        14:47:39:00 14:47:39:24 04:16:03:24 04:16:04:23 
* FROM CLIP NAME:  509/3 
308  NK034    V     C        14:07:21:21 14:07:25:10 04:16:04:23 04:16:08:12 
* FROM CLIP NAME:  504/3 
309  NK034    V     C        14:37:51:07 14:37:54:08 04:16:08:12 04:16:11:13 
* FROM CLIP NAME:  505/2 
310  NK034    V     C        14:46:20:24 14:46:22:21 04:16:11:13 04:16:13:10 
* FROM CLIP NAME:  509/2 
311  NK034    V     C        14:38:04:13 14:38:06:00 04:16:13:10 04:16:14:22 
* FROM CLIP NAME:  505/2 
312  NK034    V     C        14:45:09:10 14:45:11:12 04:16:14:22 04:16:16:24 
* FROM CLIP NAME:  509/1 
313  NK034    V     C        14:07:28:15 14:07:31:05 04:16:16:24 04:16:19:14 
* FROM CLIP NAME:  504/3 
314  NK034    V     C        14:45:15:00 14:45:18:10 04:16:19:14 04:16:22:24 
* FROM CLIP NAME:  509/1 
315  NK034    V     C        14:38:07:02 14:38:12:06 04:16:22:24 04:16:28:03 
* FROM CLIP NAME:  505/2 
316  NK034    V     C        14:45:32:06 14:45:37:19 04:16:28:03 04:16:33:16 
* FROM CLIP NAME:  509/1 
317  NK034    V     C        14:38:21:08 14:38:26:10 04:16:33:16 04:16:38:18 
* FROM CLIP NAME:  505/2 
318  NK034    V     C        14:07:52:18 14:07:58:12 04:16:38:18 04:16:44:12 
* FROM CLIP NAME:  504/3 
319  NK034    V     C        14:49:33:11 14:49:38:06 04:16:44:12 04:16:49:07 
* FROM CLIP NAME:  510/2 
320  NK034    V     C        14:48:16:10 14:48:18:16 04:16:49:07 04:16:51:13 
* FROM CLIP NAME:  509/3 
321  NK034    V     C        14:08:00:22 14:08:02:09 04:16:51:13 04:16:53:00 
* FROM CLIP NAME:  504/3 
322  NK034    V     C        14:38:43:05 14:38:46:10 04:16:53:00 04:16:56:05 
* FROM CLIP NAME:  505/2 
323  NK036    V     C        16:05:06:16 16:05:08:09 04:16:56:05 04:16:57:23 
* FROM CLIP NAME:  533/1AFG 
324  NK036    V     C        16:03:29:18 16:03:32:15 04:16:57:23 04:17:00:20 
* FROM CLIP NAME:  531/4 
325  NK036    V     C        16:05:49:03 16:05:50:17 04:17:00:20 04:17:02:09 
* FROM CLIP NAME:  533/3 
326  NK036    V     C        16:03:35:14 16:03:36:13 04:17:02:09 04:17:03:08 
* FROM CLIP NAME:  531/4 
327  NK036    V     C        16:04:20:13 16:04:21:20 04:17:03:08 04:17:04:15 
* FROM CLIP NAME:  532/2 
328  NK036    V     C        16:05:52:05 16:05:53:16 04:17:04:15 04:17:06:01 
* FROM CLIP NAME:  533/3 
329  NK036    V     C        16:04:47:18 16:04:48:07 04:17:06:01 04:17:06:15 
* FROM CLIP NAME:  532/3 
330  NK036    V     C        16:06:21:03 16:06:21:22 04:17:06:15 04:17:07:09 
* FROM CLIP NAME:  533/4PU 
331  NK036    V     C        16:04:50:08 16:04:51:07 04:17:07:09 04:17:08:08 
* FROM CLIP NAME:  532/3 
332  NK036    V     C        16:06:24:08 16:06:25:17 04:17:08:08 04:17:09:17 
* FROM CLIP NAME:  533/4PU 
333  NK036    V     C        16:04:52:08 16:04:54:01 04:17:09:17 04:17:11:10 
* FROM CLIP NAME:  532/3 
334  NK036    V     C        16:07:16:18 16:07:27:06 04:17:11:10 04:17:21:23 
* FROM CLIP NAME:  534/2 
335  NK052    V     C        12:13:43:21 12:13:51:09 04:17:21:23 04:17:29:11 
* FROM CLIP NAME:  748/2 
336  NK052    V     C        12:11:03:15 12:11:08:06 04:17:29:11 04:17:34:02 
* FROM CLIP NAME:  747/1 
337  NK052    V     C        12:14:45:22 12:15:09:05 04:17:34:02 04:17:57:10 
* FROM CLIP NAME:  748/3 
338  NK052    V     C        12:12:51:00 12:12:56:12 04:17:57:10 04:18:02:22 
* FROM CLIP NAME:  747/2 
>>> SOURCE NK014    NK014            b84a8135.008f00a8 
>>> SOURCE NK020    NK020            b84cffe8.0133221b 
>>> SOURCE NK021    NK021            b84d00c0.01366d88 
>>> SOURCE NK030    NK030            b86f1d2d.0015290e 
>>> SOURCE NK031    NK031            b87496cb.00ae50de 
>>> SOURCE NK032    NK032            b874ed47.007ac944 
>>> SOURCE NK033    NK033            b874f8c6.00a7d762 
>>> SOURCE NK034    NK034            b87618a8.022fb6a7 
>>> SOURCE NK036    NK036            b87636a7.02a53fc8 
>>> SOURCE NK044    NK044            b8778bdc.02aec59b 
>>> SOURCE NK047    NK047            b8989f05.00bdacc5 
>>> SOURCE NK052    NK052            b89c6b3a.00492768 
>>> SOURCE NK054    NK054            b8db89c6.01f181c8 
TITLE:   NK VS DEF AKTE 4 VOOR EDL BEELD 
001  NK031    V     C        11:13:26:01 11:13:27:20 04:03:08:09 04:03:10:03 
* FROM CLIP NAME:  460B/1 
>>> SOURCE NK031    NK031            b87496cb.00ae50de 
TITLE:   NK VS DEF AKTE 4 VOOR EDL BEELD 
001  NK031    V     C        11:13:36:22 11:13:38:16 04:03:08:09 04:03:10:03 
* FROM CLIP NAME:  460B/1 
>>> SOURCE NK031    NK031            b87496cb.00ae50de 
TITLE:   NK VS DEF AKTE 5 VOOR EDL BEELD 
001     AX    V     C        00:00:00:00 00:00:00:01 05:00:00:00 05:00:00:01 
* FROM CLIP NAME:  ASDF.08 
002     AX    V     C        00:00:00:00 00:00:00:01 05:16:48:12 05:16:48:13 
* EFF_BLEND_GRAPHIC 
* FROM CLIP NAME:  ASDF.09 
TITLE:   NK VS DEF AKTE 5 VOOR EDL BEELD 
001  NK035    V     C        15:46:41:00 15:46:46:16 05:00:09:22 05:00:15:13 
* FROM CLIP NAME:  527/2 
002  NK035    V     C        15:05:30:16 15:05:33:06 05:00:20:05 05:00:22:20 
* FROM CLIP NAME:  516/2 
003  NK035    V     C        15:04:26:18 15:04:28:11 05:00:22:20 05:00:24:13 
* FROM CLIP NAME:  515/2 
004  NK035    V     C        15:07:26:22 15:07:28:14 05:00:24:13 05:00:26:05 
* FROM CLIP NAME:  516/6 
005  NK035    V     C        15:12:17:09 15:12:22:09 05:00:26:05 05:00:31:05 
* FROM CLIP NAME:  517/3 
006  NK035    V     C        15:14:26:01 15:14:28:07 05:00:31:05 05:00:33:11 
* FROM CLIP NAME:  518/1 
007  NK035    V     C        15:16:19:00 15:16:22:13 05:00:33:11 05:00:36:24 
* FROM CLIP NAME:  519/1 
008  NK035    V     C        15:12:30:02 15:12:33:18 05:00:36:24 05:00:40:15 
* FROM CLIP NAME:  517/3 
009  NK035    V     C        15:23:01:01 15:23:02:08 05:00:40:15 05:00:41:22 
* FROM CLIP NAME:  520/1 
010  NK035    V     C        15:16:27:08 15:16:28:18 05:00:41:22 05:00:43:07 
* FROM CLIP NAME:  519/1 
011  NK035    V     C        15:23:05:02 15:23:09:01 05:00:43:07 05:00:47:06 
* FROM CLIP NAME:  520/1 
012  NK035    V     C        15:16:31:13 15:16:33:07 05:00:47:06 05:00:49:00 
* FROM CLIP NAME:  519/1 
013  NK035    V     C        15:12:41:01 15:12:45:19 05:00:49:00 05:00:53:18 
* FROM CLIP NAME:  517/3 
014  NK035    V     C        15:14:51:24 15:14:57:23 05:00:53:18 05:00:59:17 
* FROM CLIP NAME:  518/1 
015  NK035    V     C        15:16:46:01 15:16:48:05 05:00:59:17 05:01:01:21 
* FROM CLIP NAME:  519/1 
016  NK035    V     C        15:23:32:00 15:23:34:20 05:01:01:21 05:01:04:16 
* FROM CLIP NAME:  520/1 
017  NK035    V     C        15:15:03:09 15:15:06:04 05:01:04:16 05:01:07:11 
* FROM CLIP NAME:  518/1 
018  NK035    V     C        15:26:20:15 15:26:33:11 05:01:07:11 05:01:20:07 
* FROM CLIP NAME:  520/2 
019  NK035    V     C        15:19:13:08 15:19:18:17 05:01:20:07 05:01:25:16 
* FROM CLIP NAME:  519/2 
020  NK035    V     C        15:29:00:20 15:29:04:18 05:01:25:16 05:01:29:14 
* FROM CLIP NAME:  520/3 
021  NK035    V     C        15:19:27:04 15:19:29:20 05:01:29:14 05:01:32:05 
* FROM CLIP NAME:  519/2 
022  NK035    V     C        15:13:41:05 15:13:43:17 05:01:32:05 05:01:34:17 
* FROM CLIP NAME:  517/3 
023  NK035    V     C        15:19:30:16 15:19:34:21 05:01:34:17 05:01:38:22 
* FROM CLIP NAME:  519/2 
024  NK035    V     C        15:37:07:02 15:37:16:08 05:01:38:22 05:01:48:03 
* FROM CLIP NAME:  523/1 
025  NK035    V     C        15:11:58:10 15:12:02:10 05:01:48:03 05:01:52:03 
* FROM CLIP NAME:  517/2 
026  NK035    V     C        15:17:50:02 15:17:53:04 05:01:52:03 05:01:55:05 
* FROM CLIP NAME:  519/1 
027  NK035    V     C        15:39:08:07 15:39:17:07 05:01:55:05 05:02:04:05 
* FROM CLIP NAME:  524/2 
028  NK035    V     C        15:39:19:04 15:39:20:14 05:02:05:13 05:02:06:23 
* FROM CLIP NAME:  524/2 
029  NK035    V     C        15:39:22:06 15:39:23:18 05:02:08:11 05:02:09:23 
* FROM CLIP NAME:  524/2 
030  NK035    V     C        15:39:26:06 15:39:29:00 05:02:11:09 05:02:14:03 
* FROM CLIP NAME:  524/2 
031  NK035    V     C        15:00:35:18 15:00:40:14 05:02:18:10 05:02:23:06 
* FROM CLIP NAME:  512/2 
032  NK035    V     C        15:01:09:17 15:01:21:01 05:02:23:06 05:02:34:15 
* FROM CLIP NAME:  513/1 
033  NK035    V     C        15:02:46:00 15:02:52:18 05:02:34:15 05:02:41:08 
* FROM CLIP NAME:  514/2 
034  NK033    V     C        13:06:07:13 13:06:11:14 05:02:41:08 05:02:45:09 
* FROM CLIP NAME:  479/4 
035  NK033    V     C        13:00:21:21 13:00:25:06 05:02:45:09 05:02:48:19 
* FROM CLIP NAME:  478?/2 
036  NK033    V     C        13:04:26:10 13:04:31:20 05:02:48:19 05:02:54:04 
* FROM CLIP NAME:  479/1 
037  NK033    V     C        13:32:39:15 13:32:43:01 05:02:54:04 05:02:57:15 
* FROM CLIP NAME:  485/2 
038  NK034    V     C        14:29:32:23 14:29:36:04 05:02:57:15 05:03:00:21 
* FROM CLIP NAME:  501/1 
039  NK034    V     C        14:28:52:12 14:28:54:06 05:03:00:21 05:03:02:15 
* FROM CLIP NAME:  500/2 
040  NK034    V     C        14:29:52:10 14:29:53:23 05:03:02:15 05:03:04:03 
* FROM CLIP NAME:  501/1 
041  NK034    V     C        14:29:08:07 14:29:11:05 05:03:04:03 05:03:07:01 
* FROM CLIP NAME:  500/2 
042  NK003    V     C        03:36:18:21 03:36:25:16 05:03:07:01 05:03:13:21 
* FROM CLIP NAME:  052/7 
043  NK003    V     C        03:15:48:04 03:15:53:13 05:03:13:21 05:03:19:05 
* FROM CLIP NAME:  042/5 
044  NK003    V     C        03:38:22:15 03:38:29:17 05:03:19:05 05:03:26:07 
* FROM CLIP NAME:  053/2 
045  NK004    V     C        04:03:28:09 04:03:33:16 05:03:26:07 05:03:31:14 
* FROM CLIP NAME:  055/3 
046  NK003    V     C        03:40:07:21 03:40:12:10 05:03:31:14 05:03:36:03 
* FROM CLIP NAME:  054/2 
047  NK004    V     C        04:01:32:11 04:01:33:11 05:03:36:03 05:03:37:03 
* FROM CLIP NAME:  055/1 
048  NK003    V     C        03:40:18:06 03:40:20:08 05:03:37:03 05:03:39:05 
* FROM CLIP NAME:  054/2 
049  NK004    V     C        04:01:36:17 04:01:37:20 05:03:39:05 05:03:40:08 
* FROM CLIP NAME:  055/1 
050  NK003    V     C        03:36:53:09 03:36:58:07 05:03:40:08 05:03:45:06 
* FROM CLIP NAME:  052/7 
051  NK003    V     C        03:40:34:07 03:40:37:14 05:03:45:06 05:03:48:13 
* FROM CLIP NAME:  054/2 
052  NK004    V     C        04:02:07:04 04:02:08:11 05:03:48:13 05:03:49:20 
* FROM CLIP NAME:  055/1 
053  NK003    V     C        03:40:53:09 03:40:55:04 05:03:49:20 05:03:51:15 
* FROM CLIP NAME:  054/2 
054  NK004    V     C        04:02:10:05 04:02:10:17 05:03:51:15 05:03:52:02 
* FROM CLIP NAME:  055/1 
055  NK004    V     C        04:06:53:19 04:06:55:09 05:03:52:02 05:03:53:17 
* FROM CLIP NAME:  057/1 
056  NK004    V     C        04:06:12:03 04:06:13:03 05:03:53:17 05:03:54:17 
* FROM CLIP NAME:  056/5 
057  NK004    V     C        04:06:58:01 04:06:58:17 05:03:54:17 05:03:55:08 
* FROM CLIP NAME:  057/1 
058  NK004    V     C        04:04:41:22 04:04:42:19 05:03:55:08 05:03:56:05 
* FROM CLIP NAME:  056/1 
059  NK004    V     C        04:06:59:14 04:07:03:03 05:03:56:05 05:03:59:19 
* FROM CLIP NAME:  057/1 
060  NK004    V     C        04:04:44:05 04:04:48:11 05:03:59:19 05:04:04:00 
* FROM CLIP NAME:  056/1 
061  NK004    V     C        04:07:05:06 04:07:07:21 05:04:04:00 05:04:06:15 
* FROM CLIP NAME:  057/1 
062  NK004    V     C        04:05:48:20 04:05:51:24 05:04:06:15 05:04:09:19 
* FROM CLIP NAME:  056/3 
063  NK004    V     C        04:07:12:06 04:07:18:13 05:04:09:19 05:04:16:01 
* FROM CLIP NAME:  057/1 
064  NK004    V     C        04:20:22:06 04:20:25:11 05:04:16:01 05:04:19:06 
* FROM CLIP NAME:  062/2 
065  NK004    V     C        04:28:23:14 04:28:26:08 05:04:19:06 05:04:22:00 
* FROM CLIP NAME:  064/1 
066  NK004    V     C        04:20:31:24 04:20:34:06 05:04:22:00 05:04:24:07 
* FROM CLIP NAME:  062/2 
067  NK004    V     C        04:28:37:21 04:28:38:12 05:04:24:07 05:04:24:23 
* FROM CLIP NAME:  064/1 
068  NK004    V     C        04:30:17:22 04:30:18:24 05:04:24:23 05:04:26:00 
* FROM CLIP NAME:  065/1 
069  NK004    V     C        04:28:38:20 04:28:39:07 05:04:26:00 05:04:26:12 
* FROM CLIP NAME:  064/1 
070  NK004    V     C        04:20:38:24 04:20:39:20 05:04:26:12 05:04:27:08 
* FROM CLIP NAME:  062/2 
071  NK004    V     C        04:31:53:03 04:31:53:24 05:04:27:08 05:04:28:04 
* FROM CLIP NAME:  065/2 
072  NK004    V     C        04:30:21:18 04:30:22:18 05:04:28:04 05:04:29:04 
* FROM CLIP NAME:  065/1 
073  NK004    V     C        04:28:41:14 04:28:42:05 05:04:29:04 05:04:29:20 
* FROM CLIP NAME:  064/1 
074  NK004    V     C        04:31:59:14 04:32:00:12 05:04:29:20 05:04:30:18 
* FROM CLIP NAME:  065/2 
075  NK004    V     C        04:26:49:10 04:26:52:21 05:04:30:18 05:04:34:04 
* FROM CLIP NAME:  063/5 
076  NK004    V     C        04:32:18:07 04:32:21:22 05:04:34:04 05:04:37:19 
* FROM CLIP NAME:  065/2 
077  NK004    V     C        04:20:54:00 04:20:55:15 05:04:37:19 05:04:39:09 
* FROM CLIP NAME:  062/2 
078  NK004    V     C        04:28:51:04 04:28:52:23 05:04:39:09 05:04:41:03 
* FROM CLIP NAME:  064/1 
079  NK004    V     C        04:21:00:10 04:21:02:11 05:04:41:03 05:04:43:04 
* FROM CLIP NAME:  062/2 
080  NK004    V     C        04:30:45:00 04:30:47:02 05:04:43:04 05:04:45:06 
* FROM CLIP NAME:  065/1 
081  NK004    V     C        04:27:04:05 04:27:05:04 05:04:45:06 05:04:46:05 
* FROM CLIP NAME:  063/5 
082  NK004    V     C        04:30:48:08 04:30:49:07 05:04:46:05 05:04:47:04 
* FROM CLIP NAME:  065/1 
083  NK004    V     C        04:27:07:22 04:27:09:23 05:04:47:04 05:04:49:05 
* FROM CLIP NAME:  063/5 
084  NK004    V     C        04:32:42:05 04:32:44:01 05:04:49:05 05:04:51:01 
* FROM CLIP NAME:  065/2 
085  NK004    V     C        04:21:16:05 04:21:19:06 05:04:51:01 05:04:54:02 
* FROM CLIP NAME:  062/2 
086  NK004    V     C        04:32:40:12 04:32:42:01 05:04:54:02 05:04:55:16 
* FROM CLIP NAME:  065/2 
087  NK004    V     C        04:25:31:17 04:25:33:11 05:04:55:16 05:04:57:10 
* FROM CLIP NAME:  063/4 
088  NK004    V     C        04:32:45:18 04:32:50:23 05:04:57:10 05:05:02:15 
* FROM CLIP NAME:  065/2 
089  NK004    V     C        04:27:27:05 04:27:28:05 05:05:02:15 05:05:03:15 
* FROM CLIP NAME:  063/5 
090  NK004    V     C        04:32:50:22 04:32:53:21 05:05:03:15 05:05:06:14 
* FROM CLIP NAME:  065/2 
091  NK004    V     C        04:27:28:13 04:27:30:16 05:05:06:14 05:05:08:17 
* FROM CLIP NAME:  063/5 
092  NK004    V     C        04:32:53:21 04:32:55:21 05:05:08:17 05:05:10:17 
* FROM CLIP NAME:  065/2 
093  NK004    V     C        04:22:53:04 04:22:55:18 05:05:10:17 05:05:13:06 
* FROM CLIP NAME:  063/1 
094  NK004    V     C        04:31:09:10 04:31:13:07 05:05:13:06 05:05:17:03 
* FROM CLIP NAME:  065/1 
095  NK004    V     C        04:22:56:20 04:23:00:00 05:05:17:03 05:05:20:08 
* FROM CLIP NAME:  063/1 
096  NK004    V     C        04:33:05:04 04:33:06:23 05:05:20:08 05:05:22:02 
* FROM CLIP NAME:  065/2 
097  NK004    V     C        04:25:49:22 04:25:51:10 05:05:22:02 05:05:23:15 
* FROM CLIP NAME:  063/4 
098  NK004    V     C        04:33:08:04 04:33:09:05 05:05:23:15 05:05:24:16 
* FROM CLIP NAME:  065/2 
099  NK004    V     C        04:25:51:18 04:25:55:19 05:05:24:16 05:05:28:17 
* FROM CLIP NAME:  063/4 
100  NK004    V     C        04:33:12:14 04:33:15:07 05:05:28:17 05:05:31:10 
* FROM CLIP NAME:  NK004DEEL4 
101  NK004    V     C        04:25:56:11 04:26:00:05 05:05:31:10 05:05:35:04 
* FROM CLIP NAME:  063/4 
102  NK050    V     C        10:27:41:12 10:27:45:23 05:05:35:04 05:05:39:15 
* FROM CLIP NAME:  713/1* 
103  NK048    V     C        08:43:27:03 08:43:30:10 05:05:39:15 05:05:42:22 
* FROM CLIP NAME:  695/6 
104  NK048    V     C        08:44:45:14 08:44:48:10 05:05:42:22 05:05:45:18 
* FROM CLIP NAME:  696/5 
105  NK048    V     C        08:43:34:09 08:43:36:04 05:05:45:18 05:05:47:13 
* FROM CLIP NAME:  695/6 
106  NK048    V     C        08:44:50:16 08:44:51:08 05:05:47:13 05:05:48:05 
* FROM CLIP NAME:  696/5 
107  NK048    V     C        08:41:36:06 08:41:37:24 05:05:48:05 05:05:49:23 
* FROM CLIP NAME:  694/2 
108  NK049    V     C        09:07:16:21 09:07:36:21 05:05:49:23 05:06:09:23 
* FROM CLIP NAME:  702/5 
109  NK049    V     C        09:04:13:23 09:04:15:15 05:06:09:23 05:06:11:15 
* FROM CLIP NAME:  700/4 
110  NK050    V     C        10:15:53:11 10:15:56:18 05:06:11:15 05:06:14:22 
* FROM CLIP NAME:  705/2 
111  NK049    V     C        09:20:00:00 09:20:04:22 05:06:14:22 05:06:19:19 
* FROM CLIP NAME:  704/3 
112  NK050    V     C        10:26:50:17 10:26:54:24 05:06:19:19 05:06:24:01 
* FROM CLIP NAME:  711/2 
113  NK049    V     C        09:16:52:20 09:16:57:06 05:06:24:01 05:06:28:12 
* FROM CLIP NAME:  704/2RO 
114  NK050    V     C        10:17:17:16 10:17:22:15 05:06:28:12 05:06:33:11 
* FROM CLIP NAME:  705/2 
115  NK049    V     C        09:17:10:06 09:17:11:04 05:06:33:11 05:06:34:09 
* FROM CLIP NAME:  704/2RO 
116  NK050    V     C        10:12:18:16 10:12:23:01 05:06:34:09 05:06:38:19 
* FROM CLIP NAME:  705/1 
117  NK050    V     C        10:27:14:12 10:27:16:18 05:06:38:19 05:06:41:00 
* FROM CLIP NAME:  712/1 
118  NK049    V     C        09:20:41:04 09:20:42:08 05:06:41:00 05:06:42:04 
* FROM CLIP NAME:  704/3 
119  NK050    V     C        10:17:08:15 10:17:10:06 05:06:42:04 05:06:43:20 
* FROM CLIP NAME:  705/2 
120  NK050    V     C        10:27:22:18 10:27:25:00 05:06:43:20 05:06:46:02 
* FROM CLIP NAME:  712/1 
121  NK049    V     C        09:17:22:08 09:17:25:22 05:06:46:02 05:06:49:16 
* FROM CLIP NAME:  704/2RO 
122  NK050    V     C        10:12:32:23 10:12:36:01 05:06:49:16 05:06:52:19 
* FROM CLIP NAME:  705/1 
123  NK050    V     C        10:09:30:10 10:09:35:18 05:06:52:19 05:06:58:02 
* FROM CLIP NAME:  707/1 
124  NK049    V     C        09:13:59:19 09:14:01:19 05:06:58:02 05:07:00:02 
* FROM CLIP NAME:  704/1 
125  NK050    V     C        10:12:56:07 10:12:59:15 05:07:00:02 05:07:03:10 
* FROM CLIP NAME:  705/1 
126  NK049    V     C        09:17:59:04 09:18:01:12 05:07:03:10 05:07:05:18 
* FROM CLIP NAME:  704/2RO 
127  NK050    V     C        10:06:17:19 10:06:22:11 05:07:05:18 05:07:10:10 
* FROM CLIP NAME:  706/3 
128  NK049    V     C        09:18:04:21 09:18:10:09 05:07:10:10 05:07:15:23 
* FROM CLIP NAME:  704/2RO 
129  NK050    V     C        10:07:05:04 10:07:09:05 05:07:15:23 05:07:19:24 
* FROM CLIP NAME:  706/3 
130  NK049    V     C        09:18:10:22 09:18:15:11 05:07:19:24 05:07:24:13 
* FROM CLIP NAME:  704/2RO 
131  NK050    V     C        10:07:20:21 10:07:25:01 05:07:24:13 05:07:28:18 
* FROM CLIP NAME:  706/3 
132  NK049    V     C        09:27:45:04 09:27:48:03 05:07:28:18 05:07:31:17 
* FROM CLIP NAME:  704/7PU 
133  NK050    V     C        10:07:43:05 10:07:44:24 05:07:31:17 05:07:33:11 
* FROM CLIP NAME:  706/3 
134  NK049    V     C        09:27:47:23 09:27:52:05 05:07:33:11 05:07:37:18 
* FROM CLIP NAME:  704/7PU 
135  NK050    V     C        10:07:52:24 10:07:54:14 05:07:37:18 05:07:39:08 
* FROM CLIP NAME:  706/3 
136  NK049    V     C        09:27:56:10 09:28:02:12 05:07:39:08 05:07:45:10 
* FROM CLIP NAME:  704/7PU 
137  NK050    V     C        10:08:38:00 10:08:40:19 05:07:45:10 05:07:48:04 
* FROM CLIP NAME:  706/3 
138  NK049    V     C        09:28:04:00 09:28:05:09 05:07:48:04 05:07:49:13 
* FROM CLIP NAME:  704/7PU 
139  NK050    V     C        10:21:43:03 10:22:03:12 05:07:49:13 05:08:09:22 
* FROM CLIP NAME:  709/2 
140  NK049    V     C        09:24:55:03 09:24:59:13 05:08:09:22 05:08:14:07 
* FROM CLIP NAME:  704/5PU 
141  NK050    V     C        10:08:54:24 10:08:58:19 05:08:14:07 05:08:18:02 
* FROM CLIP NAME:  706/3 
142  NK039    V     C        19:00:30:11 19:00:37:14 05:08:18:02 05:08:25:05 
* FROM CLIP NAME:  562/2 
143  NK039    V     C        19:35:34:17 19:35:39:08 05:08:25:05 05:08:29:21 
* FROM CLIP NAME:  571/2 
144  NK039    V     C        19:02:50:08 19:02:58:21 05:08:29:21 05:08:38:09 
* FROM CLIP NAME:  564/1 
145  NK039    V     C        19:35:51:09 19:35:54:24 05:08:38:09 05:08:41:24 
* FROM CLIP NAME:  571/2 
146  NK039    V     C        19:03:01:24 19:03:04:14 05:08:41:24 05:08:44:14 
* FROM CLIP NAME:  564/1 
147  NK039    V     C        19:35:57:05 19:36:01:16 05:08:44:14 05:08:49:00 
* FROM CLIP NAME:  571/2 
148  NK039    V     C        19:03:10:24 19:03:20:02 05:08:49:00 05:08:58:03 
* FROM CLIP NAME:  564/1 
149  NK039    V     C        19:36:13:04 19:36:20:21 05:08:58:03 05:09:05:20 
* FROM CLIP NAME:  571/2 
150  NK039    V     C        19:03:33:06 19:03:38:14 05:09:05:20 05:09:11:03 
* FROM CLIP NAME:  564/1 
151  NK039    V     C        19:34:47:13 19:34:53:04 05:09:11:03 05:09:16:19 
* FROM CLIP NAME:  571/1 
152  NK039    V     C        19:03:45:01 19:03:50:20 05:09:16:19 05:09:22:13 
* FROM CLIP NAME:  564/1 
153  NK039    V     C        19:36:45:09 19:36:46:13 05:09:22:13 05:09:23:17 
* FROM CLIP NAME:  571/2 
154  NK039    V     C        19:05:31:00 19:05:33:22 05:09:23:17 05:09:26:14 
* FROM CLIP NAME:  564/2 
155  NK039    V     C        19:36:53:06 19:36:55:22 05:09:26:14 05:09:29:05 
* FROM CLIP NAME:  571/2 
156  NK039    V     C        19:25:15:19 19:25:20:18 05:09:29:05 05:09:34:04 
* FROM CLIP NAME:  568/1 (25FPS) 
157  NK039    V     C        19:15:23:15 19:15:25:21 05:09:34:04 05:09:36:10 
* FROM CLIP NAME:  567/1 
158  NK039    V     C        19:25:35:06 19:25:38:04 05:09:36:10 05:09:39:08 
* FROM CLIP NAME:  568/1 (25FPS) 
159  NK039    V     C        19:15:29:16 19:15:30:17 05:09:39:08 05:09:40:09 
* FROM CLIP NAME:  567/1 
160  NK039    V     C        19:09:39:15 19:09:40:16 05:09:40:09 05:09:41:10 
* FROM CLIP NAME:  565/1 
161  NK039    V     C        19:15:34:04 19:15:36:19 05:09:41:10 05:09:44:00 
* FROM CLIP NAME:  567/1 
162  NK039    V     C        19:14:11:19 19:14:13:07 05:09:44:00 05:09:45:13 
* FROM CLIP NAME:  566/2 
163  NK039    V     C        19:15:36:22 19:15:42:22 05:09:45:13 05:09:51:13 
* FROM CLIP NAME:  567/1 
164  NK039    V     C        19:29:54:03 19:29:55:21 05:09:51:13 05:09:53:06 
* FROM CLIP NAME:  569/1 (25FPS) 
165  NK039    V     C        19:15:43:20 19:15:45:02 05:09:53:06 05:09:54:13 
* FROM CLIP NAME:  567/1 
166  NK039    V     C        19:14:19:24 19:14:21:23 05:09:54:13 05:09:56:12 
* FROM CLIP NAME:  566/2 
167  NK039    V     C        19:22:18:02 19:22:21:20 05:09:56:12 05:10:00:05 
* FROM CLIP NAME:  567/7RO 
168  NK039    V     C        19:27:43:12 19:27:45:11 05:10:00:05 05:10:02:04 
* FROM CLIP NAME:  568/2 (25FPS) 
169  NK039    V     C        19:22:23:19 19:22:27:00 05:10:02:04 05:10:05:10 
* FROM CLIP NAME:  567/7RO 
170  NK039    V     C        19:14:37:19 19:14:40:01 05:10:05:10 05:10:07:17 
* FROM CLIP NAME:  566/2 
171  NK039    V     C        19:17:52:22 19:17:55:01 05:10:07:17 05:10:09:21 
* FROM CLIP NAME:  567/2 
172  NK039    V     C        19:14:42:21 19:14:43:12 05:10:09:21 05:10:10:12 
* FROM CLIP NAME:  566/2 
173  NK039    V     C        19:31:45:18 19:31:46:22 05:10:10:12 05:10:11:16 
* FROM CLIP NAME:  569/2 (25FPS) 
174  NK039    V     C        19:17:55:11 19:17:56:18 05:10:11:16 05:10:12:23 
* FROM CLIP NAME:  567/2 
175  NK039    V     C        19:14:46:15 19:14:47:20 05:10:12:23 05:10:14:03 
* FROM CLIP NAME:  566/2 
176  NK039    V     C        19:17:58:13 19:18:01:18 05:10:14:03 05:10:17:08 
* FROM CLIP NAME:  567/2 
177  NK039    V     C        19:42:52:09 19:42:54:04 05:10:17:08 05:10:19:03 
* FROM CLIP NAME:  572/2 
178  NK039    V     C        19:10:23:23 19:10:24:14 05:10:19:03 05:10:19:19 
* FROM CLIP NAME:  565/1 
179  NK039    V     C        19:18:06:03 19:18:08:22 05:10:19:19 05:10:22:13 
* FROM CLIP NAME:  567/2 
180  NK039    V     C        19:42:54:02 19:42:55:13 05:10:22:13 05:10:23:24 
* FROM CLIP NAME:  572/2 
181  NK039    V     C        19:18:10:08 19:18:15:05 05:10:23:24 05:10:28:21 
* FROM CLIP NAME:  567/2 
182  NK039    V     C        19:31:50:10 19:31:52:13 05:10:28:21 05:10:30:24 
* FROM CLIP NAME:  569/2 (25FPS) 
183  NK024    V     C        04:02:04:12 04:02:11:14 05:10:30:24 05:10:38:01 
* FROM CLIP NAME:  352/1 
184  NK023    V     C        03:52:06:04 03:52:09:17 05:10:38:01 05:10:41:14 
* FROM CLIP NAME:  350/3 
185  NK024    V     C        04:05:53:24 04:06:04:20 05:10:41:14 05:10:52:10 
* FROM CLIP NAME:  353/5 
186  NK023    V     C        03:52:20:16 03:52:21:06 05:10:52:10 05:10:53:00 
* FROM CLIP NAME:  350/3 
187  NK024    V     C        04:04:48:14 04:04:49:11 05:10:53:00 05:10:53:22 
* FROM CLIP NAME:  353/3 
188  NK024    V     C        04:01:07:09 04:01:07:24 05:10:53:22 05:10:54:12 
* FROM CLIP NAME:  351/2 
189  NK024    V     C        04:06:12:04 04:06:15:01 05:10:54:12 05:10:57:09 
* FROM CLIP NAME:  353/5 
190  NK024    V     C        04:01:07:24 04:01:08:23 05:10:57:09 05:10:58:08 
* FROM CLIP NAME:  351/2 
191  NK023    V     C        03:52:33:15 03:52:38:10 05:10:58:08 05:11:03:03 
* FROM CLIP NAME:  350/3 
192  NK024    V     C        04:02:17:02 04:02:19:22 05:11:03:03 05:11:05:23 
* FROM CLIP NAME:  352/1 
193  NK024    V     C        04:08:01:03 04:08:07:20 05:11:05:23 05:11:12:15 
* FROM CLIP NAME:  354/3 
194  NK024    V     C        04:08:40:09 04:08:41:17 05:11:12:15 05:11:13:23 
* FROM CLIP NAME:  354/3 
195  NK024    V     C        04:08:09:03 04:08:10:19 05:11:13:23 05:11:15:14 
* FROM CLIP NAME:  354/3 
196  NK024    V     C        04:02:53:24 04:02:57:05 05:11:15:14 05:11:18:20 
* FROM CLIP NAME:  352/1 
197  NK024    V     C        04:03:00:06 04:03:00:15 05:11:20:11 05:11:20:20 
* FROM CLIP NAME:  352/1 
198  NK024    V     C        04:22:32:07 04:22:32:08 05:11:20:20 05:11:20:21 
* FROM CLIP NAME:  359/1* 
199  NK024    V     C        04:23:38:17 04:23:38:24 05:11:20:21 05:11:21:03 
* FROM CLIP NAME:  359/3 EV* 
200  NK024    V     C        04:22:32:03 04:22:32:10 05:11:21:03 05:11:21:10 
* FROM CLIP NAME:  359/1* 
201  NK024    V     C        04:23:39:01 04:23:39:03 05:11:21:10 05:11:21:12 
* FROM CLIP NAME:  359/3 EV* 
202  NK024    V     C        04:22:32:09 04:22:32:14 05:11:21:12 05:11:21:17 
* FROM CLIP NAME:  359/1* 
203  NK024    V     C        04:03:02:13 04:03:04:14 05:11:22:07 05:11:24:08 
* FROM CLIP NAME:  352/1 
204  NK024    V     C        04:12:26:07 04:12:28:01 05:11:24:08 05:11:26:02 
* FROM CLIP NAME:  355/3A 
205  NK024    V     C        04:03:14:06 04:03:15:05 05:11:26:02 05:11:27:01 
* FROM CLIP NAME:  352/1 
206  NK024    V     C        04:13:42:23 04:13:46:06 05:11:27:01 05:11:30:09 
* FROM CLIP NAME:  356/1 
207  NK024    V     C        04:11:56:01 04:12:00:10 05:11:30:09 05:11:34:18 
* FROM CLIP NAME:  355/2 
208  NK024    V     C        04:13:49:24 04:13:54:10 05:11:34:18 05:11:39:04 
* FROM CLIP NAME:  356/1 
209  NK024    V     C        04:12:06:11 04:12:06:24 05:11:39:04 05:11:39:17 
* FROM CLIP NAME:  355/2 
210  NK024    V     C        04:10:58:00 04:10:58:16 05:11:39:17 05:11:40:08 
* FROM CLIP NAME:  355/1A 
211  NK024    V     C        04:13:59:22 04:14:01:02 05:11:40:08 05:11:41:13 
* FROM CLIP NAME:  356/1 
212  NK024    V     C        04:11:02:05 04:11:03:17 05:11:41:13 05:11:43:00 
* FROM CLIP NAME:  355/1A 
213  NK024    V     C        04:17:41:02 04:17:42:09 05:11:43:00 05:11:44:07 
* FROM CLIP NAME:  357/2 
214  NK024    V     C        04:16:00:11 04:16:03:24 05:11:44:07 05:11:47:20 
* FROM CLIP NAME:  356/4PU 
215  NK024    V     C        04:18:42:11 04:18:44:20 05:11:47:20 05:11:50:04 
* FROM CLIP NAME:  357/3 
216  NK024    V     C        04:16:08:19 04:16:11:19 05:11:50:04 05:11:53:04 
* FROM CLIP NAME:  356/4PU 
217  NK024    V     C        04:20:28:03 04:20:30:03 05:11:53:04 05:11:55:04 
* FROM CLIP NAME:  357/5 
218  NK024    V     C        04:16:14:22 04:16:16:24 05:11:55:04 05:11:57:06 
* FROM CLIP NAME:  356/4PU 
219  NK024    V     C        04:20:35:09 04:20:43:01 05:11:57:06 05:12:04:23 
* FROM CLIP NAME:  357/5 
220  NK024    V     C        04:13:10:17 04:13:13:05 05:12:04:23 05:12:07:11 
* FROM CLIP NAME:  355/3B 
221  NK024    V     C        04:21:20:13 04:21:23:13 05:12:07:11 05:12:10:11 
* FROM CLIP NAME:  358/1 
222  NK024    V     C        04:16:39:02 04:16:42:01 05:12:10:11 05:12:13:10 
* FROM CLIP NAME:  356/4PU 
223  NK018    V     C        18:25:56:13 18:26:01:21 05:12:13:10 05:12:18:18 
* FROM CLIP NAME:  255/3 
224  NK018    V     C        18:26:12:23 18:26:15:14 05:12:18:18 05:12:21:09 
* FROM CLIP NAME:  255/3 
225  NK018    V     C        18:45:59:01 18:46:00:11 05:12:21:09 05:12:22:19 
* FROM CLIP NAME:  262/1AFG 
226  NK018    V     C        18:24:52:21 18:24:54:13 05:12:22:19 05:12:24:11 
* FROM CLIP NAME:  255/1 
227  NK018    V     C        18:45:09:06 18:45:10:03 05:12:24:11 05:12:25:08 
* FROM CLIP NAME:  261/3PU 
228  NK018    V     C        18:24:57:03 18:24:57:20 05:12:25:08 05:12:26:00 
* FROM CLIP NAME:  255/1 
229  NK018    V     C        18:32:06:22 18:32:08:10 05:12:26:00 05:12:27:13 
* FROM CLIP NAME:  257/2 
230  NK018    V     C        18:46:24:24 18:46:25:20 05:12:27:13 05:12:28:09 
* FROM CLIP NAME:  262/2 
231  NK018    V     C        18:44:31:05 18:44:31:22 05:12:28:09 05:12:29:01 
* FROM CLIP NAME:  261/2 
232  NK018    V     C        18:51:08:06 18:51:09:08 05:12:29:01 05:12:30:03 
* FROM CLIP NAME:  265/2 
233  NK018    V     C        18:30:05:09 18:30:06:17 05:12:30:18 05:12:32:01 
* FROM CLIP NAME:  256/2 
234  NK018    V     C        18:33:31:23 18:33:32:21 05:12:32:01 05:12:32:24 
* FROM CLIP NAME:  257/4 
235  NK018    V     C        18:51:40:01 18:51:41:22 05:12:32:24 05:12:34:20 
* FROM CLIP NAME:  265/3PU 
236  NK018    V     C        18:33:36:07 18:33:38:14 05:12:34:20 05:12:37:02 
* FROM CLIP NAME:  257/4 
237  NK018    V     C        18:49:00:10 18:49:01:10 05:12:37:02 05:12:38:02 
* FROM CLIP NAME:  263/1 
238  NK018    V     C        18:45:19:20 18:45:21:07 05:12:38:02 05:12:39:14 
* FROM CLIP NAME:  261/3PU 
239  NK018    V     C        18:33:42:08 18:33:47:00 05:12:39:14 05:12:44:06 
* FROM CLIP NAME:  257/4 
240  NK018    V     C        18:30:24:05 18:30:25:01 05:12:44:06 05:12:45:02 
* FROM CLIP NAME:  256/2 
241  NK018    V     C        18:50:08:05 18:50:08:15 05:12:45:02 05:12:45:12 
* FROM CLIP NAME:  264/1 
242  NK018    V     C        18:51:46:04 18:51:47:16 05:12:45:12 05:12:46:24 
* FROM CLIP NAME:  265/3PU 
243  NK018    V     C        18:34:47:10 18:34:49:18 05:12:46:24 05:12:49:07 
* FROM CLIP NAME:  258/2 
244  NK018    V     C        18:45:28:17 18:45:30:07 05:12:49:07 05:12:50:22 
* FROM CLIP NAME:  261/3PU 
245  NK018    V     C        18:49:35:18 18:49:37:19 05:12:50:22 05:12:52:23 
* FROM CLIP NAME:  263/2PU 
246  NK009    V     C        09:42:33:04 09:42:38:22 05:12:52:23 05:12:58:16 
* FROM CLIP NAME:  113/1 
247  NK009    V     C        09:50:38:10 09:50:39:22 05:12:58:16 05:13:00:03 
* FROM CLIP NAME:  113/5AFG 
248  NK010    V     C        10:02:09:18 10:02:11:24 05:13:00:03 05:13:02:09 
* FROM CLIP NAME:  114/4 
249  NK009    V     C        09:45:30:23 09:45:34:15 05:13:02:09 05:13:06:01 
* FROM CLIP NAME:  113/2 
250  NK010    V     C        10:04:07:23 10:04:10:10 05:13:06:01 05:13:08:13 
* FROM CLIP NAME:  114/5 
251  NK009    V     C        09:45:38:03 09:45:41:09 05:13:08:13 05:13:11:19 
* FROM CLIP NAME:  113/2 
252  NK010    V     C        10:02:23:23 10:02:25:13 05:13:11:19 05:13:13:09 
* FROM CLIP NAME:  114/4 
253  NK009    V     C        09:49:15:13 09:49:16:22 05:13:13:09 05:13:14:18 
* FROM CLIP NAME:  113/4 
254  NK010    V     C        10:00:35:15 10:00:38:07 05:13:14:18 05:13:17:10 
* FROM CLIP NAME:  114/2AFG 
255  NK009    V     C        09:38:09:09 09:38:14:14 05:13:17:10 05:13:22:15 
* FROM CLIP NAME:  112/6 
256  NK010    V     C        10:04:23:16 10:04:25:04 05:13:22:15 05:13:24:03 
* FROM CLIP NAME:  114/5 
257  NK010    V     C        10:04:27:06 10:04:28:24 05:13:26:15 05:13:28:08 
* FROM CLIP NAME:  114/5 
258  NK009    V     C        09:38:36:11 09:38:37:23 05:13:28:08 05:13:29:20 
* FROM CLIP NAME:  112/6 
259  NK010    V     C        10:04:50:19 10:04:52:10 05:13:29:20 05:13:31:11 
* FROM CLIP NAME:  114/5 
260  NK009    V     C        09:38:43:20 09:38:45:08 05:13:31:11 05:13:32:24 
* FROM CLIP NAME:  112/6 
261  NK009    V     C        09:38:47:20 09:38:49:02 05:13:32:24 05:13:34:06 
* FROM CLIP NAME:  112/6 
262  NK010    V     C        10:04:59:18 10:05:04:23 05:13:34:06 05:13:39:11 
* FROM CLIP NAME:  114/5 
263  NK002    V     C        02:21:02:06 02:21:04:08 05:13:39:11 05:13:41:13 
* FROM CLIP NAME:  029/3 
264  NK002    V     C        02:09:57:10 02:09:59:16 05:13:41:13 05:13:43:19 
* FROM CLIP NAME:  026/1 
265  NK002    V     C        02:08:33:13 02:08:35:03 05:13:43:19 05:13:45:09 
* FROM CLIP NAME:  025/3 
266  NK002    V     C        02:00:57:19 02:00:59:08 05:13:45:09 05:13:46:23 
* FROM CLIP NAME:  023/ALL 
267  NK002    V     C        02:08:37:02 02:08:37:19 05:13:46:23 05:13:47:15 
* FROM CLIP NAME:  025/3 
268  NK002    V     C        02:02:43:08 02:02:44:05 05:13:47:15 05:13:48:12 
* FROM CLIP NAME:  024/ALL 
269  NK002    V     C        02:08:38:20 02:08:41:12 05:13:48:12 05:13:51:04 
* FROM CLIP NAME:  025/3 
270  NK002    V     C        02:15:36:10 02:15:41:02 05:13:51:04 05:13:55:21 
* FROM CLIP NAME:  027/2PU 
271  NK048    V     C        08:45:58:08 08:46:02:13 05:13:55:21 05:14:00:01 
* FROM CLIP NAME:  697/1 
272  NK048    V     C        08:46:06:14 08:46:11:20 05:14:00:01 05:14:05:07 
* FROM CLIP NAME:  697/1 
273  NK049    V     C        09:02:12:08 09:02:15:07 05:14:05:07 05:14:08:06 
* FROM CLIP NAME:  699/2 
274  NK049    V     C        09:01:16:23 09:01:19:01 05:14:08:06 05:14:10:09 
* FROM CLIP NAME:  698/6PU 
275  NK048    V     C        08:46:19:00 08:46:20:12 05:14:10:09 05:14:11:21 
* FROM CLIP NAME:  697/1 
276  NK023    V     C        03:12:28:15 03:12:36:15 05:14:11:21 05:14:19:21 
* FROM CLIP NAME:  335/3 
277  NK023    V     C        03:15:07:08 03:15:10:14 05:14:19:21 05:14:23:02 
* FROM CLIP NAME:  335/6 
278  NK048    V     C        08:39:21:10 08:39:24:24 05:14:23:02 05:14:26:16 
* FROM CLIP NAME:  692/4 
279  NK048    V     C        08:33:42:10 08:33:44:24 05:14:26:16 05:14:29:05 
* FROM CLIP NAME:  688/2 
280  NK048    V     C        08:34:11:24 08:34:13:24 05:14:29:05 05:14:31:05 
* FROM CLIP NAME:  689/1 
281  NK048    V     C        08:36:33:00 08:36:35:17 05:14:31:05 05:14:33:22 
* FROM CLIP NAME:  691/3 
282  NK048    V     C        08:35:07:08 08:35:11:00 05:14:33:22 05:14:37:14 
* FROM CLIP NAME:  689/4 
283  NK026    V     C        06:06:11:00 06:06:15:22 05:14:37:14 05:14:42:11 
* FROM CLIP NAME:  386/4 
284  NK026    V     C        06:00:41:02 06:00:44:20 05:14:42:11 05:14:46:04 
* FROM CLIP NAME:  381/2 * 
285  NK026    V     C        06:06:18:06 06:06:20:07 05:14:46:04 05:14:48:05 
* FROM CLIP NAME:  386/4 
286  NK026    V     C        06:02:21:16 06:02:22:18 05:14:48:05 05:14:49:07 
* FROM CLIP NAME:  381/3 
287  NK026    V     C        06:03:20:09 06:03:21:15 05:14:50:12 05:14:51:18 
* FROM CLIP NAME:  383/2 
288  NK026    V     C        06:02:44:04 06:02:45:02 05:14:54:00 05:14:54:23 
* FROM CLIP NAME:  382/1 
289  NK026    V     C        06:03:21:07 06:03:22:10 05:14:54:23 05:14:56:01 
* FROM CLIP NAME:  383/2 
290  NK026    V     C        06:03:59:18 06:04:02:22 05:14:57:05 05:15:00:09 
* FROM CLIP NAME:  384/1 
291  NK026    V     C        06:08:51:19 06:08:57:23 05:15:00:09 05:15:06:13 
* FROM CLIP NAME:  388/3 
292  NK026    V     C        06:09:00:03 06:09:02:01 05:15:06:13 05:15:08:11 
* FROM CLIP NAME:  388/3 
293  NK026    V     C        06:09:51:07 06:09:57:15 05:15:08:11 05:15:14:19 
* FROM CLIP NAME:  389/2 
294  NK026    V     C        06:10:51:16 06:10:54:04 05:15:14:19 05:15:17:07 
* FROM CLIP NAME:  390/2 
295  NK026    V     C        06:10:05:01 06:10:08:03 05:15:17:07 05:15:20:09 
* FROM CLIP NAME:  389/2 
296  NK026    V     C        06:10:14:20 06:10:16:16 05:15:20:09 05:15:22:05 
* FROM CLIP NAME:  389/2 
297  NK026    V     C        06:16:09:18 06:16:12:19 05:15:22:05 05:15:25:06 
* FROM CLIP NAME:  394/1 
298  NK026    V     C        06:13:49:02 06:13:52:21 05:15:25:06 05:15:29:00 
* FROM CLIP NAME:  392/1 
299  NK026    V     C        06:15:05:15 06:15:09:02 05:15:29:00 05:15:32:12 
* FROM CLIP NAME:  393/1 
300  NK026    V     C        06:15:17:21 06:15:23:13 05:15:32:12 05:15:38:04 
* FROM CLIP NAME:  393/1 
301  NK026    V     C        06:17:04:10 06:17:08:06 05:15:38:04 05:15:42:00 
* FROM CLIP NAME:  394/1 
302  NK026    V     C        06:19:00:03 06:19:05:11 05:15:42:00 05:15:47:08 
* FROM CLIP NAME:  394/2 
303  NK057    V     C        16:09:15:07 16:09:18:06 05:15:47:08 05:15:50:07 
* FROM CLIP NAME:  RESHOOT 3 
304  NK057    V     C        16:09:20:18 16:09:23:14 05:15:50:07 05:15:53:03 
* FROM CLIP NAME:  RESHOOT 3 
305  NK026    V     C        06:19:14:20 06:19:18:13 05:15:53:03 05:15:56:21 
* FROM CLIP NAME:  394/2 
306  NK026    V     C        06:36:57:17 06:37:09:00 05:15:56:21 05:16:08:04 
* FROM CLIP NAME:  399/1 
307  NK026    V     C        06:37:57:10 06:38:02:02 05:16:08:04 05:16:12:21 
* FROM CLIP NAME:  400/1 
308  NK026    V     C        06:41:04:14 06:41:10:12 05:16:12:21 05:16:18:19 
* FROM CLIP NAME:  401/5 
309  NK026    V     C        06:20:15:15 06:20:17:24 05:16:18:19 05:16:21:03 
* FROM CLIP NAME:  395/1A 
310  NK026    V     C        06:25:06:24 06:25:09:07 05:16:21:03 05:16:23:11 
* FROM CLIP NAME:  396/2 
311  NK026    V     C        06:27:21:01 06:27:33:06 05:16:23:11 05:16:35:16 
* FROM CLIP NAME:  397/3 
312  NK026    V     C        06:22:59:11 06:23:04:18 05:16:35:16 05:16:40:23 
* FROM CLIP NAME:  396/1A 
313  NK026    V     C        06:20:41:13 06:20:47:05 05:16:40:23 05:16:46:15 
* FROM CLIP NAME:  395/1B 
>>> SOURCE NK002    NK002            b83c14e7.01d8f888 
>>> SOURCE NK003    NK003            b83c2612.021c3e8a 
>>> SOURCE NK004    NK004            b83c33a4.02516cbb 
>>> SOURCE NK009    NK009            b846eab6.015b9ba1 
>>> SOURCE NK010    NK010            b846fdd6.01a68be0 
>>> SOURCE NK018    NK018            b84a8ae1.00b4e628 
>>> SOURCE NK023    NK023            b862493a.01f695fa 
>>> SOURCE NK024    NK024            b8652283.006fd782 
>>> SOURCE NK026    NK026            b86614bf.0006e0df 
>>> SOURCE NK033    NK033            b874f8c6.00a7d762 
>>> SOURCE NK034    NK034            b87618a8.022fb6a7 
>>> SOURCE NK035    NK035            b876277c.0269d2b2 
>>> SOURCE NK039    NK039            b876577b.0325e178 
>>> SOURCE NK048    NK048            b89aed55.01e1ca16 
>>> SOURCE NK049    NK049            b89b02e1.0236373c 
>>> SOURCE NK050    NK050            b89b255e.02bd5a28 
>>> SOURCE NK057    NK057            b9111c65.00258320 
TITLE:   NK VS DEF AKTE 5 VOOR EDL BEELD 
001  NK035    V     C        15:49:47:02 15:49:49:07 05:00:07:17 05:00:09:22 
* FROM CLIP NAME:  529/2- 
002  NK035    V     C        15:44:55:00 15:44:59:17 05:00:15:13 05:00:20:05 
* FROM CLIP NAME:  526/2- 
003  NK035    V     C        15:43:46:19 15:43:48:02 05:02:04:05 05:02:05:13 
* FROM CLIP NAME:  525/5- 
004  NK035    V     C        15:43:50:02 15:43:51:15 05:02:06:23 05:02:08:11 
* FROM CLIP NAME:  525/5- 
005  NK035    V     C        15:42:31:12 15:42:32:23 05:02:09:23 05:02:11:09 
* FROM CLIP NAME:  525/2- 
006  NK035    V     C        15:42:39:02 15:42:40:16 05:02:14:03 05:02:15:17 
* FROM CLIP NAME:  525/2- 
007  NK035    V     C        15:41:30:00 15:41:32:18 05:02:15:17 05:02:18:10 
* FROM CLIP NAME:  524/5- 
008  NK024    V     C        04:09:27:06 04:09:27:20 05:11:18:20 05:11:19:09 
* FROM CLIP NAME:  354/4PU 
009  NK024    V     C        04:08:56:04 04:08:56:15 05:11:19:09 05:11:19:20 
* FROM CLIP NAME:  354/3 
010  NK024    V     C        04:23:37:23 04:23:38:14 05:11:19:20 05:11:20:11 
* FROM CLIP NAME:  359/3 EV* 
011  NK024    V     C        04:09:31:07 04:09:31:22 05:11:21:17 05:11:22:07 
* FROM CLIP NAME:  354/4PU 
012  NK018    V     C        18:48:21:06 18:48:21:21 05:12:30:03 05:12:30:18 
* IMAGE, FLOP 
* FROM CLIP NAME:  262/3 
013  NK009    V     C        09:46:02:18 09:46:03:14 05:13:24:03 05:13:24:24 
* FROM CLIP NAME:  113/2 
014  NK009    V     C        09:46:03:14 09:46:05:05 05:13:24:24 05:13:26:15 
M2   NK009          000.0                09:46:03:14 
* IMAGE, RESIZE 
* FROM CLIP NAME:  113/2 
* * FREEZE FRAME: 
015  NK026    V     C        06:04:34:01 06:04:35:06 05:14:49:07 05:14:50:12 
* IMAGE, COLOR EFFECT 
* FROM CLIP NAME:  385/1 
016  NK026    V     C        06:04:36:12 06:04:38:19 05:14:51:18 05:14:54:00 
* IMAGE, COLOR EFFECT 
* FROM CLIP NAME:  385/1 
017  NK026    V     C        06:04:40:06 06:04:41:10 05:14:56:01 05:14:57:05 
* IMAGE, COLOR EFFECT 
* FROM CLIP NAME:  385/1 
>>> SOURCE NK009    NK009            b846eab6.015b9ba1 
>>> SOURCE NK018    NK018            b84a8ae1.00b4e628 
>>> SOURCE NK024    NK024            b8652283.006fd782 
>>> SOURCE NK026    NK026            b86614bf.0006e0df 
>>> SOURCE NK035    NK035            b876277c.0269d2b2 
TITLE:   NK VS DEF AKTE 5 VOOR EDL BEELD 
001  NK024    V     C        04:09:43:17 04:09:44:06 05:11:18:20 05:11:19:09 
* FROM CLIP NAME:  354/4PU 
002  NK024    V     C        04:09:43:17 04:09:44:07 05:11:21:17 05:11:22:07 
* FROM CLIP NAME:  354/4PU 
>>> SOURCE NK024    NK024            b8652283.006fd782 
TITLE:   NK VS DEF AKTE 6 VOOR EDL BEELD 
001     AX    V     C        00:00:00:00 00:00:00:01 06:00:00:00 06:00:00:01 
* FROM CLIP NAME:  ASDF.08 
002     AX    V     C        00:00:00:00 00:00:00:01 06:19:06:09 06:19:06:10 
* EFF_BLEND_GRAPHIC 
* FROM CLIP NAME:  ASDF.09 
TITLE:   NK VS DEF AKTE 6 VOOR EDL BEELD 
001  NK026    V     C        06:34:13:21 06:34:23:05 06:00:07:17 06:00:17:01 
* FROM CLIP NAME:  398/5 
002  NK026    V     C        06:28:12:00 06:28:18:12 06:00:17:01 06:00:23:13 
* FROM CLIP NAME:  397/3 
003  NK026    V     C        06:32:08:06 06:32:12:23 06:00:23:13 06:00:28:05 
* FROM CLIP NAME:  398/2AFG 
004  NK026    V     C        06:28:33:22 06:28:36:08 06:00:28:05 06:00:30:16 
* FROM CLIP NAME:  397/3 
005  NK026    V     C        06:36:19:11 06:36:22:08 06:00:30:16 06:00:33:13 
* FROM CLIP NAME:  398/7PU 
006  NK026    V     C        06:28:49:00 06:28:50:12 06:00:33:13 06:00:35:00 
* FROM CLIP NAME:  397/3 
007  NK026    V     C        06:36:22:13 06:36:23:20 06:00:35:00 06:00:36:07 
* FROM CLIP NAME:  398/7PU 
008  NK026    V     C        06:28:54:14 06:28:55:05 06:00:36:07 06:00:36:23 
* FROM CLIP NAME:  397/3 
009  NK026    V     C        06:36:25:16 06:36:26:03 06:00:36:23 06:00:37:10 
* FROM CLIP NAME:  398/7PU 
010  NK026    V     C        06:23:52:05 06:23:52:23 06:00:37:10 06:00:38:03 
* FROM CLIP NAME:  396/1B 
011  NK026    V     C        06:21:25:24 06:21:29:07 06:00:38:03 06:00:41:11 
* FROM CLIP NAME:  395/2PU 
012  NK003    V     C        03:20:11:15 03:20:13:01 06:00:41:11 06:00:42:22 
* FROM CLIP NAME:  046/1 
013  NK003    V     C        03:19:44:17 03:19:45:20 06:00:42:22 06:00:44:00 
* FROM CLIP NAME:  045/2 
014  NK003    V     C        03:20:14:24 03:20:15:22 06:00:44:00 06:00:44:23 
* FROM CLIP NAME:  046/1 
015  NK003    V     C        03:24:09:03 03:24:09:20 06:00:44:23 06:00:45:15 
* FROM CLIP NAME:  047/3 
016  NK003    V     C        03:20:17:05 03:20:18:05 06:00:45:15 06:00:46:15 
* FROM CLIP NAME:  046/1 
017  NK003    V     C        03:19:49:03 03:19:51:07 06:00:46:15 06:00:48:19 
* FROM CLIP NAME:  045/2 
018  NK003    V     C        03:20:18:23 03:20:19:15 06:00:48:19 06:00:49:11 
* FROM CLIP NAME:  046/1 
019  NK003    V     C        03:20:21:15 03:20:22:10 06:00:49:11 06:00:50:06 
* FROM CLIP NAME:  046/1 
020  NK003    V     C        03:20:32:01 03:20:32:20 06:00:50:06 06:00:51:00 
* FROM CLIP NAME:  046/1 
021  NK003    V     C        03:24:34:11 03:24:35:06 06:00:51:00 06:00:51:20 
* FROM CLIP NAME:  047/3 
022  NK003    V     C        03:24:35:06 03:24:35:06 06:00:51:20 06:00:51:20 
022  NK003    V     D    010 03:24:40:03 03:24:42:01 06:00:51:20 06:00:53:18 
* BLEND_DISSOLVE_LOG 
* FROM CLIP NAME:  047/3 
* TO CLIP NAME:  047/3 
023  NK025    V     C        05:24:26:14 05:24:31:21 06:00:58:24 06:01:04:06 
* FROM CLIP NAME:  369/3 
024  NK027    V     C        07:34:24:05 07:34:28:02 06:01:04:06 06:01:08:03 
* FROM CLIP NAME:  411/1 
025  NK027    V     C        07:34:28:02 07:34:28:02 06:01:08:03 06:01:08:03 
025  NK027    V     D    086 07:34:57:00 07:35:00:13 06:01:08:03 06:01:11:16 
* BLEND_DISSOLVE_LOG 
* FROM CLIP NAME:  411/1 
* TO CLIP NAME:  411/1 
026  NK027    V     C        07:35:00:13 07:35:00:13 06:01:11:16 06:01:11:16 
026  NK027    V     D    074 07:33:37:21 07:33:40:20 06:01:11:16 06:01:14:15 
* BLEND_DISSOLVE_LOG 
* FROM CLIP NAME:  411/1 
* TO CLIP NAME:  411/1 
027  NK027    V     C        07:33:40:20 07:33:40:20 06:01:14:15 06:01:14:15 
027  NK027    V     D    074 07:37:35:24 07:37:41:05 06:01:14:15 06:01:19:21 
* BLEND_DISSOLVE_LOG 
* FROM CLIP NAME:  411/1 
* TO CLIP NAME:  412/3 
028  NK027    V     C        07:39:45:00 07:39:45:21 06:01:19:21 06:01:20:17 
* FROM CLIP NAME:  413/2 
029  NK027    V     C        07:43:19:03 07:43:21:17 06:01:20:17 06:01:23:06 
* FROM CLIP NAME:  414/2A 
030  NK027    V     C        07:39:46:13 07:39:52:07 06:01:23:06 06:01:29:00 
* FROM CLIP NAME:  413/2 
031  NK027    V     C        07:39:58:09 07:40:00:15 06:01:29:00 06:01:31:06 
* FROM CLIP NAME:  413/2 
032  NK027    V     C        07:38:13:15 07:38:18:11 06:01:31:06 06:01:36:02 
* FROM CLIP NAME:  413/1 
033  NK027    V     C        07:42:00:04 07:42:03:22 06:01:36:02 06:01:39:20 
* FROM CLIP NAME:  414/1 
034  NK027    V     C        07:40:22:15 07:40:25:07 06:01:39:20 06:01:42:12 
* FROM CLIP NAME:  413/2 
035  NK027    V     C        07:42:11:02 07:42:13:09 06:01:42:12 06:01:44:19 
* FROM CLIP NAME:  414/1 
036  NK027    V     C        07:40:50:14 07:40:52:00 06:01:44:19 06:01:46:05 
* FROM CLIP NAME:  413/2 
037  NK027    V     C        07:44:38:04 07:44:41:11 06:01:46:05 06:01:49:12 
* FROM CLIP NAME:  414/3 
038  NK027    V     C        07:40:58:12 07:40:59:21 06:01:49:12 06:01:50:21 
* FROM CLIP NAME:  413/2 
039  NK027    V     C        07:44:49:11 07:44:51:03 06:01:50:21 06:01:52:13 
* FROM CLIP NAME:  414/3 
040  NK027    V     C        07:41:02:01 07:41:02:20 06:01:52:13 06:01:53:07 
* FROM CLIP NAME:  413/2 
041  NK027    V     C        07:44:54:17 07:44:56:08 06:01:53:07 06:01:54:23 
* FROM CLIP NAME:  414/3 
042  NK027    V     C        07:41:13:12 07:41:17:08 06:01:54:23 06:01:58:19 
* FROM CLIP NAME:  413/2 
043  NK027    V     C        07:41:19:10 07:41:21:05 06:01:58:19 06:02:00:14 
* FROM CLIP NAME:  413/2 
044  NK027    V     C        07:49:18:16 07:49:20:04 06:02:00:14 06:02:02:02 
* FROM CLIP NAME:  416/2 
045  NK027    V     C        07:45:20:16 07:45:22:04 06:02:02:02 06:02:03:15 
* FROM CLIP NAME:  414/3 
046  NK027    V     C        07:49:40:00 07:49:43:12 06:02:03:15 06:02:07:02 
* FROM CLIP NAME:  416/3 
047  NK026    V     C        06:50:50:18 06:50:55:01 06:02:07:02 06:02:11:10 
* FROM CLIP NAME:  403/1RO 
048  NK027    V     C        07:10:48:00 07:10:52:06 06:02:11:10 06:02:15:16 
* FROM CLIP NAME:  404/3 
049  NK026    V     C        06:48:40:20 06:48:46:24 06:02:15:16 06:02:21:20 
* FROM CLIP NAME:  402/6 
050  NK027    V     C        07:00:48:23 07:00:51:18 06:02:21:20 06:02:24:15 
* FROM CLIP NAME:  403/2 
051  NK027    V     C        07:14:28:11 07:14:30:06 06:02:24:15 06:02:26:10 
* FROM CLIP NAME:  404/4 
052  NK027    V     C        07:00:54:06 07:01:01:00 06:02:26:10 06:02:33:04 
* FROM CLIP NAME:  403/2 
053  NK027    V     C        07:14:39:06 07:14:42:02 06:02:33:04 06:02:36:00 
* FROM CLIP NAME:  404/4 
054  NK027    V     C        07:01:05:07 07:01:07:13 06:02:36:00 06:02:38:06 
* FROM CLIP NAME:  403/2 
055  NK027    V     C        07:14:46:08 07:14:47:06 06:02:38:06 06:02:39:04 
* FROM CLIP NAME:  404/4 
056  NK026    V     C        06:50:22:22 06:50:23:21 06:02:39:04 06:02:40:03 
* FROM CLIP NAME:  403/1RO 
057  NK027    V     C        07:14:49:00 07:14:52:15 06:02:40:03 06:02:43:18 
* FROM CLIP NAME:  404/4 
058  NK027    V     C        07:01:18:01 07:01:20:19 06:02:43:18 06:02:46:11 
* FROM CLIP NAME:  403/2 
059  NK027    V     C        07:11:32:14 07:11:38:22 06:02:46:11 06:02:52:19 
* FROM CLIP NAME:  404/3 
060  NK027    V     C        07:01:26:15 07:01:28:20 06:02:52:19 06:02:54:24 
* FROM CLIP NAME:  403/2 
061  NK027    V     C        07:11:39:18 07:11:41:05 06:02:54:24 06:02:56:11 
* FROM CLIP NAME:  404/3 
062  NK027    V     C        07:01:28:20 07:01:30:19 06:02:56:11 06:02:58:10 
* FROM CLIP NAME:  403/2 
063  NK027    V     C        07:11:42:10 07:11:44:13 06:02:58:10 06:03:00:13 
* FROM CLIP NAME:  404/3 
064  NK027    V     C        07:01:34:12 07:01:37:15 06:03:00:13 06:03:03:16 
* FROM CLIP NAME:  403/2 
065  NK027    V     C        07:15:21:19 07:15:24:19 06:03:03:16 06:03:06:16 
* FROM CLIP NAME:  404/4 
066  NK026    V     C        06:44:03:07 06:44:08:02 06:03:06:16 06:03:11:11 
* FROM CLIP NAME:  402/2 
067  NK027    V     C        07:02:50:05 07:02:53:07 06:03:11:11 06:03:14:13 
* FROM CLIP NAME:  403/2 
068  NK027    V     C        07:06:28:20 07:06:30:13 06:03:14:13 06:03:16:06 
* FROM CLIP NAME:  404/1 
069  NK027    V     C        07:02:58:24 07:03:01:20 06:03:16:06 06:03:19:02 
* FROM CLIP NAME:  403/2 
070  NK027    V     C        07:06:31:12 07:06:34:01 06:03:19:02 06:03:21:16 
* FROM CLIP NAME:  404/1 
071  NK027    V     C        07:03:06:23 07:03:08:13 06:03:21:16 06:03:23:06 
* FROM CLIP NAME:  403/2 
072  NK027    V     C        07:06:36:20 07:06:37:13 06:03:23:06 06:03:23:24 
* FROM CLIP NAME:  404/1 
073  NK026    V     C        06:51:25:04 06:51:25:15 06:03:23:24 06:03:24:10 
* FROM CLIP NAME:  403/1RO 
074  NK027    V     C        07:18:16:10 07:18:16:24 06:03:24:10 06:03:24:24 
* FROM CLIP NAME:  405/1 
075  NK027    V     C        07:24:36:20 07:24:37:14 06:03:24:24 06:03:25:18 
* FROM CLIP NAME:  406/5 
076  NK027    V     C        07:25:06:09 07:25:07:00 06:03:25:18 06:03:26:09 
* FROM CLIP NAME:  407/1 
077  NK027    V     C        07:24:07:01 07:24:07:23 06:03:26:09 06:03:27:06 
* FROM CLIP NAME:  406/4 
078  NK027    V     C        07:27:21:23 07:27:29:06 06:03:27:06 06:03:34:14 
* FROM CLIP NAME:  408/2 
079  NK027    V     C        07:18:22:12 07:18:23:01 06:03:34:14 06:03:35:03 
* FROM CLIP NAME:  405/1 
080  NK027    V     C        07:16:03:11 07:16:04:04 06:03:35:03 06:03:35:21 
* FROM CLIP NAME:  404/4 
081  NK027    V     C        07:02:25:04 07:02:26:08 06:03:35:21 06:03:37:00 
* FROM CLIP NAME:  403/2 
082  NK027    V     C        07:16:13:13 07:16:16:16 06:03:37:00 06:03:40:03 
* FROM CLIP NAME:  404/4 
083  NK027    V     C        07:02:32:19 07:02:35:14 06:03:40:03 06:03:42:23 
* FROM CLIP NAME:  403/2 
084  NK027    V     C        07:16:19:11 07:16:22:04 06:03:42:23 06:03:45:16 
* FROM CLIP NAME:  404/4 
085  NK027    V     C        07:02:37:22 07:02:39:13 06:03:45:16 06:03:47:07 
* FROM CLIP NAME:  403/2 
086  NK027    V     C        07:24:50:03 07:24:54:21 06:03:47:07 06:03:52:00 
* FROM CLIP NAME:  406/5 
087  NK025    V     C        05:09:59:14 05:10:06:13 06:03:52:00 06:03:58:24 
* FROM CLIP NAME:  366/1 
088  NK025    V     C        05:14:14:09 05:14:17:17 06:03:58:24 06:04:02:07 
* FROM CLIP NAME:  367/4 
089  NK025    V     C        05:10:10:19 05:10:12:18 06:04:02:07 06:04:04:06 
* FROM CLIP NAME:  366/1 
090  NK025    V     C        05:16:38:02 05:16:39:03 06:04:04:06 06:04:05:07 
* FROM CLIP NAME:  367/7 
091  NK025    V     C        05:11:33:09 05:11:38:06 06:04:05:07 06:04:10:04 
* FROM CLIP NAME:  367/1 
092  NK025    V     C        05:19:46:14 05:19:47:23 06:04:10:04 06:04:11:13 
* FROM CLIP NAME:  367/14 
093  NK025    V     C        05:11:41:02 05:11:43:15 06:04:11:13 06:04:14:01 
* FROM CLIP NAME:  367/1 
094  NK025    V     C        05:18:43:18 05:18:45:10 06:04:14:01 06:04:15:18 
* FROM CLIP NAME:  367/11PU 
095  NK025    V     C        05:11:53:19 05:11:55:05 06:04:15:18 06:04:17:04 
* FROM CLIP NAME:  367/1 
096  NK025    V     C        05:18:54:12 05:18:56:16 06:04:17:04 06:04:19:08 
* FROM CLIP NAME:  367/11PU 
097  NK025    V     C        05:13:51:00 05:13:54:11 06:04:19:08 06:04:22:19 
* FROM CLIP NAME:  367/3 
098  NK025    V     C        05:18:01:17 05:18:03:12 06:04:22:19 06:04:24:14 
* FROM CLIP NAME:  367/8 
099  NK025    V     C        05:13:55:16 05:13:58:02 06:04:24:14 06:04:27:00 
* FROM CLIP NAME:  367/3 
100  NK037    V     C        17:34:50:19 17:34:54:24 06:04:27:00 06:04:31:05 
* FROM CLIP NAME:  543/2 
101  NK037    V     C        17:30:41:22 17:30:45:08 06:04:31:05 06:04:34:16 
* FROM CLIP NAME:  543/1 
102  NK037    V     C        17:28:35:05 17:28:38:07 06:04:34:16 06:04:37:18 
* FROM CLIP NAME:  542/1 
103  NK037    V     C        17:30:48:12 17:30:55:13 06:04:37:18 06:04:44:19 
* FROM CLIP NAME:  543/1 
104  NK038    V     C        18:00:09:22 18:00:14:16 06:04:44:19 06:04:49:13 
* FROM CLIP NAME:  544/2 
105  NK037    V     C        17:31:03:14 17:31:10:16 06:04:49:13 06:04:56:15 
* FROM CLIP NAME:  543/1 
106  NK038    V     C        18:24:11:00 18:24:13:02 06:04:56:15 06:04:58:17 
* FROM CLIP NAME:  548/2 
107  NK037    V     C        17:31:50:02 17:31:52:22 06:04:58:17 06:05:01:12 
* FROM CLIP NAME:  543/1 
108  NK037    V     C        17:45:49:23 17:45:51:22 06:05:01:12 06:05:03:11 
* FROM CLIP NAME:  544/1A 
109  NK037    V     C        17:40:49:10 17:41:02:22 06:05:03:11 06:05:16:23 
* FROM CLIP NAME:  543/3 
110  NK038    V     C        18:28:01:17 18:28:02:20 06:05:16:23 06:05:18:01 
* FROM CLIP NAME:  549/2 
111  NK038    V     C        18:16:22:14 18:16:24:19 06:05:18:01 06:05:20:06 
* FROM CLIP NAME:  546/3 
112  NK038    V     C        18:07:07:22 18:07:12:10 06:05:20:06 06:05:24:19 
* FROM CLIP NAME:  545/2 
113  NK038    V     C        18:31:58:16 18:31:59:14 06:05:24:19 06:05:25:17 
* FROM CLIP NAME:  550/2 
114  NK038    V     C        18:07:17:23 18:07:19:06 06:05:25:17 06:05:27:00 
* FROM CLIP NAME:  545/2 
115  NK037    V     C        17:41:19:18 17:41:20:18 06:05:27:00 06:05:28:00 
* FROM CLIP NAME:  543/3 
116  NK038    V     C        18:07:19:14 18:07:20:18 06:05:28:00 06:05:29:04 
* FROM CLIP NAME:  545/2 
117  NK038    V     C        18:34:25:09 18:34:28:10 06:05:29:04 06:05:32:05 
* FROM CLIP NAME:  550/2PU 
118  NK038    V     C        18:07:28:16 18:07:31:14 06:05:32:05 06:05:35:03 
* FROM CLIP NAME:  545/2 
119  NK038    V     C        18:10:38:05 18:10:40:11 06:05:35:03 06:05:37:09 
* FROM CLIP NAME:  546/1 
120  NK038    V     C        18:04:45:20 18:04:47:14 06:05:37:09 06:05:39:03 
* FROM CLIP NAME:  545/1 
121  NK038    V     C        18:10:46:09 18:10:48:23 06:05:39:03 06:05:41:17 
* FROM CLIP NAME:  546/1 
122  NK038    V     C        18:07:40:05 18:07:42:07 06:05:41:17 06:05:43:19 
* FROM CLIP NAME:  545/2 
123  NK038    V     C        18:32:26:05 18:32:27:15 06:05:43:19 06:05:45:04 
* FROM CLIP NAME:  550/2 
124  NK038    V     C        18:07:45:05 18:07:49:10 06:05:45:04 06:05:49:09 
* FROM CLIP NAME:  545/2 
125  NK038    V     C        18:32:31:15 18:32:35:20 06:05:49:09 06:05:53:14 
* FROM CLIP NAME:  550/2 
126  NK038    V     C        18:07:49:10 18:07:52:12 06:05:53:14 06:05:56:16 
* FROM CLIP NAME:  545/2 
127  NK038    V     C        18:32:37:14 18:32:40:19 06:05:56:16 06:05:59:21 
* FROM CLIP NAME:  550/2 
128  NK038    V     C        18:07:54:23 18:07:56:02 06:05:59:21 06:06:01:00 
* FROM CLIP NAME:  545/2 
129  NK037    V     C        17:37:00:02 17:37:03:21 06:06:01:00 06:06:04:19 
* FROM CLIP NAME:  543/2 
130  NK038    V     C        18:50:24:08 18:50:25:19 06:06:04:19 06:06:06:05 
* FROM CLIP NAME:  560/1 
131  NK038    V     C        18:48:46:10 18:48:48:05 06:06:06:05 06:06:08:00 
* FROM CLIP NAME:  559/1 
132  NK038    V     C        18:07:57:11 18:07:59:20 06:06:08:00 06:06:10:09 
* FROM CLIP NAME:  545/2 
133  NK038    V     C        18:35:08:05 18:35:12:03 06:06:10:09 06:06:14:07 
* FROM CLIP NAME:  550/2PU 
134  NK038    V     C        18:11:09:01 18:11:12:17 06:06:14:07 06:06:17:23 
* FROM CLIP NAME:  546/1 
135  NK038    V     C        18:08:03:02 18:08:06:12 06:06:17:23 06:06:21:08 
* FROM CLIP NAME:  545/2 
136  NK038    V     C        18:32:51:11 18:32:53:03 06:06:21:08 06:06:23:00 
* FROM CLIP NAME:  550/2 
137  NK038    V     C        18:08:07:00 18:08:09:21 06:06:23:00 06:06:25:21 
* FROM CLIP NAME:  545/2 
138  NK038    V     C        18:35:16:14 18:35:17:19 06:06:25:21 06:06:27:01 
* FROM CLIP NAME:  550/2PU 
139  NK038    V     C        18:11:18:03 18:11:19:11 06:06:27:01 06:06:28:09 
* FROM CLIP NAME:  546/1 
140  NK037    V     C        17:33:21:05 17:33:33:03 06:06:28:09 06:06:40:07 
* FROM CLIP NAME:  543/1 
141  NK038    V     C        18:02:04:18 18:02:05:09 06:06:40:07 06:06:40:23 
* FROM CLIP NAME:  544/2 
142  NK037    V     C        17:47:52:07 17:47:52:21 06:06:40:23 06:06:41:12 
* FROM CLIP NAME:  544/1B 
143  NK037    V     C        17:42:20:09 17:42:21:04 06:06:41:12 06:06:42:07 
* FROM CLIP NAME:  543/3 
144  NK037    V     C        17:48:12:04 17:48:13:07 06:06:42:07 06:06:43:10 
* FROM CLIP NAME:  544/1B 
145  NK038    V     C        18:29:40:04 18:29:41:24 06:06:43:10 06:06:45:05 
* FROM CLIP NAME:  549/2 
146  NK038    V     C        18:11:29:01 18:11:30:24 06:06:45:05 06:06:47:03 
* FROM CLIP NAME:  546/1 
147  NK037    V     C        17:48:14:04 17:48:15:15 06:06:47:03 06:06:48:14 
* FROM CLIP NAME:  544/1B 
148  NK037    V     C        17:37:37:04 17:37:39:08 06:06:48:14 06:06:50:18 
* FROM CLIP NAME:  543/2 
149  NK037    V     C        17:48:14:13 17:48:18:11 06:06:50:18 06:06:54:16 
* FROM CLIP NAME:  544/1B 
150  NK038    V     C        18:29:43:08 18:29:44:15 06:06:54:16 06:06:55:23 
* FROM CLIP NAME:  549/2 
151  NK038    V     C        18:11:43:19 18:11:44:21 06:06:55:23 06:06:57:00 
* FROM CLIP NAME:  546/1 
152  NK037    V     C        17:48:09:04 17:48:11:10 06:06:57:00 06:06:59:06 
* FROM CLIP NAME:  544/1B 
153  NK037    V     C        17:42:42:05 17:42:44:16 06:06:59:06 06:07:01:17 
* FROM CLIP NAME:  543/3 
154  NK038    V     C        18:12:25:03 18:12:28:00 06:07:01:17 06:07:04:14 
* FROM CLIP NAME:  546/1 
155  NK037    V     C        17:48:18:15 17:48:22:10 06:07:04:14 06:07:08:09 
* FROM CLIP NAME:  544/1B 
156  NK038    V     C        18:12:31:00 18:12:33:02 06:07:08:09 06:07:10:11 
* FROM CLIP NAME:  546/1 
157  NK037    V     C        17:48:24:01 17:48:26:08 06:07:10:11 06:07:12:18 
* FROM CLIP NAME:  544/1B 
158  NK038    V     C        18:12:34:00 18:12:37:01 06:07:12:18 06:07:15:19 
* FROM CLIP NAME:  546/1 
159  NK037    V     C        17:48:26:17 17:48:30:21 06:07:15:19 06:07:19:23 
* FROM CLIP NAME:  544/1B 
160  NK038    V     C        18:12:37:12 18:12:38:23 06:07:19:23 06:07:21:09 
* FROM CLIP NAME:  546/1 
161  NK037    V     C        17:48:31:09 17:48:37:11 06:07:21:09 06:07:27:11 
* FROM CLIP NAME:  544/1B 
162  NK038    V     C        18:12:40:20 18:12:43:10 06:07:27:11 06:07:30:01 
* FROM CLIP NAME:  546/1 
163  NK037    V     C        17:48:40:09 17:48:44:19 06:07:30:01 06:07:34:11 
* FROM CLIP NAME:  544/1B 
164  NK037    V     C        17:43:59:02 17:44:07:17 06:07:34:11 06:07:43:01 
* FROM CLIP NAME:  543/5PU 
165  NK037    V     C        17:44:07:17 17:44:07:17 06:07:43:01 06:07:43:01 
165     BL    V     D    008 00:00:00:00 00:00:00:08 06:07:43:01 06:07:43:09 
* BLEND_DISSOLVE_LOG 
* FROM CLIP NAME:  543/5PU 
166     BL    V     C        00:00:00:00 00:00:00:00 06:07:44:02 06:07:44:02 
166  NK037    V     D    008 17:29:41:12 17:29:44:04 06:07:44:02 06:07:46:19 
* BLEND_DISSOLVE_LOG 
* TO CLIP NAME:  543/4PU 
167  NK037    V     C        17:29:44:04 17:29:44:04 06:07:46:19 06:07:46:19 
167     BL    V     D    008 00:00:00:00 00:00:00:08 06:07:46:19 06:07:47:02 
* BLEND_DISSOLVE_LOG 
* FROM CLIP NAME:  543/4PU 
168     BL    V     C        00:00:00:00 00:00:00:00 06:07:53:17 06:07:53:17 
168  NK042    V     D    008 02:15:27:21 02:15:34:03 06:07:53:17 06:07:59:24 
* BLEND_DISSOLVE_LOG 
* TO CLIP NAME:  595B/2 
169  NK042    V     C        02:15:38:22 02:15:40:08 06:08:01:13 06:08:02:24 
* FROM CLIP NAME:  595B/2 
170  NK042    V     C        02:30:00:05 02:30:01:12 06:08:02:24 06:08:04:06 
* FROM CLIP NAME:  597/2 
171  NK042    V     C        02:04:23:15 02:04:25:20 06:08:04:06 06:08:06:11 
* FROM CLIP NAME:  598/3 
172  NK042    V     C        02:15:50:01 02:15:51:11 06:08:06:11 06:08:07:21 
* FROM CLIP NAME:  595B/2 
173  NK042    V     C        02:04:53:21 02:04:54:13 06:08:10:11 06:08:11:03 
* FROM CLIP NAME:  598/3 
174  NK042    V     C        02:16:02:11 02:16:04:09 06:08:11:03 06:08:13:01 
* FROM CLIP NAME:  595B/2 
175  NK042    V     C        02:16:10:07 02:16:11:15 06:08:13:01 06:08:14:09 
* FROM CLIP NAME:  595B/2 
176  NK042    V     C        02:27:07:21 02:27:08:10 06:08:14:09 06:08:14:23 
* FROM CLIP NAME:  600B/1 
177  NK042    V     C        02:01:19:10 02:01:20:03 06:08:15:12 06:08:16:05 
* FROM CLIP NAME:  598/1 
178  NK042    V     C        02:28:11:11 02:28:11:21 06:08:16:05 06:08:16:15 
* FROM CLIP NAME:  600B/4 
179  NK042    V     C        02:30:35:05 02:30:36:00 06:08:16:15 06:08:17:10 
* FROM CLIP NAME:  597/2 
180  NK042    V     C        02:28:12:19 02:28:14:04 06:08:17:10 06:08:18:20 
* FROM CLIP NAME:  600B/4 
181  NK042    V     C        02:16:36:12 02:16:37:04 06:08:18:20 06:08:19:12 
* FROM CLIP NAME:  595B/2 
182  NK042    V     C        02:16:37:06 02:16:38:21 06:08:19:12 06:08:21:02 
* FROM CLIP NAME:  595B/2 
183  NK042    V     C        02:03:15:02 02:03:16:24 06:08:21:02 06:08:22:24 
* FROM CLIP NAME:  598/2 
184  NK042    V     C        02:30:49:12 02:30:54:01 06:08:22:24 06:08:27:13 
* FROM CLIP NAME:  597/2 
185  NK042    V     C        02:16:57:03 02:16:58:18 06:08:31:10 06:08:33:00 
* FROM CLIP NAME:  595B/2 
186  NK042    V     C        02:25:16:10 02:25:17:21 06:08:33:00 06:08:34:11 
* FROM CLIP NAME:  597/1 
187  NK043    V     C        03:23:29:10 03:23:31:13 06:08:35:17 06:08:37:20 
* FROM CLIP NAME:  614B/1 
188  NK043    V     C        03:23:41:22 03:23:43:03 06:08:37:20 06:08:39:01 
* FROM CLIP NAME:  614B/1 
189  NK043    V     C        03:25:16:04 03:25:17:18 06:08:39:01 06:08:40:15 
* FROM CLIP NAME:  614B/2 
190  NK042    V     C        02:25:43:01 02:25:45:08 06:08:40:15 06:08:42:22 
* FROM CLIP NAME:  597/1 
191  NK043    V     C        03:32:18:13 03:32:19:19 06:08:42:22 06:08:44:03 
* FROM CLIP NAME:  614A/2.1 
192  NK043    V     C        03:23:55:02 03:23:55:13 06:08:44:03 06:08:44:14 
* FROM CLIP NAME:  614B/1 
193  NK042    V     C        02:25:45:08 02:25:47:09 06:08:44:14 06:08:46:15 
* FROM CLIP NAME:  597/1 
194  NK042    V     C        02:13:23:22 02:13:24:21 06:08:46:15 06:08:47:14 
* FROM CLIP NAME:  595B/1 
195  NK042    V     C        02:25:28:07 02:25:29:06 06:08:47:14 06:08:48:13 
* FROM CLIP NAME:  597/1 
196  NK042    V     C        02:26:09:00 02:26:09:22 06:08:48:13 06:08:49:10 
* FROM CLIP NAME:  597/1 
197  NK042    V     C        02:08:08:23 02:08:10:02 06:08:49:10 06:08:50:14 
* FROM CLIP NAME:  599/3 
198  NK042    V     C        02:25:23:16 02:25:25:18 06:08:50:14 06:08:52:16 
* FROM CLIP NAME:  597/1 
199  NK042    V     C        02:14:02:00 02:14:03:23 06:08:54:18 06:08:56:16 
* FROM CLIP NAME:  595B/1 
200  NK042    V     C        02:07:50:12 02:07:52:10 06:08:56:16 06:08:58:14 
* FROM CLIP NAME:  599/2 
201  NK042    V     C        02:32:28:24 02:32:32:09 06:08:58:14 06:09:01:24 
* FROM CLIP NAME:  597/2 
202  NK043    V     C        03:29:55:14 03:29:56:15 06:09:01:24 06:09:03:00 
* FROM CLIP NAME:  616B/2 
203  NK043    V     C        03:26:42:16 03:26:44:09 06:09:03:00 06:09:04:18 
* FROM CLIP NAME:  615B/1 
204  NK043    V     C        03:33:27:02 03:33:27:22 06:09:04:18 06:09:05:13 
* FROM CLIP NAME:  615A/1 
205  NK042    V     C        02:22:40:19 02:22:42:05 06:09:05:13 06:09:06:24 
* FROM CLIP NAME:  596B/1 
206  NK042    V     C        02:22:42:09 02:22:43:14 06:09:06:24 06:09:08:04 
* FROM CLIP NAME:  596B/1 
207  NK043    V     C        03:33:37:22 03:33:38:19 06:09:08:04 06:09:09:01 
* FROM CLIP NAME:  615A/1 
208  NK043    V     C        03:27:01:00 03:27:01:18 06:09:09:01 06:09:09:19 
* FROM CLIP NAME:  615B/1 
209  NK043    V     C        03:33:40:06 03:33:40:13 06:09:09:19 06:09:10:01 
* FROM CLIP NAME:  615A/1 
210  NK043    V     C        03:33:40:16 03:33:40:23 06:09:10:01 06:09:10:08 
* FROM CLIP NAME:  615A/1 
211  NK043    V     C        03:27:03:15 03:27:04:15 06:09:15:18 06:09:16:18 
* FROM CLIP NAME:  615B/1 
212  NK043    V     C        03:33:42:12 03:33:43:00 06:09:16:18 06:09:17:06 
* FROM CLIP NAME:  615A/1 
213  NK043    V     C        03:33:43:22 03:33:44:12 06:09:17:06 06:09:17:21 
* FROM CLIP NAME:  615A/1 
214  NK042    V     C        02:38:55:19 02:38:55:20 06:09:17:21 06:09:17:22 
* FROM CLIP NAME:  603B/1 
215  NK042    V     C        02:38:55:22 02:38:56:06 06:09:17:22 06:09:18:06 
* FROM CLIP NAME:  603B/1 
216  NK042    V     C        02:38:56:08 02:38:56:10 06:09:18:06 06:09:18:08 
* FROM CLIP NAME:  603B/1 
217  NK042    V     C        02:38:56:11 02:38:56:18 06:09:18:08 06:09:18:15 
* FROM CLIP NAME:  603B/1 
218  NK042    V     C        02:38:56:21 02:38:57:11 06:09:18:15 06:09:19:05 
* FROM CLIP NAME:  603B/1 
219  NK042    V     C        02:38:57:13 02:38:57:15 06:09:19:05 06:09:19:07 
* FROM CLIP NAME:  603B/1 
220  NK042    V     C        02:38:57:16 02:38:57:18 06:09:19:07 06:09:19:09 
* FROM CLIP NAME:  603B/1 
221  NK043    V     C        03:29:22:22 03:29:23:21 06:09:19:09 06:09:20:08 
* FROM CLIP NAME:  616B/1 
222  NK043    V     C        03:29:23:24 03:29:24:04 06:09:20:08 06:09:20:13 
* FROM CLIP NAME:  616B/1 
223  NK043    V     C        03:29:24:08 03:29:24:10 06:09:20:13 06:09:20:15 
* FROM CLIP NAME:  616B/1 
224  NK043    V     C        03:31:35:06 03:31:35:17 06:09:20:15 06:09:21:01 
* FROM CLIP NAME:  619/2RO 
225  NK043    V     C        03:31:35:20 03:31:36:13 06:09:21:01 06:09:21:19 
* FROM CLIP NAME:  619/2RO 
226  NK042    V     C        02:47:46:17 02:47:46:20 06:09:26:24 06:09:27:02 
* FROM CLIP NAME:  604B/3 
227  NK042    V     C        02:47:46:21 02:47:47:03 06:09:27:02 06:09:27:09 
* FROM CLIP NAME:  604B/3 
228  NK042    V     C        02:47:47:04 02:47:47:06 06:09:27:09 06:09:27:11 
* FROM CLIP NAME:  604B/3 
229  NK042    V     C        02:47:47:07 02:47:47:11 06:09:27:11 06:09:27:15 
* FROM CLIP NAME:  604B/3 
230  NK042    V     C        02:47:47:12 02:47:47:18 06:09:27:15 06:09:27:21 
* FROM CLIP NAME:  604B/3 
231  NK042    V     C        02:47:47:19 02:47:47:24 06:09:27:21 06:09:28:01 
* FROM CLIP NAME:  604B/3 
232  NK043    V     C        03:18:40:04 03:18:42:06 06:09:33:15 06:09:35:17 
* FROM CLIP NAME:  612A/1 (75 FPS) 
233  NK042    V     C        02:48:07:21 02:48:08:02 06:09:35:17 06:09:35:23 
* FROM CLIP NAME:  604B/3 
234  NK042    V     C        02:48:08:04 02:48:08:07 06:09:35:23 06:09:36:01 
* FROM CLIP NAME:  604B/3 
235  NK042    V     C        02:48:08:09 02:48:08:13 06:09:36:01 06:09:36:05 
* FROM CLIP NAME:  604B/3 
236  NK042    V     C        02:48:08:14 02:48:09:09 06:09:36:05 06:09:37:00 
* FROM CLIP NAME:  604B/3 
237  NK042    V     C        02:48:09:15 02:48:09:20 06:09:37:00 06:09:37:05 
* FROM CLIP NAME:  604B/3 
238  NK042    V     C        02:48:09:23 02:48:10:24 06:09:37:05 06:09:38:06 
* FROM CLIP NAME:  604B/3 
239  NK042    V     C        02:41:44:19 02:41:45:21 06:09:38:06 06:09:39:08 
* FROM CLIP NAME:  603B/2 
240  NK042    V     C        02:41:45:24 02:41:46:03 06:09:39:08 06:09:39:12 
* FROM CLIP NAME:  603B/2 
241  NK042    V     C        02:41:46:05 02:41:46:14 06:09:39:12 06:09:39:21 
* FROM CLIP NAME:  603B/2 
242  NK042    V     C        02:43:48:10 02:43:48:24 06:09:39:21 06:09:40:10 
* FROM CLIP NAME:  603B/3 
243  NK042    V     C        02:43:49:02 02:43:50:01 06:09:40:10 06:09:41:09 
* FROM CLIP NAME:  603B/3 
244  NK042    V     C        02:34:10:18 02:34:11:09 06:09:41:09 06:09:42:00 
* FROM CLIP NAME:  605B/1 
245  NK042    V     C        02:34:14:06 02:34:15:05 06:09:42:00 06:09:42:24 
* FROM CLIP NAME:  605B/1 
246  NK042    V     C        02:43:58:19 02:43:59:18 06:09:42:24 06:09:43:23 
* FROM CLIP NAME:  603B/3 
247  NK042    V     C        02:43:59:19 02:44:00:01 06:09:43:23 06:09:44:05 
* FROM CLIP NAME:  603B/3 
248  NK042    V     C        02:44:00:02 02:44:00:09 06:09:44:05 06:09:44:12 
* FROM CLIP NAME:  603B/3 
249  NK042    V     C        02:44:00:10 02:44:00:12 06:09:44:12 06:09:44:14 
* FROM CLIP NAME:  603B/3 
250  NK042    V     C        02:44:00:13 02:44:01:06 06:09:44:14 06:09:45:07 
* FROM CLIP NAME:  603B/3 
251  NK042    V     C        02:40:09:22 02:40:10:20 06:09:45:07 06:09:46:05 
* FROM CLIP NAME:  603B/1 
252  NK042    V     C        02:40:10:22 02:40:11:17 06:09:46:05 06:09:47:00 
* FROM CLIP NAME:  603B/1 
253  NK042    V     C        02:48:27:16 02:48:29:00 06:09:47:00 06:09:48:09 
* FROM CLIP NAME:  604B/3 
254  NK042    V     C        02:48:29:17 02:48:31:11 06:09:48:09 06:09:50:03 
* FROM CLIP NAME:  604B/3 
255  NK042    V     C        02:44:02:17 02:44:03:01 06:09:50:03 06:09:50:12 
* FROM CLIP NAME:  603B/3 
256  NK042    V     C        02:44:03:03 02:44:03:19 06:09:50:12 06:09:51:03 
* FROM CLIP NAME:  603B/3 
257  NK042    V     C        02:45:49:02 02:45:49:14 06:09:51:03 06:09:51:15 
* FROM CLIP NAME:  604B/1 
258  NK042    V     C        02:44:03:19 02:44:04:01 06:09:51:15 06:09:51:22 
* FROM CLIP NAME:  603B/3 
259  NK043    V     C        03:00:19:18 03:00:20:01 06:09:51:22 06:09:52:05 
* FROM CLIP NAME:  606B/1 
260  NK043    V     C        03:02:06:09 03:02:06:22 06:09:52:05 06:09:52:18 
* FROM CLIP NAME:  607/1 
261  NK043    V     C        03:00:20:14 03:00:20:18 06:09:52:18 06:09:52:22 
* FROM CLIP NAME:  606B/1 
262  NK042    V     C        02:44:04:22 02:44:05:23 06:09:52:22 06:09:53:23 
* FROM CLIP NAME:  603B/3 
263  NK042    V     C        02:37:39:02 02:37:40:07 06:09:53:23 06:09:55:03 
* FROM CLIP NAME:  607A/1(50FPS) 
264  NK043    V     C        03:01:00:19 03:01:02:00 06:09:55:03 06:09:56:09 
* FROM CLIP NAME:  606B/2 (50FPS) 
265  NK042    V     C        02:48:39:15 02:48:40:17 06:09:56:09 06:09:57:11 
* FROM CLIP NAME:  604B/3 
266  NK042    V     C        02:44:09:03 02:44:10:06 06:09:57:11 06:09:58:14 
* FROM CLIP NAME:  603B/3 
267  NK042    V     C        02:37:42:06 02:37:43:10 06:09:58:14 06:09:59:18 
* FROM CLIP NAME:  607A/1(50FPS) 
268  NK043    V     C        03:02:11:00 03:02:11:12 06:09:59:18 06:10:00:05 
* FROM CLIP NAME:  607/1 
269  NK042    V     C        02:38:08:21 02:38:10:15 06:10:00:05 06:10:01:24 
* FROM CLIP NAME:  607A/2 
270  NK046    V     C        06:05:54:07 06:05:58:04 06:10:01:24 06:10:05:21 
* FROM CLIP NAME:  639/7 50FPS* 
271  NK046    V     C        06:05:38:07 06:05:43:07 06:10:05:21 06:10:10:21 
* FROM CLIP NAME:  639/7 50FPS* 
272  NK046    V     C        06:07:34:20 06:07:37:20 06:10:10:21 06:10:13:21 
* FROM CLIP NAME:  639/8 50FPS* 
273  NK051    V     C        11:26:37:01 11:26:45:10 06:10:13:21 06:10:22:05 
* FROM CLIP NAME:  735/3 
274  NK052    V     C        12:43:36:07 12:43:38:11 06:10:22:05 06:10:24:09 
* FROM CLIP NAME:  760/2 
275  NK051    V     C        11:24:49:14 11:24:52:03 06:10:24:09 06:10:26:23 
* FROM CLIP NAME:  735/1 
276  NK053    V     C        13:24:57:07 13:25:00:08 06:10:26:23 06:10:29:24 
* FROM CLIP NAME:  766/2 
277  NK052    V     C        12:44:25:02 12:44:27:22 06:10:29:24 06:10:32:19 
* FROM CLIP NAME:  760/3 
278  NK053    V     C        13:25:08:11 13:25:11:18 06:10:32:19 06:10:36:01 
* FROM CLIP NAME:  766/2 
279  NK052    V     C        12:44:34:14 12:44:35:12 06:10:36:01 06:10:36:24 
* FROM CLIP NAME:  760/3 
280  NK053    V     C        13:25:12:15 13:25:14:17 06:10:36:24 06:10:39:01 
* FROM CLIP NAME:  766/2 
281  NK052    V     C        12:44:39:24 12:44:43:04 06:10:39:01 06:10:42:06 
* FROM CLIP NAME:  760/3 
282  NK053    V     C        13:25:35:09 13:25:36:22 06:10:42:06 06:10:43:19 
* FROM CLIP NAME:  766/2 
283  NK052    V     C        12:44:46:20 12:44:47:18 06:10:43:19 06:10:44:17 
* FROM CLIP NAME:  760/3 
284  NK053    V     C        13:25:39:03 13:25:44:15 06:10:44:17 06:10:50:04 
* FROM CLIP NAME:  766/2 
285  NK052    V     C        12:33:56:11 12:33:58:08 06:10:50:04 06:10:52:01 
* FROM CLIP NAME:  758/2 
286  NK053    V     C        13:25:48:17 13:25:57:10 06:10:52:01 06:11:00:19 
* FROM CLIP NAME:  766/2 
287  NK052    V     C        12:34:09:12 12:34:12:13 06:11:00:19 06:11:03:20 
* FROM CLIP NAME:  758/2 
288  NK052    V     C        12:46:04:01 12:46:07:14 06:11:03:20 06:11:07:08 
* FROM CLIP NAME:  765/1 
289  NK053    V     C        13:26:34:02 13:26:39:11 06:11:07:08 06:11:12:17 
* FROM CLIP NAME:  766/2 
290  NK052    V     C        12:34:23:05 12:34:27:23 06:11:12:17 06:11:17:10 
* FROM CLIP NAME:  758/2 
291  NK053    V     C        13:26:03:18 13:26:07:23 06:11:17:10 06:11:21:15 
* FROM CLIP NAME:  766/2 
292  NK053    V     C        13:23:32:11 13:23:37:13 06:11:21:15 06:11:26:17 
* FROM CLIP NAME:  766/1 
293  NK052    V     C        12:40:52:06 12:40:58:23 06:11:26:17 06:11:33:09 
* FROM CLIP NAME:  759/3 
294  NK053    V     C        13:23:48:21 13:23:55:17 06:11:33:09 06:11:40:05 
* FROM CLIP NAME:  766/1 
295  NK052    V     C        12:41:05:19 12:41:07:06 06:11:40:05 06:11:41:17 
* FROM CLIP NAME:  759/3 
296  NK053    V     C        13:23:57:06 13:24:01:22 06:11:41:17 06:11:46:08 
* FROM CLIP NAME:  766/1 
297  NK052    V     C        12:41:13:11 12:41:16:21 06:11:46:08 06:11:49:18 
* FROM CLIP NAME:  759/3 
298  NK053    V     C        13:27:12:01 13:27:16:02 06:11:49:18 06:11:53:19 
* FROM CLIP NAME:  766/2 
299  NK052    V     C        12:47:16:11 12:47:19:17 06:11:53:19 06:11:57:00 
* FROM CLIP NAME:  765/1 
300  NK053    V     C        13:27:45:19 13:27:53:13 06:11:57:00 06:12:04:19 
* FROM CLIP NAME:  766/2 
301  NK052    V     C        12:33:28:13 12:33:31:17 06:12:04:19 06:12:07:23 
* FROM CLIP NAME:  758/1 
302  NK053    V     C        13:27:54:22 13:27:57:20 06:12:07:23 06:12:10:21 
* FROM CLIP NAME:  766/2 
303  NK052    V     C        12:29:15:04 12:29:22:09 06:12:10:21 06:12:18:01 
* FROM CLIP NAME:  757/2 
304  NK052    V     C        12:42:12:13 12:42:14:10 06:12:18:01 06:12:19:23 
* FROM CLIP NAME:  759/3 
305  NK052    V     C        12:28:36:08 12:28:46:02 06:12:19:23 06:12:29:17 
* FROM CLIP NAME:  757/1 
306  NK053    V     C        13:00:17:12 13:00:21:09 06:12:29:17 06:12:33:14 
* FROM CLIP NAME:  761/1 
307  NK053    V     C        13:05:28:05 13:05:29:12 06:12:33:14 06:12:34:21 
* FROM CLIP NAME:  762/1 
308  NK053    V     C        13:19:23:20 13:19:26:17 06:12:34:21 06:12:37:18 
* FROM CLIP NAME:  764/1 
309  NK053    V     C        13:03:40:23 13:03:42:22 06:12:37:18 06:12:39:17 
* FROM CLIP NAME:  761/3 
310  NK053    V     C        13:19:27:18 13:19:32:06 06:12:39:17 06:12:44:05 
* FROM CLIP NAME:  764/1 
311  NK053    V     C        13:05:37:01 13:05:41:11 06:12:44:05 06:12:48:15 
* FROM CLIP NAME:  762/1 
312  NK053    V     C        13:03:49:00 13:03:51:20 06:12:48:15 06:12:51:10 
* FROM CLIP NAME:  761/3 
313  NK053    V     C        13:17:59:17 13:18:01:15 06:12:51:10 06:12:53:08 
* FROM CLIP NAME:  763/5 
314  NK053    V     C        13:05:52:02 13:05:55:04 06:12:53:08 06:12:56:10 
* FROM CLIP NAME:  762/1 
315  NK053    V     C        13:16:40:03 13:16:41:05 06:12:56:10 06:12:57:12 
* FROM CLIP NAME:  763/5 
316  NK053    V     C        13:05:56:17 13:06:00:09 06:12:57:12 06:13:01:04 
* FROM CLIP NAME:  762/1 
317  NK053    V     C        13:18:10:22 13:18:14:08 06:13:01:04 06:13:04:15 
* FROM CLIP NAME:  763/5 
318  NK053    V     C        13:06:05:22 13:06:14:17 06:13:04:15 06:13:13:10 
* FROM CLIP NAME:  762/1 
319  NK053    V     C        13:02:53:09 13:02:57:15 06:13:13:10 06:13:17:16 
* FROM CLIP NAME:  761/2 
320  NK053    V     C        13:18:29:18 13:18:32:08 06:13:17:16 06:13:20:06 
* FROM CLIP NAME:  763/5 
321  NK053    V     C        13:09:05:17 13:09:12:11 06:13:20:06 06:13:27:00 
* FROM CLIP NAME:  762/3PU 
322  NK053    V     C        13:12:18:12 13:12:21:24 06:13:27:00 06:13:30:12 
* FROM CLIP NAME:  763/2 
323  NK022    V     C        02:16:24:03 02:16:28:11 06:13:39:05 06:13:43:13 
* FROM CLIP NAME:  322/1 
324  NK022    V     C        02:12:39:16 02:12:43:06 06:13:43:13 06:13:47:03 
* FROM CLIP NAME:  320/1 
325  NK022    V     C        02:04:15:20 02:04:18:02 06:13:47:03 06:13:49:10 
* FROM CLIP NAME:  318/1 
326  NK022    V     C        02:14:14:12 02:14:17:20 06:13:49:10 06:13:52:18 
* FROM CLIP NAME:  320/2 
327  NK022    V     C        02:11:11:19 02:11:17:10 06:13:52:18 06:13:58:09 
* FROM CLIP NAME:  319/3PU 
328  NK022    V     C        02:14:17:17 02:14:20:04 06:13:58:09 06:14:00:21 
* FROM CLIP NAME:  320/2 
329  NK022    V     C        02:10:12:12 02:10:17:22 06:14:00:21 06:14:06:06 
* FROM CLIP NAME:  319/2 
330  NK022    V     C        02:13:10:01 02:13:12:14 06:14:06:06 06:14:08:19 
* FROM CLIP NAME:  320/1 
331  NK022    V     C        02:11:38:12 02:11:42:07 06:14:08:19 06:14:12:14 
* FROM CLIP NAME:  319/3PU 
332  NK022    V     C        02:14:37:04 02:14:40:11 06:14:12:14 06:14:15:21 
* FROM CLIP NAME:  320/2 
333  NK022    V     C        02:11:44:02 02:11:47:06 06:14:15:21 06:14:19:00 
* FROM CLIP NAME:  319/3PU 
334  NK022    V     C        02:14:42:06 02:14:43:17 06:14:19:00 06:14:20:11 
* FROM CLIP NAME:  320/2 
>>> SOURCE NK003    NK003            b83c2612.021c3e8a 
>>> SOURCE NK022    NK022            b8624375.01dffa59 
>>> SOURCE NK025    NK025            b8652b63.00929dfc 
>>> SOURCE NK026    NK026            b86614bf.0006e0df 
>>> SOURCE NK027    NK027            b86625ae.00493b54 
>>> SOURCE NK037    NK037            b8763a41.02b35c7a 
>>> SOURCE NK038    NK038            b8764865.02eac422 
>>> SOURCE NK042    NK042            b877724a.024a93de 
>>> SOURCE NK043    NK043            b8777fe7.027feb88 
>>> SOURCE NK046    NK046            b877a10a.0301c3b3 
>>> SOURCE NK051    NK051            b89c5678.0237d7c6 
>>> SOURCE NK052    NK052            b89c6b3a.00492768 
>>> SOURCE NK053    NK053            b8a04266.021af4fb 
TITLE:   NK VS DEF AKTE 6 VOOR EDL BEELD 
001  NK025    V     C        05:20:46:09 05:20:51:15 06:00:53:18 06:00:58:24 
M2   NK025          049.9                05:20:46:09 
* FROM CLIP NAME:  368/2 
002  NK042    V     C        02:09:09:15 02:09:15:04 06:07:47:16 06:07:53:05 
* FROM CLIP NAME:  601/1 
003  NK042    V     C        02:10:00:15 02:10:02:04 06:07:59:24 06:08:01:13 
* FROM CLIP NAME:  602A/1 
004  NK042    V     C        02:30:11:03 02:30:12:11 06:08:07:21 06:08:09:04 
* FROM CLIP NAME:  597/2 
005  NK042    V     C        02:20:12:02 02:20:13:09 06:08:09:04 06:08:10:11 
* FROM CLIP NAME:  596B/1 
006  NK042    V     C        02:28:10:11 02:28:10:18 06:08:14:23 06:08:15:05 
* FROM CLIP NAME:  600B/4 
007  NK042    V     C        02:28:10:17 02:28:10:24 06:08:15:05 06:08:15:12 
M2   NK042          000.0                02:28:10:17 
* FROM CLIP NAME:  600B/4 
* * FREEZE FRAME: 
008  NK043    V     C        03:24:45:03 03:24:46:07 06:08:27:13 06:08:28:17 
M2   NK043          012.5                03:24:45:03 
* FROM CLIP NAME:  614B/2 
009  NK043    V     C        03:24:45:23 03:24:47:04 06:08:28:17 06:08:29:23 
M2   NK043          012.5                03:24:45:23 
* FROM CLIP NAME:  614B/2 
010  NK043    V     C        03:24:53:21 03:24:55:08 06:08:29:23 06:08:31:10 
M2   NK043          012.5                03:24:53:21 
* FROM CLIP NAME:  614B/2 
011  NK043    V     C        03:25:11:21 03:25:13:02 06:08:34:11 06:08:35:17 
M2   NK043          012.5                03:25:11:21 
* FROM CLIP NAME:  614B/2 
012  NK043    V     C        03:26:06:04 03:26:08:06 06:08:52:16 06:08:54:18 
M2   NK043          012.5                03:26:06:04 
* FROM CLIP NAME:  614B/2 
013  NK042    V     C        02:32:55:01 02:32:55:24 06:09:10:08 06:09:11:06 
M2   NK042          049.8                02:32:55:01 
* FROM CLIP NAME:  597/2 
014  NK042    V     C        02:32:56:21 02:32:57:18 06:09:11:06 06:09:12:03 
* FROM CLIP NAME:  597/2 
015  NK042    V     C        02:32:57:18 02:33:01:08 06:09:12:03 06:09:15:18 
M2   NK042          012.5                02:32:57:18 
* FROM CLIP NAME:  597/2 
016  NK042    V     C        02:46:17:24 02:46:18:11 06:09:21:19 06:09:22:06 
M2   NK042          050.0                02:46:17:24 
* FROM CLIP NAME:  604B/2 
017  NK042    V     C        02:46:19:00 02:46:19:05 06:09:22:06 06:09:22:11 
M2   NK042          050.0                02:46:19:00 
* FROM CLIP NAME:  604B/2 
018  NK042    V     C        02:46:19:11 02:46:19:24 06:09:22:11 06:09:22:24 
* FROM CLIP NAME:  604B/2 
019  NK042    V     C        02:46:20:01 02:46:20:03 06:09:22:24 06:09:23:01 
* FROM CLIP NAME:  604B/2 
020  NK042    V     C        02:46:20:05 02:46:20:07 06:09:23:01 06:09:23:03 
* FROM CLIP NAME:  604B/2 
021  NK042    V     C        02:46:20:08 02:46:20:12 06:09:23:03 06:09:23:07 
* FROM CLIP NAME:  604B/2 
022  NK042    V     C        02:46:20:12 02:46:24:04 06:09:23:07 06:09:26:24 
M2   NK042          012.5                02:46:20:12 
* FROM CLIP NAME:  604B/2 
023  NK042    V     C        02:39:23:12 02:39:23:16 06:09:28:01 06:09:28:05 
* FROM CLIP NAME:  603B/1 
024  NK042    V     C        02:39:23:17 02:39:23:21 06:09:28:05 06:09:28:09 
* FROM CLIP NAME:  603B/1 
025  NK042    V     C        02:39:23:24 02:39:24:01 06:09:28:09 06:09:28:11 
* FROM CLIP NAME:  603B/1 
026  NK042    V     C        02:39:24:02 02:39:24:06 06:09:28:11 06:09:28:15 
* FROM CLIP NAME:  603B/1 
027  NK042    V     C        02:39:24:07 02:39:24:16 06:09:28:15 06:09:28:24 
* FROM CLIP NAME:  603B/1 
028  NK042    V     C        02:39:24:17 02:39:24:19 06:09:28:24 06:09:29:01 
* FROM CLIP NAME:  603B/1 
029  NK042    V     C        02:39:24:20 02:39:25:01 06:09:29:01 06:09:29:07 
* FROM CLIP NAME:  603B/1 
030  NK042    V     C        02:39:25:04 02:39:25:10 06:09:29:07 06:09:29:13 
* FROM CLIP NAME:  603B/1 
031  NK042    V     C        02:39:25:12 02:39:25:21 06:09:29:13 06:09:29:22 
* FROM CLIP NAME:  603B/1 
032  NK042    V     C        02:39:25:22 02:39:26:08 06:09:29:22 06:09:30:08 
* FROM CLIP NAME:  603B/1 
033  NK042    V     C        02:39:26:11 02:39:26:13 06:09:30:08 06:09:30:10 
* FROM CLIP NAME:  603B/1 
034  NK042    V     C        02:39:26:14 02:39:26:15 06:09:30:10 06:09:30:11 
* FROM CLIP NAME:  603B/1 
035  NK042    V     C        02:39:26:21 02:39:26:23 06:09:30:11 06:09:30:13 
* FROM CLIP NAME:  603B/1 
036  NK042    V     C        02:39:27:05 02:39:27:11 06:09:30:13 06:09:30:19 
* FROM CLIP NAME:  603B/1 
037  NK042    V     C        02:39:27:12 02:39:28:02 06:09:30:19 06:09:31:09 
* FROM CLIP NAME:  603B/1 
038  NK042    V     C        02:39:28:08 02:39:29:07 06:09:31:09 06:09:32:08 
M2   NK042          012.5                02:39:28:08 
* FROM CLIP NAME:  603B/1 
039  NK042    V     C        02:39:28:22 02:39:30:04 06:09:32:08 06:09:33:15 
M2   NK042          012.5                02:39:28:22 
* FROM CLIP NAME:  603B/1 
040  NK053    V     C        13:06:47:09 13:06:52:00 06:13:30:12 06:13:35:03 
* FROM CLIP NAME:  762/1 
041  NK053    V     C        13:06:52:00 13:06:56:02 06:13:35:03 06:13:39:05 
M2   NK053          012.5                13:06:52:00 
* FROM CLIP NAME:  762/1 
042  NK022    V     C        02:07:38:14 02:07:42:21 06:14:20:11 06:14:24:18 
* FROM CLIP NAME:  318/3 
043  NK022    V     C        02:07:42:21 02:07:45:14 06:14:24:18 06:14:27:11 
M2   NK022          000.0                02:07:42:21 
* FROM CLIP NAME:  318/3 
* * FREEZE FRAME: 
044  NK022    V     C        02:07:42:21 02:07:42:21 06:14:27:11 06:14:27:11 
044     BL    V     D    050 00:00:00:00 00:00:02:00 06:14:27:11 06:14:29:11 
M2   NK022          000.0                02:07:42:21 
* BLEND_DISSOLVE_LOG 
* FROM CLIP NAME:  318/3 
* * FREEZE FRAME: 
>>> SOURCE NK022    NK022            b8624375.01dffa59 
>>> SOURCE NK025    NK025            b8652b63.00929dfc 
>>> SOURCE NK042    NK042            b877724a.024a93de 
>>> SOURCE NK043    NK043            b8777fe7.027feb88 
>>> SOURCE NK053    NK053            b8a04266.021af4fb 
TITLE:   NK VS DEF AKTE 6 VOOR EDL BEELD 
001  NK042    V     C        02:08:51:18 02:08:57:07 06:07:47:16 06:07:53:05 
* FROM CLIP NAME:  601/1 
002  NK042    V     C        02:10:00:12 02:10:02:01 06:07:59:24 06:08:01:13 
* FROM CLIP NAME:  602A/1 
003  NK042    V     C        02:30:12:04 02:30:12:11 06:08:08:22 06:08:09:04 
M2   NK042          000.0                02:30:12:04 
* BLEND_SUPER, LEVEL = 0. 
* FROM CLIP NAME:  597/2 
* * FREEZE FRAME: 
004  NK042    V     C        02:20:12:05 02:20:12:11 06:08:09:07 06:08:09:13 
M2   NK042          000.0                02:20:12:05 
* BLEND_SUPER, LEVEL = 0. 
* FROM CLIP NAME:  596B/1 
* * FREEZE FRAME: 
005     BL    V     C        00:00:00:00 00:00:00:00 06:13:31:20 06:13:31:20 
005  NK022    V     D    035 02:20:28:20 02:20:36:05 06:13:31:20 06:13:39:05 
* BLEND_DISSOLVE_LOG 
* TO CLIP NAME:  324/2A 
>>> SOURCE NK022    NK022            b8624375.01dffa59 
>>> SOURCE NK042    NK042            b877724a.024a93de 
