
TITLE: NCS  WORLDS FASTEST INDIAN  TRAILER   A:WFITRON.EDL  ONLINE  24.08.05
010  006      V     C        06:09:30:23 06:09:31:15 00:01:11:21 00:01:12:13 
* FROM CLIP NAME:  REEL 6.NEW.10
011  001      V     C        01:14:54:15 01:14:55:14 00:01:12:20 00:01:13:19 
* FROM CLIP NAME:  REEL 1.NEW.06
012  001      V     C        01:15:44:16 01:15:45:09 00:01:13:19 00:01:14:12 
* FROM CLIP NAME:  REEL 1.NEW.09
013  001      V     C        01:16:27:12 01:16:28:01 00:01:14:12 00:01:15:01 
* FROM CLIP NAME:  REEL 1.NEW.11
014  001      V     C        01:16:28:21 01:16:30:04 00:01:15:01 00:01:16:08 
* FROM CLIP NAME:  REEL 1.NEW.11
015  001      V     C        01:16:04:16 01:16:05:08 00:01:16:08 00:01:17:00 
* FROM CLIP NAME:  REEL 1.NEW.10
016  001      V     C        01:16:05:08 01:16:05:08 00:01:17:00 00:01:17:00 
016  002      V     D    010 02:16:59:04 02:17:01:00 00:01:17:00 00:01:18:20 
* FROM CLIP NAME:  REEL 1.NEW.10
* TO CLIP NAME:  REEL 2.NEW.09
017  002      V     C        02:17:01:00 02:17:01:00 00:01:18:20 00:01:18:20 
017  001      V     D    010 01:02:30:11 01:02:31:00 00:01:18:20 00:01:19:09 
* FROM CLIP NAME:  REEL 2.NEW.09
* TO CLIP NAME:  REEL 1.NEW.02
018  001      V     C        01:02:34:12 01:02:34:14 00:01:19:09 00:01:19:11 
* FROM CLIP NAME:  REEL 1.NEW.02
019  001      V     C        01:02:35:02 01:02:35:04 00:01:19:11 00:01:19:13 
* FROM CLIP NAME:  REEL 1.NEW.02
021  001      V     C        01:15:26:15 01:15:26:17 00:01:19:15 00:01:19:17 
* FROM CLIP NAME:  REEL 1.NEW.08
022  001      V     C        01:16:44:00 01:16:44:02 00:01:19:17 00:01:19:19 
* FROM CLIP NAME:  REEL 1.NEW.12
023  006      V     C        06:09:29:00 06:09:29:02 00:01:19:19 00:01:19:21 
* FROM CLIP NAME:  REEL 6.NEW.10
024  002      V     C        02:09:52:19 02:09:52:20 00:01:19:23 00:01:20:00 
* FROM CLIP NAME:  REEL 2.NEW.04
025  002      V     C        02:01:29:01 02:01:29:03 00:01:20:00 00:01:20:02 
* FROM CLIP NAME:  REEL 2.NEW.01
026  002      V     C        02:09:54:09 02:09:54:11 00:01:20:02 00:01:20:04 
* FROM CLIP NAME:  REEL 2.NEW.04
027  006      V     C        06:09:29:15 06:09:29:17 00:01:20:04 00:01:20:06 
* FROM CLIP NAME:  REEL 6.NEW.10
028  005      V     C        05:05:25:00 05:05:27:18 00:01:20:06 00:01:23:00 
* FROM CLIP NAME:  REEL 5.NEW.02
029  002      V     C        02:07:02:16 02:07:04:01 00:01:23:00 00:01:24:09 
* FROM CLIP NAME:  REEL 2.NEW.02
032  003      V     C        03:01:07:02 03:01:07:14 00:01:26:12 00:01:27:00 
* FROM CLIP NAME:  REEL 3.NEW.04
035  003      V     C        03:03:06:17 03:03:06:23 00:01:30:05 00:01:30:11 
* FROM CLIP NAME:  REEL 3.NEW.06
036  003      V     C        03:03:06:23 03:03:06:23 00:01:30:11 00:01:30:11 
036  3B       V     D    010 03:03:06:13 03:03:07:01 00:01:30:11 00:01:30:23 
* FROM CLIP NAME:  REEL 3.NEW.06
* TO CLIP NAME:  REEL 3.NEW.06
037  3B       V     C        03:03:07:01 03:03:07:01 00:01:30:23 00:01:30:23 
037  003      V     D    006 03:05:42:04 03:05:45:09 00:01:30:23 00:01:34:04 
* FROM CLIP NAME:  REEL 3.NEW.06
* TO CLIP NAME:  REEL 3.NEW.07
038  004      V     C        04:14:27:04 04:14:29:08 00:01:34:04 00:01:36:08 
* FROM CLIP NAME:  ONLINE 4 CONVENTION CLIP.02
039  004      V     C        04:14:22:21 04:14:23:23 00:01:36:08 00:01:37:10 
* FROM CLIP NAME:  ONLINE 4 CONVENTION CLIP.03
040  004      V     C        04:14:32:17 04:14:33:12 00:01:37:10 00:01:38:05 
* FROM CLIP NAME:  ONLINE 4 CONVENTION CLIP.02
044   AX      V     C        01:00:00:00 01:00:00:00 00:01:41:01 00:01:41:01 
044  004      V     D    006 04:00:45:16 04:00:46:10 00:01:41:01 00:01:41:19 
* FROM CLIP NAME:  REEL 4.NEW.01
* TO CLIP NAME:  REEL 4.NEW.01
045  004      V     C        04:00:46:10 04:00:46:10 00:01:41:19 00:01:41:19 
045  005      V     D    010 05:05:18:02 05:05:19:03 00:01:41:19 00:01:42:20 
* FROM CLIP NAME:  REEL 4.NEW.01
* TO CLIP NAME:  REEL 5.NEW.01
046  005      V     C        05:05:19:03 05:05:19:03 00:01:42:20 00:01:42:20 
046  004      V     D    010 04:01:41:00 04:01:41:20 00:01:42:20 00:01:43:16 
* FROM CLIP NAME:  REEL 5.NEW.01
* TO CLIP NAME:  REEL 4.NEW.02
047  004      V     C        04:01:41:20 04:01:41:20 00:01:43:16 00:01:43:16 
047  003      V     D    012 03:00:15:18 03:00:16:14 00:01:43:16 00:01:44:12 
* FROM CLIP NAME:  REEL 4.NEW.02
* TO CLIP NAME:  REEL 3.NEW.01
048  006      V     C        06:03:23:04 06:03:23:06 00:01:44:12 00:01:44:18 
* SLOMO
* FROM CLIP NAME:  REEL 6.NEW.05
049  006      V     C        06:03:23:04 06:03:23:18 00:01:44:18 00:01:45:08 
* FROM CLIP NAME:  REEL 6.NEW.05
052  006      V     C        06:03:27:07 06:03:27:07 00:01:46:15 00:01:46:15 
052   AX      V     D    006 01:00:00:00 01:00:00:06 00:01:46:15 00:01:46:21 
* FROM CLIP NAME:  REEL 6.NEW.05
055   AX      V     C        01:00:00:00 01:00:00:00 00:01:47:23 00:01:47:23 
055  005      V     D    006 05:11:11:14 05:11:12:13 00:01:47:23 00:01:48:22 
* FROM CLIP NAME:  REEL 5.NEW.07
* TO CLIP NAME:  REEL 5.NEW.07
058  005      V     C        05:10:33:22 05:10:34:19 00:01:50:16 00:01:51:13 
* FROM CLIP NAME:  REEL 5.NEW.06
059  005      V     C        05:11:19:11 05:11:20:12 00:01:51:13 00:01:52:14 
* FROM CLIP NAME:  REEL 5.NEW.08
060  005      V     C        05:11:20:10 05:11:22:01 00:01:52:14 00:01:52:21 
* FROM CLIP NAME:  REEL 5.NEW.08
061  005      V     C        05:11:21:22 05:11:22:07 00:01:52:21 00:01:53:06 
* SLOMO
064  005      V     C        05:11:25:07 05:11:26:11 00:01:54:04 00:01:55:08 
* FROM CLIP NAME:  REEL 5.NEW.09
065  005      V     C        05:17:06:18 05:17:07:23 00:01:55:08 00:01:56:13 
* FROM CLIP NAME:  REEL 5.NEW.14
066  007      V     C        07:07:44:12 07:07:44:23 00:01:56:13 00:01:57:00 
* FROM CLIP NAME:  REEL 7.NEW.16
067  007      V     C        07:07:29:23 07:07:31:03 00:01:57:00 00:01:58:04 
* FROM CLIP NAME:  REEL 7.NEW.14
068  005      V     C        05:18:23:14 05:18:24:09 00:01:58:04 00:01:58:23 
* FROM CLIP NAME:  REEL 5.NEW.16
069  005      V     C        05:14:18:02 05:14:19:06 00:01:58:23 00:02:00:03 
* FROM CLIP NAME:  REEL 5.NEW.10
070  005      V     C        05:15:20:17 05:15:21:17 00:02:00:03 00:02:01:03 
* FROM CLIP NAME:  REEL 5.NEW.11
071  005      V     C        05:15:23:19 05:15:25:05 00:02:01:03 00:02:02:13 
* FROM CLIP NAME:  REEL 5.NEW.12
072  005      V     C        05:15:28:08 05:15:28:22 00:02:02:13 00:02:03:03 
* FROM CLIP NAME:  REEL 5.NEW.13
073  007      V     C        07:05:39:02 07:05:40:13 00:02:03:03 00:02:04:14 
* FROM CLIP NAME:  REEL 7.NEW.07
074  007      V     C        07:06:38:20 07:06:39:12 00:02:04:14 00:02:05:06 
* FROM CLIP NAME:  REEL 7.NEW.11
075  007      V     C        07:07:47:01 07:07:47:21 00:02:05:06 00:02:06:02 
* FROM CLIP NAME:  REEL 7.NEW.16
076  005      V     C        05:18:28:11 05:18:29:21 00:02:06:02 00:02:07:12 
* FROM CLIP NAME:  REEL 5.NEW.17
077  007      V     C        07:04:42:20 07:04:43:14 00:02:07:12 00:02:08:06 
* FROM CLIP NAME:  REEL 7.NEW.04
078  005      V     C        05:17:18:12 05:17:19:12 00:02:08:06 00:02:09:06 
* FROM CLIP NAME:  REEL 5.NEW.15
079  005      V     C        05:17:20:08 05:17:21:01 00:02:09:06 00:02:09:23 
* FROM CLIP NAME:  REEL 5.NEW.15
081   BL      V     C        00:00:00:00 00:00:00:00 00:02:11:09 00:02:11:09 
081  004      V     D    020 04:15:35:18 04:15:37:08 00:02:11:09 00:02:12:23 
* TO CLIP NAME:  REEL 4.NEW.05
082  005      V     C        05:07:52:05 05:07:55:03 00:02:12:23 00:02:15:21 
* FROM CLIP NAME:  REEL 5.NEW.03
083  005      V     C        05:07:55:03 05:07:55:03 00:02:15:21 00:02:15:21 
083  5B       V     D    010 05:19:47:23 05:19:49:01 00:02:15:21 00:02:16:23 
* FROM CLIP NAME:  REEL 5.NEW.03
* TO CLIP NAME:  REEL 5.NEW.18
084  5B       V     C        05:19:49:01 05:19:49:01 00:02:16:23 00:02:16:23 
084  005      V     D    010 05:09:48:10 05:09:51:20 00:02:16:23 00:02:20:09 
* FROM CLIP NAME:  REEL 5.NEW.18
* TO CLIP NAME:  REEL 5.NEW.04
085  005      V     C        05:09:51:20 05:09:51:20 00:02:20:09 00:02:20:09 
085  007      V     D    010 07:03:00:19 07:03:02:21 00:02:20:09 00:02:22:11 
* FROM CLIP NAME:  ONLINE 4 CONVENTION CLIP
* TO CLIP NAME:  REEL 7.NEW.03
086  007      V     C        07:03:02:21 07:03:02:21 00:02:22:11 00:02:22:11 
086  001      V     D    010 01:02:33:21 01:02:35:08 00:02:22:11 00:02:23:22 
* FROM CLIP NAME:  REEL 7.NEW.03
* TO CLIP NAME:  REEL 1.NEW.02
087  007      V     C        07:07:48:21 07:07:49:07 00:02:24:01 00:02:24:11 
* FROM CLIP NAME:  REEL 7.NEW.16
088  007      V     C        07:07:49:02 07:07:49:11 00:02:24:11 00:02:24:20 
* FROM CLIP NAME:  REEL 7.NEW.16
090  007      V     C        07:07:43:23 07:07:45:06 00:02:26:21 00:02:28:04 
* FROM CLIP NAME:  REEL 7.NEW.16
091  001      V     C        01:02:30:07 01:02:31:10 00:02:29:13 00:02:30:16 
* FROM CLIP NAME:  REEL 1.NEW.02
092  007      V     C        07:06:59:12 07:06:59:19 00:02:30:16 00:02:30:23 
* FROM CLIP NAME:  REEL 7.NEW.13
093  007      V     C        07:07:00:00 07:07:00:11 00:02:30:23 00:02:31:10 
* FROM CLIP NAME:  REEL 7.NEW.13
094  007      V     C        07:06:49:17 07:06:51:04 00:02:32:23 00:02:34:10 
* FROM CLIP NAME:  REEL 7.NEW.12
100   BL      V     C        00:00:00:00 00:00:00:00 00:02:36:20 00:02:36:20 
100  007      V     D    012 07:07:27:01 07:07:27:19 00:02:36:20 00:02:37:14 
* TO CLIP NAME:  REEL 7.NEW.14
101  007      V     C        07:07:27:19 07:07:27:19 00:02:37:14 00:02:37:14 
101   AX      V     D    015 01:00:00:00 01:00:00:15 00:02:37:14 00:02:38:04 
* FROM CLIP NAME:  REEL 7.NEW.14
102   AX      V     C        01:00:00:00 01:00:00:00 00:02:38:04 00:02:38:04 
102  007      V     D    015 07:07:29:06 07:07:30:03 00:02:38:04 00:02:39:01 
* FROM CLIP NAME:  REEL 7.NEW.14
* TO CLIP NAME:  REEL 7.NEW.14
103  007      V     C        07:07:30:03 07:07:30:03 00:02:39:01 00:02:39:01 
103   AX      V     D    010 01:00:00:00 01:00:00:10 00:02:39:01 00:02:39:11 
* FROM CLIP NAME:  REEL 7.NEW.14
104   AX      V     C        01:00:00:00 01:00:00:00 00:02:39:11 00:02:39:11 
104  006      V     D    010 06:00:52:15 06:00:53:15 00:02:39:11 00:02:40:11 
* FROM CLIP NAME:  REEL 6.NEW.02
* TO CLIP NAME:  REEL 6.NEW.02
105  006      V     C        06:00:53:15 06:00:53:15 00:02:40:11 00:02:40:11 
105   AX      V     D    010 01:00:00:00 01:00:00:10 00:02:40:11 00:02:40:21 
* FROM CLIP NAME:  REEL 6.NEW.02
106   AX      V     C        01:00:00:00 01:00:00:00 00:02:40:21 00:02:40:21 
106  006      V     D    010 06:01:16:08 06:01:17:00 00:02:40:21 00:02:41:20 
* SLOMO  
* FROM CLIP NAME:  REEL 6.NEW.03
* TO CLIP NAME:  REEL 6.NEW.03
107  006      V     C        06:01:17:00 06:01:17:00 00:02:41:20 00:02:41:20 
107   AX      V     D    008 01:00:00:00 01:00:00:08 00:02:41:20 00:02:42:03 
* SLOMO     
* FROM CLIP NAME:  REEL 6.NEW.03
108   AX      V     C        01:00:00:00 01:00:00:00 00:02:42:03 00:02:42:03 
108  007      V     D    008 07:08:53:15 07:08:54:20 00:02:42:03 00:02:43:08 
* FROM CLIP NAME:  REEL 7.NEW.19
* TO CLIP NAME:  REEL 7.NEW.19
109  007      V     C        07:08:54:20 07:08:54:20 00:02:43:08 00:02:43:08 
109   AX      V     D    006 01:00:00:00 01:00:00:06 00:02:43:08 00:02:43:14 
* FROM CLIP NAME:  REEL 7.NEW.19
110   AX      V     C        01:00:00:00 01:00:00:00 00:02:43:14 00:02:43:14 
110  002      V     D    006 02:11:28:02 02:11:29:01 00:02:43:14 00:02:44:13 
* FROM CLIP NAME:  REEL 2.NEW.06
* TO CLIP NAME:  REEL 2.NEW.06
111  002      V     C        02:11:29:01 02:11:29:01 00:02:44:13 00:02:44:13 
111   AX      V     D    010 01:00:00:00 01:00:00:10 00:02:44:13 00:02:44:23 
* FROM CLIP NAME:  REEL 2.NEW.06
112   AX      V     C        01:00:00:00 01:00:00:00 00:02:44:23 00:02:44:23 
112  002      V     D    010 02:11:15:05 02:11:16:09 00:02:44:23 00:02:46:03 
* FROM CLIP NAME:  REEL 2.NEW.05
* TO CLIP NAME:  REEL 2.NEW.05
113  002      V     C        02:11:33:15 02:11:34:05 00:02:46:03 00:02:46:17 
* FROM CLIP NAME:  REEL 2.NEW.07
114  002      V     C        02:11:34:05 02:11:34:05 00:02:46:17 00:02:46:17 
114  007      V     D    004 07:07:59:04 07:07:59:08 00:02:46:17 00:02:46:21 
* FROM CLIP NAME:  REEL 2.NEW.07
* TO CLIP NAME:  REEL 7.NEW.17
115  007      V     C        07:07:59:08 07:07:59:13 00:02:46:21 00:02:47:02 
* FROM CLIP NAME:  REEL 7.NEW.17
116  001      V     C        01:15:23:11 01:15:23:13 00:02:47:02 00:02:47:04 
* FROM CLIP NAME:  REEL 1.NEW.07
117  001      V     C        01:16:44:00 01:16:44:02 00:02:47:04 00:02:47:06 
* FROM CLIP NAME:  REEL 1.NEW.12
118  006      V     C        06:09:29:00 06:09:29:02 00:02:47:06 00:02:47:08 
* FROM CLIP NAME:  REEL 6.NEW.10
119  006      V     C        06:01:16:12 06:01:16:14 00:02:47:08 00:02:47:10 
* FROM CLIP NAME:  REEL 6.NEW.03
122  004      V     C        04:09:17:22 04:09:18:00 00:02:47:14 00:02:47:16 
* FROM CLIP NAME:  REEL 4.NEW.04
124  007      V     C        07:02:25:14 07:02:25:16 00:02:47:18 00:02:47:20 
* FROM CLIP NAME:  REEL 7.NEW.01
125  007      V     C        07:08:53:01 07:08:53:03 00:02:47:20 00:02:47:22 
* FROM CLIP NAME:  REEL 7.NEW.19
126  002      V     C        02:09:55:21 02:09:55:22 00:02:47:22 00:02:47:23 
* FROM CLIP NAME:  REEL 2.NEW.04
127  002      V     C        02:09:32:19 02:09:32:21 00:02:47:23 00:02:48:01 
* FROM CLIP NAME:  REEL 2.NEW.03
128  002      V     C        02:09:54:15 02:09:54:17 00:02:48:01 00:02:48:03 
* FROM CLIP NAME:  REEL 2.NEW.04
129  007      V     C        07:09:38:07 07:09:38:09 00:02:48:03 00:02:48:05 
* FROM CLIP NAME:  REEL 7.NEW.20
130  006      V     C        06:04:53:07 06:04:54:04 00:02:48:05 00:02:49:02 
* FROM CLIP NAME:  REEL 6.NEW.06
131  006      V     C        06:04:58:21 06:04:59:12 00:02:49:02 00:02:49:17 
* FROM CLIP NAME:  REEL 6.NEW.07
132  002      V     C        02:11:42:17 02:11:43:11 00:02:49:17 00:02:50:11 
* FROM CLIP NAME:  REEL 2.NEW.08
133  007      V     C        07:08:13:11 07:08:13:21 00:02:50:11 00:02:50:21 
* FROM CLIP NAME:  REEL 7.NEW.18
134  007      V     C        07:05:20:08 07:05:20:15 00:02:50:21 00:02:51:04 
* FROM CLIP NAME:  REEL 7.NEW.05
135  007      V     C        07:05:58:10 07:05:58:20 00:02:51:04 00:02:51:14 
* FROM CLIP NAME:  REEL 7.NEW.09
136  007      V     C        07:06:07:01 07:06:07:08 00:02:53:23 00:02:54:06 
* FROM CLIP NAME:  REEL 7.NEW.10
137  007      V     C        07:06:05:15 07:06:06:02 00:02:54:06 00:02:54:17 
* FROM CLIP NAME:  REEL 7.NEW.10
138  007      V     C        07:06:06:02 07:06:06:02 00:02:54:17 00:02:54:17 
138  006      V     D    012 06:09:24:20 06:09:26:04 00:02:54:17 00:02:56:01 
* FROM CLIP NAME:  REEL 7.NEW.10
* TO CLIP NAME:  REEL 6.NEW.09
139  006      V     C        06:09:31:09 06:09:31:17 00:02:56:01 00:02:56:09 
* FROM CLIP NAME:  REEL 6.NEW.10
140  006      V     C        06:09:34:22 06:09:35:16 00:02:56:09 00:02:57:03 
* FROM CLIP NAME:  REEL 6.NEW.11
141  006      V     C        06:09:37:07 06:09:38:12 00:02:57:03 00:02:58:08 
* FROM CLIP NAME:  REEL 6.NEW.11
143  006      V     C        06:10:13:13 06:10:19:05 00:03:03:05 00:03:08:21 
* FROM CLIP NAME:  REEL 6.NEW.12
